<?xml version="1.0" encoding="utf-8"?>
<!-- Generator: Adobe Illustrator 27.9.1, SVG Export Plug-In . SVG Version: 6.00 Build 0)  -->
<svg version="1.1" id="Layer_1" xmlns="http://www.w3.org/2000/svg" xmlns:xlink="http://www.w3.org/1999/xlink" x="0px" y="0px"
	 viewBox="0 0 382 136" style="enable-background:new 0 0 382 136;" xml:space="preserve">
<style type="text/css">
	.st0{fill:#269401;}
</style>
<g>
	<path class="st0" d="M291.49,12.76c-0.34-0.48-0.76-0.89-1.31-1.24c-0.07-0.14-0.21-0.28-0.34-0.34l-5.23-5.3
		c-0.89-1.24-2.41-2.06-3.99-2.06h-23.4c-2.54,0-4.55,1.82-4.84,4.27l-2.17-2.2c-0.89-1.24-2.41-2.06-3.99-2.06h-23.4
		c-2.75,0-4.89,2.13-4.89,4.89v2h-2c-0.68,0-1.32,0.13-1.9,0.37l-5.12-5.19c-0.89-1.24-2.41-2.06-3.99-2.06h-9.63
		c-2.55,0-4.54,1.79-4.82,4.27l-2.2-2.2c-0.89-1.24-2.41-2.06-3.99-2.06h-9.63c-2.54,0-4.55,1.82-4.84,4.27l-2.17-2.2
		c-0.91-1.28-2.42-2.11-4-2.11h-37.16c-2.75,0-4.89,2.13-4.89,4.89v4.2l-0.14-0.14c-0.34-0.48-0.76-0.89-1.31-1.24
		c-0.07-0.14-0.21-0.28-0.34-0.34l-5.23-5.3c-0.89-1.24-2.41-2.07-3.99-2.07H94.07c-2.75,0-4.89,2.13-4.89,4.89v2h-2
		c-2.75-0.01-4.88,2.13-4.88,4.88v30.28c0,1.58,0.76,3.03,2,3.92l5.3,5.3c0.14,0.07,0.28,0.21,0.41,0.34
		c0.28,0.48,0.76,0.96,1.24,1.31l5.3,5.23c0.83,0.89,2,1.45,3.37,1.45h16.52c2.55,0,4.82-2.27,4.82-4.82v-2.13h2.06
		c2.61,0,4.82-2.13,4.82-4.75V26.74l0.83,0.82c0.83,0.89,2,1.45,3.37,1.45h3.03v23.73c0,1.58,0.83,3.1,2.06,3.99l5.3,5.23
		c0.83,0.89,2,1.45,3.37,1.45h9.63c1.31,0,2.55-0.55,3.37-1.45c0.89-0.83,1.44-2.06,1.44-3.37V29h8.95c0.09,0,0.18-0.01,0.28-0.02
		v23.76c0,1.58,0.83,3.1,2.06,3.99l5.3,5.23c0.83,0.89,2,1.45,3.37,1.45h9.63c2.41,0,4.47-1.93,4.75-4.27l2.89,2.82
		c0.83,0.89,2,1.45,3.37,1.45h9.63c2.55,0,4.82-2.27,4.82-4.82v-6.26l2.75,2.75c0.14,0.07,0.28,0.21,0.41,0.34
		c0.28,0.48,0.76,0.96,1.24,1.31l5.3,5.23c0.83,0.89,2,1.45,3.37,1.45h23.4c2.36,0,4.48-1.95,4.78-4.27l2.86,2.82
		c0.83,0.89,2,1.45,3.37,1.45h9.63c2.41,0,4.47-1.93,4.75-4.27l2.89,2.82c0.83,0.89,2,1.45,3.37,1.45h9.63
		c2.55,0,4.82-2.27,4.82-4.82v-9.7c0-1.31-0.55-2.48-1.38-3.3l-2.89-2.89c2.34-0.28,4.27-2.34,4.27-4.75V21.43
		c0-1.38-0.55-2.55-1.45-3.37L291.49,12.76z M122.11,48.75c0,1.1-0.96,2-2.06,2h-2.82c-1.1,0-2,0.96-2,2.06v2.82
		c0,1.1-0.96,2.06-2.06,2.06H96.65c-1.17,0-2.06-0.96-2.06-2.06v-2.82c0-1.1-0.96-2.06-2.06-2.06h-2.75c-1.17,0-2.06-0.89-2.06-2
		V18.47c0-1.17,0.89-2.06,2.06-2.06h2.75c1.1,0,2.06-0.96,2.06-2.06V11.6c0-1.17,0.89-2.06,2.06-2.06h16.52
		c1.1,0,2.06,0.89,2.06,2.06v2.75c0,1.1,0.89,2.06,2,2.06h2.82c1.1,0,2.06,0.89,2.06,2.06C122.11,18.47,122.11,48.75,122.11,48.75z
		 M168.28,21.22c0,1.1-0.96,2.06-2.06,2.06h-9.63c-1.17,0-2.06,0.89-2.06,2.06v30.28c0,1.1-0.89,2.06-2.06,2.06h-9.63
		c-1.17,0-2.06-0.96-2.06-2.06V25.35c0-1.17-0.89-2.06-2.06-2.06h-9.63c-1.17,0-2.06-0.96-2.06-2.06V11.6
		c0-1.17,0.89-2.06,2.06-2.06h37.16c1.1,0,2.06,0.89,2.06,2.06v9.62H168.28z M209.57,55.63c0,1.1-0.96,2.06-2.06,2.06h-9.63
		c-1.17,0-2.06-0.96-2.06-2.06V39.04c0-1.1-0.89-2-2.06-2h-2.75c-1.17,0-2.06,0.89-2.06,2v16.58c0,1.1-0.96,2.06-2.06,2.06h-9.63
		c-1.17,0-2.06-0.96-2.06-2.06V11.59c0-1.17,0.89-2.06,2.06-2.06h9.63c1.1,0,2.06,0.89,2.06,2.06v16.52c0,1.1,0.89,2.06,2.06,2.06
		h2.75c1.17,0,2.06-0.96,2.06-2.06V11.59c0-1.17,0.89-2.06,2.06-2.06h9.63c1.1,0,2.06,0.89,2.06,2.06V55.63z M250.86,55.63
		c0,1.1-0.96,2.06-2.06,2.06h-23.4c-1.17,0-2.06-0.96-2.06-2.06v-2.82c0-1.1-0.96-2.06-2.06-2.06h-2.75c-1.17,0-2.06-0.89-2.06-2
		V18.47c0-1.17,0.89-2.06,2.06-2.06h2.75c1.1,0,2.06-0.96,2.06-2.06V11.6c0-1.17,0.89-2.06,2.06-2.06h23.4
		c1.1,0,2.06,0.89,2.06,2.06v9.63c0,1.1-0.96,2.06-2.06,2.06h-16.52c-1.17,0-2.06,0.89-2.06,2.06v2.75c0,1.1,0.89,2.06,2.06,2.06
		h9.63c1.1,0,2.06,0.89,2.06,2v2.82c0,1.1-0.96,2.06-2.06,2.06h-9.63c-1.17,0-2.06,0.89-2.06,2v2.82c0,1.1,0.89,2.06,2.06,2.06
		h16.52c1.1,0,2.06,0.89,2.06,2V55.63z M252.34,42.41l-2.13-2.13c-0.14-0.21-0.34-0.41-0.55-0.62c0.21-0.55,0.34-1.1,0.34-1.72
		v-2.82c0-1.31-0.55-2.48-1.38-3.3L245.8,29h6.26c0.09,0,0.18-0.01,0.28-0.02L252.34,42.41L252.34,42.41z M292.14,34.98
		c0,1.1-0.96,2.06-2.06,2.06h-11.7v4.82c0,1.1,0.89,2.06,2.06,2.06h9.63c1.1,0,2.06,0.89,2.06,2v9.7c0,1.1-0.96,2.06-2.06,2.06
		h-9.63c-1.17,0-2.06-0.96-2.06-2.06V52.8c0-1.1-0.89-2.06-2.06-2.06h-2.75c-1.17,0-2.06,0.96-2.06,2.06v2.82
		c0,1.1-0.96,2.06-2.06,2.06h-9.63c-1.17,0-2.06-0.96-2.06-2.06V11.59c0-1.17,0.89-2.06,2.06-2.06h23.4c1.1,0,2.06,0.89,2.06,2.06
		v2.75c0,1.1,0.89,2.06,2,2.06h2.82c1.1,0,2.06,0.89,2.06,2.06v16.52H292.14z"/>
	<path class="st0" d="M106.28,23.29h-2.75c-1.17,0-2.06,0.89-2.06,2.06v16.51c0,1.1,0.89,2.06,2.06,2.06h2.75
		c1.17,0,2.06-0.96,2.06-2.06V25.35C108.35,24.18,107.45,23.29,106.28,23.29z"/>
	<path class="st0" d="M276.32,23.29h-2.75c-1.17,0-2.06,0.89-2.06,2.06v9.63c0,1.1,0.89,2.06,2.06,2.06h4.82v-11.7
		C278.38,24.18,277.49,23.29,276.32,23.29z"/>
</g>
<g>
	<path class="st0" d="M67.39,94.65h-2.75c-1.17,0-2.06,0.89-2.06,2.06v9.63c0,1.1,0.89,2.06,2.06,2.06h4.82V96.7
		C69.46,95.54,68.56,94.65,67.39,94.65z"/>
	<path class="st0" d="M378.46,95.54v-9.63c0-1.38-0.55-2.55-1.44-3.37l-5.23-5.3c-0.89-1.24-2.41-2.06-3.99-2.06h-23.4
		c-2.75,0-4.89,2.13-4.89,4.89v2h-2c-2.53,0-4.54,1.81-4.84,4.24l-2.25-2.25c-0.34-0.48-0.76-0.89-1.24-1.17
		c-0.14-0.14-0.21-0.28-0.34-0.41l-5.3-5.3c-0.89-1.24-2.34-2-3.99-2h-16.51c-2.75,0-4.89,2.13-4.89,4.89v2h-2
		c-0.68,0-1.32,0.13-1.9,0.37l-5.25-5.25c-0.89-1.24-2.34-2-3.92-2h-9.7c-2.68,0-4.82,2.13-4.82,4.89v6.19l-2.13-2.13
		c-0.34-0.48-0.76-0.89-1.31-1.24c-0.07-0.14-0.21-0.28-0.34-0.34l-5.23-5.3c-0.89-1.24-2.41-2.06-3.99-2.06h-9.63
		c-2.75,0-4.89,2.13-4.89,4.89v6.22l-2.13-2.16c-0.34-0.41-0.76-0.83-1.17-1.17c-0.14-0.14-0.28-0.34-0.41-0.48l-5.3-5.3
		c-0.89-1.24-2.34-2-3.99-2h-16.52c-2.75,0-4.89,2.13-4.89,4.89v2h-2c-2.75,0-4.89,2.13-4.89,4.89v26.84l-2.13-2.13
		c-0.89-1.24-2.41-2.06-3.99-2.06h-3.1V85.91c0-1.38-0.55-2.55-1.45-3.37l-5.23-5.3c-0.89-1.24-2.41-2.06-3.99-2.06h-9.63
		c-2.56,0-4.59,1.85-4.85,4.33l-2.23-2.26c-0.89-1.24-2.41-2.06-3.99-2.06h-23.4c-2.75,0-4.89,2.13-4.89,4.89v2h-2
		c-0.68,0-1.32,0.13-1.9,0.37l-5.12-5.18c-0.89-1.24-2.41-2.06-3.99-2.06h-23.4c-2.75,0-4.89,2.13-4.89,4.89v2h-2
		c-2.54,0-4.55,1.82-4.84,4.27l-2.17-2.2c-0.34-0.48-0.76-0.89-1.31-1.24c-0.07-0.14-0.21-0.28-0.34-0.34l-5.23-5.3
		c-0.89-1.24-2.41-2.06-3.99-2.06h-23.4c-2.53,0-4.54,1.81-4.84,4.24l-2.25-2.25c-0.89-1.24-2.34-2-3.99-2h-23.4
		c-2.75,0-4.89,2.13-4.89,4.89v2h-2c-2.75,0-4.89,2.13-4.89,4.89v37.1c0,1.58,0.83,3.1,2.06,3.99l5.3,5.23
		c0.83,0.89,2,1.45,3.37,1.45h9.63c1.31,0,2.55-0.55,3.37-1.45c0.89-0.83,1.45-2.06,1.45-3.37v-15.83h8.95
		c1.31,0,2.55-0.55,3.37-1.44c0.89-0.83,1.44-2.06,1.44-3.37v-2.82c0-1.31-0.55-2.48-1.38-3.37l-2.75-2.75h6.19
		c0.12,0,0.23-0.01,0.34-0.02v23.75c0,1.58,0.83,3.1,2.06,3.99l5.3,5.23c0.83,0.89,2,1.45,3.37,1.45h9.63
		c2.41,0,4.47-1.93,4.75-4.27l2.89,2.82c0.83,0.89,2,1.45,3.37,1.45h9.63c2.55,0,4.82-2.27,4.82-4.82v-6.26l2.75,2.75
		c0.14,0.07,0.28,0.21,0.41,0.34c0.28,0.48,0.76,0.96,1.24,1.31l5.3,5.23c0.83,0.89,2,1.45,3.37,1.45h23.4
		c2.55,0,4.82-2.27,4.82-4.82v-6.26l2.75,2.75c0.14,0.07,0.28,0.21,0.41,0.34c0.28,0.48,0.76,0.96,1.24,1.31l5.3,5.23
		c0.83,0.89,2,1.45,3.37,1.45h23.4c2.38,0,4.52-1.99,4.79-4.33l2.92,2.88c0.83,0.89,2,1.45,3.37,1.45h23.4
		c2.36,0,4.48-1.95,4.78-4.27l2.86,2.82c0.83,0.89,2,1.45,3.37,1.45h9.63c2.41,0,4.47-1.93,4.75-4.27l2.89,2.82
		c0.83,0.89,2,1.45,3.37,1.45h9.63c2.36,0,4.48-1.95,4.78-4.27l2.86,2.82c0.83,0.89,2,1.45,3.37,1.45h9.63
		c2.55,0,4.82-2.27,4.82-4.82V116.8l2.34,2.34v4.95c0,1.58,0.83,3.1,2.06,3.99l5.3,5.3c0.83,0.83,2,1.38,3.3,1.38h9.7
		c2.62,0,4.75-2.2,4.75-4.82v-6.4l2.89,2.89c0.14,0.07,0.28,0.21,0.41,0.34c0.28,0.48,0.76,0.96,1.24,1.31l5.3,5.23
		c0.83,0.89,2,1.45,3.37,1.45h16.52c1.31,0,2.55-0.55,3.37-1.45c0.89-0.83,1.45-2.06,1.45-3.37v-2.13h2.06
		c1.38,0,2.55-0.55,3.44-1.38c0.71-0.77,1.22-1.75,1.35-2.85l2.85,2.85c0.14,0.07,0.28,0.21,0.41,0.34
		c0.28,0.48,0.76,0.96,1.24,1.31l5.3,5.23c0.83,0.89,2,1.45,3.37,1.45h23.4c2.55,0,4.82-2.27,4.82-4.82v-9.7
		c0-1.31-0.55-2.48-1.38-3.3l-5.3-5.3c-0.14-0.21-0.34-0.41-0.55-0.62c0.21-0.55,0.34-1.1,0.34-1.72v-2.82
		c0-1.31-0.55-2.48-1.38-3.3l-2.82-2.82h6.26C376.18,100.36,378.46,98.09,378.46,95.54z M41.86,92.58c0,1.1-0.89,2.06-2.06,2.06
		H23.28c-1.17,0-2.06,0.89-2.06,2.06v2.75c0,1.1,0.89,2.06,2.06,2.06h9.63c1.17,0,2.06,0.89,2.06,2v2.82c0,1.1-0.89,2.06-2.06,2.06
		h-9.63c-1.17,0-2.06,0.89-2.06,2v16.58c0,1.1-0.89,2.06-2.06,2.06H9.53c-1.17,0-2.06-0.96-2.06-2.06V89.83
		c0-1.17,0.89-2.06,2.06-2.06h2.75c1.17,0,2.06-0.96,2.06-2.06v-2.75c0-1.17,0.89-2.06,2.06-2.06h23.4c1.17,0,2.06,0.89,2.06,2.06
		L41.86,92.58L41.86,92.58z M83.22,106.34c0,1.1-0.96,2.06-2.06,2.06h-11.7v4.82c0,1.1,0.89,2.06,2.06,2.06h9.63
		c1.1,0,2.06,0.89,2.06,2v9.7c0,1.1-0.96,2.06-2.06,2.06h-9.63c-1.17,0-2.06-0.96-2.06-2.06v-2.82c0-1.1-0.89-2.06-2.06-2.06h-2.75
		c-1.17,0-2.06,0.96-2.06,2.06v2.82c0,1.1-0.96,2.06-2.06,2.06H50.9c-1.17,0-2.06-0.96-2.06-2.06V82.95c0-1.17,0.89-2.06,2.06-2.06
		h23.4c1.1,0,2.06,0.89,2.06,2.06v2.75c0,1.1,0.89,2.06,2,2.06h2.82c1.1,0,2.06,0.89,2.06,2.06v16.52H83.22z M124.51,126.99
		c0,1.1-0.96,2.06-2.06,2.06h-23.4c-1.17,0-2.06-0.96-2.06-2.06v-2.82c0-1.1-0.96-2.06-2.06-2.06h-2.75c-1.17,0-2.06-0.89-2.06-2
		V89.83c0-1.17,0.89-2.06,2.06-2.06h2.75c1.1,0,2.06-0.96,2.06-2.06v-2.75c0-1.17,0.89-2.06,2.06-2.06h23.4
		c1.1,0,2.06,0.89,2.06,2.06v9.63c0,1.1-0.96,2.06-2.06,2.06h-16.52c-1.17,0-2.06,0.89-2.06,2.06v2.75c0,1.1,0.89,2.06,2.06,2.06
		h9.63c1.1,0,2.06,0.89,2.06,2v2.82c0,1.1-0.96,2.06-2.06,2.06h-9.63c-1.17,0-2.06,0.89-2.06,2v2.82c0,1.1,0.89,2.06,2.06,2.06
		h16.52c1.1,0,2.06,0.89,2.06,2V126.99z M125.99,113.77l-2.13-2.13c-0.14-0.21-0.34-0.41-0.55-0.62c0.21-0.55,0.34-1.1,0.34-1.72
		v-2.82c0-1.31-0.55-2.48-1.38-3.3l-2.82-2.82h6.26c0.09,0,0.18-0.01,0.28-0.02V113.77z M165.79,126.99c0,1.1-0.96,2.06-2.06,2.06
		h-23.4c-1.17,0-2.06-0.96-2.06-2.06v-2.82c0-1.1-0.96-2.06-2.06-2.06h-2.75c-1.17,0-2.06-0.89-2.06-2V89.83
		c0-1.17,0.89-2.06,2.06-2.06h2.75c1.1,0,2.06-0.96,2.06-2.06v-2.75c0-1.17,0.89-2.06,2.06-2.06h23.4c1.1,0,2.06,0.89,2.06,2.06
		v9.63c0,1.1-0.96,2.06-2.06,2.06h-16.51c-1.17,0-2.06,0.89-2.06,2.06v2.75c0,1.1,0.89,2.06,2.06,2.06h9.63c1.1,0,2.06,0.89,2.06,2
		v2.82c0,1.1-0.96,2.06-2.06,2.06h-9.63c-1.17,0-2.06,0.89-2.06,2v2.82c0,1.1,0.89,2.06,2.06,2.06h16.51c1.1,0,2.06,0.89,2.06,2
		V126.99z M167.34,113.84l-2.2-2.2c-0.14-0.21-0.34-0.41-0.55-0.62c0.21-0.55,0.34-1.1,0.34-1.72v-2.82c0-1.31-0.55-2.48-1.38-3.3
		l-2.82-2.82h6.26c0.12,0,0.23-0.01,0.34-0.02v13.5H167.34z M200.27,126.99c0,1.1-0.96,2.06-2.06,2.06h-23.4
		c-1.17,0-2.06-0.96-2.06-2.06V82.95c0-1.17,0.89-2.06,2.06-2.06h9.63c1.1,0,2.06,0.89,2.06,2.06v30.28c0,1.1,0.89,2.06,2.06,2.06
		h9.63c1.1,0,2.06,0.89,2.06,2v9.7H200.27z M241.56,126.99c0,1.1-0.96,2.06-2.06,2.06h-9.63c-1.17,0-2.06-0.96-2.06-2.06v-9.7
		c0-1.1-0.89-2-2.06-2H223c-1.17,0-2.06,0.89-2.06,2v9.7c0,1.1-0.96,2.06-2.06,2.06h-9.63c-1.17,0-2.06-0.96-2.06-2.06V89.83
		c0-1.17,0.89-2.06,2.06-2.06H212c1.17,0,2.06-0.96,2.06-2.06v-2.75c0-1.17,0.89-2.06,2.06-2.06h16.52c1.17,0,2.06,0.89,2.06,2.06
		v2.75c0,1.1,0.89,2.06,2.06,2.06h2.75c1.1,0,2.06,0.89,2.06,2.06L241.56,126.99L241.56,126.99z M289.66,126.99
		c0,1.1-0.89,2.06-2,2.06h-9.7c-1.1,0-2-0.96-2-2.06v-9.7c0-1.1-0.96-2-2.06-2h-2.82c-1.1,0-2-0.96-2-2.06v-2.83
		c0-1.1-0.96-2-2.06-2h-2.75c-1.17,0-2.06,0.89-2.06,2v16.58c0,1.1-0.96,2.06-2.06,2.06h-9.63c-1.17,0-2.06-0.96-2.06-2.06V82.95
		c0-1.17,0.89-2.06,2.06-2.06h9.63c1.1,0,2.06,0.89,2.06,2.06v2.75c0,1.1,0.89,2.06,2.06,2.06h2.75c1.1,0,2.06,0.89,2.06,2.06v2.75
		c0,1.1,0.89,2.06,2,2.06h2.82c1.1,0,2.06-0.96,2.06-2.06v-9.63c0-1.17,0.89-2.06,2-2.06h9.7c1.1,0,2,0.89,2,2.06V126.99z
		 M331.08,99.46c0,1.1-0.89,2.06-2.06,2.06h-2.75c-1.17,0-2.06-0.96-2.06-2.06v-2.75c0-1.17-0.89-2.06-2.06-2.06h-9.63
		c-1.17,0-2.06,0.89-2.06,2.06v16.51c0,1.1,0.89,2.06,2.06,2.06h9.63c1.17,0,2.06-0.96,2.06-2.06v-2.82c0-1.1,0.89-2,2.06-2h2.75
		c1.17,0,2.06,0.89,2.06,2v9.7c0,1.1-0.89,2-2.06,2h-2.75c-1.17,0-2.06,0.96-2.06,2.06v2.82c0,1.1-0.89,2.06-2.06,2.06h-16.52
		c-1.17,0-2.06-0.96-2.06-2.06v-2.82c0-1.1-0.89-2.06-2.06-2.06h-2.75c-1.17,0-2.06-0.89-2.06-2V89.83c0-1.17,0.89-2.06,2.06-2.06
		h2.75c1.17,0,2.06-0.96,2.06-2.06v-2.75c0-1.17,0.89-2.06,2.06-2.06h16.52c1.17,0,2.06,0.89,2.06,2.06v2.75
		c0,1.1,0.89,2.06,2.06,2.06h2.75c1.17,0,2.06,0.89,2.06,2.06V99.46z M372.43,92.58c0,1.1-0.96,2.06-2.06,2.06h-16.52
		c-1.17,0-2.06,0.89-2.06,2.06v2.75c0,1.1,0.89,2.06,2.06,2.06h9.63c1.1,0,2.06,0.89,2.06,2v2.82c0,1.1-0.96,2.06-2.06,2.06h-9.63
		c-1.17,0-2.06,0.89-2.06,2v2.82c0,1.1,0.89,2.06,2.06,2.06h16.52c1.1,0,2.06,0.89,2.06,2v9.7c0,1.1-0.96,2.06-2.06,2.06h-23.4
		c-1.17,0-2.06-0.96-2.06-2.06v-2.82c0-1.1-0.96-2.06-2.06-2.06h-2.75c-1.17,0-2.06-0.89-2.06-2V89.83c0-1.17,0.89-2.06,2.06-2.06
		h2.75c1.1,0,2.06-0.96,2.06-2.06v-2.75c0-1.17,0.89-2.06,2.06-2.06h23.4c1.1,0,2.06,0.89,2.06,2.06L372.43,92.58L372.43,92.58z"/>
	<path class="st0" d="M225.73,94.65h-2.75c-1.17,0-2.06,0.89-2.06,2.06v9.63c0,1.1,0.89,2.06,2.06,2.06h2.75
		c1.17,0,2.06-0.96,2.06-2.06v-9.63C227.8,95.54,226.9,94.65,225.73,94.65z"/>
</g>
</svg>
