<?xml version="1.0" encoding="UTF-8"?>
<svg id="Layer_1" xmlns="http://www.w3.org/2000/svg" xmlns:xlink="http://www.w3.org/1999/xlink" version="1.1" viewBox="0 0 397.6 307.4">
  <!-- Generator: Adobe Illustrator 29.3.1, SVG Export Plug-In . SVG Version: 2.1.0 Build 151)  -->
  <defs>
    <style>
      .st0 {
        fill: #62ba46;
      }
    </style>
  </defs>
  <g>
    <path class="st0" d="M114.7,61.5v2.5c0,1.6-.1,3.2-.3,4.8-.1.8-.1,1.6-.2,2.4v.3c5.6-5.6,11.3-11.4,16.8-17.2-3.2,0-6.4.1-9.6.1-2.2,2.4-4.4,4.6-6.8,7Z"/>
    <path class="st0" d="M120.2,41.9h10.1c3.1-3.1,6.3-6.4,9.4-9.5,3.3-3.4,6.8-6.9,10.1-10.3h-9.8c-6.6,6.6-13.1,13.1-19.8,19.8Z"/>
    <path class="st0" d="M142.7,42h.7c1-1,2-2,2.9-3,5.6-5.8,11.2-11.4,16.8-17.2h-1.3c-2.3.1-4.5.2-6.9.2h-1.5c-6.5,6.7-12.9,13.2-19.5,19.8,2.9.1,5.9.2,8.7.2Z"/>
    <path class="st0" d="M150.2,73.7c5.4-5.5,11-11.1,16.4-16.5,6.9-6.9,13.6-13.7,20.4-20.5v-8.9c-15,15.3-30.1,30.6-45.1,45.8,2.8,0,5.5.1,8.3.1Z"/>
    <path class="st0" d="M167.2,74.1c.6,0,1,.4,1.1.8.2.2.3.5.3.8-.1,2.6-.2,5.2-.3,7.9,3.3-3.3,6.6-6.7,9.9-10,3.1-3.1,6.3-6.3,9.3-9.4,0-3.5-.1-7.1-.1-10.7-6.8,6.9-13.6,13.7-20.4,20.5,0,.1.1.1.2.1Z"/>
    <path class="st0" d="M163.2,74c3.3-3.4,6.8-6.8,10.1-10.2,4.6-4.6,9.3-9.4,13.9-14-.1-3.1-.1-6.3-.1-9.4-11.1,11.1-22.1,22.3-33.2,33.4,3.1,0,6.2.1,9.3.2Z"/>
    <path class="st0" d="M116.2,73.6h9c6.3-6.3,12.4-12.6,18.7-19-.7-.1-1.3-.1-2-.2-2.2-.2-4.5,0-6.8.1-6.5,6.3-12.7,12.7-18.9,19.1q-.1,0,0,0Z"/>
    <path class="st0" d="M81.8,91c2.7-2.7,5.4-5.5,8.3-8.3-.1-3.4-.3-7-.4-10.4-2.5,2.4-4.9,4.9-7.5,7.4-.1,2.3-.1,4.6-.2,7-.1,1.4-.2,2.8-.2,4.3Z"/>
    <path class="st0" d="M89.4,59.3l-7,7c0,3.2,0,6.4-.1,9.6,2.4-2.4,4.8-4.8,7.3-7.2-.1-3.1-.2-6.3-.2-9.4Z"/>
    <path class="st0" d="M114.2,34.6c0,1.3,0,2.5-.1,3.8,0,1.2-.5,3,.8,3.5.4.1.8.1,1.3.1,5.8-5.8,11.5-11.5,17.3-17.2.9-.9,1.8-1.8,2.7-2.7-3.1,0-6.4,0-9.5-.1-4.2,4.2-8.4,8.4-12.5,12.5Z"/>
    <path class="st0" d="M138.3,73.6c7.7-7.8,15.3-15.5,22.9-23.3,8.8-8.9,17.4-17.7,25.9-26.4v-.2c.1-3.2.2-6.6.4-9.8-10.3,10.5-20.5,21-30.8,31.4-.1.8-.1,1.6-.2,2.5-.1,1.3-.3,2.7-.3,4s.2,2.1-.6,2.6c-.3.2-.7.3-1.1.3-1.3.1-2.6.2-3.9.2s-2.1,0-3.2-.1c-6.2,6.3-12.3,12.5-18.5,18.7,3.1,0,6.3,0,9.4.1Z"/>
    <path class="st0" d="M264.1,106.3c6.5-6.6,12.9-13,19.4-19.5-2,.1-4.1.1-6.2.2-.7,0-1.2.1-1.9.1s-.9-.1-1.2-.4h-.1c-6.6,6.5-13,13-19.6,19.6h9.6Z"/>
    <path class="st0" d="M159,106.3c8.6-8.7,17.3-17.4,25.8-25.9.8-.9,1.7-1.7,2.5-2.6.1-2.1.1-4.2.1-6.4v-3.3c-12.6,12.8-25.3,25.5-38,38.2,3.2,0,6.5,0,9.6,0Z"/>
    <path class="st0" d="M211.4,72.8c.9.8,2.7.6,3.9.6s2,.1,3,.1c3.7-3.7,7.5-7.5,11.1-11.2h0c0-1.3.1-2.6.1-3.8.1-2,.1-4,.2-6.1-6.4,6.4-12.6,12.7-19,19.1,0,.5.2.9.6,1.3Z"/>
    <path class="st0" d="M273.1,30.6c0-1.1,0-2.1.1-3.2.1-1.8.2-3.6.2-5.5-2.7,2.7-5.4,5.5-8.2,8.3-.1,2.9-.1,5.9-.2,8.8,2.7-2.7,5.4-5.5,8.1-8.3Z"/>
    <path class="st0" d="M226.2,73.7c1.7,0,3.3.1,5,.1,2.7-2.8,5.4-5.5,8.2-8.4h-9.2c-2.7,2.7-5.4,5.4-8.2,8.2,1.3,0,2.7,0,4.1.1Z"/>
    <path class="st0" d="M172,106.3c6.6-6.5,13-13,19.6-19.6h-1.8c-.6,0-1.2.1-1.8,0-.2,0-.5-.1-.6-.3-.1-.1-.1-.3-.1-.5,0-1.4,0-2.8.1-4.3-8.2,8.3-16.3,16.4-24.5,24.6,3,.1,6.2.1,9.2.1Z"/>
    <path class="st0" d="M253.6,81.2v4.8c0,.9-.9,1.3-1.6,1.2h-4.3c-6.3,6.4-12.5,12.7-18.8,19.2h9.5c11.7-11.9,23.2-23.7,34.7-35.4,0-.7-.1-1.4-.1-2.1-.1-2.4-.1-4.9,0-7.4-.4.4-.8.8-1.2,1.2-6.1,6.1-12.1,12.2-18.2,18.5Z"/>
    <path class="st0" d="M250.8,106.3c7.7-7.8,15.3-15.4,23-23.1-.1-1.9-.3-3.8-.4-5.9,0-.9-.1-1.9-.1-2.8-10.4,10.6-20.7,21.2-31.1,31.8,2.8,0,5.8,0,8.6,0Z"/>
    <path class="st0" d="M264.4,60.4c0,1.5.5,3.5-.2,4.9-.5,1-1.6.6-2.6.6s-2.8-.1-4.2-.1h-1.4c-2.6,2.7-5.3,5.4-8,8.2h1.1c1,0,2.4-.1,3.4.4.5.3.9.7,1.1,1.4.1.5.1,1,.1,1.5,6.5-6.7,12.9-13.2,19.4-19.9.1-3.2.2-6.5.3-9.6-2.9,3-5.9,6.1-8.8,9.1-.1,1-.1,2.2-.2,3.4Z"/>
    <path class="st0" d="M264.7,52.8c2.9-3,5.8-6,8.7-9,0-3.1-.2-6.4-.2-9.5-2.7,2.8-5.4,5.6-8.2,8.5-.2,3.3-.2,6.7-.3,10Z"/>
    <path class="st0" d="M89.5,32.8l-7.5,7.5c.1,3.1.1,6.3.2,9.4,2.4-2.4,4.7-4.7,7.2-7.2,0-3.2,0-6.5.1-9.7Z"/>
    <path class="st0" d="M89.8,17.8c-2.7,2.7-5.4,5.4-8.1,8.2.1,3.5.1,7.1.2,10.6,2.5-2.5,5-5,7.6-7.7.1-3.6.2-7.4.3-11.1Z"/>
    <path class="st0" d="M90.1,10.5c0-.9.8-1.2,1.4-1.2h.3c.9,0,1.8,0,2.7.1,2.8-2.8,5.6-5.8,8.6-8.6h-9.5c-4,4-8,8.1-12,12.1v9.6c2.8-2.8,5.5-5.5,8.4-8.4,0-1.3.1-2.5.1-3.6Z"/>
    <path class="st0" d="M210.8,67.7c6.4-6.4,12.7-12.7,19.1-19.1.1-3.4.2-6.9.3-10.3-6.4,6.5-12.8,13-19.2,19.5,0,2.3-.1,4.6-.1,7-.1.9-.1,1.9-.1,2.9Z"/>
    <path class="st0" d="M108.4,9.5h.5c.9-.9,1.7-1.7,2.6-2.6,2-2,4-4.1,6.1-6.2h-10.7c-2.8,2.9-5.8,5.8-8.6,8.7,3.3,0,6.8,0,10.1.1Z"/>
    <path class="st0" d="M118.7,21.9c-1,0-2.6-.6-3.5.2-1.2,1-.7,4.2-.7,5.6s0,2-.1,3c2.9-2.9,5.9-5.8,8.7-8.7-1.5-.1-2.9-.1-4.3-.2Z"/>
    <path class="st0" d="M82.6.8c-1.4.1-.9,2.3-.9,3.3v4.8c2.7-2.7,5.4-5.5,8.3-8.3-2.5-.1-5-.2-7.4.1Z"/>
    <path class="st0" d="M225.3,106.3c6.4-6.5,12.6-12.8,18.8-19.2h-8.9c-6.3,6.5-12.5,12.8-18.9,19.3,2.9-.1,6-.1,9-.1Z"/>
    <path class="st0" d="M244.3,73.9c2.7-2.7,5.3-5.5,8.1-8.3-2.9-.1-5.8-.1-8.7-.2h-.6c-2.7,2.8-5.4,5.5-8.2,8.4h.5c2.9.1,5.9.1,8.9.1Z"/>
    <path class="st0" d="M212.6,106.3c.2-.2.3-.4.5-.5,6.1-6.3,12.2-12.4,18.4-18.7-2.3,0-4.6,0-7-.1h-2.3c-6.4,6.5-12.6,12.9-19,19.3h9.4Z"/>
    <path class="st0" d="M189.3,106.3h10.1c2.3-2.4,4.7-4.7,7.1-7.2,3.9-4,8-8.1,11.9-12.1-2.5,0-5.1,0-7.7-.1h-1.9c-6.6,6.5-13,12.9-19.5,19.4Z"/>
    <path class="st0" d="M200.2,91.6c1.6-1.6,3.1-3.1,4.7-4.7-2.7,0-5.3,0-8.1-.1h-1.4c-6.6,6.5-13,13-19.6,19.5h9.6c4.9-4.8,9.9-9.8,14.7-14.6Z"/>
    <path class="st0" d="M128.4,87.4c-6.2,6.3-12.4,12.5-18.7,18.9h8.1c6.3-6.3,12.4-12.5,18.7-18.8-2.6-.1-5.3-.1-8.1-.1Z"/>
    <path class="st0" d="M91.9,87.2h-.3c-.6,0-1.2-.3-1.3-.9-2.7,2.7-5.4,5.5-8.2,8.3.1,0,.1.1.2.1,1.2.4,2.8.2,4.1.3h2.4c.7,0,1.4.1,2.1.1h.1c2.6-2.6,5.1-5.2,7.8-7.8-2.4-.1-4.7-.1-7-.1Z"/>
    <path class="st0" d="M135,106.2h10.7c6.1-6.1,12.1-12.2,18.2-18.3-3.5-.1-7.1-.2-10.5-.2-6.2,6.2-12.2,12.3-18.4,18.5Z"/>
    <path class="st0" d="M98.8,106.2h7.3c6.3-6.3,12.4-12.6,18.7-18.9-3.1,0-6.3,0-9.4-.1-6.3,6.4-12.5,12.6-18.8,19h2.2Z"/>
    <path class="st0" d="M102.5,87.2c-3.1,3.2-6.4,6.4-9.5,9.6h0c0,.8-.1,1.5-.1,2.1s.1,1.3.1,2,0,1.4.1,2.1c0,.5.1,1,0,1.5,0,.4-.1.7.1,1,6.1-6.2,12.2-12.3,18.3-18.5-2.9.1-6,.1-9,.1Z"/>
    <path class="st0" d="M140.2,87.5c-6.2,6.3-12.4,12.5-18.6,18.7h9.5c6.2-6.2,12.3-12.4,18.5-18.6-3.1,0-6.3,0-9.4-.1Z"/>
    <path class="st0" d="M114.5,55.4c-.1.5.1,1.2.2,1.7v.6l3.1-3.1c-1.3-.2-3.1-.3-3.3.8Z"/>
    <path class="st0" d="M126.7,9.6h8.5c2.9-2.9,6-6,8.9-8.9h-9.6c-2.9,2.9-5.9,6-8.8,8.9h1Z"/>
    <path class="st0" d="M211.2,29.6v10.7c6.5-6.6,12.9-13.1,19.4-19.7,0-1.7.1-3.4.1-5.1s.4-2.5-.6-3.1c-.3-.2-.7-.3-1.1-.4-1.5,1.5-3.1,3.1-4.6,4.6-4.5,4.3-8.8,8.7-13.1,13Z"/>
    <path class="st0" d="M82.3,59.2v3.2l7-7v-9.2c-2.3,2.3-4.7,4.7-7.1,7.1,0,1.5.1,3,.1,4.4v1.4Z"/>
    <path class="st0" d="M195.8,9c1.9.1,3.8.1,5.9.1,2.6-2.7,5.2-5.3,7.9-8.1h-9.4c-2.5,2.6-5.1,5.2-7.7,7.9,1,0,2.1,0,3.3.1Z"/>
    <path class="st0" d="M140.5,9.6h8.1c2.9-2.9,5.9-5.9,8.8-8.8h-9.5c-2.9,2.9-5.9,5.9-8.9,8.9.5-.1,1-.1,1.5-.1Z"/>
    <path class="st0" d="M211.2,16.2v9.6c4.6-4.6,9.3-9.4,13.9-14-.8,0-1.7-.1-2.5-.1s-2,0-2.5-.9c-.4-.8-.3-1.9-.3-2.7v-.4c-.7.8-1.5,1.5-2.2,2.3-2.2,2-4.2,4.1-6.4,6.3Z"/>
    <path class="st0" d="M265.3,26.2c2.8-2.8,5.5-5.6,8.4-8.4.1-1.4.2-2.7.2-4.1.1-1,0-2.7.6-3.4.4-.5,1.1-.5,1.8-.5,1.8,0,3.5.1,5.3.1,2.7-2.7,5.3-5.4,8.1-8.2-2.8-.1-5.8-.1-8.6-.3h-.6c-5,5-10,10.1-15,15.1-.1,3.2-.2,6.5-.2,9.7Z"/>
    <path class="st0" d="M166.3,9.4c.5.1,1,0,1.5.2.1,0,.2.1.2.1.1.1.1.2.1.3,0,.5.1,1,.1,1.4v3.2c0,.6.1,1.3.1,1.9,5.1-5.2,10.3-10.5,15.4-15.8h-9.4c-2.7,2.8-5.5,5.6-8.3,8.5,0,.2.1.2.2.2Z"/>
    <path class="st0" d="M168.4,20.7c0,.2-.1.4-.2.7,0,.1-.1.2-.2.3h-.9c-6.7,6.8-13.3,13.6-20,20.4.8,0,1.6,0,2.5.1,1.1,0,2.3.1,3.4.1s1.8,0,2.7.2c10.9-11.1,21.6-22,32.2-32.9h0c.1-.3.3-.5.5-.6h.1c2.5-2.6,5.1-5.2,7.7-7.9h-9.1c-6.3,6.5-12.6,12.9-18.9,19.4.1,0,.2.1.1.2Z"/>
    <path class="st0" d="M297.2,46.1c6.3-6.5,12.6-12.9,19-19.5v-5.2c0-1.5.1-3,0-4.4-6.4,6.6-12.6,13-18.9,19.5,0,3.2,0,6.5-.1,9.7Z"/>
    <path class="st0" d="M265.5,3.1v3.4c0,2,0,4-.1,6.2,3.8-3.8,7.6-7.7,11.4-11.5-1.2-.1-2.4-.1-3.5-.2-1.3-.1-2.6-.2-4-.3-.7-.1-1.6-.2-2.4-.1-.5.5-.9.9-1.4,1.4.1.4.1.7.1,1.1Z"/>
    <path class="st0" d="M289.8,10.1c1,0,2,.1,2.9.1,2.7-2.8,5.5-5.8,8.3-8.6-1.5,0-2.9.1-4.4.1h-3.2c-2.7,2.7-5.4,5.4-8.2,8.3,1.6-.1,3.1,0,4.6.1Z"/>
    <path class="st0" d="M297.3,27v5.5c6.2-6.4,12.4-12.7,18.6-19.2,0-.2-.1-.4-.1-.6s0-.1-.1-.2-.1-.1-.2-.1c-1.5-.4-3.1-.3-4.7-.4-.9-.1-1.8-.1-2.7-.2-3.5,3.7-7.2,7.5-10.7,11.2,0,1.2,0,2.5,0,3.9Z"/>
    <path class="st0" d="M297.3,14.2v4.9c2.9-3,5.9-6.2,8.8-9.2V2.5c0-.2,0-.5-.2-.6-.1-.1-.2-.1-.3-.1h-.8c-2.9,3-5.8,6.1-8.7,9.1,1,.6,1.2,2.1,1.2,3.3Z"/>
    <path class="st0" d="M211.1,44.1c0,3.2-.1,6.5-.1,9.8,6.4-6.5,12.8-13,19.2-19.5.1-3.3.1-6.6.2-9.9-.8.8-1.6,1.6-2.4,2.4-5.5,5.6-11.2,11.4-16.8,17.2Z"/>
    <path class="st0" d="M154.3,9.5c2.3,0,4.6-.1,6.9-.1h.9c2.8-2.8,5.5-5.8,8.4-8.6h-9.3c-2.9,2.9-5.8,5.9-8.7,8.7.7.1,1.3.1,1.8,0Z"/>
    <path class="st0" d="M113,9.5c2.3,0,4.6,0,6.9.1h2.1c2.9-2.9,5.9-5.9,8.8-8.9h-9.5c-2.9,2.9-5.9,5.9-8.8,8.8h.5Z"/>
    <path class="st0" d="M297.1,59.7c6.4-6.4,12.7-12.8,19.1-19.3v-10c-6.4,6.6-12.6,13-19,19.6,0,3.2-.1,6.5-.1,9.7Z"/>
    <path class="st0" d="M282.2,106.3h9.5c8.1-8.2,16.1-16.4,24.2-24.6.1-3.2.1-6.6.2-9.8-7.3,7.5-14.4,14.8-21.3,21.8-4.3,4.1-8.5,8.4-12.6,12.6Z"/>
    <path class="st0" d="M295.4,106.3h6.4c1.2,0,2.3,0,3.5.1,3.4-3.4,6.9-6.9,10.2-10.3.1-3.5.2-7.1.2-10.6-4.9,5-9.8,10-14.4,14.7-1.9,2.1-3.8,4-5.9,6.1Z"/>
    <path class="st0" d="M296.9,73.3c6.4-6.5,12.8-12.9,19.3-19.4v-9.6c-6.4,6.4-12.7,12.8-19.2,19.3,0,3.2,0,6.5-.1,9.7Z"/>
    <path class="st0" d="M309,106.5h4.4c.4,0,.9-.1,1.3-.3,1-.7.6-3.4.6-4.4v-1.7l-4.5,4.5c-.5.6-1.2,1.2-1.8,1.9Z"/>
    <path class="st0" d="M296.7,84.6c.3.7-.1,1.8-1.1,1.8-2.7.1-5.4.2-8.3.3-6.5,6.6-13,13.1-19.5,19.6h10.5c12.5-12.7,25.1-25.5,37.6-38.3,0-3.4.1-6.8.1-10.2-6.4,6.5-12.8,12.9-19.3,19.4,0,2.5-.1,5-.1,7.5Z"/>
    <path class="st0" d="M205.3,9.1h4.1c.3,0,.5.1.7.2.5.1.9.5.9,1.2v1.9c2.8-2.8,5.5-5.6,8.4-8.4,0-.4-.1-.8-.1-1.2-.1-1.8-3.4-1.9-6.1-1.8l-1.5,1.5c-2.1,2.1-4.2,4.3-6.5,6.6Z"/>
  </g>
  <g>
    <path class="st0" d="M63.3,211.2c.1-2,.2-4,.3-6.2-11.4,11.2-22.9,22.4-34.3,33.6,2.6,0,5.3.1,8,.1h1.1c8.3-8.1,16.4-16.1,24.7-24.3,0-1,.1-2.1.2-3.2Z"/>
    <path class="st0" d="M41.3,187.4c-2.4,2.4-4.7,4.8-7.2,7.2-.1,2.3-.2,4.5-.3,6.9,0,.5,0,1-.1,1.5v1.6c5.5-5.6,11.2-11.3,16.7-16.8h-2.2c-2.2-.1-4.6-.1-7-.3Z"/>
    <path class="st0" d="M43.7,133.1c-2.9,2.9-5.9,5.8-8.7,8.7,1.4,0,2.9,0,4.3.1,1.7,0,3.4,0,5.1.1,2.9-2.9,5.9-5.9,8.8-8.7-3.2-.2-6.5-.2-9.6-.2Z"/>
    <path class="st0" d="M130.3,152.3c-.2,0-.3.1-.5.1l-.8.8c-.2.7.1,1.8,0,2.4-.1,1.5-.1,3-.2,4.5,0,.9-.1,1.8-.1,2.7,3.6-3.5,7.3-7.2,10.8-10.7h-.3c-2.8-.2-5.9-.3-8.9.1Z"/>
    <path class="st0" d="M47.2,152.4c-2.1-.1-4.2-.3-6.3-.4-.8,0-1.7-.2-2.6-.2-2,2-4.1,4.1-6.2,6.2-.1,1.7-.1,3.4-.2,5.1-.1,1.6-.1,3.2-.2,4.8,4.1-4.1,8.2-8.2,12.3-12.3.9-1.1,2-2.1,3.1-3.2Z"/>
    <path class="st0" d="M66.5,158.3c0-1.1.1-2.2.1-3.3s0-.7-.1-1l-.3-.6c-.4-.4-.9-.4-1.4-.4h-.9c-7.5,7.6-15,15-22.5,22.6,2.7,0,5.3,0,8.1.1,2.3-2.3,4.6-4.7,7-7.1,3.3-3.5,6.7-7,10.1-10.3Z"/>
    <path class="st0" d="M34.1,133h-5.5c-2.9,2.8-5.9,5.8-8.7,8.6,2.3,0,4.5.1,6.9.1h4.4c2.9-2.8,5.8-5.8,8.7-8.7h-5.8Z"/>
    <path class="st0" d="M204.8,152.2l.4-.4c.1-.1.3-.1.5-.1h.3l8.8-8.8c0-.3.1-.5.2-.8.1-.2.2-.3.4-.4.2-.1.4-.1.6-.1,2.9-2.9,5.9-5.9,8.7-8.8h-8.4c-10.7,10.8-21.4,21.7-32.1,32.5,0,2.7,0,5.4.1,8.1,6.7-6.7,13.3-13.3,19.9-20.1h0c0-.4.3-.7.6-1.1Z"/>
    <path class="st0" d="M85.8,219.7c-3.4.2-7-.2-10.4-.4-3.1,3-6.2,6.1-9.3,9.1.1.2.1.4.1.6.2,1.5-.1,3.1-.2,4.6-.1.8-.1,1.5-.1,2.3s.3,1.3.2,1.9c.5.1,1,.2,1.5.3,6.4-6.3,12.7-12.5,19-18.8-.1.3-.5.3-.8.3Z"/>
    <path class="st0" d="M64.4,218.9c-.4,0-.9-.1-1.2-.3q-.1-.1-.2-.2c-3.1,3.1-6.4,6.3-9.5,9.3.1-.1.2-.1.3-.1.2-.1.3-.1.5-.1,2.2-.1,4.3-.1,6.6,0,.8,0,1.6.1,2.4.2,2.8-2.8,5.6-5.5,8.5-8.4-2.5-.2-4.9-.3-7.4-.4Z"/>
    <path class="st0" d="M219.7,141.7c2.9,0,5.9.1,8.8.1h.6c2.9-3,6-6,8.9-9h-9.6c-2.8,3-5.8,6-8.7,8.9Z"/>
    <path class="st0" d="M118.2,214.7c.1-1.4,0-3-.1-4.4,0-.3,0-.6-.2-.9-.5-1.2-1.8-1.1-2.9-1-10.3,10.2-20.5,20.4-30.8,30.5,2,.1,4,.1,6.1.1s2.4,0,3.6-.1l16.6-16.6c2.6-2.4,5.1-4.9,7.7-7.5Z"/>
    <path class="st0" d="M111.2,208.5h-1.8c-.7,0-1.4,0-2-.3-1.1-.6-1-2.9-.9-4.5-11.7,11.6-23.5,23.3-35.2,34.9,1.2,0,2.3.1,3.4.1,1.9,0,3.9.1,5.9.1,7.6-7.5,15.1-14.9,22.7-22.5,2.7-2.5,5.3-5.1,8-7.8Z"/>
    <path class="st0" d="M97.9,238.9c2.6-.1,5.2-.1,7.8.1.2,0,.5,0,.7-.1.4-.1.7-.5.8-1,.4-1.6.2-3.7.2-5.4s-.3-2-.2-2.9c-3,3.2-6.2,6.4-9.3,9.4Z"/>
    <path class="st0" d="M60.1,152.8c-3.1-.1-6.2-.1-9.3-.2-6.5,6.5-12.9,12.9-19.4,19.4,0,.8-.1,1.5-.1,2.3s.4,1.1,1,1.2c.2.1.4.2.7.2,1.4,0,2.9-.1,4.3-.1,4.4-4.4,8.8-8.8,13.2-13.2,3.1-3.2,6.4-6.5,9.5-9.6Z"/>
    <path class="st0" d="M9.8,179.8c-3.1,3-6.2,6.2-9.3,9.2v3.4c0,2.2,0,4.3.1,6.6,3.1-3.1,6.2-6.2,9.3-9.3,0-3.3-.1-6.6-.1-9.9Z"/>
    <path class="st0" d="M64,195.3c0-1.2,0-2.4.1-3.6h0c-15.9,15.5-31.9,31.2-47.8,46.7,1.4.1,2.9.1,4.3.2,1.6.1,3.3.1,4.9.1,12.8-12.4,25.5-24.9,38.2-37.4,0-2,.1-4,.2-6Z"/>
    <path class="st0" d="M9.9,211.8v-5c-3,3-6.1,6-9,9,0,1.4.1,2.8.1,4.1s.1,2.7.1,4.1c2.9-2.9,5.9-5.9,8.8-8.9.1-1.1,0-2.2,0-3.3Z"/>
    <path class="st0" d="M9.9,201.2v-7.8c-3.1,3-6.2,6.2-9.3,9.2,0,2.7.1,5.3.1,8.1v1.3c3-3,6.1-6.1,9.1-9.1.1-.5.1-1.1.1-1.7Z"/>
    <path class="st0" d="M12.4,218.6c-.6,0-1.3-.1-1.8-.3-3.1,3.1-6.2,6.3-9.3,9.3.1.2.2.4.4.5.7.6,2.4.4,3.4.4,1.5,0,3.5-.5,5.1-.3,3.1-3.1,6.3-6.4,9.4-9.5-2.4,0-4.8-.1-7.3-.1Z"/>
    <path class="st0" d="M257.5,192v-3.7c0-.3.1-.7-.1-1-.1-.2-.3-.4-.5-.5-.1,0-.3-.1-.4-.1-6.1,6.1-12,12.2-18.1,18.3,2,0,4.1.1,6.2.1s2,.1,3,.1c3.2-3.3,6.6-6.6,9.8-9.9.1-1,.1-2.1.1-3.2Z"/>
    <path class="st0" d="M242.1,173.7c3.1.1,6.3.2,9.4.2,3.1-3.1,6.2-6.2,9.3-9.3h-1.7c-.4-.1-.8-.4-1-.7-.7-1-.4-2.1-.3-3.3v-2.4c-5.1,5.1-10.4,10.3-15.6,15.5Z"/>
    <path class="st0" d="M248.9,186.7c-2.1,0-4.3,0-6.5-.1-5.1,5-10.2,10.2-15.3,15.2,0,.6,0,1.3.1,1.9,0,.2,0,.4.1.5.1.3.5.6.8.6.8.2,1.9,0,2.7,0h3.7c6.1-6.1,12-12.2,18.1-18.3-1.1.1-2.4.1-3.7.1Z"/>
    <path class="st0" d="M235.3,186.6c-2,0-3.9,0-6-.1-2.7,2.7-5.4,5.3-8.1,8.1h1.2c.8,0,1.7-.1,2.5-.1s.7,0,1.1.2c1.1.5,1.1,2.5,1.1,3.5,3.9-3.8,7.8-7.8,11.7-11.6-1.3,0-2.5,0-3.6,0Z"/>
    <path class="st0" d="M8.5,132.8c-1.7,0-3.4-.3-5.1-.3h-.5c-.4.4-.8.8-1.2,1.2-.1.7.2,1.7.1,2.3,0,.7-.2,1.4-.2,2.2-.1,1.5-.1,3-.2,4.5,3.4-3.3,6.8-6.7,10.2-10h-3Z"/>
    <path class="st0" d="M11.7,141.7c.2-.1.5-.1.8-.2,1.2-.1,2.4-.1,3.7-.1,2.1-2.1,4.2-4.2,6.4-6.3.7-.7,1.5-1.4,2.2-2.2-2.6,0-5.1-.1-7.8-.1h-1.8c-4.7,4.6-9.4,9.3-14.1,13.9-.1,2-.1,4-.2,6,0,1.2-.1,2.5-.1,3.7,3.1-3.1,6.3-6.2,9.4-9.3.2-1.4.1-4.8,1.5-5.4Z"/>
    <path class="st0" d="M9.9,155.5c0-1.4.1-2.8.2-4.2-3,3-6.2,6.1-9.2,9.1-.1,3.8-.2,7.7-.2,11.6,3-3,6.1-6.1,9.2-9.1-.1-2.4-.1-4.9,0-7.4Z"/>
    <path class="st0" d="M9.8,171.8v-5.1c-3,3-6.2,6.1-9.2,9.1,0,3.1,0,6.4-.1,9.5,3.1-3,6.2-6.1,9.3-9.2,0-1.3,0-2.8,0-4.2Z"/>
    <path class="st0" d="M275.4,132.8h-5.8c-3.1,3.1-6.2,6.3-9.3,9.4h4.6c1.5,0,2.9-.4,4.4-.2.2,0,.3.1.5.2,2.9-2.9,5.9-5.9,8.7-8.7-.5-1.4-2-.7-3.2-.7Z"/>
    <path class="st0" d="M107.3,154.5c-.1-1.1-.4-1.8.9-2.3.8-.3,1.7-.1,2.5-.1s1.7.1,2.5.1c1.6-1.6,3.2-3.2,4.8-4.7.1-1.6.1-3.1.2-4.7,0-.3,0-.6.2-.9.2-.3.6-.3.9-.3,1.5-.1,3.1-.1,4.6-.1l8.2-8.2h-9.6c-1.1,1.1-2.2,2.2-3.3,3.3-10.5,10.4-21,20.9-31.5,31.3v3.9c0,1.3.4,3.3-.9,4-.6.3-1.3.3-2,.3-1.8,0-3.6-.1-5.3-.1-1.2,1.2-2.4,2.3-3.5,3.5v2c0,.7-.2,2.6.6,3,.2.1.3.1.5.1h3.3c9-8.8,17.9-17.7,26.7-26.4,0-1.1.2-2.5.1-3.7Z"/>
    <path class="st0" d="M147.5,152.4c-1.4,0-2.8-.1-4.2-.1-1,1-2,2-3,2.9-3.8,3.8-7.8,7.7-11.7,11.5,0,.8,0,1.7-.1,2.5-.1,2.9-.1,5.8-.1,8.7,8.5-8.5,16.9-16.9,25.3-25.4-1.8-.1-4-.1-6.2-.1Z"/>
    <path class="st0" d="M106.6,168.1c.1-1.9.1-3.8.2-5.8-7.6,7.5-15.1,15-22.7,22.5h1.9c.2,0,.5,0,.7.1.9.4.7,2.4.7,3.2v2.1c6.4-6.3,12.6-12.4,18.9-18.7.2-1.2.3-2.3.3-3.5Z"/>
    <path class="st0" d="M163.7,155.9v-1.8c0-.2,0-.5-.2-.7,0,0,0-.1-.1-.1-.1-.1-.2-.2-.4-.3-1.6-.7-3.5-.7-5.3-.7-3.4,3.5-7,7-10.4,10.5-6.3,6.3-12.5,12.5-18.7,18.7,0,1.9,0,3.9.1,5.9,0,1.2.1,2.3.1,3.5,11.6-11.4,23.2-23.1,34.9-34.9Z"/>
    <path class="st0" d="M90.6,143.8c-1.5,0-3.6.3-4.9-.6-.1-.1-.2-.1-.2-.2-2.7,2.8-5.5,5.5-8.3,8.4.1,1.3.8,1.1,1.9,1,2.2-.1,4.3-.1,6.6,0,2.8-2.8,5.6-5.6,8.5-8.5-1.2-.1-2.3-.1-3.5-.1Z"/>
    <path class="st0" d="M66.4,162.3c-4.4,4.4-8.9,9-13.3,13.4,1.5,0,3,.1,4.5.2,1.4.1,2.9.3,4.4.3.3-.3.6-.6.9-.9,1.1-1.1,2.1-2.2,3.2-3.2.1-3.4.1-6.6.2-9.8Z"/>
    <path class="st0" d="M163.3,165.3c0-1.8.1-3.5.2-5.3-3.2,3.2-6.4,6.5-9.6,9.7-8.4,8.4-16.7,16.7-25.1,25.1h0c.1,2.3.2,4.5.2,6.9v2.3c11.4-11.5,22.8-23,34.2-34.4,0-1.5.1-2.8.1-4.2Z"/>
    <path class="st0" d="M113.5,133.5c-1.1,0-3.7-.7-4.4.5-.3.4-.1.9,0,1.4.1.8,0,1.7,0,2.5,0,1.6-.2,3.2-.3,4.8h0c0,.7-.4,1.3-1.2,1.3-3.2-.1-6.5-.1-9.7-.2-3.4,3.4-6.9,6.9-10.3,10.4.1,1.1.2,2.2.2,3.3,0,2.2,0,4.4.1,6.7,10.4-10.3,20.7-20.5,31.1-30.8-1.9-.1-3.6-.1-5.4,0Z"/>
    <path class="st0" d="M229.6,154.4c-.4,0-.9-.1-1.3.1-.7.3-.5.9-.5,1.5s-.1,1.2-.1,1.9l3.4-3.4c-.6,0-1.1,0-1.5-.1Z"/>
    <path class="st0" d="M60.1,187.8h-5.8c-6.9,7-13.7,13.8-20.7,20.8,0,.8,0,1.6-.1,2.5,0,2.3.2,4.8-1,7-.2.4-.5.7-.8.9-.3.1-.6.2-.9.3-1.2.2-2.4-.1-3.6-.2-1.3,0-2.5-.1-3.8-.1-3.6,3.6-7.3,7.3-10.9,10.9.4,1.3.1,3.5.1,4.6s-.4,2.7.2,3.4c16.9-16.7,34-33.3,50.8-49.9-.8-.6-2.8-.2-3.5-.2Z"/>
    <path class="st0" d="M255.2,173.9h10.1c2.6-2.7,5.3-5.4,8-8.1s.7-.8,1.1-1.1c-3.3,0-6.6-.1-9.9-.1-3,3.1-6.2,6.2-9.3,9.3Z"/>
    <path class="st0" d="M243.1,155c-2.3-.1-4.6-.3-7-.4-.5,0-.9,0-1.4-.1-2.5,2.5-4.9,5-7.5,7.5,0,.8-.1,1.6-.1,2.5-.1,1.8-.1,3.5-.1,5.3s-.2,1.4-.2,2.1c5.6-5.6,11.2-11.3,16.8-16.9-.2.1-.4.1-.6,0Z"/>
    <path class="st0" d="M204.1,165.2c.1-2.3.1-4.5.2-6.9v-1.1c-6.7,6.7-13.3,13.3-19.9,20.1,0,3.1,0,6.4.1,9.5,6.6-6.6,13.1-13.1,19.6-19.8-.1-.5,0-1.2,0-1.8Z"/>
    <path class="st0" d="M162.8,192.4c0-1.8,0-3.6.1-5.4-7,7-13.8,13.9-20.8,20.9,1.2,0,2.3-.1,3.5-.1h4.5c4.2-4.2,8.5-8.5,12.7-12.7-.1-.8-.1-1.7-.1-2.6Z"/>
    <path class="st0" d="M205.2,175.4c-.8,0-1.7-.2-1.6-1.2.1-1,.1-2,.2-3.1-6.5,6.5-12.9,13-19.4,19.5,0,3.5,0,7,.1,10.5,8.5-8.5,17-16.9,25.5-25.4h-.3c-1.5-.1-3-.1-4.5-.2Z"/>
    <path class="st0" d="M163.1,174.1v-.8l-1.6,1.6c-10.7,10.8-21.4,21.6-32.1,32.3,0,.1.1.2.1.4.2.3.5.6.9.7h.5c2.4-.1,4.7-.2,7.2-.3,8.3-8.3,16.5-16.6,24.8-24.9.1-2.9.1-6,.2-9Z"/>
    <path class="st0" d="M253.9,155.1c-1.2.1-2.4.1-3.6.1h-2.9c-6.1,6.1-12,12.1-18.1,18.2,2.2-.1,4.3-.1,6.6,0,.9,0,1.7.1,2.6.1,6.2-6.2,12.3-12.2,18.5-18.4-1-.2-2,0-3,0Z"/>
    <path class="st0" d="M270.3,208.8c.2-.2.3-.3.5-.5h-.1c-.3.1-.4.3-.4.5Z"/>
    <path class="st0" d="M310.5,152.3c.8-.8.5-2.8.6-3.8,0-.9.1-1.8.1-2.8v-1.3c-2.6,2.7-5.3,5.4-8,8.2h3.8c.9.2,2.6.5,3.4-.2Z"/>
    <path class="st0" d="M301,175.5c-.1-.1-.3-.2-.3-.4-1.1-1.7-.5-4-.5-6v-.5c-6.4,6.6-12.8,13-19.2,19.6v3c0,2.1.1,4.2.1,6.3v.2c4.6-4.6,9.2-9.4,13.8-14,2.6-2.7,5.2-5.3,7.9-8.1h-1.2c-.2,0-.4,0-.6-.1Z"/>
    <path class="st0" d="M276.6,184.5c.6-.1,1.2-.2,1.8-.2s.8,0,1.2.1c.2,0,.5.1.6.3q.1.1.1.2c2.6-2.6,5.1-5.2,7.8-7.9,4-4.1,8.1-8.2,12.1-12.3,0-.7,0-1.4.1-2,.1-1.9.1-3.7.2-5.6,0-.4-.1-1-.1-1.6-9.6,9.8-19.2,19.6-28.8,29.3,1.7.1,3.3,0,4.9-.2Z"/>
    <path class="st0" d="M313.6,218.2c-.5,0-1,0-1.4-.3-.5-.4-.6-1.1-.7-1.7-.2-1.6-.2-3.2-.2-4.8-5.4,5.4-10.9,10.9-16.2,16.3,1.8,0,3.7-.1,5.5-.1s2.8-.1,4.1-.1c3.1-3.1,6.3-6.3,9.4-9.4-.1.1-.3.1-.5.1Z"/>
    <path class="st0" d="M354.9,196.5c0-.7.1-1.5.1-2.3-3.8,3.8-7.7,7.7-11.5,11.5h3.6c1.3,0,2.5,0,3.8-.1.6,0,1.5.2,2.1,0,.3-.3.5-.5.8-.8.5-1,.5-2.6.5-3.5.3-1.6.4-3.2.5-4.7Z"/>
    <path class="st0" d="M317.9,218.2c-3,3.1-6.2,6.2-9.3,9.3h1.3c.9,0,1.7-.3,2.5-.1.4.1.8.3,1,.6.1.2.1.4.1.6.1,1,.2,1.9.3,2.9,4.4-4.4,8.8-8.8,13.2-13.2-3,0-6.1-.1-9.2-.1Z"/>
    <path class="st0" d="M251.5,205.5c1.1.1,2.3.1,3.4.2.7,0,1.9.5,2.4-.2.6-.8.2-2.8.2-3.7v-2.5c-2,2.1-4.1,4.1-6.1,6.3q-.1,0,0,0Z"/>
    <path class="st0" d="M160.3,208.2c.3,0,.5,0,.8-.1,2.3-.5,1.6-4.7,1.6-6.5v-2.6c-3,3-6,6-9,9,2.2.1,4.4.2,6.6.2Z"/>
    <path class="st0" d="M310.2,208c-2.2-.2-4.5-.3-6.8-.3s-1.9-.1-2.4-.6c-10.4,10.5-20.8,21-31.3,31.5,3.1,0,6.4.1,9.5.1h1.1c10.2-10.2,20.3-20.4,30.5-30.6-.2,0-.4-.1-.6-.1Z"/>
    <path class="st0" d="M256,142.1h.7c3-3.1,6.2-6.2,9.2-9.3h-9.6c-3,3-6.1,6.2-9.1,9.2,2.9.1,5.9.1,8.8.1Z"/>
    <path class="st0" d="M240.4,141.9h3.1l1.7-1.7c2.4-2.5,4.9-4.9,7.4-7.5h-10.8c-3,3-6,6-9,9,2.5.2,5,.2,7.6.2Z"/>
    <path class="st0" d="M300.4,200.3c0-1.2-.7-4,.4-4.9.6-.5,1.4-.5,2.2-.5,2,.1,4,.1,6.2.2,2.9-2.9,6-6,8.9-8.9-2.1-.1-4.1-.2-6.3-.5-.2,0-.4-.1-.6-.1-.5-.3-.6-.9-.5-1.5-18,18.2-36,36.2-54,54.4h4.2c1.7,0,3.4.1,5.1.1,11.5-11.6,23-23.2,34.5-34.7-.1-1.2-.2-2.3-.2-3.5Z"/>
    <path class="st0" d="M355.1,190.3c0-.8-.1-1.6-.3-2.4-.1-.2-.1-.4-.3-.5-.1-.1-.3-.1-.4-.1-1.8-.2-3.6-.3-5.4-.3-6.1,6.2-12.2,12.4-18.3,18.6h1.6c2.5.1,5,.1,7.7.1h.2c5-5.1,10.2-10.2,15.2-15.3Z"/>
    <path class="st0" d="M174.4,209c-.2,0-.5.1-.6.3-.3.3.1,1.2.1,1.6v.9l2.8-2.8c-.8-.2-1.5-.2-2.3,0Z"/>
    <path class="st0" d="M33.2,152.5c-.2.1-.5.3-.6.5-.2.3-.4.7-.4,1.2.7-.7,1.4-1.4,2.1-2.1-.5.1-.8.2-1.1.4Z"/>
    <path class="st0" d="M35.9,187.1c-2,.3-1.5,1.8-1.6,3.4h0c1.2-1.1,2.3-2.2,3.5-3.4-.6,0-1.3-.1-1.9,0Z"/>
    <path class="st0" d="M386.7,236.9c.2-2.6.1-5.1.1-7.8s.2-.7.5-.9c.2-.3.5-.4.9-.4h5.8c1.2,0,2.1.4,2.8-.8.9-1.7.3-3.9.3-5.9v-3.1c-6.7,6.8-13.3,13.6-20,20.4h6.2c.6,0,1.5.2,2.3.1.3-.3.7-.7,1-1,.1-.2.1-.4.1-.6Z"/>
    <path class="st0" d="M303.4,133.5c-.2.5-.2,1-.2,1.5v.3c.9-.9,1.8-1.8,2.6-2.7-1,0-2,0-2.4.9Z"/>
    <path class="st0" d="M397.1,212.3v-7.8c-11,11.3-22.1,22.6-33.2,33.9h9.5c8-8.2,15.8-16.1,23.7-24.2v-1.9Z"/>
    <path class="st0" d="M397.1,191.4c-.1.1-.3.3-.4.4-15.1,15.5-30.3,31.1-45.5,46.6h9c12.5-12.7,24.7-25.2,36.9-37.7v-9.3Z"/>
    <path class="st0" d="M45.6,238.7c1.4,0,2.8,0,4.2-.1.9,0,1.9.4,2.4-.5.7-1.1.4-3,.5-4.2.1-1.8.1-3.5.2-5.3,0-.3.1-.5.2-.7-3.6,3.6-7.4,7.2-11,10.8,1.1.1,2.2.1,3.4.1Z"/>
    <path class="st0" d="M288.3,238.9c1,.1,1.5.3,1.9-.9s.2-2.6.2-3.8v-1.7c-2.1,2.1-4.1,4.1-6.3,6.3,1.4,0,2.8,0,4.1.2Z"/>
    <path class="st0" d="M192.5,238.1c.1-.4.1-.8.1-1.2v-.7c-.9.8-1.7,1.7-2.6,2.5,1,.1,2.2.2,2.5-.6Z"/>
    <path class="st0" d="M353.3,219c-3.1-.1-6.3-.2-9.4-.3-6.6,6.6-13,13-19.6,19.6,1.8,0,3.6,0,5.4.1h4.5c1.9-1.9,3.8-3.9,5.8-5.9,4.4-4.5,8.8-9,13.2-13.5Z"/>
    <path class="st0" d="M351.5,173.9c2.1.1,4.1.1,6.3.2,3-3,6-6.1,9-9.2-3.1,0-6.2-.1-9.3-.2-2.9,3-6,6.1-9,9.1,1,0,2,0,3,.1Z"/>
    <path class="st0" d="M355,163.3c-.1-.4-.1-.8-.1-1.2,0-1.9,0-3.8-.2-5.8,0-.2,0-.5-.1-.7-.3-.6-.9-.7-1.7-.7-6.2,6.2-12.2,12.3-18.4,18.5,3.4.1,6.9.2,10.3.3,3.3-3.4,6.8-7,10.2-10.4Z"/>
    <path class="st0" d="M328.5,186.4c-2.2-.1-4.5-.1-6.8-.1-2.9,2.9-5.9,6-8.9,8.9,2.7.1,5.4.1,8.1.2.7,0,1.4,0,2,.3h0c3-3,6.1-6.2,9.1-9.2-1.1,0-2.3-.1-3.5-.1Z"/>
    <path class="st0" d="M340.2,218.7c-3.1-.1-6.3-.1-9.3-.2-5.5,5.5-11.2,11.2-16.8,16.7,0,1.1,0,2.2.8,2.7.3.2.8.2,1.2.2,1.5,0,3,0,4.5.1,4.4-4.4,8.9-8.9,13.3-13.3,2-2.1,4.1-4.2,6.3-6.3Z"/>
    <path class="st0" d="M335.8,186.7c-3.8,3.8-7.7,7.8-11.5,11.6.1,1.1-.1,2.3-.1,3.1,0,1.3-.5,2.5.6,3.5.5.5,1.2.6,1.8.6,6.1-6.2,12.2-12.3,18.4-18.6-3-.1-6.2-.2-9.2-.3Z"/>
    <path class="st0" d="M117,152.3c.3-.1.5-.4.6-.7-.2.3-.4.5-.6.7h0Z"/>
    <path class="st0" d="M346.6,155h-7.2c-4.8,4.9-9.7,9.8-14.6,14.7,0,.9-.1,1.9,0,2.7,0,.2.1.4.2.5s.2.1.3.1c1.7.4,3.5.4,5.3.3,6.1-6.2,12.1-12.2,18.3-18.4-.8,0-1.5,0-2.3,0Z"/>
    <path class="st0" d="M327.3,154.5c-.9.9-1.7,1.7-2.6,2.6h0c0,.9.1,1.8.1,2.7s.1,2.5.1,3.7v2.2c3.6-3.6,7.3-7.4,11-11-2.8-.1-5.8-.3-8.6-.3Z"/>
    <path class="st0" d="M377.2,208c-1.3.2-2.8,0-4.1,0s-1.9-.1-2.9-.1-1.4-.2-2.1-.2c-.4.4-.7.8-1.1,1.1-.1.6,0,1.3,0,1.7v3.3c0,1.3.2,3.8-.8,4.8s-1.5.6-2.4.6c-2.2-.1-4.4-.2-6.7-.2-6.3,6.5-12.6,12.8-18.9,19.3h9.5c9.8-10,19.7-20.2,29.6-30.4h0Z"/>
    <path class="st0" d="M166,133.5c-1.3,0-2.5,0-3.8-.1-2.8,2.8-5.6,5.6-8.6,8.5h.6c3,.1,6.1.1,9.2.2h.8l8.5-8.5c-2.3,0-4.4,0-6.7-.1Z"/>
    <path class="st0" d="M136,133.3l-8.2,8.2c1.2,0,2.3.1,3.5.1s3,.1,4.5.1h.8c2.8-2.8,5.6-5.5,8.4-8.4-3,0-6.1,0-9.1,0Z"/>
    <path class="st0" d="M148.9,133.4c-2.8,2.8-5.6,5.6-8.5,8.4,3.1.1,6.3.1,9.4.2l8.5-8.5c-3-.1-6.3-.1-9.4-.1Z"/>
    <path class="st0" d="M214.4,184.7c0-.3.1-.7.1-1,.1-1,.2-2,.2-3v-2.3c0-.6.1-1.4-.2-2-.1-.2-.2-.3-.4-.4-.1,0-.2-.1-.4-.1-9.2,9.2-18.5,18.5-27.6,27.6s-1,.9-1.4,1.4v2.3c0,.4,0,.7-.2,1-.4.6-1.3.7-2,.7h-1.8l-6.9,6.9c-.1.7-.3,1.4-.6,2.1-.1.3-.2.5-.4.8-.6.7-1.7.8-2.7.8-6.5,6.4-12.8,12.7-19.3,19.1h9.6c18-17.9,36-35.9,54.1-53.9Z"/>
    <path class="st0" d="M160.6,219.2c-1.5,0-3,0-4.4-.1-6.5,6.5-12.9,12.9-19.3,19.5h9.9c6.5-6.5,13-12.8,19.5-19.3-1.9-.1-3.7-.1-5.6-.1Z"/>
    <path class="st0" d="M180.4,133.8c-1.4,0-2.7-.1-4.1-.1-2.7,2.8-5.5,5.5-8.3,8.4,1.4,0,2.8,0,4.1.2.4.1.9.2,1.2.6.1.2.1.4.1.6.1.9.1,1.8.1,2.6,2.8-2.8,5.6-5.8,8.5-8.6.1-1.6.1-3.6-1.6-3.7Z"/>
    <path class="st0" d="M139.3,218.8c-2.6-.1-5.2-.1-7.9-.2l-11.3,11.3c-.1,1.6,0,3.3.1,4.9.1.7-.2,2.1.1,2.9l2.5-2.5c5.5-5.4,11-11,16.4-16.4Z"/>
    <path class="st0" d="M124.6,218.4c-1.4-.1-2.8-.1-4.1-.2-.4,0-.8,0-1.1-.2-.1-.1-.2-.1-.4-.2-3.2,3.2-6.6,6.6-9.8,9.8,1.1-.3,2.5-.1,3.5-.1,1.9,0,4-.1,6,.2,3-3.1,6.2-6.2,9.2-9.3h-3.2Z"/>
    <path class="st0" d="M143.1,218.9c-6.5,6.6-13,13.1-19.5,19.6h9.5c6.5-6.5,12.9-13,19.4-19.5-3.1,0-6.3-.1-9.4-.1Z"/>
    <path class="st0" d="M189,142.9c-1.7,0-3.5,0-5.2-.1-.2,0-.5,0-.7-.1-.6-.2-.9-.7-1-1.3-2.9,2.9-5.8,5.9-8.7,8.8,0,.7.2,1.4.7,1.7.4.2.9.3,1.4.3,1.6.1,3.3,0,4.9-.1,3-3,6.1-6.2,9.1-9.2-.1,0-.3,0-.5,0Z"/>
    <path class="st0" d="M210.5,132.9c-.9,0-3.3-.5-3.9.4-.2.2-.2.5-.2.8-.1,1.7-.1,3.4-.1,5.2,2.1-2.1,4.2-4.2,6.4-6.5h-2.1Z"/>
    <path class="st0" d="M199.7,142.7c-1.8,0-3.5.1-5.3.1h-1c-3.2,3.2-6.5,6.6-9.7,9.8,1.1,1.1.6,4.1.6,5.4v3.5c6.2-6.3,12.4-12.5,18.6-18.8-1,0-2.1-.1-3.1-.1Z"/>
    <path class="st0" d="M70,133.3c-2.9,2.9-5.9,5.9-8.7,8.8,3.1,0,6.4,0,9.5.1,2.9-2.9,5.9-5.9,8.7-8.8-3.2-.1-6.4-.1-9.5-.1Z"/>
    <path class="st0" d="M84.7,137.1c.1-.9.7-2.3.2-3.2-.4-.7-.9-.4-1.5-.4h-.1c-2.9,2.9-5.9,6-8.9,8.9.4,0,.8.1,1.3.1s.7.1.9.2c1.3.8.9,3.2.7,4.7,2.4-2.4,4.8-4.8,7.3-7.4-.1-.9,0-2,.1-2.9Z"/>
    <path class="st0" d="M204.1,205.3c.1-1,.1-2.1.1-3.1v-3.6c-3.8,3.8-7.8,7.8-11.6,11.6-9.6,9.5-19.1,19-28.7,28.4h9c10.6-10.5,21.3-21,31.9-31.6-.9-.3-.8-.9-.7-1.7Z"/>
    <path class="st0" d="M311,179.8c0-1.1,0-2.2-.2-3.2-.1-.3-.2-.7-.5-.8-1-.4-2.5-.2-3.7-.1-8.5,8.7-16.9,17.3-25.4,25.8v5.8c0,.1,0,.2-.1.4-.1.1-.2.2-.3.3-1,.5-2.1.5-3.3.5s-2,0-3-.1c-1.4,1.4-2.8,2.9-4.2,4.3,0,1-.1,1.9-.1,2.9s.2,2.2-.6,2.6-.8.2-1.2.2h-3.7c-6.6,6.7-13.1,13.3-19.7,19.9,2.6,0,5.3,0,8,.1,15.8-15.9,31.7-31.9,47.5-47.8,3.6-3.7,7.2-7.3,10.7-10.8Z"/>
    <path class="st0" d="M66.2,133.3c-3.1,0-6.2,0-9.3-.1-2.9,2.9-5.9,5.9-8.8,8.8,3.1,0,6.3.1,9.3.1,3-2.9,5.9-5.9,8.8-8.8Z"/>
    <path class="st0" d="M216.2,218.2c-.4,0-.8,0-1.2-.2-.7-.4-.3-1-.3-1.6.1-.7,0-1.4,0-2.1-2.5,2.5-5.1,5-7.7,7.6s-4.2,4.1-6.4,6.3h11c3.3-3.3,6.7-6.8,10-10.1-1.7.1-3.6.1-5.4.2Z"/>
    <path class="st0" d="M192.9,229.9c.1-.5.3-1,.6-1.3.5-.6,2.1-.6,3.6-.5,5.9-5.9,11.7-11.6,17.6-17.5,0-.7-.1-1.4-.1-2.2s-.1-.6-.3-.8-.4-.2-.7-.3c-.8-.1-1.6-.1-2.4-.1h-2.8c-2.6,2.6-5.3,5.3-8,8-7.9,7.8-15.7,15.6-23.7,23.4h9.6c2.1-2.1,4.2-4.1,6.3-6.3.1-.7.2-1.6.4-2.4Z"/>
    <path class="st0" d="M210.5,151.6h2.3c.5,0,1,.3,1.5-.1.5-.6.3-2,.4-2.7,0-.6,0-1.3.1-1.9l-4.7,4.7h.4Z"/>
    <path class="st0" d="M239,217.9c-6.2,6.2-12.2,12.3-18.4,18.5l-1.7,1.7c3,.1,6,.1,9,.1,6.7-6.8,13.3-13.4,20-20.2-2.9,0-6-.1-8.9-.1Z"/>
    <path class="st0" d="M256.7,218.2c-1.7,0-3.4-.1-5.1-.1-6.7,6.8-13.3,13.4-19.9,20.1h9.4c6.6-6.7,13.1-13.3,19.7-20-1.2.1-2.6.1-4,0Z"/>
    <path class="st0" d="M229.6,217.9c-1.3,0-2.6,0-4,.1-3.4,3.4-6.8,6.9-10.2,10.3.1,0,.2.1.2.1.3.2.6.6.6.9.3,1.2.2,2.5.3,3.7,0,.9.2,1.8.1,2.7,0,.3-.1.6-.1.9,6.3-6.3,12.4-12.5,18.7-18.8-1.8,0-3.7,0-5.5,0Z"/>
    <path class="st0" d="M106.3,185.1c0-3.2.1-6.4.1-9.6-6.3,6.2-12.5,12.3-18.8,18.6,0,2.8.1,5.6.1,8.4v1c.5-.5,1-1,1.6-1.5,5.6-5.6,11.3-11.3,16.9-16.8Z"/>
    <path class="st0" d="M367.3,181.9c0,.5.1,1.1.2,1.6,0,.2,0,.3.2.5.1.1.3.2.5.2,2.1.2,4.2,0,6.5,0,7.6-7.6,15-15.1,22.6-22.7v-3.8c0-1.1.4-3.3-1-3.7-.2-.1-.5-.1-.8-.1-5.8,5.9-11.6,11.7-17.5,17.6-3.6,3.4-7.2,7-10.7,10.5Z"/>
    <path class="st0" d="M378.3,157.4c0,2,0,4-.1,6.1,0,.4-.2.9-.5,1.2s-.7.4-1.1.5c-1.4.3-2.6-.3-4-.3h-2.2c-.7.7-1.4,1.4-2,2.1-2.3,2.3-4.6,4.7-7,7.1,1.9-.1,4.9-.3,5.6,1.3.3.6.2,1.2.2,1.9v.9c8.1-8.1,16-16.1,24.1-24.2-1.1,0-2.3.1-3.4.1s-1.2-.6-1.2-1.2c-.1-1.4-.1-2.8-.2-4.2-2.7,2.7-5.3,5.5-8.1,8.3-.1.1-.1.3-.1.5Z"/>
    <path class="st0" d="M362.1,141.8c2.9-3,6-6,8.9-9h-9.5c-2.9,3-6,6.1-9,9.1,3.2,0,6.4,0,9.6-.1Z"/>
    <path class="st0" d="M339.8,141.8c3,.1,6,.1,9,.1,3-3,6-6.1,9-9h-9.2l-3,3c-1.9,1.9-3.8,3.8-5.8,5.9Z"/>
    <path class="st0" d="M375.2,151.5c.5,0,1,0,1.4.1.5.1.9.3,1.2.7.2.3.3.6.3.9,2.7-2.7,5.3-5.4,8.1-8.2-.1-.8-.4-1.5-1.1-1.7-.9-.3-2.3-.1-3.2-.1s-2.2.2-3.5.1c-2.7,2.8-5.4,5.5-8.1,8.3,1.7-.1,3.3-.1,4.9-.1Z"/>
    <path class="st0" d="M366.8,142.5c.1.3.2.6.2.9v3.9c0,1.2-.3,2.5,0,3.6h0c3-3,6.1-6.1,9.1-9.2v-.8c.1-2.3.1-4.5.2-6.9,0-.3,0-.5-.1-.8-.2-.6-.7-.7-1.2-.7-3,3-6.1,6.1-9.1,9.1.4.2.8.4.9.8Z"/>
    <path class="st0" d="M328.6,141.5c2.5.1,4.9.1,7.5.2,2.9-2.9,5.8-6,8.7-8.9h-9.4c-2.8,2.9-5.6,5.8-8.5,8.7h1.7Z"/>
    <path class="st0" d="M217.3,194.7l8.2-8.2h-9.1c-2.7,2.7-5.5,5.4-8.3,8.3,3-.1,6.1-.1,9.2-.1Z"/>
    <path class="st0" d="M106.3,188.8c-6.2,6.2-12.4,12.2-18.6,18.3,0,3.8-.1,7.7-.6,11.3,0,.3-.1.6-.2.8,3.2-3.2,6.5-6.4,9.7-9.6l9.8-9.8c0-1.6-.1-3.2-.1-4.8v-6.2Z"/>
    <path class="st0" d="M378.3,197.2c-.1,3.4-.3,6.8-.6,10.2h0c6.5-6.6,12.9-13.2,19.4-19.9v-9.7c-2.4,2.4-4.7,4.8-7.1,7.4-3.8,4-7.8,8-11.7,12Z"/>
    <path class="st0" d="M378,184.5c.1.1.1.2.1.3.1.2.1.4.1.6.1.6,0,1.2,0,1.8,0,1,.1,1.9.1,2.9v3.2c6.3-6.5,12.5-12.9,18.8-19.4v-8.7c-4.1,4.2-8.4,8.5-12.6,12.7-2.1,2.1-4.2,4.3-6.5,6.5Z"/>
    <path class="st0" d="M270.4,150.4c0,.4,0,.9.4,1.1.2.2.5.2.8.3.6.1,1.3.1,1.9.1,2.6-2.6,5.3-5.3,8-8-.3,0-.6-.1-.8-.1-.5-.1-.9-.1-1.3-.4-.4-.4-.5-1.1-.5-1.7.1-1.5,0-3.1,0-4.6-2.8,2.8-5.6,5.6-8.5,8.5-.1,1.7,0,3.2,0,4.8Z"/>
    <path class="st0" d="M303.1,140.6c0,.8,0,1.6-.4,2.2-.7,1.2-2.7.9-4,1-5.8,6-11.6,11.8-17.4,17.8v.6c0,.7.1,1.5-.6,1.9-.3.2-.7.3-1.1.4-.5.1-.9.1-1.4.1-3.1,3.1-6.2,6.4-9.3,9.5.5.1.9.2,1.1.7.1.3.1.6.2.9v6.8c3.2-3.3,6.6-6.7,9.8-10,12.9-13.1,25.8-26.3,38.7-39.6h-9.4c-2.1,2.2-4.2,4.3-6.4,6.6.1.4.1.8.1,1.2Z"/>
    <path class="st0" d="M280.3,152.1c.3,0,.7.1.9.4.1.1.1.3.1.5.2,1.6.1,3.1,0,4.7,4.4-4.5,8.9-9.1,13.3-13.6-.8,0-1.6.1-2.4.1-2.3.1-4.7.1-7.2,0-2.6,2.6-5.1,5.1-7.8,7.8,1,0,2,0,3,.1Z"/>
    <path class="st0" d="M323.1,141.4c2.8-2.8,5.6-5.8,8.4-8.6h-9.1c-2.7,2.8-5.5,5.6-8.3,8.5,3.1,0,6.1,0,9,.1Z"/>
    <path class="st0" d="M86.9,219.4h.1c-.1,0-.2.1-.1,0-.1.1-.1,0,0,0Z"/>
    <path class="st0" d="M377.6,207.9c.1-.1.1-.2.1-.4-.2.2-.3.3-.5.5.1,0,.3,0,.4-.1Z"/>
    <path class="st0" d="M53.2,228c.1-.1.2-.2.3-.3-.1.1-.2.2-.3.3Z"/>
  </g>
  <g>
    <path class="st0" d="M16.8,274.7v3.2h9.7v-4.8c-.1-.6-.4-1-.9-1h-.9c-1.3,0-2-.9-2-2.8s.3-1.8.8-2.4c.6-.6,1.3-.9,2.2-.9s1.5.1,2.8.2c1.2.2,2.1.2,2.8.2s1.8-.1,3-.2c2.1-.2,3.1-.3,3.1-.3,1,0,1.8.3,2.4.9.6.6.9,1.4.9,2.5s-.2,1.6-.7,2.2-1.1.9-1.8.9-.6-.1-1.1-.2-.8-.2-1.1-.2c-.6,0-1,.4-1.2,1.1-.1.3-.1.9-.1,1.9v12.8c0,2.1.4,3.1,1.2,3.1s.6-.1,1.1-.2.9-.2,1.1-.2c.7,0,1.3.3,1.8.9s.7,1.3.7,2.2-.3,1.8-.9,2.5c-.6.6-1.4.9-2.4.9h-.4c-.6,0-1.5-.1-2.8-.2-1.2-.2-2.2-.2-2.8-.2-1.2,0-2.2.1-3,.2-1.3.2-2.1.3-2.7.3-.9,0-1.6-.3-2.2-.9s-.8-1.4-.8-2.5c0-1.9.7-2.8,2-2.8h.9c.5,0,.8-.3.9-1v-6.2h-9.7v6.2c.1.6.4,1,.9,1h.9c1.3,0,2,.9,2,2.8s-.3,1.8-.8,2.5c-.6.6-1.3.9-2.2.9s-1.4-.1-2.5-.2c-1.1-.2-2-.2-2.5-.2-1.3,0-2.5.1-3.4.2-1.5.2-2.5.3-3.1.3-1,0-1.8-.3-2.4-.9-.6-.6-.9-1.4-.9-2.4s.2-1.6.7-2.2,1.1-.9,1.8-.9.6.1,1.1.2c.5.1.8.2,1.1.2.8,0,1.2-1,1.2-3.1v-12.8c0-2-.4-3.1-1.2-3.1s-.6.1-1.1.2c-.5.1-.8.2-1.1.2-.7,0-1.3-.3-1.8-.9s-.7-1.3-.7-2.2.3-1.8.9-2.4,1.4-.9,2.4-.9,1.3.1,2.9.3c1.1.1,2.2.2,3.3.2s1.8-.1,2.7-.2c1.2-.2,2.1-.3,2.6-.3.9,0,1.7.3,2.2.9.6.6.8,1.4.8,2.5,0,1.8-.7,2.8-2,2.8h-.9c-.5,0-.8.3-.9,1,.1-.3.1.3.1,1.3Z"/>
    <path class="st0" d="M65.3,283.4c0,1.3-.2,2.1-.5,2.6-.3.4-1,.6-1.9.6h-11.3c-.6,0-.9.1-1,.2s-.2.4-.2.8c0,1.3.4,2.4,1.2,3.2.8.9,1.9,1.3,3.1,1.3s2.6-.7,3.9-2.1c.9-1,1.9-1.5,3-1.5s1.7.3,2.2.8c.6.5.8,1.2.8,2,0,1.8-1,3.3-2.9,4.5s-4.3,1.9-7.2,1.9-6.6-1.1-8.8-3.3c-2.2-2.2-3.3-5.1-3.3-8.9s1.1-6.8,3.2-9.1c2.2-2.3,5-3.4,8.6-3.4s5.9.9,7.9,2.8c2.1,1.8,3.1,4.3,3.1,7.5ZM50.6,281.1c0,.2,0,.3.1.5.1.1.4.2,1,.2h5.1c.5,0,.7-.1.8-.2s.2-.3.2-.6c0-.8-.4-1.5-1.1-2.1-.7-.6-1.5-.9-2.5-.9s-2.2.5-3,1.4c-.3.7-.6,1.2-.6,1.7Z"/>
    <path class="st0" d="M78.2,280.7l3.1,10,3.1-9.5c.2-.7.4-1.3.4-1.7s-.2-.6-.7-.8l-.8-.3c-.6-.2-1-.9-1-1.9s.2-1.4.7-1.9c.4-.5,1-.8,1.7-.8s1.2.1,2.1.2,1.7.2,2.1.2,1.2-.1,2.2-.2,1.7-.2,2.2-.2c1.8,0,2.8,1,2.8,3s-.2,1.3-.6,1.9c-.4.5-.9.8-1.5.8s-.3,0-.6-.1c-.3-.1-.5-.1-.6-.1-.6,0-1,.5-1.3,1.4l-.6,1.6-3.9,10.4c-1.2,3.2-2.1,5.2-2.5,6.3-.5.9-1.2,2-2,3.1-2.4,3.1-5.4,4.6-9.1,4.6s-4-.5-5.4-1.6c-1.4-1-2.1-2.4-2.1-4s.4-2.1,1.1-2.8c.7-.7,1.6-1.1,2.7-1.1s1.7.3,2.3.8c.6.6.9,1.3.9,2.2s0,.7-.1,1c.4.2.8.3,1.1.3.8,0,1.6-.5,2.4-1.5.7-1,1.1-1.8,1.1-2.5s-.5-2.2-1.6-4.6l-5.1-12.2c-.4-.9-.7-1.3-1.1-1.3,0,0-.3,0-.7.1h-.4c-1.6,0-2.3-.9-2.3-2.6s.3-1.6.8-2.2,1.2-.9,2-.9,1.2.1,2.2.2,1.7.2,2.2.2,1.6-.1,2.9-.2c1.4-.1,2.1-.2,2.2-.2,1.7,0,2.5.9,2.5,2.7s-.6,2-1.9,2.2c-.6.1-1,.4-1,.8-.2.3-.2.7,0,1.3Z"/>
    <path class="st0" d="M108.6,285.2c-.2,1.5-.9,2.3-2.2,2.3h-1.8c-1.3,0-2-.8-2.2-2.3l-1.4-14.9c-.1-.9-.1-1.6-.1-1.8,0-2.1,1.5-3.1,4.6-3.1s4.6,1,4.6,3.1,0,1.2-.1,1.8l-1.4,14.9ZM105.3,297.8c-1.2,0-2.2-.4-3-1.3-.9-.9-1.3-1.9-1.3-3.1s.4-2.2,1.3-3.1,1.9-1.3,3-1.3,2.2.4,3.1,1.3,1.3,1.9,1.3,3.1-.4,2.2-1.3,3.1c-.8.9-1.9,1.3-3.1,1.3Z"/>
    <path class="st0" d="M142.1,274.7v3.2h9.7v-4.8c-.1-.6-.4-1-.9-1h-1c-1.3,0-2-.9-2-2.8s.3-1.8.8-2.4c.6-.6,1.3-.9,2.2-.9s1.5.1,2.8.2c1.2.2,2.1.2,2.8.2s1.8-.1,3-.2c2.1-.2,3.1-.3,3.1-.3,1,0,1.8.3,2.4.9.6.6.9,1.4.9,2.5s-.2,1.6-.7,2.2-1.1.9-1.8.9-.6-.1-1.1-.2-.8-.2-1.1-.2c-.6,0-1,.4-1.2,1.1-.1.3-.1.9-.1,1.9v12.8c0,2.1.4,3.1,1.2,3.1s.6-.1,1.1-.2.9-.2,1.1-.2c.7,0,1.3.3,1.8.9s.7,1.3.7,2.2-.3,1.8-.9,2.5c-.6.6-1.4.9-2.4.9h-.4c-.6,0-1.5-.1-2.8-.2-1.2-.2-2.2-.2-2.8-.2-1.2,0-2.2.1-3,.2-1.3.2-2.1.3-2.7.3-.9,0-1.6-.3-2.2-.9-.6-.6-.8-1.4-.8-2.5,0-1.9.7-2.8,2-2.8h.9c.5,0,.8-.3.9-1v-6.2h-9.7v6.2c.1.6.4,1,.9,1h.9c1.3,0,2,.9,2,2.8s-.3,1.8-.8,2.5c-.6.6-1.3.9-2.2.9s-1.4-.1-2.5-.2c-1.1-.2-2-.2-2.5-.2-1.3,0-2.5.1-3.4.2-1.5.2-2.5.3-3.1.3-1,0-1.8-.3-2.4-.9-.6-.6-.9-1.4-.9-2.4s.2-1.6.7-2.2,1.1-.9,1.8-.9.6.1,1.1.2.8.2,1.1.2c.8,0,1.2-1,1.2-3.1v-12.8c0-2-.4-3.1-1.2-3.1s-.6.1-1.1.2-.8.2-1.1.2c-.7,0-1.3-.3-1.8-.9s-.7-1.3-.7-2.2.3-1.8.9-2.4c.6-.6,1.4-.9,2.4-.9s1.3.1,2.9.3c1.1.1,2.2.2,3.3.2s1.8-.1,2.7-.2c1.2-.2,2.1-.3,2.6-.3.9,0,1.7.3,2.2.9.6.6.8,1.4.8,2.5,0,1.8-.7,2.8-2,2.8h-.9c-.5,0-.8.3-.9,1,.2-.3.2.3.2,1.3Z"/>
    <path class="st0" d="M177.9,273.8c.9,0,1.3.6,1.3,1.8v13.9c0,1.6.3,2.3.9,2.3s.3,0,.7-.1c.3-.1.6-.1.8-.1,1.3,0,1.9.8,1.9,2.4s-.9,3.2-2.7,3.2-1.2-.1-2.6-.2c-.9-.1-1.8-.1-2.9-.1s-1.4.1-2.4.2c-1.1.1-1.9.2-2.4.2-.8,0-1.5-.3-2-.8-.5-.6-.8-1.3-.8-2.2,0-1.7.7-2.6,2.2-2.6l1.2.3h.3c.6,0,.8-.9.8-2.6v-7.7c0-1.7-.3-2.6-.8-2.6s-.4.1-.8.2c-.3.1-.6.1-.7.1-1.5,0-2.2-.9-2.2-2.6s.3-1.7.8-2.2c.5-.6,1.2-.8,2.1-.8s.8,0,1.5.1c1.1.2,1.9.2,2.6.2s1.2-.1,2-.2c.6-.1,1.1-.1,1.2-.1ZM175.2,271.9c-1.1,0-2.1-.4-2.9-1.2-.8-.8-1.2-1.8-1.2-2.9s.4-2.1,1.2-3c.8-.8,1.8-1.2,3-1.2s2.1.4,3,1.2c.8.8,1.2,1.8,1.2,3s-.4,2.1-1.2,3c-1,.7-2,1.1-3.1,1.1Z"/>
    <path class="st0" d="M196.7,285.2c-.2,1.5-.9,2.3-2.2,2.3h-1.8c-1.3,0-2-.8-2.2-2.3l-1.4-14.9c-.1-.9-.1-1.6-.1-1.8,0-2.1,1.5-3.1,4.6-3.1s4.6,1,4.6,3.1,0,1.2-.1,1.8l-1.4,14.9ZM193.6,297.8c-1.2,0-2.2-.4-3-1.3-.9-.9-1.3-1.9-1.3-3.1s.4-2.2,1.3-3.1c.9-.9,1.9-1.3,3-1.3s2.2.4,3.1,1.3c.9.9,1.3,1.9,1.3,3.1s-.4,2.2-1.3,3.1-1.9,1.3-3.1,1.3Z"/>
    <path class="st0" d="M230.2,274.7v3.2h9.7v-4.8c-.1-.6-.4-1-.9-1h-1c-1.3,0-2-.9-2-2.8s.3-1.8.8-2.4c.6-.6,1.3-.9,2.2-.9s1.5.1,2.8.2c1.2.2,2.1.2,2.8.2s1.8-.1,3-.2c2.1-.2,3.1-.3,3.1-.3,1,0,1.8.3,2.4.9.6.6.9,1.4.9,2.5s-.2,1.6-.7,2.2-1.1.9-1.8.9-.6-.1-1.1-.2-.8-.2-1.1-.2c-.6,0-1,.4-1.2,1.1-.1.3-.1.9-.1,1.9v12.8c0,2.1.4,3.1,1.2,3.1s.6-.1,1.1-.2.9-.2,1.1-.2c.7,0,1.3.3,1.8.9s.7,1.3.7,2.2-.3,1.8-.9,2.5c-.6.6-1.4.9-2.4.9h-.4c-.6,0-1.5-.1-2.8-.2-1.2-.2-2.2-.2-2.8-.2-1.2,0-2.2.1-3,.2-1.3.2-2.1.3-2.7.3-.9,0-1.6-.3-2.2-.9-.6-.6-.8-1.4-.8-2.5,0-1.9.7-2.8,2-2.8h.9c.5,0,.8-.3.9-1v-6.2h-9.7v6.2c.1.6.4,1,.9,1h.9c1.3,0,2,.9,2,2.8s-.3,1.8-.8,2.5c-.6.6-1.3.9-2.2.9s-1.4-.1-2.5-.2c-1.1-.2-2-.2-2.5-.2-1.3,0-2.5.1-3.4.2-1.5.2-2.5.3-3.1.3-1,0-1.8-.3-2.4-.9-.6-.6-.9-1.4-.9-2.4s.2-1.6.7-2.2,1.1-.9,1.8-.9.6.1,1.1.2.8.2,1.1.2c.8,0,1.2-1,1.2-3.1v-12.8c0-2-.4-3.1-1.2-3.1s-.6.1-1.1.2-.8.2-1.1.2c-.7,0-1.3-.3-1.8-.9s-.7-1.3-.7-2.2.3-1.8.9-2.4c.6-.6,1.4-.9,2.4-.9s1.3.1,2.9.3c1.1.1,2.2.2,3.3.2s1.8-.1,2.7-.2c1.2-.2,2.1-.3,2.6-.3.9,0,1.7.3,2.2.9.6.6.8,1.4.8,2.5,0,1.8-.7,2.8-2,2.8h-.9c-.5,0-.8.3-.9,1,.2-.3.2.3.2,1.3Z"/>
    <path class="st0" d="M268.2,297.8c-3.8,0-6.8-1.1-8.9-3.2-2.1-2.1-3.1-5.2-3.1-9.1s1-7,3.1-9.1c2-2.2,4.9-3.2,8.7-3.2s6.6,1.1,8.7,3.2,3.1,5.1,3.1,8.9-1,7.1-3,9.3c-2,2.1-4.9,3.2-8.6,3.2ZM268,278.8c-1.3,0-2.4.6-3.2,1.8-.8,1.2-1.2,2.8-1.2,4.8s.4,3.7,1.2,4.9c.8,1.2,1.9,1.7,3.3,1.7,2.8,0,4.3-2.2,4.3-6.7,0-4.4-1.5-6.7-4.4-6.7Z"/>
    <path class="st0" d="M292,280.8l2,9.9,2.9-13.6c.3-1.3.8-2.2,1.4-2.7s1.7-.7,3.3-.7,3,.2,3.6.7c.6.4,1,1.5,1.4,3.2l2.6,13.1,2.4-10.4c.1-.2.1-.5.1-.6,0-.5-.4-.7-1.1-.7-1.5,0-2.2-.9-2.2-2.6s.9-2.7,2.6-2.7,1.3.1,2.3.2,1.8.2,2.3.2,1.2-.1,2.2-.2,1.7-.2,2.2-.2c.8,0,1.4.3,1.9.8s.7,1.2.7,2.1-.2,1.4-.6,1.9-.9.8-1.5.8h-.5c-.4-.1-.7-.1-.7-.1-.4,0-.7.6-1.1,1.7,0,0-.1.5-.4,1.3l-3.8,12c-.6,2-1.4,2.9-2.4,2.9s-.8,0-1.4-.1-1.1-.1-1.4-.1-.7,0-1.3.1c-.6.1-1,.1-1.3.1-1.1,0-1.9-1.2-2.4-3.6l-2.2-12.2-2.7,11.8c-.4,1.7-.7,2.8-1,3.3-.3.4-.7.7-1.4.7s-.8,0-1.4-.1-1.1-.1-1.5-.1-.8,0-1.5.1c-.6.1-1.1.1-1.5.1-.9,0-1.6-.8-2.1-2.3l-3.5-14.1c-.2-.9-.6-1.4-1.2-1.4s-.3,0-.6.1c-.3,0-.5.1-.6.1-1.3,0-1.9-.9-1.9-2.7s.9-3,2.7-3,1.2.1,2.2.2,1.7.2,2.2.2,1.3-.1,2.4-.2,1.9-.2,2.4-.2c1.7,0,2.5.9,2.5,2.8s-.6,2.4-1.8,2.5c-.6.1-.9.1-1.1.2-.1.1-.2.3-.2.6v.4c-.1,0-.1.2,0,.5Z"/>
    <path class="st0" d="M333.3,273.4c2.3,0,4.5.9,6.5,2.7v-3.3c0-1.1-.4-1.7-1.1-1.7s-.6,0-1.1.1c-.4.1-.8.2-1.2.2-.6,0-1.1-.2-1.5-.7s-.6-1.1-.6-1.8c0-2,1-2.9,3.1-2.9h1.5c1.2.1,2,.2,2.5.2s1,0,1.7-.1c.8-.1,1.3-.1,1.7-.1.8,0,1.3.2,1.6.5.3.4.4,1,.4,1.9v21.1c0,1.6.3,2.3.9,2.3s.4,0,.7-.1c.2-.1.4-.1.7-.1,1.3,0,2,.8,2,2.3s-.2,1.7-.7,2.3c-.5.6-1.1.9-1.8.9h-.3l-1.6-.3c-.4-.1-.9-.1-1.6-.1s-1.5,0-2,.1c-.8.1-1.2.1-1.2.1-.9,0-1.4-.6-1.4-1.7v-1.7c-1.6,2.7-4,4.1-7.3,4.1s-5.1-1.2-7-3.5-2.7-5.2-2.7-8.8.9-6.6,2.7-8.8c1.7-2,4.1-3.1,7.1-3.1ZM334.9,279.2c-1.1,0-2.1.5-2.8,1.6-.7,1.1-1.1,2.5-1.2,4.4v.6c0,1.9.4,3.3,1.1,4.4s1.7,1.6,2.9,1.6,2.4-.6,3.3-1.7c.8-1.2,1.3-2.7,1.3-4.6s-.4-3.4-1.2-4.5c-.9-1.2-2-1.8-3.4-1.8Z"/>
    <path class="st0" d="M363.3,280.7l3.1,10,3.1-9.5c.2-.7.4-1.3.4-1.7s-.2-.6-.7-.8l-.8-.3c-.6-.2-1-.9-1-1.9s.2-1.4.7-1.9c.4-.5,1-.8,1.7-.8s1.2.1,2.1.2,1.7.2,2.1.2,1.2-.1,2.2-.2,1.7-.2,2.2-.2c1.8,0,2.8,1,2.8,3s-.2,1.3-.6,1.9c-.4.5-.9.8-1.5.8s-.3,0-.6-.1c-.3-.1-.5-.1-.6-.1-.6,0-1,.5-1.3,1.4l-.6,1.6-3.9,10.4c-1.2,3.2-2.1,5.2-2.5,6.3-.5.9-1.2,2-2,3.1-2.4,3.1-5.4,4.6-9.1,4.6s-4-.5-5.4-1.6c-1.4-1-2.1-2.4-2.1-4s.4-2.1,1.1-2.8c.7-.7,1.6-1.1,2.7-1.1s1.7.3,2.3.8c.6.6.9,1.3.9,2.2s0,.7-.1,1c.4.2.8.3,1.1.3.8,0,1.6-.5,2.4-1.5.7-1,1.1-1.8,1.1-2.5s-.5-2.2-1.6-4.6l-5.1-12.2c-.4-.9-.7-1.3-1.1-1.3,0,0-.3,0-.7.1h-.4c-1.6,0-2.3-.9-2.3-2.6s.3-1.6.8-2.2,1.2-.9,2-.9,1.2.1,2.2.2,1.7.2,2.2.2,1.6-.1,2.9-.2c1.4-.1,2.1-.2,2.2-.2,1.7,0,2.5.9,2.5,2.7s-.6,2-1.9,2.2c-.6.1-1,.4-1,.8-.3.3-.2.7,0,1.3Z"/>
    <path class="st0" d="M393.6,285.2c-.2,1.5-.9,2.3-2.2,2.3h-1.8c-1.3,0-2-.8-2.2-2.3l-1.4-14.9c-.1-.9-.1-1.6-.1-1.8,0-2.1,1.5-3.1,4.6-3.1s4.6,1,4.6,3.1,0,1.2-.1,1.8l-1.4,14.9ZM390.4,297.8c-1.2,0-2.2-.4-3-1.3-.9-.9-1.3-1.9-1.3-3.1s.4-2.2,1.3-3.1,1.9-1.3,3-1.3,2.2.4,3.1,1.3,1.3,1.9,1.3,3.1-.4,2.2-1.3,3.1c-.9.9-1.9,1.3-3.1,1.3Z"/>
  </g>
</svg>