<?xml version="1.0" encoding="utf-8"?>
<!-- Generator: Adobe Illustrator 27.9.1, SVG Export Plug-In . SVG Version: 6.00 Build 0)  -->
<svg version="1.1" id="Layer_1" xmlns="http://www.w3.org/2000/svg" xmlns:xlink="http://www.w3.org/1999/xlink" x="0px" y="0px"
	 viewBox="0 0 397.6 325.6" style="enable-background:new 0 0 397.6 325.6;" xml:space="preserve">
<style type="text/css">
	.st0{fill:#62BA46;}
</style>
<g>
	<path class="st0" d="M115.3,68.7c0,0.8,0,1.7,0,2.5c0,1.6-0.1,3.2-0.3,4.8c-0.1,0.8-0.1,1.6-0.2,2.4c0,0.1,0,0.2,0,0.3
		c5.6-5.6,11.2-11.3,16.7-17c-3.2,0-6.3,0.1-9.5,0.1C119.8,64.2,117.6,66.4,115.3,68.7z"/>
	<path class="st0" d="M120.7,49.3c0.8,0,1.5,0,2.3,0c2.1,0,4.2,0,6.3,0c0.5,0,0.9,0,1.4,0c3.1-3.1,6.2-6.3,9.3-9.4
		c3.3-3.4,6.7-6.8,10-10.2c-3.2,0-6.5,0-9.7,0C133.8,36.2,127.3,42.7,120.7,49.3z"/>
	<path class="st0" d="M143,49.4c0.2,0,0.5,0,0.7,0c1-1,2-2,2.9-3c5.6-5.7,11.1-11.3,16.7-17c-0.4,0-0.9,0-1.3,0
		c-2.3,0.1-4.5,0.2-6.8,0.2c-0.5,0-1,0-1.5,0c-6.4,6.6-12.8,13.1-19.3,19.6C137.3,49.3,140.2,49.4,143,49.4z"/>
	<path class="st0" d="M150.5,80.8c5.4-5.5,10.9-11,16.3-16.4c6.8-6.8,13.5-13.6,20.2-20.3c0-2.9,0-5.8,0-8.8
		c-14.9,15.2-29.8,30.3-44.7,45.4C145.1,80.7,147.8,80.8,150.5,80.8z"/>
	<path class="st0" d="M167.3,81.2c0.6,0,1,0.4,1.1,0.8c0.2,0.2,0.3,0.5,0.3,0.8c-0.1,2.6-0.2,5.2-0.3,7.8c3.3-3.3,6.5-6.6,9.8-9.9
		c3.1-3.1,6.2-6.2,9.2-9.3c0-3.5-0.1-7-0.1-10.6c-6.7,6.8-13.5,13.6-20.2,20.3C167.1,81.2,167.2,81.2,167.3,81.2z"/>
	<path class="st0" d="M163.4,81.1c3.3-3.4,6.7-6.7,10-10.1c4.6-4.6,9.2-9.3,13.8-13.9c-0.1-3.1-0.1-6.2-0.1-9.3
		c-11,11-21.9,22.1-32.9,33.1C157.3,80.9,160.3,81,163.4,81.1z"/>
	<path class="st0" d="M116.8,80.7c1,0,1.9,0,2.9,0c1.9,0,3.7,0,5.6,0c0.1,0,0.3,0,0.4,0c6.2-6.2,12.3-12.5,18.5-18.8
		c-0.7-0.1-1.3-0.1-2-0.2c-2.2-0.2-4.5,0-6.7,0.1C129.1,68,122.9,74.4,116.8,80.7C116.7,80.7,116.7,80.7,116.8,80.7z"/>
	<path class="st0" d="M82.7,97.9c2.7-2.7,5.4-5.5,8.2-8.2c-0.1-3.4-0.3-6.9-0.4-10.3c-2.5,2.4-4.9,4.9-7.4,7.3
		C83,89,83,91.3,82.9,93.6C82.8,95,82.7,96.4,82.7,97.9z"/>
	<path class="st0" d="M90.2,66.5c-2.3,2.3-4.6,4.6-6.9,6.9c0,3.2,0,6.3-0.1,9.5c2.4-2.4,4.8-4.8,7.2-7.1
		C90.3,72.7,90.2,69.6,90.2,66.5z"/>
	<path class="st0" d="M114.8,42c0,1.3,0,2.5-0.1,3.8c0,1.2-0.5,3,0.8,3.5c0.4,0.1,0.8,0.1,1.3,0.1c5.7-5.7,11.4-11.4,17.1-17
		c0.9-0.9,1.8-1.8,2.7-2.7c-3.1,0-6.3,0-9.4-0.1C123,33.8,118.9,37.9,114.8,42z"/>
	<path class="st0" d="M138.7,80.7c7.6-7.7,15.2-15.4,22.7-23.1c8.7-8.8,17.2-17.5,25.7-26.2c0-0.1,0-0.1,0-0.2
		c0.1-3.2,0.2-6.5,0.4-9.7c-10.2,10.4-20.3,20.8-30.5,31.1c-0.1,0.8-0.1,1.6-0.2,2.5c-0.1,1.3-0.3,2.7-0.3,4c0,0.9,0.2,2.1-0.6,2.6
		c-0.3,0.2-0.7,0.3-1.1,0.3c-1.3,0.1-2.6,0.2-3.9,0.2c-1.1,0-2.1,0-3.2-0.1c-6.1,6.2-12.2,12.4-18.3,18.5
		C132.5,80.6,135.6,80.6,138.7,80.7z"/>
	<path class="st0" d="M263.4,113.1c6.4-6.5,12.8-12.9,19.2-19.3c-2,0.1-4.1,0.1-6.1,0.2c-0.7,0-1.2,0.1-1.9,0.1
		c-0.4,0-0.9-0.1-1.2-0.4l-0.1-0.1c-6.5,6.5-12.9,13-19.4,19.5C257.1,113.1,260.2,113.1,263.4,113.1z"/>
	<path class="st0" d="M159.2,113.1c8.5-8.6,17.1-17.2,25.6-25.7c0.8-0.9,1.7-1.7,2.5-2.6c0.1-2.1,0.1-4.2,0.1-6.3c0-0.8,0-1.6,0-2.4
		c0-0.3,0-0.6,0-0.9c-12.5,12.7-25.1,25.3-37.7,37.9C152.9,113.1,156.1,113.1,159.2,113.1z"/>
	<path class="st0" d="M211.1,79.9c0.9,0.8,2.7,0.6,3.9,0.6c1,0,2,0.1,3,0.1c3.7-3.7,7.4-7.4,11-11.1v-0.1c0-1.2,0.1-2.5,0.1-3.7
		c0.1-2,0.1-4,0.2-6c-6.3,6.3-12.5,12.6-18.8,18.9C210.5,79.1,210.7,79.5,211.1,79.9z"/>
	<path class="st0" d="M272.3,38.1c0-1.1,0-2.1,0.1-3.2c0.1-1.8,0.2-3.6,0.2-5.5c-2.7,2.7-5.4,5.5-8.1,8.2c-0.1,2.9-0.1,5.8-0.2,8.7
		C267,43.6,269.7,40.8,272.3,38.1z"/>
	<path class="st0" d="M225.8,80.8c1.7,0,3.3,0.1,5,0.1c2.7-2.8,5.4-5.5,8.1-8.3c-0.9,0-1.7,0-2.6,0c-2.1,0-4.2,0-6.2,0
		c-0.1,0-0.2,0-0.3,0c-2.7,2.7-5.4,5.4-8.1,8.1C223,80.7,224.4,80.7,225.8,80.8z"/>
	<path class="st0" d="M172.1,113.1c6.5-6.4,12.9-12.9,19.4-19.4c-0.6,0-1.2,0-1.8,0s-1.2,0.1-1.8,0c-0.2,0-0.5-0.1-0.6-0.3
		c-0.1-0.1-0.1-0.3-0.1-0.5c0-1.4,0-2.8,0.1-4.3c-8.1,8.2-16.2,16.3-24.3,24.4C166,113.1,169.1,113.1,172.1,113.1z"/>
	<path class="st0" d="M253,88.2c0,0.7,0,1.5,0,2.2c0,0.9,0,1.7,0,2.6s-0.9,1.3-1.6,1.2c-1.4,0-2.8,0-4.3,0
		c-6.2,6.3-12.4,12.6-18.6,19c3.1,0,6.2,0,9.4,0c11.6-11.8,23-23.5,34.4-35.1c0-0.7-0.1-1.4-0.1-2.1c-0.1-2.4-0.1-4.9,0-7.3
		c-0.4,0.4-0.8,0.8-1.2,1.2C265,75.9,259,82,253,88.2z"/>
	<path class="st0" d="M250.2,113.1c7.6-7.7,15.2-15.3,22.8-22.9c-0.1-1.9-0.3-3.8-0.4-5.8c0-0.9-0.1-1.9-0.1-2.8
		c-10.3,10.5-20.5,21-30.8,31.5C244.5,113.1,247.4,113.1,250.2,113.1z"/>
	<path class="st0" d="M263.7,67.6c0,1.5,0.5,3.5-0.2,4.9c-0.5,1-1.6,0.6-2.6,0.6c-1.4,0-2.8-0.1-4.2-0.1c-0.5,0-1,0-1.4,0
		c-2.6,2.7-5.3,5.4-7.9,8.1c0.4,0,0.8,0,1.1,0c1,0,2.4-0.1,3.4,0.4c0.5,0.3,0.9,0.7,1.1,1.4c0.1,0.5,0.1,1,0.1,1.5
		c6.4-6.6,12.8-13.1,19.2-19.7c0.1-3.2,0.2-6.4,0.3-9.5c-2.9,3-5.8,6-8.7,9C263.8,65.2,263.8,66.4,263.7,67.6z"/>
	<path class="st0" d="M264,60.1c2.9-3,5.7-5.9,8.6-8.9c0-3.1-0.2-6.3-0.2-9.4c-2.7,2.8-5.4,5.6-8.1,8.4
		C264.1,53.5,264.1,56.8,264,60.1z"/>
	<path class="st0" d="M90.3,40.3c-2.5,2.5-4.9,4.9-7.4,7.4c0.1,3.1,0.1,6.2,0.2,9.3c2.4-2.4,4.7-4.7,7.1-7.1
		C90.2,46.7,90.2,43.5,90.3,40.3z"/>
	<path class="st0" d="M90.6,25.4c-2.7,2.7-5.4,5.4-8,8.1c0.1,3.5,0.1,7,0.2,10.5c2.5-2.5,5-5,7.5-7.6C90.4,32.8,90.5,29.1,90.6,25.4
		z"/>
	<path class="st0" d="M90.9,18.1c0-0.9,0.8-1.2,1.4-1.2c0.1,0,0.2,0,0.3,0c0.9,0,1.8,0,2.7,0.1c2.8-2.8,5.6-5.7,8.5-8.5
		c-3.1,0-6.3,0-9.4,0c-4,4-7.9,8-11.9,12c0,2.5,0,4.9,0,7.4c0,0.7,0,1.4,0,2.1c2.8-2.8,5.5-5.5,8.3-8.3
		C90.8,20.4,90.9,19.2,90.9,18.1z"/>
	<path class="st0" d="M210.5,74.8c6.3-6.3,12.6-12.6,18.9-18.9c0.1-3.4,0.2-6.8,0.3-10.2c-6.3,6.4-12.7,12.9-19,19.3
		c0,2.3-0.1,4.6-0.1,6.9C210.5,72.8,210.5,73.8,210.5,74.8z"/>
	<path class="st0" d="M109,17.2c0.2,0,0.3,0,0.5,0c0.9-0.9,1.7-1.7,2.6-2.6c2-2,4-4.1,6-6.1c-2.8,0-5.7,0-8.5,0c-0.7,0-1.4,0-2.1,0
		c-2.8,2.9-5.7,5.7-8.5,8.6C102.3,17.1,105.7,17.1,109,17.2z"/>
	<path class="st0" d="M119.2,29.4c-1,0-2.6-0.6-3.5,0.2c-1.2,1-0.7,4.2-0.7,5.6c0,1,0,2-0.1,3c2.9-2.9,5.8-5.7,8.6-8.6
		C122,29.5,120.6,29.5,119.2,29.4z"/>
	<path class="st0" d="M83.5,8.5c-1.4,0.1-0.9,2.3-0.9,3.3c0,1.6,0,3.2,0,4.8c2.7-2.7,5.4-5.5,8.2-8.2C88.3,8.3,85.8,8.2,83.5,8.5z"
		/>
	<path class="st0" d="M224.9,113.1c6.3-6.4,12.5-12.7,18.6-19c-2,0-3.9,0-5.9,0c-1,0-2,0-2.9,0c-6.2,6.4-12.4,12.7-18.7,19.1
		C218.9,113.1,221.9,113.1,224.9,113.1z"/>
	<path class="st0" d="M243.7,81c2.7-2.7,5.3-5.5,8-8.2c-2.9-0.1-5.7-0.1-8.6-0.2c-0.2,0-0.4,0-0.6,0c-2.7,2.8-5.4,5.5-8.1,8.3
		c0.2,0,0.3,0,0.5,0C237.8,81,240.7,81,243.7,81z"/>
	<path class="st0" d="M212.3,113.1c0.2-0.2,0.3-0.4,0.5-0.5c6-6.2,12.1-12.3,18.2-18.5c-2.3,0-4.6,0-6.9-0.1c-0.8,0-1.6,0-2.3,0
		c-6.3,6.4-12.5,12.8-18.8,19.1C206,113.1,209.1,113.1,212.3,113.1z"/>
	<path class="st0" d="M189.2,113.1c3.3,0,6.7,0,10,0c2.3-2.4,4.7-4.7,7-7.1c3.9-4,7.9-8,11.8-12c-2.5,0-5.1,0-7.6-0.1
		c-0.6,0-1.3,0-1.9,0C202,100.3,195.6,106.7,189.2,113.1z"/>
	<path class="st0" d="M200,98.5c1.6-1.6,3.1-3.1,4.7-4.7c-2.7,0-5.3,0-8-0.1c-0.5,0-1,0-1.4,0c-6.5,6.4-12.9,12.9-19.4,19.3
		c3.2,0,6.3,0,9.5,0C190.3,108.2,195.2,103.3,200,98.5z"/>
	<path class="st0" d="M128.9,94.4c-6.1,6.2-12.3,12.4-18.5,18.7c2.7,0,5.3,0,8,0c6.2-6.2,12.3-12.4,18.5-18.6
		C134.3,94.4,131.6,94.4,128.9,94.4z"/>
	<path class="st0" d="M92.7,94.2c-0.1,0-0.2,0-0.3,0c-0.6,0-1.2-0.3-1.3-0.9c-2.7,2.7-5.4,5.5-8.1,8.2c0.1,0,0.1,0.1,0.2,0.1
		c1.2,0.4,2.8,0.2,4.1,0.3c0.8,0,1.6,0,2.4,0c0.7,0,1.4,0.1,2.1,0.1h0.1c2.6-2.6,5.1-5.2,7.7-7.7C97.2,94.2,94.9,94.2,92.7,94.2z"/>
	<path class="st0" d="M135.4,113c2.1,0,4.2,0,6.2,0c1.5,0,2.9,0,4.4,0c6-6,12-12.1,18-18.1c-3.5-0.1-7-0.2-10.4-0.2
		C147.5,100.8,141.5,106.9,135.4,113z"/>
	<path class="st0" d="M99.5,113c1.9,0,3.8,0,5.7,0c0.5,0,1,0,1.5,0c6.2-6.2,12.3-12.5,18.5-18.7c-3.1,0-6.2,0-9.3-0.1
		c-6.2,6.3-12.4,12.5-18.6,18.8C98.1,113,98.8,113,99.5,113z"/>
	<path class="st0" d="M103.2,94.2c-3.1,3.2-6.3,6.3-9.4,9.5v0.1c0,0.7-0.1,1.4-0.1,2c0,0.7,0.1,1.3,0.1,2s0,1.4,0.1,2.1
		c0,0.5,0.1,1,0,1.5c0,0.4-0.1,0.7,0.1,1c6-6.1,12.1-12.2,18.1-18.3C109.2,94.2,106.2,94.2,103.2,94.2z"/>
	<path class="st0" d="M140.6,94.5c-6.1,6.2-12.3,12.4-18.4,18.5c0.4,0,0.8,0,1.2,0c2.7,0,5.5,0,8.2,0c6.1-6.1,12.2-12.3,18.3-18.4
		C146.8,94.6,143.7,94.6,140.6,94.5z"/>
	<path class="st0" d="M115.1,62.7c-0.1,0.5,0.1,1.2,0.2,1.7c0,0.2,0,0.4,0,0.6c1-1,2.1-2.1,3.1-3.1
		C117.1,61.7,115.3,61.6,115.1,62.7z"/>
	<path class="st0" d="M127.2,17.3c2.3,0,4.6,0,6.8,0c0.5,0,1.1,0,1.6,0c2.9-2.9,5.9-5.9,8.8-8.8c-2.1,0-8.2,0-8.2,0
		c-0.4,0-0.9,0-1.3,0c-2.9,2.9-5.8,5.9-8.7,8.8C126.6,17.3,126.9,17.3,127.2,17.3z"/>
	<path class="st0" d="M210.9,37.1c0,2.5,0,5,0,7.5c0,1,0,2.1,0,3.1c6.4-6.5,12.8-13,19.2-19.5c0-1.7,0.1-3.4,0.1-5.1
		c0-1,0.4-2.5-0.6-3.1c-0.3-0.2-0.7-0.3-1.1-0.4c-1.5,1.5-3.1,3.1-4.6,4.6C219.4,28.5,215.2,32.8,210.9,37.1z"/>
	<path class="st0" d="M83.2,66.4c0,1.1,0,2.1,0,3.2c2.3-2.3,4.6-4.6,6.9-6.9c0-3,0-6,0-9.1c-2.3,2.3-4.7,4.7-7,7
		c0,1.5,0.1,3,0.1,4.4C83.2,65.6,83.2,66,83.2,66.4z"/>
	<path class="st0" d="M195.7,16.7c1.9,0.1,3.8,0.1,5.8,0.1c2.6-2.7,5.2-5.3,7.8-8c-3.1,0-6.2,0-9.3,0c-2.5,2.6-5.1,5.2-7.6,7.8
		C193.4,16.6,194.5,16.6,195.7,16.7z"/>
	<path class="st0" d="M140.9,17.3c2.3,0,4.6,0,6.8,0c0.4,0,0.8,0,1.2,0c2.9-2.9,5.8-5.8,8.7-8.7c-4.5,0-6.2,0-9.4,0
		c-2.9,2.9-5.8,5.8-8.8,8.8C139.9,17.3,140.4,17.3,140.9,17.3z"/>
	<path class="st0" d="M210.9,23.8c0,2.7,0,5.5,0,8.2c0,0.4,0,0.9,0,1.3c4.6-4.6,9.2-9.3,13.8-13.9c-0.8,0-1.7-0.1-2.5-0.1
		c-0.9,0-2,0-2.5-0.9c-0.4-0.8-0.3-1.9-0.3-2.7c0-0.1,0-0.2,0-0.4c-0.7,0.8-1.5,1.5-2.2,2.3C215,19.6,213,21.7,210.9,23.8z"/>
	<path class="st0" d="M264.6,33.7c2.8-2.8,5.5-5.6,8.3-8.3c0.1-1.4,0.2-2.7,0.2-4.1c0.1-1,0-2.7,0.6-3.4c0.4-0.5,1.1-0.5,1.8-0.5
		c1.8,0,3.5,0.1,5.3,0.1c2.7-2.7,5.3-5.4,8-8.1c-2.8-0.1-5.7-0.1-8.5-0.3c-0.2,0-0.4,0-0.6,0c-5,5-9.9,10-14.9,15
		C264.7,27.3,264.6,30.5,264.6,33.7z"/>
	<path class="st0" d="M166.4,17.1c0.5,0.1,1,0,1.5,0.2c0.1,0,0.2,0.1,0.2,0.1c0.1,0.1,0.1,0.2,0.1,0.3c0,0.5,0.1,1,0.1,1.4
		c0,1.1,0,2.1,0,3.2c0,0.6,0.1,1.3,0.1,1.9c5.1-5.2,10.2-10.4,15.3-15.7c-2,0-5.5,0-9.3,0c-2.7,2.8-5.5,5.6-8.2,8.4
		C166.2,17.1,166.3,17.1,166.4,17.1z"/>
	<path class="st0" d="M168.5,28.3c0,0.2-0.1,0.4-0.2,0.7c0,0.1-0.1,0.2-0.2,0.3c-0.1,0-0.2,0-0.2,0c-0.2,0-0.4,0-0.7,0
		c-6.6,6.7-13.2,13.5-19.8,20.2c0.8,0,1.6,0,2.5,0.1c1.1,0,2.3,0.1,3.4,0.1c0.9,0,1.8,0,2.7,0.2c10.8-11,21.4-21.8,31.9-32.6v-0.1
		c0.1-0.2,0.3-0.4,0.5-0.5h0.1c2.5-2.6,5.1-5.2,7.6-7.8c-2.1,0-4.1,0-6.2,0c0,0-2.5,0-2.8,0c-6.2,6.4-12.5,12.8-18.7,19.2
		C168.5,28.1,168.6,28.2,168.5,28.3z"/>
	<path class="st0" d="M296.2,53.4c6.2-6.4,12.5-12.8,18.8-19.3c0-1.7,0-3.4,0-5.2c0-1.5,0.1-3,0-4.4c-6.3,6.5-12.5,12.9-18.7,19.3
		C296.3,47,296.3,50.2,296.2,53.4z"/>
	<path class="st0" d="M264.8,10.8c0,1.1,0,2.3,0,3.4c0,2,0,4-0.1,6.1c3.8-3.8,7.5-7.6,11.3-11.4c-1.2-0.1-2.4-0.1-3.5-0.2
		c-1.3-0.1-2.6-0.2-4-0.3c-0.7-0.1-1.6-0.2-2.4-0.1c-0.5,0.5-0.9,0.9-1.4,1.4C264.8,10.1,264.8,10.4,264.8,10.8z"/>
	<path class="st0" d="M288.8,17.8c1,0,2,0.1,2.9,0.1c2.7-2.8,5.5-5.7,8.2-8.5c-1.5,0-2.9,0.1-4.4,0.1c-1.1,0-2.1,0-3.2,0
		c-2.7,2.7-5.4,5.4-8.1,8.2C285.8,17.6,287.3,17.7,288.8,17.8z"/>
	<path class="st0" d="M296.3,34.5c0,1.8,0,3.7,0,5.5c6.1-6.3,12.3-12.6,18.4-19c0-0.2-0.1-0.4-0.1-0.6c0-0.1,0-0.1-0.1-0.2
		s-0.1-0.1-0.2-0.1c-1.5-0.4-3.1-0.3-4.7-0.4c-0.9-0.1-1.8-0.1-2.7-0.2c-3.5,3.7-7.1,7.4-10.6,11.1
		C296.3,31.8,296.3,33.1,296.3,34.5z"/>
	<path class="st0" d="M296.3,21.8c0,1.4,0,2.8,0,4.3c0,0.2,0,0.4,0,0.6c2.9-3,5.8-6.1,8.7-9.1c0-2.5,0-5,0-7.4c0-0.2,0-0.5-0.2-0.6
		c-0.1-0.1-0.2-0.1-0.3-0.1c-0.3,0-0.6,0-0.8,0c-2.9,3-5.7,6-8.6,9C296.1,19.1,296.3,20.6,296.3,21.8z"/>
	<path class="st0" d="M210.8,51.5c0,3.2-0.1,6.4-0.1,9.7c6.3-6.4,12.7-12.9,19-19.3c0.1-3.3,0.1-6.5,0.2-9.8
		c-0.8,0.8-1.6,1.6-2.4,2.4C222,40.1,216.4,45.8,210.8,51.5z"/>
	<path class="st0" d="M154.5,17.2c2.3,0,4.6-0.1,6.8-0.1c0.3,0,0.6,0,0.9,0c2.8-2.8,5.5-5.7,8.3-8.5c-4.2,0-4.6,0-9.2,0
		c-2.9,2.9-5.7,5.8-8.6,8.6C153.4,17.3,154,17.3,154.5,17.2z"/>
	<path class="st0" d="M113.6,17.2c2.3,0,4.6,0,6.8,0.1c0.7,0,1.4,0,2.1,0c2.9-2.9,5.8-5.8,8.7-8.8c-1.1,0-2.2,0-3.3,0
		c-2,0-4,0-6.1,0c-2.9,2.9-5.8,5.8-8.7,8.7C113.3,17.2,113.5,17.2,113.6,17.2z"/>
	<path class="st0" d="M296.1,66.9c6.3-6.3,12.6-12.7,18.9-19.1c0-3.3,0-6.6,0-9.9c-6.3,6.5-12.5,12.9-18.8,19.4
		C296.2,60.5,296.1,63.7,296.1,66.9z"/>
	<path class="st0" d="M281.3,113.1c3.1,0,6.3,0,9.4,0c8-8.1,16-16.3,24-24.4c0.1-3.2,0.1-6.5,0.2-9.7c-7.2,7.4-14.3,14.7-21.1,21.6
		C289.5,104.7,285.4,108.9,281.3,113.1z"/>
	<path class="st0" d="M294.4,113.1c2.1,0,4.2,0,6.3,0c1.2,0,2.3,0,3.5,0.1c3.4-3.4,6.8-6.8,10.1-10.2c0.1-3.5,0.2-7,0.2-10.5
		c-4.9,5-9.7,9.9-14.3,14.6C298.3,109.2,296.4,111.1,294.4,113.1z"/>
	<path class="st0" d="M295.9,80.4c6.3-6.4,12.7-12.8,19.1-19.2c0-1.9,0-3.7,0-5.6c0-1.3,0-2.6,0-3.9c-6.3,6.3-12.6,12.7-19,19.1
		C296,74,296,77.2,295.9,80.4z"/>
	<path class="st0" d="M307.9,113.3c1.5,0,3,0,4.4,0c0.4,0,0.9-0.1,1.3-0.3c1-0.7,0.6-3.4,0.6-4.4c0-0.6,0-1.1,0-1.7
		c-1.5,1.5-3,3-4.5,4.5C309.2,112,308.5,112.6,307.9,113.3z"/>
	<path class="st0" d="M295.7,91.6c0.3,0.7-0.1,1.8-1.1,1.8c-2.7,0.1-5.4,0.2-8.2,0.3c-6.4,6.5-12.9,13-19.3,19.4c3.5,0,7,0,10.4,0
		c12.4-12.6,24.9-25.3,37.3-38c0-3.4,0.1-6.7,0.1-10.1c-6.3,6.4-12.7,12.8-19.1,19.2C295.8,86.7,295.7,89.2,295.7,91.6z"/>
	<path class="st0" d="M205.1,16.8c1.4,0,2.7,0,4.1,0c0.3,0,0.5,0.1,0.7,0.2c0.5,0.1,0.9,0.5,0.9,1.2c0,0.6,0,1.3,0,1.9
		c2.8-2.8,5.5-5.6,8.3-8.3c0-0.4-0.1-0.8-0.1-1.2c-0.1-1.8-3.4-1.9-6-1.8c-0.5,0.5-1,1-1.5,1.5C209.4,12.4,207.3,14.6,205.1,16.8z"
		/>
</g>
<g>
	<path class="st0" d="M64.3,217.1c0.1-2,0.2-4,0.3-6.1c-11.3,11.1-22.7,22.2-34,33.3c2.6,0,5.3,0.1,7.9,0.1c0.4,0,0.7,0,1.1,0
		c8.2-8,16.3-16,24.5-24.1C64.1,219.3,64.2,218.2,64.3,217.1z"/>
	<path class="st0" d="M42.5,193.5c-2.4,2.4-4.7,4.8-7.1,7.1c-0.1,2.3-0.2,4.5-0.3,6.8c0,0.5,0,1-0.1,1.5c0,0.5,0,1.1,0,1.6
		c5.5-5.6,11.1-11.2,16.6-16.7c-0.7,0-1.5,0-2.2,0C47.2,193.7,44.8,193.7,42.5,193.5z"/>
	<path class="st0" d="M44.9,139.7c-2.9,2.9-5.8,5.7-8.6,8.6c1.4,0,2.9,0,4.3,0.1c1.7,0,3.4,0,5.1,0.1c2.9-2.9,5.8-5.8,8.7-8.6
		C51.2,139.7,48,139.7,44.9,139.7z"/>
	<path class="st0" d="M130.7,158.7c-0.2,0-0.3,0.1-0.5,0.1c-0.3,0.3-0.5,0.5-0.8,0.8c-0.2,0.7,0.1,1.8,0,2.4c-0.1,1.5-0.1,3-0.2,4.5
		c0,0.9-0.1,1.8-0.1,2.7c3.6-3.5,7.2-7.1,10.7-10.6c-0.1,0-0.2,0-0.3,0C136.7,158.4,133.7,158.3,130.7,158.7z"/>
	<path class="st0" d="M48.4,158.8c-2.1-0.1-4.2-0.3-6.2-0.4c-0.8,0-1.7-0.2-2.6-0.2c-2,2-4.1,4.1-6.1,6.1c-0.1,1.7-0.1,3.4-0.2,5.1
		c-0.1,1.6-0.1,3.2-0.2,4.8c4.1-4.1,8.1-8.1,12.2-12.2C46.2,160.9,47.3,159.9,48.4,158.8z"/>
	<path class="st0" d="M67.5,164.7c0-1.1,0.1-2.2,0.1-3.3c0-0.3,0-0.7-0.1-1c-0.1-0.2-0.2-0.4-0.3-0.6c-0.4-0.4-0.9-0.4-1.4-0.4
		c-0.3,0-0.6,0-0.9,0c-7.4,7.5-14.9,14.9-22.3,22.4c2.7,0,5.3,0,8,0.1c2.3-2.3,4.6-4.7,6.9-7C60.8,171.4,64.1,168,67.5,164.7z"/>
	<path class="st0" d="M35.4,139.6c-1.8,0-3.6,0-5.5,0c-2.9,2.8-5.8,5.7-8.6,8.5c2.3,0,4.5,0.1,6.8,0.1c1.5,0,2.9,0,4.4,0
		c2.9-2.8,5.7-5.7,8.6-8.6C39.2,139.6,37.3,139.6,35.4,139.6z"/>
	<path class="st0" d="M204.6,158.6c0.1-0.1,0.3-0.3,0.4-0.4c0.1-0.1,0.3-0.1,0.5-0.1c0.1,0,0.2,0,0.3,0c2.9-2.9,5.8-5.8,8.7-8.7
		c0-0.3,0.1-0.5,0.2-0.8c0.1-0.2,0.2-0.3,0.4-0.4c0.2-0.1,0.4-0.1,0.6-0.1c2.9-2.9,5.8-5.8,8.6-8.7c-2.8,0-5.5,0-8.3,0
		c-10.6,10.7-21.2,21.5-31.8,32.2c0,2.7,0,5.4,0.1,8c6.6-6.6,13.2-13.2,19.7-19.9v-0.1C204,159.3,204.3,159,204.6,158.6z"/>
	<path class="st0" d="M86.6,225.5c-3.4,0.2-6.9-0.2-10.3-0.4c-3.1,3-6.1,6-9.2,9c0.1,0.2,0.1,0.4,0.1,0.6c0.2,1.5-0.1,3.1-0.2,4.6
		c-0.1,0.8-0.1,1.5-0.1,2.3c0,0.6,0.3,1.3,0.2,1.9c0.5,0.1,1,0.2,1.5,0.3c6.3-6.2,12.6-12.4,18.8-18.6
		C87.3,225.5,86.9,225.5,86.6,225.5z"/>
	<path class="st0" d="M65.4,224.7c-0.4,0-0.9-0.1-1.2-0.3c-0.1-0.1-0.1-0.1-0.2-0.2c-3.1,3.1-6.3,6.2-9.4,9.2
		c0.1-0.1,0.2-0.1,0.3-0.1c0.2-0.1,0.3-0.1,0.5-0.1c2.2-0.1,4.3-0.1,6.5,0c0.8,0,1.6,0.1,2.4,0.2c2.8-2.8,5.6-5.5,8.4-8.3
		C70.2,224.9,67.8,224.8,65.4,224.7z"/>
	<path class="st0" d="M219.4,148.2c2.9,0,5.8,0.1,8.7,0.1c0.2,0,0.4,0,0.6,0c2.9-3,5.9-5.9,8.8-8.9c-3.2,0-6.3,0-9.5,0
		C225.2,142.4,222.3,145.3,219.4,148.2z"/>
	<path class="st0" d="M118.8,220.6c0.1-1.4,0-3-0.1-4.4c0-0.3,0-0.6-0.2-0.9c-0.5-1.2-1.8-1.1-2.9-1c-10.2,10.1-20.3,20.2-30.5,30.2
		c2,0.1,4,0.1,6,0.1c1.2,0,2.4,0,3.6-0.1c5.5-5.5,11-11,16.5-16.5C113.8,225.6,116.3,223.1,118.8,220.6z"/>
	<path class="st0" d="M111.8,214.4c-0.6,0-1.2,0-1.8,0c-0.7,0-1.4,0-2-0.3c-1.1-0.6-1-2.9-0.9-4.5c-11.6,11.5-23.3,23.1-34.9,34.6
		c1.2,0,2.3,0.1,3.4,0.1c1.9,0,3.9,0.1,5.8,0.1c7.5-7.4,15-14.8,22.5-22.3C106.6,219.6,109.2,217,111.8,214.4z"/>
	<path class="st0" d="M98.6,244.5c2.6-0.1,5.2-0.1,7.7,0.1c0.2,0,0.5,0,0.7-0.1c0.4-0.1,0.7-0.5,0.8-1c0.4-1.6,0.2-3.7,0.2-5.4
		c0-0.9-0.3-2-0.2-2.9C104.8,238.4,101.7,241.5,98.6,244.5z"/>
	<path class="st0" d="M61.2,159.2c-3.1-0.1-6.1-0.1-9.2-0.2c-6.4,6.4-12.8,12.8-19.2,19.2c0,0.8-0.1,1.5-0.1,2.3
		c0,0.7,0.4,1.1,1,1.2c0.2,0.1,0.4,0.2,0.7,0.2c1.4,0,2.9-0.1,4.3-0.1c4.4-4.4,8.7-8.7,13.1-13.1C54.9,165.5,58.1,162.3,61.2,159.2z
		"/>
	<path class="st0" d="M11.3,186c-3.1,3-6.1,6.1-9.2,9.1c0,0.5,0,0.9,0,1.4c0,0.7,0,1.3,0,2c0,2.2,0,4.3,0.1,6.5
		c3.1-3.1,6.1-6.1,9.2-9.2C11.4,192.5,11.3,189.3,11.3,186z"/>
	<path class="st0" d="M65,201.3c0-1.2,0-2.4,0.1-3.6v-0.1c-15.8,15.5-31.6,31-47.4,46.4c1.4,0.1,2.9,0.1,4.3,0.2
		c1.6,0.1,3.3,0.1,4.9,0.1c12.7-12.3,25.3-24.7,37.9-37.1C64.8,205.2,64.9,203.2,65,201.3z"/>
	<path class="st0" d="M11.4,217.7c0-1.7,0-3.3,0-5c-3,3-6,5.9-8.9,8.9c0,1.4,0.1,2.8,0.1,4.1c0,1.4,0.1,2.7,0.1,4.1
		c2.9-2.9,5.8-5.8,8.7-8.8C11.5,219.9,11.4,218.8,11.4,217.7z"/>
	<path class="st0" d="M11.4,207.2c0-2.6,0-5.1,0-7.7c-3.1,3-6.1,6.1-9.2,9.1c0,2.7,0.1,5.3,0.1,8c0,0.4,0,0.9,0,1.3c3-3,6-6,9-9
		C11.4,208.4,11.4,207.8,11.4,207.2z"/>
	<path class="st0" d="M13.9,224.4c-0.6,0-1.3-0.1-1.8-0.3c-3.1,3.1-6.1,6.2-9.2,9.2c0.1,0.2,0.2,0.4,0.4,0.5
		c0.7,0.6,2.4,0.4,3.4,0.4c1.5,0,3.5-0.5,5.1-0.3c3.1-3.1,6.2-6.3,9.3-9.4C18.7,224.5,16.3,224.4,13.9,224.4z"/>
	<path class="st0" d="M256.8,198.1c0-0.8,0-1.6,0-2.5c0-0.4,0-0.8,0-1.2c0-0.3,0.1-0.7-0.1-1c-0.1-0.2-0.3-0.4-0.5-0.5
		c-0.1,0-0.3-0.1-0.4-0.1c-6,6-11.9,12.1-17.9,18.1c2,0,4.1,0.1,6.1,0.1c1,0,2,0.1,3,0.1c3.2-3.3,6.5-6.5,9.7-9.8
		C256.8,200.3,256.8,199.2,256.8,198.1z"/>
	<path class="st0" d="M241.6,179.9c3.1,0.1,6.2,0.2,9.3,0.2c3.1-3.1,6.1-6.1,9.2-9.2c-0.4,0-0.8,0-1.2,0c-0.2,0-0.4,0-0.5,0
		c-0.4-0.1-0.8-0.4-1-0.7c-0.7-1-0.4-2.1-0.3-3.3c0-0.8,0-1.6,0-2.4C252,169.6,246.8,174.7,241.6,179.9z"/>
	<path class="st0" d="M248.3,192.8c-2.1,0-4.3,0-6.4-0.1c-5.1,5-10.1,10.1-15.2,15.1c0,0.6,0,1.3,0.1,1.9c0,0.2,0,0.4,0.1,0.5
		c0.1,0.3,0.5,0.6,0.8,0.6c0.8,0.2,1.9,0,2.7,0c1.2,0,2.5,0,3.7,0c6-6,11.9-12.1,17.9-18.1C250.9,192.8,249.6,192.8,248.3,192.8z"/>
	<path class="st0" d="M234.8,192.7c-2,0-3.9,0-5.9-0.1c-2.7,2.7-5.4,5.3-8,8c0.4,0,0.8,0,1.2,0c0.8,0,1.7-0.1,2.5-0.1
		c0.4,0,0.7,0,1.1,0.2c1.1,0.5,1.1,2.5,1.1,3.5c3.9-3.8,7.7-7.7,11.6-11.5C237.1,192.7,235.9,192.7,234.8,192.7z"/>
	<path class="st0" d="M10,139.4c-1.7,0-3.4-0.3-5.1-0.3c-0.1,0-0.3,0-0.5,0c-0.4,0.4-0.8,0.8-1.2,1.2c-0.1,0.7,0.2,1.7,0.1,2.3
		c0,0.7-0.2,1.4-0.2,2.2c-0.1,1.5-0.1,3-0.2,4.5c3.4-3.3,6.7-6.6,10.1-9.9C12,139.4,11,139.4,10,139.4z"/>
	<path class="st0" d="M13.2,148.2c0.2-0.1,0.5-0.1,0.8-0.2c1.2-0.1,2.4-0.1,3.7-0.1c2.1-2.1,4.2-4.2,6.3-6.2
		c0.7-0.7,1.5-1.4,2.2-2.2c-2.6,0-5.1-0.1-7.7-0.1c-0.6,0-1.2,0-1.8,0c-4.7,4.6-9.3,9.2-14,13.8c-0.1,2-0.1,4-0.2,5.9
		c0,1.2-0.1,2.5-0.1,3.7c3.1-3.1,6.2-6.1,9.3-9.2C11.9,152.2,11.8,148.8,13.2,148.2z"/>
	<path class="st0" d="M11.4,161.9c0-1.4,0.1-2.8,0.2-4.2c-3,3-6.1,6-9.1,9c-0.1,3.8-0.2,7.6-0.2,11.5c3-3,6-6,9.1-9
		C11.3,166.8,11.3,164.3,11.4,161.9z"/>
	<path class="st0" d="M11.3,178c0-1.7,0-3.4,0-5.1c-3,3-6.1,6-9.1,9c0,3.1,0,6.3-0.1,9.4c3.1-3,6.1-6,9.2-9.1
		C11.3,180.9,11.3,179.4,11.3,178z"/>
	<path class="st0" d="M274.6,139.4c-1.9,0-3.8,0-5.7,0c-3.1,3.1-6.1,6.2-9.2,9.3c0.7,0,1.4,0,2.1,0c0.8,0,1.6,0,2.5,0
		c1.5,0,2.9-0.4,4.4-0.2c0.2,0,0.3,0.1,0.5,0.2c2.9-2.9,5.8-5.8,8.6-8.6C277.3,138.7,275.8,139.4,274.6,139.4z"/>
	<path class="st0" d="M107.9,160.9c-0.1-1.1-0.4-1.8,0.9-2.3c0.8-0.3,1.7-0.1,2.5-0.1s1.7,0.1,2.5,0.1c1.6-1.6,3.2-3.2,4.8-4.7
		c0.1-1.6,0.1-3.1,0.2-4.7c0-0.3,0-0.6,0.2-0.9c0.2-0.3,0.6-0.3,0.9-0.3c1.5-0.1,3.1-0.1,4.6-0.1c2.7-2.7,5.4-5.4,8.1-8.1
		c-0.9,0-1.8,0-2.7,0c-2.3,0-4.5,0-6.8,0c-1.1,1.1-2.2,2.2-3.3,3.3c-10.4,10.3-20.8,20.7-31.2,31c0,1.3,0,2.6,0,3.9
		c0,1.3,0.4,3.3-0.9,4c-0.6,0.3-1.3,0.3-2,0.3c-1.8,0-3.6-0.1-5.3-0.1c-1.2,1.2-2.4,2.3-3.5,3.5c0,0.7,0,1.3,0,2s-0.2,2.6,0.6,3
		c0.2,0.1,0.3,0.1,0.5,0.1c1.1,0,2.2,0,3.3,0c8.9-8.7,17.7-17.5,26.5-26.2C107.8,163.5,108,162.1,107.9,160.9z"/>
	<path class="st0" d="M147.8,158.8c-1.4,0-2.8-0.1-4.2-0.1c-1,1-2,2-3,2.9c-3.8,3.8-7.7,7.6-11.6,11.4c0,0.8,0,1.7-0.1,2.5
		c-0.1,2.9-0.1,5.7-0.1,8.6c8.4-8.4,16.8-16.8,25.1-25.2C152.1,158.8,149.9,158.8,147.8,158.8z"/>
	<path class="st0" d="M107.3,174.4c0.1-1.9,0.1-3.8,0.2-5.7c-7.5,7.4-15,14.9-22.5,22.3c0.4,0,0.8,0,1.1,0c0.3,0,0.6,0,0.8,0
		c0.2,0,0.5,0,0.7,0.1c0.9,0.4,0.7,2.4,0.7,3.2c0,0.7,0,1.4,0,2.1c6.3-6.2,12.5-12.3,18.7-18.5C107.2,176.7,107.3,175.6,107.3,174.4
		z"/>
	<path class="st0" d="M163.9,162.3c0-0.6,0-1.2,0-1.8c0-0.2,0-0.5-0.2-0.7c0,0,0-0.1-0.1-0.1c-0.1-0.1-0.2-0.2-0.4-0.3
		c-1.6-0.7-3.5-0.7-5.3-0.7c-3.4,3.5-6.9,6.9-10.3,10.4c-6.2,6.2-12.4,12.4-18.5,18.5c0,1.9,0,3.9,0.1,5.8c0,1.2,0.1,2.3,0.1,3.5
		C140.8,185.6,152.3,174,163.9,162.3z"/>
	<path class="st0" d="M91.4,150.3c-1.5,0-3.6,0.3-4.9-0.6c-0.1-0.1-0.2-0.1-0.2-0.2c-2.7,2.8-5.5,5.5-8.2,8.3c0.1,1.3,0.8,1.1,1.9,1
		c2.2-0.1,4.3-0.1,6.5,0c2.8-2.8,5.6-5.6,8.4-8.4C93.7,150.3,92.6,150.3,91.4,150.3z"/>
	<path class="st0" d="M67.4,168.6c-4.4,4.4-8.8,8.9-13.2,13.3c1.5,0,3,0.1,4.5,0.2c1.4,0.1,2.9,0.3,4.4,0.3c0.3-0.3,0.6-0.6,0.9-0.9
		c1.1-1.1,2.1-2.2,3.2-3.2C67.3,174.9,67.3,171.8,67.4,168.6z"/>
	<path class="st0" d="M163.5,171.6c0-1.8,0.1-3.5,0.2-5.3c-3.2,3.2-6.3,6.4-9.5,9.6c-8.3,8.3-16.6,16.6-24.9,24.9v0.1
		c0.1,2.2,0.2,4.4,0.2,6.7c0,0.7,0,1.5,0,2.3c11.3-11.4,22.6-22.8,33.9-34.1C163.4,174.3,163.5,173,163.5,171.6z"/>
	<path class="st0" d="M114.1,140.1c-1.1,0-3.7-0.7-4.4,0.5c-0.3,0.4-0.1,0.9,0,1.4c0.1,0.8,0,1.7,0,2.5c0,1.6-0.2,3.2-0.3,4.8v0.1
		c0,0.6-0.4,1.2-1.2,1.2c-3.2-0.1-6.4-0.1-9.6-0.2c-3.4,3.4-6.8,6.8-10.2,10.3c0.1,1.1,0.2,2.2,0.2,3.3c0,2.2,0,4.4,0.1,6.6
		c10.3-10.2,20.5-20.3,30.8-30.5C117.6,140,115.9,140,114.1,140.1z"/>
	<path class="st0" d="M229.2,160.8c-0.4,0-0.9-0.1-1.3,0.1c-0.7,0.3-0.5,0.9-0.5,1.5s-0.1,1.2-0.1,1.9c1.1-1.1,2.3-2.3,3.4-3.4
		C230.1,160.9,229.6,160.9,229.2,160.8z"/>
	<path class="st0" d="M61.2,193.9c-1.6,0-3.2,0-4.8,0c-0.3,0-0.6,0-0.9,0c-6.8,6.9-13.6,13.7-20.5,20.6c0,0.8,0,1.6-0.1,2.5
		c0,2.3,0.2,4.8-1,6.9c-0.2,0.4-0.5,0.7-0.8,0.9c-0.3,0.1-0.6,0.2-0.9,0.3c-1.2,0.2-2.4-0.1-3.6-0.2c-1.3,0-2.5-0.1-3.8-0.1
		c-3.6,3.6-7.2,7.2-10.8,10.8c0.4,1.3,0.1,3.5,0.1,4.6c0,0.9-0.4,2.7,0.2,3.4c16.8-16.6,33.7-33,50.4-49.5
		C63.9,193.5,61.9,193.9,61.2,193.9z"/>
	<path class="st0" d="M254.6,180.1c2.3,0,4.5,0,6.8,0c1.1,0,2.2,0,3.2,0c2.6-2.7,5.3-5.4,7.9-8c0.4-0.4,0.7-0.8,1.1-1.1
		c-3.3,0-6.5-0.1-9.8-0.1C260.8,174,257.7,177,254.6,180.1z"/>
	<path class="st0" d="M242.6,161.4c-2.3-0.1-4.6-0.3-6.9-0.4c-0.5,0-0.9,0-1.4-0.1c-2.5,2.5-4.9,5-7.4,7.4c0,0.8-0.1,1.6-0.1,2.5
		c-0.1,1.8-0.1,3.5-0.1,5.3c0,0.7-0.2,1.4-0.2,2.1c5.6-5.6,11.1-11.2,16.7-16.8C243,161.5,242.8,161.5,242.6,161.4z"/>
	<path class="st0" d="M203.9,171.5c0.1-2.3,0.1-4.5,0.2-6.8c0-0.4,0-0.7,0-1.1c-6.6,6.6-13.2,13.2-19.7,19.9c0,3.1,0,6.3,0.1,9.4
		c6.5-6.5,13-13,19.4-19.6C203.8,172.8,203.9,172.1,203.9,171.5z"/>
	<path class="st0" d="M163,198.5c0-1.8,0-3.6,0.1-5.4c-6.9,6.9-13.7,13.8-20.6,20.7c1.2,0,2.3-0.1,3.5-0.1c1.5,0,3,0,4.5,0
		c4.2-4.2,8.4-8.4,12.6-12.6C163,200.3,163,199.4,163,198.5z"/>
	<path class="st0" d="M205,181.6c-0.8,0-1.7-0.2-1.6-1.2c0.1-1,0.1-2,0.2-3.1c-6.4,6.4-12.8,12.9-19.2,19.3c0,3.5,0,6.9,0.1,10.4
		c8.4-8.4,16.9-16.8,25.3-25.2c-0.1,0-0.2,0-0.3,0C208,181.7,206.5,181.7,205,181.6z"/>
	<path class="st0" d="M163.3,180.3c0-0.3,0-0.5,0-0.8c-0.5,0.5-1,1-1.6,1.6c-10.6,10.7-21.2,21.4-31.8,32c0,0.1,0.1,0.2,0.1,0.4
		c0.2,0.3,0.5,0.6,0.9,0.7c0.2,0,0.3,0,0.5,0c2.4-0.1,4.7-0.2,7.1-0.3c8.2-8.2,16.4-16.5,24.6-24.7
		C163.2,186.3,163.2,183.3,163.3,180.3z"/>
	<path class="st0" d="M253.3,161.5c-1.2,0.1-2.4,0.1-3.6,0.1c-1,0-1.9,0-2.9,0c-6,6-11.9,12-17.9,18c2.2-0.1,4.3-0.1,6.5,0
		c0.9,0,1.7,0.1,2.6,0.1c6.1-6.1,12.2-12.1,18.3-18.2C255.3,161.3,254.3,161.5,253.3,161.5z"/>
	<path class="st0" d="M269.5,214.7c0.2-0.2,0.3-0.3,0.5-0.5h-0.1C269.6,214.3,269.5,214.5,269.5,214.7z"/>
	<path class="st0" d="M309.4,158.7c0.8-0.8,0.5-2.8,0.6-3.8c0-0.9,0.1-1.8,0.1-2.8c0-0.4,0-0.8,0-1.3c-2.6,2.7-5.3,5.4-7.9,8.1
		c1.3,0,2.5,0,3.8,0C306.9,159.1,308.6,159.4,309.4,158.7z"/>
	<path class="st0" d="M300,181.7c-0.1-0.1-0.3-0.2-0.3-0.4c-1.1-1.7-0.5-4-0.5-5.9c0-0.2,0-0.3,0-0.5c-6.3,6.5-12.7,12.9-19,19.4
		c0,1,0,2,0,3c0,2.1,0.1,4.2,0.1,6.2c0,0.1,0,0.1,0,0.2c4.6-4.6,9.1-9.3,13.7-13.9c2.6-2.7,5.2-5.3,7.8-8c-0.4,0-0.8,0-1.2,0
		C300.4,181.8,300.2,181.8,300,181.7z"/>
	<path class="st0" d="M275.8,190.6c0.6-0.1,1.2-0.2,1.8-0.2c0.4,0,0.8,0,1.2,0.1c0.2,0,0.5,0.1,0.6,0.3c0.1,0.1,0.1,0.1,0.1,0.2
		c2.6-2.6,5.1-5.2,7.7-7.8c4-4.1,8-8.1,12-12.2c0-0.7,0-1.4,0.1-2c0.1-1.9,0.1-3.7,0.2-5.6c0-0.4-0.1-1-0.1-1.6
		c-9.5,9.7-19,19.4-28.5,29C272.6,190.9,274.2,190.8,275.8,190.6z"/>
	<path class="st0" d="M312.4,224c-0.5,0-1,0-1.4-0.3c-0.5-0.4-0.6-1.1-0.7-1.7c-0.2-1.6-0.2-3.2-0.2-4.8
		c-5.4,5.4-10.8,10.8-16.1,16.2c1.8,0,3.7-0.1,5.5-0.1c1.4,0,2.8-0.1,4.1-0.1c3.1-3.1,6.2-6.2,9.3-9.3
		C312.8,224,312.6,224,312.4,224z"/>
	<path class="st0" d="M353.4,202.5c0-0.7,0.1-1.5,0.1-2.3c-3.8,3.8-7.6,7.6-11.4,11.4c1.2,0,2.4,0,3.6,0c1.3,0,2.5,0,3.8-0.1
		c0.6,0,1.5,0.2,2.1,0c0.3-0.3,0.5-0.5,0.8-0.8c0.5-1,0.5-2.6,0.5-3.5C353.2,205.6,353.3,204,353.4,202.5z"/>
	<path class="st0" d="M316.7,224c-3,3.1-6.1,6.1-9.2,9.2c0.4,0,0.8,0,1.3,0c0.9,0,1.7-0.3,2.5-0.1c0.4,0.1,0.8,0.3,1,0.6
		c0.1,0.2,0.1,0.4,0.1,0.6c0.1,1,0.2,1.9,0.3,2.9c4.4-4.4,8.7-8.7,13.1-13.1C322.8,224.1,319.8,224,316.7,224z"/>
	<path class="st0" d="M250.9,211.4c1.1,0.1,2.3,0.1,3.4,0.2c0.7,0,1.9,0.5,2.4-0.2c0.6-0.8,0.2-2.8,0.2-3.7c0-0.8,0-1.7,0-2.5
		C254.9,207.3,252.8,209.3,250.9,211.4C250.8,211.4,250.8,211.4,250.9,211.4z"/>
	<path class="st0" d="M160.5,214.1c0.3,0,0.5,0,0.8-0.1c2.3-0.5,1.6-4.7,1.6-6.4c0-0.9,0-1.7,0-2.6c-3,3-5.9,5.9-8.9,8.9
		C156.2,214,158.4,214.1,160.5,214.1z"/>
	<path class="st0" d="M309.1,213.9c-2.2-0.2-4.5-0.3-6.7-0.3c-0.9,0-1.9-0.1-2.4-0.6c-10.3,10.4-20.6,20.8-31,31.2
		c3.1,0,6.3,0.1,9.4,0.1c0.4,0,0.7,0,1.1,0c10.1-10.1,20.1-20.2,30.2-30.3C309.5,214,309.3,213.9,309.1,213.9z"/>
	<path class="st0" d="M255.3,148.6c0.2,0,0.5,0,0.7,0c3-3.1,6.1-6.1,9.1-9.2c-1,0-1.9,0-2.9,0c-2.2,0-4.4,0-6.6,0c-3,3-6,6.1-9,9.1
		C249.5,148.6,252.4,148.6,255.3,148.6z"/>
	<path class="st0" d="M239.9,148.4c1,0,2,0,3.1,0c0.6-0.6,1.1-1.1,1.7-1.7c2.4-2.5,4.9-4.9,7.3-7.4c-3.6,0-7.1,0-10.7,0
		c-3,3-5.9,5.9-8.9,8.9C234.9,148.4,237.4,148.4,239.9,148.4z"/>
	<path class="st0" d="M299.4,206.3c0-1.2-0.7-4,0.4-4.9c0.6-0.5,1.4-0.5,2.2-0.5c2,0.1,4,0.1,6.1,0.2c2.9-2.9,5.9-5.9,8.8-8.8
		c-2.1-0.1-4.1-0.2-6.2-0.5c-0.2,0-0.4-0.1-0.6-0.1c-0.5-0.3-0.6-0.9-0.5-1.5c-17.8,18-35.7,35.9-53.5,53.9c1.4,0,2.8,0,4.2,0
		c1.7,0,3.4,0.1,5.1,0.1c11.4-11.5,22.8-23,34.2-34.4C299.5,208.6,299.4,207.5,299.4,206.3z"/>
	<path class="st0" d="M353.6,196.4c0-0.8-0.1-1.6-0.3-2.4c-0.1-0.2-0.1-0.4-0.3-0.5c-0.1-0.1-0.3-0.1-0.4-0.1
		c-1.8-0.2-3.6-0.3-5.4-0.3c-6,6.1-12.1,12.3-18.1,18.4c0.5,0,1.1,0,1.6,0c2.5,0.1,5,0.1,7.6,0.1c0.1,0,0.1,0,0.2,0
		C343.5,206.5,348.6,201.5,353.6,196.4z"/>
	<path class="st0" d="M174.5,214.9c-0.2,0-0.5,0.1-0.6,0.3c-0.3,0.3,0.1,1.2,0.1,1.6c0,0.3,0,0.6,0,0.9c0.9-0.9,1.9-1.9,2.8-2.8
		C176,214.7,175.3,214.7,174.5,214.9z"/>
	<path class="st0" d="M34.5,158.9c-0.2,0.1-0.5,0.3-0.6,0.5c-0.2,0.3-0.4,0.7-0.4,1.2c0.7-0.7,1.4-1.4,2.1-2.1
		C35.1,158.6,34.8,158.7,34.5,158.9z"/>
	<path class="st0" d="M37.2,193.2c-2,0.3-1.5,1.8-1.6,3.4v0.1c1.2-1.2,2.3-2.3,3.5-3.5C38.5,193.2,37.8,193.1,37.2,193.2z"/>
	<path class="st0" d="M384.9,242.6c0.2-2.6,0.1-5.1,0.1-7.7c0-0.4,0.2-0.7,0.5-0.9c0.2-0.3,0.5-0.4,0.9-0.4c1.9,0,3.8,0,5.7,0
		c1.2,0,2.1,0.4,2.8-0.8c0.9-1.7,0.3-3.9,0.3-5.8c0-1,0-2,0-3.1c-6.6,6.7-13.2,13.5-19.8,20.2c0.5,0,1,0,1.6,0c1.5,0,3,0,4.5,0
		c0.6,0,1.5,0.2,2.3,0.1c0.3-0.3,0.7-0.7,1-1C384.9,243,384.9,242.8,384.9,242.6z"/>
	<path class="st0" d="M302.3,140.1c-0.2,0.5-0.2,1-0.2,1.5c0,0.1,0,0.2,0,0.3c0.9-0.9,1.8-1.8,2.6-2.7
		C303.7,139.2,302.7,139.2,302.3,140.1z"/>
	<path class="st0" d="M395.2,218.2c0-2.6,0-5.1,0-7.7c-10.9,11.2-21.9,22.4-32.9,33.6c1.9,0,3.7,0,5.6,0c1.3,0,2.5,0,3.8,0
		c7.9-8.1,15.7-16,23.5-24C395.2,219.5,395.2,218.9,395.2,218.2z"/>
	<path class="st0" d="M395.2,197.5c-0.1,0.1-0.3,0.3-0.4,0.4c-15,15.4-30,30.8-45.1,46.2c3,0,5.9,0,8.9,0
		c12.4-12.6,24.5-25,36.6-37.4C395.2,203.6,395.2,200.5,395.2,197.5z"/>
	<path class="st0" d="M46.8,244.4c1.4,0,2.8,0,4.2-0.1c0.9,0,1.9,0.4,2.4-0.5c0.7-1.1,0.4-3,0.5-4.2c0.1-1.8,0.1-3.5,0.2-5.3
		c0-0.3,0.1-0.5,0.2-0.7c-3.6,3.6-7.3,7.1-10.9,10.7C44.5,244.4,45.6,244.4,46.8,244.4z"/>
	<path class="st0" d="M287.4,244.5c1,0.1,1.5,0.3,1.9-0.9s0.2-2.6,0.2-3.8c0-0.6,0-1.1,0-1.7c-2.1,2.1-4.1,4.1-6.2,6.2
		C284.7,244.3,286.1,244.3,287.4,244.5z"/>
	<path class="st0" d="M192.4,243.8c0.1-0.4,0.1-0.8,0.1-1.2c0-0.2,0-0.5,0-0.7c-0.9,0.8-1.7,1.7-2.6,2.5
		C190.9,244.5,192.1,244.6,192.4,243.8z"/>
	<path class="st0" d="M351.8,224.8c-3.1-0.1-6.2-0.2-9.3-0.3c-6.5,6.5-12.9,12.9-19.4,19.4c1.8,0,3.6,0,5.4,0.1c1.5,0,3,0,4.5,0
		c1.9-1.9,3.8-3.9,5.7-5.8C343.1,233.7,347.4,229.3,351.8,224.8z"/>
	<path class="st0" d="M350,180.1c2.1,0.1,4.1,0.1,6.2,0.2c3-3,5.9-6,8.9-9.1c-3.1,0-6.1-0.1-9.2-0.2c-2.9,3-5.9,6-8.9,9
		C348,180,349,180,350,180.1z"/>
	<path class="st0" d="M353.5,169.6c-0.1-0.4-0.1-0.8-0.1-1.2c0-1.9,0-3.8-0.2-5.7c0-0.2,0-0.5-0.1-0.7c-0.3-0.6-0.9-0.7-1.7-0.7
		c-6.1,6.1-12.1,12.2-18.2,18.3c3.4,0.1,6.8,0.2,10.2,0.3C346.7,176.5,350.1,173,353.5,169.6z"/>
	<path class="st0" d="M327.2,192.5c-2.2-0.1-4.5-0.1-6.7-0.1c-2.9,2.9-5.8,5.9-8.8,8.8c2.7,0.1,5.4,0.1,8,0.2c0.7,0,1.4,0,2,0.3l0,0
		c3-3,6-6.1,9-9.1C329.6,192.6,328.4,192.5,327.2,192.5z"/>
	<path class="st0" d="M338.8,224.5c-3.1-0.1-6.2-0.1-9.2-0.2c-5.5,5.5-11.1,11.1-16.7,16.6c0,1.1,0,2.2,0.8,2.7
		c0.3,0.2,0.8,0.2,1.2,0.2c1.5,0,3,0,4.5,0.1c4.4-4.4,8.8-8.8,13.2-13.2C334.6,228.6,336.7,226.5,338.8,224.5z"/>
	<path class="st0" d="M334.4,192.8c-3.8,3.8-7.6,7.7-11.4,11.5c0.1,1.1-0.1,2.3-0.1,3.1c0,1.3-0.5,2.5,0.6,3.5
		c0.5,0.5,1.2,0.6,1.8,0.6c6-6.1,12.1-12.2,18.2-18.4C340.5,193,337.4,192.9,334.4,192.8z"/>
	<path class="st0" d="M117.6,158.7c0.3-0.1,0.5-0.4,0.6-0.7C118,158.3,117.8,158.5,117.6,158.7L117.6,158.7z"/>
	<path class="st0" d="M345.2,161.4c-2.1,0-4.2,0-6.3,0c-0.3,0-0.5,0-0.8,0c-4.8,4.9-9.6,9.7-14.5,14.6c0,0.9-0.1,1.9,0,2.7
		c0,0.2,0.1,0.4,0.2,0.5s0.2,0.1,0.3,0.1c1.7,0.4,3.5,0.4,5.3,0.3c6-6.1,12-12.1,18.1-18.2C346.7,161.4,346,161.4,345.2,161.4z"/>
	<path class="st0" d="M326,160.9c-0.9,0.9-1.7,1.7-2.6,2.6l0,0c0,0.9,0.1,1.8,0.1,2.7c0,1.2,0.1,2.5,0.1,3.7c0,0.7,0,1.4,0,2.2
		c3.6-3.6,7.2-7.3,10.9-10.9C331.7,161.1,328.8,160.9,326,160.9z"/>
	<path class="st0" d="M375.5,213.9c-1.3,0.2-2.8,0-4.1,0c-1,0-1.9-0.1-2.9-0.1c-0.5,0-1.4-0.2-2.1-0.2c-0.4,0.4-0.7,0.8-1.1,1.1
		c-0.1,0.6,0,1.3,0,1.7c0,1.1,0,2.2,0,3.3c0,1.3,0.2,3.8-0.8,4.8c-0.6,0.6-1.5,0.6-2.4,0.6c-2.2-0.1-4.4-0.2-6.6-0.2
		c-6.2,6.4-12.5,12.7-18.7,19.1c3.1,0,6.2,0,9.4,0C355.9,234.1,365.7,224,375.5,213.9L375.5,213.9z"/>
	<path class="st0" d="M166.1,140.1c-1.3,0-2.5,0-3.8-0.1c-2.8,2.8-5.6,5.6-8.5,8.4c0.2,0,0.4,0,0.6,0c3,0.1,6,0.1,9.1,0.2
		c0.3,0,0.5,0,0.8,0c2.8-2.8,5.6-5.6,8.4-8.4C170.4,140.2,168.3,140.2,166.1,140.1z"/>
	<path class="st0" d="M136.4,139.9c-2.7,2.7-5.4,5.4-8.1,8.1c1.2,0,2.3,0.1,3.5,0.1c1.5,0,3,0.1,4.5,0.1c0.3,0,0.5,0,0.8,0
		c2.8-2.8,5.6-5.5,8.3-8.3C142.4,139.9,139.4,139.9,136.4,139.9z"/>
	<path class="st0" d="M149.2,140c-2.8,2.8-5.6,5.6-8.4,8.3c3.1,0.1,6.2,0.1,9.3,0.2c2.8-2.8,5.6-5.6,8.4-8.4
		C155.5,140,152.3,140,149.2,140z"/>
	<path class="st0" d="M214.1,190.8c0-0.3,0.1-0.7,0.1-1c0.1-1,0.2-2,0.2-3c0-0.8,0-1.5,0-2.3c0-0.6,0.1-1.4-0.2-2
		c-0.1-0.2-0.2-0.3-0.4-0.4c-0.1,0-0.2-0.1-0.4-0.1c-9.1,9.1-18.3,18.3-27.4,27.4c-0.5,0.5-1,0.9-1.4,1.4c0,0.4,0,0.9,0,1.3
		c0,0.3,0,0.6,0,1s0,0.7-0.2,1c-0.4,0.6-1.3,0.7-2,0.7c-0.6,0-1.2,0-1.8,0c-2.3,2.3-4.5,4.5-6.8,6.8c-0.1,0.7-0.3,1.4-0.6,2.1
		c-0.1,0.3-0.2,0.5-0.4,0.8c-0.6,0.7-1.7,0.8-2.7,0.8c-6.4,6.3-12.7,12.6-19.1,18.9c2.2,0,4.5,0,6.7,0c0.9,0,1.9,0,2.8,0
		C178.3,226.5,196.2,208.6,214.1,190.8z"/>
	<path class="st0" d="M160.8,225c-1.5,0-3,0-4.4-0.1c-6.4,6.4-12.8,12.8-19.1,19.3c3.3,0,6.6,0,9.8,0c6.4-6.4,12.9-12.7,19.3-19.1
		C164.5,225,162.7,225,160.8,225z"/>
	<path class="st0" d="M180.4,140.4c-1.4,0-2.7-0.1-4.1-0.1c-2.7,2.8-5.5,5.5-8.2,8.3c1.4,0,2.8,0,4.1,0.2c0.4,0.1,0.9,0.2,1.2,0.6
		c0.1,0.2,0.1,0.4,0.1,0.6c0.1,0.9,0.1,1.8,0.1,2.6c2.8-2.8,5.6-5.7,8.4-8.5C182.1,142.5,182.1,140.5,180.4,140.4z"/>
	<path class="st0" d="M139.7,224.6c-2.6-0.1-5.2-0.1-7.8-0.2c-3.7,3.7-7.5,7.5-11.2,11.2c-0.1,1.6,0,3.3,0.1,4.9
		c0.1,0.7-0.2,2.1,0.1,2.9c0.8-0.8,1.7-1.7,2.5-2.5C128.9,235.5,134.3,230,139.7,224.6z"/>
	<path class="st0" d="M125.1,224.2c-1.4-0.1-2.8-0.1-4.1-0.2c-0.4,0-0.8,0-1.1-0.2c-0.1-0.1-0.2-0.1-0.4-0.2
		c-3.2,3.2-6.5,6.5-9.7,9.7c1.1-0.3,2.5-0.1,3.5-0.1c1.9,0,4-0.1,5.9,0.2c3-3.1,6.1-6.1,9.1-9.2
		C127.2,224.2,126.2,224.2,125.1,224.2z"/>
	<path class="st0" d="M143.4,224.7c-6.4,6.5-12.9,13-19.3,19.4c3.1,0,6.3,0,9.4,0c6.4-6.4,12.8-12.9,19.2-19.3
		C149.6,224.8,146.5,224.7,143.4,224.7z"/>
	<path class="st0" d="M188.9,149.4c-1.7,0-3.5,0-5.2-0.1c-0.2,0-0.5,0-0.7-0.1c-0.6-0.2-0.9-0.7-1-1.3c-2.9,2.9-5.7,5.8-8.6,8.7
		c0,0.7,0.2,1.4,0.7,1.7c0.4,0.2,0.9,0.3,1.4,0.3c1.6,0.1,3.3,0,4.9-0.1c3-3,6-6.1,9-9.1C189.3,149.4,189.1,149.4,188.9,149.4z"/>
	<path class="st0" d="M210.2,139.5c-0.9,0-3.3-0.5-3.9,0.4c-0.2,0.2-0.2,0.5-0.2,0.8c-0.1,1.7-0.1,3.4-0.1,5.2
		c2.1-2.1,4.2-4.2,6.3-6.4C211.6,139.5,210.9,139.5,210.2,139.5z"/>
	<path class="st0" d="M199.5,149.2c-1.8,0-3.5,0.1-5.3,0.1c-0.3,0-0.6,0-1,0c-3.2,3.2-6.4,6.5-9.6,9.7c1.1,1.1,0.6,4.1,0.6,5.4
		c0,1.2,0,2.3,0,3.5c6.1-6.2,12.3-12.4,18.4-18.6C201.6,149.3,200.5,149.2,199.5,149.2z"/>
	<path class="st0" d="M71,139.9c-2.9,2.9-5.8,5.8-8.6,8.7c3.1,0,6.3,0,9.4,0.1c2.9-2.9,5.8-5.8,8.6-8.7
		C77.2,139.9,74.1,139.9,71,139.9z"/>
	<path class="st0" d="M85.5,143.6c0.1-0.9,0.7-2.3,0.2-3.2c-0.4-0.7-0.9-0.4-1.5-0.4h-0.1c-2.9,2.9-5.8,5.9-8.8,8.8
		c0.4,0,0.8,0.1,1.3,0.1c0.3,0,0.7,0.1,0.9,0.2c1.3,0.8,0.9,3.2,0.7,4.7c2.4-2.4,4.8-4.8,7.2-7.3C85.3,145.6,85.4,144.5,85.5,143.6z
		"/>
	<path class="st0" d="M203.9,211.2c0.1-1,0.1-2.1,0.1-3.1c0-1.2,0-2.4,0-3.6c-3.8,3.8-7.7,7.7-11.5,11.5
		c-9.5,9.4-18.9,18.8-28.4,28.2c3,0,5.9,0,8.9,0c10.5-10.4,21.1-20.8,31.6-31.3C203.7,212.6,203.8,212,203.9,211.2z"/>
	<path class="st0" d="M309.9,186c0-1.1,0-2.2-0.2-3.2c-0.1-0.3-0.2-0.7-0.5-0.8c-1-0.4-2.5-0.2-3.7-0.1
		c-8.4,8.6-16.8,17.1-25.2,25.6c0,1.9,0,3.8,0,5.7c0,0.1,0,0.2-0.1,0.4c-0.1,0.1-0.2,0.2-0.3,0.3c-1,0.5-2.1,0.5-3.3,0.5
		c-1,0-2,0-3-0.1c-1.4,1.4-2.8,2.9-4.2,4.3c0,1-0.1,1.9-0.1,2.9c0,0.8,0.2,2.2-0.6,2.6c-0.4,0.2-0.8,0.2-1.2,0.2c-1.2,0-2.5,0-3.7,0
		c-6.5,6.6-13,13.2-19.5,19.7c2.6,0,5.3,0,7.9,0.1c15.7-15.8,31.4-31.6,47.1-47.4C302.9,193,306.4,189.5,309.9,186z"/>
	<path class="st0" d="M67.2,139.9c-3.1,0-6.1,0-9.2-0.1c-2.9,2.9-5.8,5.8-8.7,8.7c3.1,0,6.2,0.1,9.2,0.1
		C61.5,145.7,64.3,142.8,67.2,139.9z"/>
	<path class="st0" d="M215.9,224c-0.4,0-0.8,0-1.2-0.2c-0.7-0.4-0.3-1-0.3-1.6c0.1-0.7,0-1.4,0-2.1c-2.5,2.5-5.1,5-7.6,7.5
		c-2.1,2.1-4.2,4.1-6.3,6.2c3.6,0,7.3,0,10.9,0c3.3-3.3,6.6-6.7,9.9-10C219.6,223.9,217.7,223.9,215.9,224z"/>
	<path class="st0" d="M192.8,235.6c0.1-0.5,0.3-1,0.6-1.3c0.5-0.6,2.1-0.6,3.6-0.5c5.8-5.8,11.6-11.5,17.4-17.3
		c0-0.7-0.1-1.4-0.1-2.2c0-0.3-0.1-0.6-0.3-0.8s-0.4-0.2-0.7-0.3c-0.8-0.1-1.6-0.1-2.4-0.1c-0.9,0-1.9,0-2.8,0
		c-2.6,2.6-5.3,5.3-7.9,7.9c-7.8,7.7-15.6,15.5-23.5,23.2c2.7,0,5.4,0,8.1,0c0.5,0,0.9,0,1.4,0c2.1-2.1,4.2-4.1,6.2-6.2
		C192.5,237.3,192.6,236.4,192.8,235.6z"/>
	<path class="st0" d="M210.2,158c0.8,0,1.5,0,2.3,0c0.5,0,1,0.3,1.5-0.1c0.5-0.6,0.3-2,0.4-2.7c0-0.6,0-1.3,0.1-1.9
		c-1.6,1.6-3.1,3.1-4.7,4.7C209.8,158,210,158,210.2,158z"/>
	<path class="st0" d="M238.5,223.7c-6.1,6.1-12.1,12.2-18.2,18.3c-0.6,0.6-1.1,1.1-1.7,1.7c3,0.1,5.9,0.1,8.9,0.1
		c6.6-6.7,13.2-13.3,19.8-20C244.4,223.8,241.4,223.7,238.5,223.7z"/>
	<path class="st0" d="M256,224c-1.7,0-3.4-0.1-5.1-0.1c-6.6,6.7-13.2,13.3-19.7,19.9c0.2,0,0.5,0,0.7,0c2.9,0,5.8,0,8.6,0
		c6.5-6.6,13-13.2,19.5-19.8C258.8,224.1,257.4,224.1,256,224z"/>
	<path class="st0" d="M229.2,223.7c-1.3,0-2.6,0-4,0.1c-3.4,3.4-6.7,6.8-10.1,10.2c0.1,0,0.2,0.1,0.2,0.1c0.3,0.2,0.6,0.6,0.6,0.9
		c0.3,1.2,0.2,2.5,0.3,3.7c0,0.9,0.2,1.8,0.1,2.7c0,0.3-0.1,0.6-0.1,0.9c6.2-6.2,12.3-12.4,18.5-18.6
		C232.9,223.7,231,223.7,229.2,223.7z"/>
	<path class="st0" d="M107,191.2c0-3.2,0.1-6.3,0.1-9.5c-6.2,6.1-12.4,12.2-18.6,18.4c0,2.8,0.1,5.6,0.1,8.3c0,0.3,0,0.7,0,1
		c0.5-0.5,1-1,1.6-1.5C95.8,202.3,101.4,196.7,107,191.2z"/>
	<path class="st0" d="M365.7,188c0,0.5,0.1,1.1,0.2,1.6c0,0.2,0,0.3,0.2,0.5c0.1,0.1,0.3,0.2,0.5,0.2c2.1,0.2,4.2,0,6.4,0
		c7.5-7.5,14.9-15,22.4-22.5c0-1.3,0-2.5,0-3.8c0-1.1,0.4-3.3-1-3.7c-0.2-0.1-0.5-0.1-0.8-0.1c-5.7,5.8-11.5,11.6-17.3,17.4
		C372.7,181,369.2,184.5,365.7,188z"/>
	<path class="st0" d="M376.6,163.8c0,2,0,4-0.1,6c0,0.4-0.2,0.9-0.5,1.2s-0.7,0.4-1.1,0.5c-1.4,0.3-2.6-0.3-4-0.3
		c-0.7,0-1.4,0-2.2,0c-0.7,0.7-1.4,1.4-2,2.1c-2.3,2.3-4.6,4.7-6.9,7c1.9-0.1,4.9-0.3,5.6,1.3c0.3,0.6,0.2,1.2,0.2,1.9
		c0,0.3,0,0.6,0,0.9c8-8,15.9-16,23.9-24c-1.1,0-2.3,0.1-3.4,0.1c-0.7,0-1.2-0.6-1.2-1.2c-0.1-1.4-0.1-2.8-0.2-4.2
		c-2.7,2.7-5.3,5.5-8,8.2C376.6,163.4,376.6,163.6,376.6,163.8z"/>
	<path class="st0" d="M360.5,148.3c2.9-3,5.9-5.9,8.8-8.9c-0.6,0-1.1,0-1.7,0c-2.6,0-5.1,0-7.7,0c-2.9,3-5.9,6-8.9,9
		C354.2,148.4,357.3,148.4,360.5,148.3z"/>
	<path class="st0" d="M338.4,148.3c3,0.1,5.9,0.1,8.9,0.1c3-3,5.9-6,8.9-8.9c-3,0-6.1,0-9.1,0c-1,1-2,2-3,3
		C342.2,144.4,340.3,146.3,338.4,148.3z"/>
	<path class="st0" d="M373.5,157.9c0.5,0,1,0,1.4,0.1c0.5,0.1,0.9,0.3,1.2,0.7c0.2,0.3,0.3,0.6,0.3,0.9c2.7-2.7,5.3-5.4,8-8.1
		c-0.1-0.8-0.4-1.5-1.1-1.7c-0.9-0.3-2.3-0.1-3.2-0.1c-0.7,0-2.2,0.2-3.5,0.1c-2.7,2.8-5.4,5.5-8,8.2
		C370.3,157.9,371.9,157.9,373.5,157.9z"/>
	<path class="st0" d="M365.2,149c0.1,0.3,0.2,0.6,0.2,0.9c0,1.3,0,2.6,0,3.9c0,1.2-0.3,2.5,0,3.6c0,0,0,0,0,0.1c3-3.1,6-6.1,9-9.2
		c0-0.3,0-0.5,0-0.8c0.1-2.3,0.1-4.5,0.2-6.8c0-0.3,0-0.5-0.1-0.8c-0.2-0.6-0.7-0.7-1.2-0.7c-3,3-6,6-9,9
		C364.7,148.4,365.1,148.6,365.2,149z"/>
	<path class="st0" d="M327.3,148c2.5,0.1,4.9,0.1,7.4,0.2c2.9-2.9,5.7-5.9,8.6-8.8c-3.1,0-6.2,0-9.3,0c-2.8,2.9-5.6,5.7-8.4,8.6
		C326.2,148,326.8,148,327.3,148z"/>
	<path class="st0" d="M217,200.7c2.7-2.7,5.4-5.4,8.1-8.1c-1.3,0-2.7,0-4,0c-1.7,0-3.3,0-5,0c-2.7,2.7-5.5,5.4-8.2,8.2
		C210.9,200.7,213.9,200.7,217,200.7z"/>
	<path class="st0" d="M107,194.9C100.9,201,94.7,207,88.6,213c0,3.8-0.1,7.6-0.6,11.2c0,0.3-0.1,0.6-0.2,0.8
		c3.2-3.2,6.4-6.3,9.6-9.5s6.5-6.5,9.7-9.7c0-1.6-0.1-3.2-0.1-4.8C107,199,107,197,107,194.9z"/>
	<path class="st0" d="M376.6,203.2c-0.1,3.4-0.3,6.7-0.6,10.1v0.1c6.4-6.6,12.8-13.2,19.2-19.8c0-3.2,0-6.4,0-9.6
		c-2.4,2.4-4.7,4.8-7,7.3C384.4,195.3,380.5,199.2,376.6,203.2z"/>
	<path class="st0" d="M376.3,190.6c0.1,0.1,0.1,0.2,0.1,0.3c0.1,0.2,0.1,0.4,0.1,0.6c0.1,0.6,0,1.2,0,1.8c0,1,0.1,1.9,0.1,2.9
		c0,1.1,0,2.1,0,3.2c6.2-6.4,12.4-12.8,18.6-19.2c0-2.9,0-5.7,0-8.6c-4.1,4.2-8.3,8.4-12.5,12.6
		C380.6,186.3,378.5,188.5,376.3,190.6z"/>
	<path class="st0" d="M269.6,156.8c0,0.4,0,0.9,0.4,1.1c0.2,0.2,0.5,0.2,0.8,0.3c0.6,0.1,1.3,0.1,1.9,0.1c2.6-2.6,5.3-5.3,7.9-7.9
		c-0.3,0-0.6-0.1-0.8-0.1c-0.5-0.1-0.9-0.1-1.3-0.4c-0.4-0.4-0.5-1.1-0.5-1.7c0.1-1.5,0-3.1,0-4.6c-2.8,2.8-5.6,5.6-8.4,8.4
		C269.5,153.7,269.6,155.2,269.6,156.8z"/>
	<path class="st0" d="M302,147.1c0,0.8,0,1.6-0.4,2.2c-0.7,1.2-2.7,0.9-4,1c-5.7,5.9-11.5,11.7-17.2,17.6c0,0.2,0,0.4,0,0.6
		c0,0.7,0.1,1.5-0.6,1.9c-0.3,0.2-0.7,0.3-1.1,0.4c-0.5,0.1-0.9,0.1-1.4,0.1c-3.1,3.1-6.1,6.3-9.2,9.4c0.5,0.1,0.9,0.2,1.1,0.7
		c0.1,0.3,0.1,0.6,0.2,0.9c0,2.2,0,4.4,0,6.7c3.2-3.3,6.5-6.6,9.7-9.9c12.8-13,25.6-26.1,38.4-39.3c-2,0-4,0-5.9,0
		c-1.1,0-2.3,0-3.4,0c-2.1,2.2-4.2,4.3-6.3,6.5C302,146.3,302,146.7,302,147.1z"/>
	<path class="st0" d="M279.4,158.5c0.3,0,0.7,0.1,0.9,0.4c0.1,0.1,0.1,0.3,0.1,0.5c0.2,1.6,0.1,3.1,0,4.7c4.4-4.5,8.8-9,13.2-13.5
		c-0.8,0-1.6,0.1-2.4,0.1c-2.3,0.1-4.7,0.1-7.1,0c-2.6,2.6-5.1,5.1-7.7,7.7C277.4,158.4,278.4,158.4,279.4,158.5z"/>
	<path class="st0" d="M321.9,147.9c2.8-2.8,5.6-5.7,8.3-8.5c-2.6,0-5.1,0-7.7,0c-0.4,0-0.9,0-1.3,0c-2.7,2.8-5.5,5.6-8.2,8.4
		C316.1,147.8,319,147.8,321.9,147.9z"/>
	<path class="st0" d="M87.7,225.2l0.1-0.1C87.7,225.2,87.6,225.3,87.7,225.2C87.6,225.3,87.6,225.2,87.7,225.2z"/>
	<path class="st0" d="M375.9,213.8c0.1-0.1,0.1-0.2,0.1-0.4c-0.2,0.2-0.3,0.3-0.5,0.5C375.6,213.9,375.8,213.9,375.9,213.8z"/>
	<path class="st0" d="M54.3,233.7c0.1-0.1,0.2-0.2,0.3-0.3C54.5,233.5,54.4,233.6,54.3,233.7z"/>
</g>
<g>
	<path class="st0" d="M18.2,280v3.2h9.6V280c0-0.9,0-1.5,0-1.6c-0.1-0.6-0.4-1-0.9-1c-0.2,0-0.4,0-0.6,0H26c-1.3,0-2-0.9-2-2.8
		c0-1,0.3-1.8,0.8-2.4c0.6-0.6,1.3-0.9,2.2-0.9c0.6,0,1.5,0.1,2.8,0.2c1.2,0.2,2.1,0.2,2.8,0.2c0.8,0,1.8-0.1,3-0.2
		c2.1-0.2,3.1-0.3,3.1-0.3c1,0,1.8,0.3,2.4,0.9c0.6,0.6,0.9,1.4,0.9,2.5c0,0.9-0.2,1.6-0.7,2.2c-0.5,0.6-1.1,0.9-1.8,0.9
		c-0.3,0-0.6-0.1-1.1-0.2c-0.5-0.1-0.8-0.2-1.1-0.2c-0.6,0-1,0.4-1.2,1.1c-0.1,0.3-0.1,0.9-0.1,1.9v12.7c0,2.1,0.4,3.1,1.2,3.1
		c0.2,0,0.6-0.1,1.1-0.2c0.5-0.1,0.9-0.2,1.1-0.2c0.7,0,1.3,0.3,1.8,0.9c0.5,0.6,0.7,1.3,0.7,2.2c0,1-0.3,1.8-0.9,2.5
		c-0.6,0.6-1.4,0.9-2.4,0.9c0,0-0.1,0-0.2,0c-0.1,0-0.1,0-0.2,0c-0.6,0-1.5-0.1-2.8-0.2c-1.2-0.2-2.2-0.2-2.8-0.2
		c-1.2,0-2.2,0.1-3,0.2c-1.3,0.2-2.1,0.3-2.7,0.3c-0.9,0-1.6-0.3-2.2-0.9c-0.6-0.6-0.8-1.4-0.8-2.5c0-1.9,0.7-2.8,2-2.8
		c0.2,0,0.3,0,0.4,0c0.1,0,0.2,0,0.3,0c0.1,0,0.2,0,0.2,0c0.5,0,0.8-0.3,0.9-1c0-0.3,0-0.9,0-1.6v-4.5h-9.6v4.5c0,1,0,1.6,0,1.6
		c0.1,0.6,0.4,1,0.9,1c0,0,0.1,0,0.2,0c0.1,0,0.2,0,0.3,0c0.1,0,0.2,0,0.4,0c1.3,0,2,0.9,2,2.8c0,1-0.3,1.8-0.8,2.5
		c-0.6,0.6-1.3,0.9-2.2,0.9c-0.6,0-1.4-0.1-2.5-0.2c-1.1-0.2-2-0.2-2.5-0.2c-1.3,0-2.5,0.1-3.4,0.2c-1.5,0.2-2.5,0.3-3.1,0.3
		c-1,0-1.8-0.3-2.4-0.9c-0.6-0.6-0.9-1.4-0.9-2.4c0-0.9,0.2-1.6,0.7-2.2c0.5-0.6,1.1-0.9,1.8-0.9c0.2,0,0.6,0.1,1.1,0.2
		c0.5,0.1,0.8,0.2,1.1,0.2c0.8,0,1.2-1,1.2-3.1v-12.7c0-2-0.4-3.1-1.2-3.1c-0.2,0-0.6,0.1-1.1,0.2c-0.5,0.1-0.8,0.2-1.1,0.2
		c-0.7,0-1.3-0.3-1.8-0.9c-0.5-0.6-0.7-1.3-0.7-2.2c0-1,0.3-1.8,0.9-2.4c0.6-0.6,1.4-0.9,2.4-0.9c0.3,0,1.3,0.1,2.9,0.3
		c1.1,0.1,2.2,0.2,3.3,0.2c0.9,0,1.8-0.1,2.7-0.2c1.2-0.2,2.1-0.3,2.6-0.3c0.9,0,1.7,0.3,2.2,0.9c0.6,0.6,0.8,1.4,0.8,2.5
		c0,1.8-0.7,2.8-2,2.8h-0.4c-0.1,0-0.3,0-0.5,0c-0.5,0-0.8,0.3-0.9,1C18.2,278.4,18.2,279,18.2,280z"/>
	<path class="st0" d="M66.3,288.7c0,1.3-0.2,2.1-0.5,2.6c-0.3,0.4-1,0.6-1.9,0.6H52.7c-0.6,0-0.9,0.1-1,0.2
		c-0.1,0.1-0.2,0.4-0.2,0.8c0,1.3,0.4,2.4,1.2,3.2c0.8,0.9,1.9,1.3,3.1,1.3c1.3,0,2.6-0.7,3.9-2.1c0.9-1,1.9-1.5,3-1.5
		c0.9,0,1.7,0.3,2.2,0.8c0.6,0.5,0.8,1.2,0.8,2c0,1.8-1,3.3-2.9,4.5c-1.9,1.2-4.3,1.9-7.1,1.9c-3.6,0-6.5-1.1-8.7-3.3
		c-2.2-2.2-3.3-5.1-3.3-8.8c0-3.7,1.1-6.7,3.2-9c2.2-2.3,5-3.4,8.5-3.4c3.2,0,5.8,0.9,7.8,2.8C65.3,283.1,66.3,285.6,66.3,288.7z
		 M51.7,286.4c0,0.2,0,0.3,0.1,0.5c0.1,0.1,0.4,0.2,1,0.2h5.1c0.5,0,0.7-0.1,0.8-0.2c0.1-0.1,0.2-0.3,0.2-0.6c0-0.8-0.4-1.5-1.1-2.1
		c-0.7-0.6-1.5-0.9-2.5-0.9c-1.2,0-2.2,0.5-3,1.4C52,285.4,51.7,285.9,51.7,286.4z"/>
	<path class="st0" d="M79.1,286l3.1,9.9l3.1-9.4c0.2-0.7,0.4-1.3,0.4-1.7c0-0.3-0.2-0.6-0.7-0.8l-0.8-0.3c-0.6-0.2-1-0.9-1-1.9
		c0-0.8,0.2-1.4,0.7-1.9c0.4-0.5,1-0.8,1.7-0.8c0.5,0,1.2,0.1,2.1,0.2c0.9,0.1,1.7,0.2,2.1,0.2c0.5,0,1.2-0.1,2.2-0.2
		c1-0.1,1.7-0.2,2.2-0.2c1.8,0,2.8,1,2.8,3c0,0.7-0.2,1.3-0.6,1.9c-0.4,0.5-0.9,0.8-1.5,0.8c-0.1,0-0.3,0-0.6-0.1
		c-0.3-0.1-0.5-0.1-0.6-0.1c-0.6,0-1,0.5-1.3,1.4l-0.6,1.6l-3.9,10.3c-1.2,3.2-2.1,5.2-2.5,6.2c-0.5,0.9-1.2,2-2,3.1
		c-2.4,3.1-5.4,4.6-9,4.6c-2.2,0-4-0.5-5.4-1.6c-1.4-1-2.1-2.4-2.1-4c0-1.1,0.4-2.1,1.1-2.8c0.7-0.7,1.6-1.1,2.7-1.1
		c0.9,0,1.7,0.3,2.3,0.8c0.6,0.6,0.9,1.3,0.9,2.2c0,0.3,0,0.7-0.1,1c0.4,0.2,0.8,0.3,1.1,0.3c0.8,0,1.6-0.5,2.4-1.5
		c0.7-1,1.1-1.8,1.1-2.5c0-0.6-0.5-2.2-1.6-4.6l-5.1-12.1c-0.4-0.9-0.7-1.3-1.1-1.3c0,0-0.3,0-0.7,0.1c0,0-0.1,0-0.2,0
		c-0.1,0-0.2,0-0.2,0c-1.6,0-2.3-0.9-2.3-2.6c0-0.9,0.3-1.6,0.8-2.2c0.5-0.6,1.2-0.9,2-0.9c0.5,0,1.2,0.1,2.2,0.2
		c1,0.1,1.7,0.2,2.2,0.2c0.6,0,1.6-0.1,2.9-0.2c1.4-0.1,2.1-0.2,2.2-0.2c1.7,0,2.5,0.9,2.5,2.7c0,1.3-0.6,2-1.9,2.2
		c-0.6,0.1-1,0.4-1,0.8C78.9,285,78.9,285.4,79.1,286z"/>
	<path class="st0" d="M109.2,290.4c-0.2,1.5-0.9,2.3-2.2,2.3h-1.8c-1.3,0-2-0.8-2.2-2.3l-1.4-14.8c-0.1-0.9-0.1-1.6-0.1-1.8
		c0-2.1,1.5-3.1,4.6-3.1c3.1,0,4.6,1,4.6,3.1c0,0.6,0,1.2-0.1,1.8L109.2,290.4z M106,302.9c-1.2,0-2.2-0.4-3-1.3
		c-0.9-0.9-1.3-1.9-1.3-3.1s0.4-2.2,1.3-3.1c0.9-0.9,1.9-1.3,3-1.3c1.2,0,2.2,0.4,3.1,1.3c0.9,0.9,1.3,1.9,1.3,3.1s-0.4,2.2-1.3,3.1
		C108.3,302.5,107.2,302.9,106,302.9z"/>
	<path class="st0" d="M142.4,280v3.2h9.6V280c0-0.9,0-1.5,0-1.6c-0.1-0.6-0.4-1-0.9-1c-0.2,0-0.4,0-0.6,0h-0.4c-1.3,0-2-0.9-2-2.8
		c0-1,0.3-1.8,0.8-2.4c0.6-0.6,1.3-0.9,2.2-0.9c0.6,0,1.5,0.1,2.8,0.2c1.2,0.2,2.1,0.2,2.8,0.2c0.8,0,1.8-0.1,3-0.2
		c2.1-0.2,3.1-0.3,3.1-0.3c1,0,1.8,0.3,2.4,0.9c0.6,0.6,0.9,1.4,0.9,2.5c0,0.9-0.2,1.6-0.7,2.2c-0.5,0.6-1.1,0.9-1.8,0.9
		c-0.3,0-0.6-0.1-1.1-0.2c-0.5-0.1-0.8-0.2-1.1-0.2c-0.6,0-1,0.4-1.2,1.1c-0.1,0.3-0.1,0.9-0.1,1.9v12.7c0,2.1,0.4,3.1,1.2,3.1
		c0.2,0,0.6-0.1,1.1-0.2c0.5-0.1,0.9-0.2,1.1-0.2c0.7,0,1.3,0.3,1.8,0.9c0.5,0.6,0.7,1.3,0.7,2.2c0,1-0.3,1.8-0.9,2.5
		c-0.6,0.6-1.4,0.9-2.4,0.9c0,0-0.1,0-0.2,0c-0.1,0-0.1,0-0.2,0c-0.6,0-1.5-0.1-2.8-0.2c-1.2-0.2-2.2-0.2-2.8-0.2
		c-1.2,0-2.2,0.1-3,0.2c-1.3,0.2-2.1,0.3-2.7,0.3c-0.9,0-1.6-0.3-2.2-0.9c-0.6-0.6-0.8-1.4-0.8-2.5c0-1.9,0.7-2.8,2-2.8
		c0.2,0,0.3,0,0.4,0c0.1,0,0.2,0,0.3,0c0.1,0,0.2,0,0.2,0c0.5,0,0.8-0.3,0.9-1c0-0.3,0-0.9,0-1.6v-4.5h-9.6v4.5c0,1,0,1.6,0,1.6
		c0.1,0.6,0.4,1,0.9,1c0,0,0.1,0,0.2,0c0.1,0,0.2,0,0.3,0c0.1,0,0.2,0,0.4,0c1.3,0,2,0.9,2,2.8c0,1-0.3,1.8-0.8,2.5
		c-0.6,0.6-1.3,0.9-2.2,0.9c-0.6,0-1.4-0.1-2.5-0.2c-1.1-0.2-2-0.2-2.5-0.2c-1.3,0-2.5,0.1-3.4,0.2c-1.5,0.2-2.5,0.3-3.1,0.3
		c-1,0-1.8-0.3-2.4-0.9c-0.6-0.6-0.9-1.4-0.9-2.4c0-0.9,0.2-1.6,0.7-2.2c0.5-0.6,1.1-0.9,1.8-0.9c0.2,0,0.6,0.1,1.1,0.2
		c0.5,0.1,0.8,0.2,1.1,0.2c0.8,0,1.2-1,1.2-3.1v-12.7c0-2-0.4-3.1-1.2-3.1c-0.2,0-0.6,0.1-1.1,0.2c-0.5,0.1-0.8,0.2-1.1,0.2
		c-0.7,0-1.3-0.3-1.8-0.9c-0.5-0.6-0.7-1.3-0.7-2.2c0-1,0.3-1.8,0.9-2.4c0.6-0.6,1.4-0.9,2.4-0.9c0.3,0,1.3,0.1,2.9,0.3
		c1.1,0.1,2.2,0.2,3.3,0.2c0.9,0,1.8-0.1,2.7-0.2c1.2-0.2,2.1-0.3,2.6-0.3c0.9,0,1.7,0.3,2.2,0.9c0.6,0.6,0.8,1.4,0.8,2.5
		c0,1.8-0.7,2.8-2,2.8h-0.4c-0.1,0-0.3,0-0.5,0c-0.5,0-0.8,0.3-0.9,1C142.4,278.4,142.4,279,142.4,280z"/>
	<path class="st0" d="M177.9,279.1c0.9,0,1.3,0.6,1.3,1.8v13.8c0,1.6,0.3,2.3,0.9,2.3c0.1,0,0.3,0,0.7-0.1c0.3-0.1,0.6-0.1,0.8-0.1
		c1.3,0,1.9,0.8,1.9,2.4c0,2.1-0.9,3.2-2.7,3.2c-0.3,0-1.2-0.1-2.6-0.2c-0.9-0.1-1.8-0.1-2.9-0.1c-0.6,0-1.4,0.1-2.4,0.2
		c-1.1,0.1-1.9,0.2-2.4,0.2c-0.8,0-1.5-0.3-2-0.8c-0.5-0.6-0.8-1.3-0.8-2.2c0-1.7,0.7-2.6,2.2-2.6l1.2,0.3c0.1,0,0.2,0,0.3,0
		c0.6,0,0.8-0.9,0.8-2.6V287c0-1.7-0.3-2.6-0.8-2.6c-0.1,0-0.4,0.1-0.8,0.2c-0.3,0.1-0.6,0.1-0.7,0.1c-1.5,0-2.2-0.9-2.2-2.6
		c0-0.9,0.3-1.7,0.8-2.2c0.5-0.6,1.2-0.8,2.1-0.8c0.3,0,0.8,0,1.5,0.1c1.1,0.2,1.9,0.2,2.6,0.2c0.5,0,1.2-0.1,2-0.2
		C177.3,279.1,177.8,279.1,177.9,279.1z M175.3,277.3c-1.1,0-2.1-0.4-2.9-1.2c-0.8-0.8-1.2-1.8-1.2-2.9c0-1.2,0.4-2.1,1.2-3
		c0.8-0.8,1.8-1.2,3-1.2c1.2,0,2.1,0.4,3,1.2c0.8,0.8,1.2,1.8,1.2,3c0,1.2-0.4,2.1-1.2,3C177.4,276.9,176.4,277.3,175.3,277.3z"/>
	<path class="st0" d="M196.6,290.4c-0.2,1.5-0.9,2.3-2.2,2.3h-1.8c-1.3,0-2-0.8-2.2-2.3l-1.4-14.8c-0.1-0.9-0.1-1.6-0.1-1.8
		c0-2.1,1.5-3.1,4.6-3.1s4.6,1,4.6,3.1c0,0.6,0,1.2-0.1,1.8L196.6,290.4z M193.5,302.9c-1.2,0-2.2-0.4-3-1.3
		c-0.9-0.9-1.3-1.9-1.3-3.1s0.4-2.2,1.3-3.1c0.9-0.9,1.9-1.3,3-1.3c1.2,0,2.2,0.4,3.1,1.3c0.9,0.9,1.3,1.9,1.3,3.1s-0.4,2.2-1.3,3.1
		C195.7,302.5,194.7,302.9,193.5,302.9z"/>
	<path class="st0" d="M229.8,280v3.2h9.6V280c0-0.9,0-1.5,0-1.6c-0.1-0.6-0.4-1-0.9-1c-0.2,0-0.4,0-0.6,0h-0.4c-1.3,0-2-0.9-2-2.8
		c0-1,0.3-1.8,0.8-2.4c0.6-0.6,1.3-0.9,2.2-0.9c0.6,0,1.5,0.1,2.8,0.2c1.2,0.2,2.1,0.2,2.8,0.2c0.8,0,1.8-0.1,3-0.2
		c2.1-0.2,3.1-0.3,3.1-0.3c1,0,1.8,0.3,2.4,0.9c0.6,0.6,0.9,1.4,0.9,2.5c0,0.9-0.2,1.6-0.7,2.2c-0.5,0.6-1.1,0.9-1.8,0.9
		c-0.3,0-0.6-0.1-1.1-0.2c-0.5-0.1-0.8-0.2-1.1-0.2c-0.6,0-1,0.4-1.2,1.1c-0.1,0.3-0.1,0.9-0.1,1.9v12.7c0,2.1,0.4,3.1,1.2,3.1
		c0.2,0,0.6-0.1,1.1-0.2c0.5-0.1,0.9-0.2,1.1-0.2c0.7,0,1.3,0.3,1.8,0.9c0.5,0.6,0.7,1.3,0.7,2.2c0,1-0.3,1.8-0.9,2.5
		c-0.6,0.6-1.4,0.9-2.4,0.9c0,0-0.1,0-0.2,0c-0.1,0-0.1,0-0.2,0c-0.6,0-1.5-0.1-2.8-0.2c-1.2-0.2-2.2-0.2-2.8-0.2
		c-1.2,0-2.2,0.1-3,0.2c-1.3,0.2-2.1,0.3-2.7,0.3c-0.9,0-1.6-0.3-2.2-0.9c-0.6-0.6-0.8-1.4-0.8-2.5c0-1.9,0.7-2.8,2-2.8
		c0.2,0,0.3,0,0.4,0c0.1,0,0.2,0,0.3,0c0.1,0,0.2,0,0.2,0c0.5,0,0.8-0.3,0.9-1c0-0.3,0-0.9,0-1.6v-4.5h-9.6v4.5c0,1,0,1.6,0,1.6
		c0.1,0.6,0.4,1,0.9,1c0,0,0.1,0,0.2,0c0.1,0,0.2,0,0.3,0c0.1,0,0.2,0,0.4,0c1.3,0,2,0.9,2,2.8c0,1-0.3,1.8-0.8,2.5
		c-0.6,0.6-1.3,0.9-2.2,0.9c-0.6,0-1.4-0.1-2.5-0.2c-1.1-0.2-2-0.2-2.5-0.2c-1.3,0-2.5,0.1-3.4,0.2c-1.5,0.2-2.5,0.3-3.1,0.3
		c-1,0-1.8-0.3-2.4-0.9c-0.6-0.6-0.9-1.4-0.9-2.4c0-0.9,0.2-1.6,0.7-2.2c0.5-0.6,1.1-0.9,1.8-0.9c0.2,0,0.6,0.1,1.1,0.2
		c0.5,0.1,0.8,0.2,1.1,0.2c0.8,0,1.2-1,1.2-3.1v-12.7c0-2-0.4-3.1-1.2-3.1c-0.2,0-0.6,0.1-1.1,0.2c-0.5,0.1-0.8,0.2-1.1,0.2
		c-0.7,0-1.3-0.3-1.8-0.9c-0.5-0.6-0.7-1.3-0.7-2.2c0-1,0.3-1.8,0.9-2.4c0.6-0.6,1.4-0.9,2.4-0.9c0.3,0,1.3,0.1,2.9,0.3
		c1.1,0.1,2.2,0.2,3.3,0.2c0.9,0,1.8-0.1,2.7-0.2c1.2-0.2,2.1-0.3,2.6-0.3c0.9,0,1.7,0.3,2.2,0.9c0.6,0.6,0.8,1.4,0.8,2.5
		c0,1.8-0.7,2.8-2,2.8h-0.4c-0.1,0-0.3,0-0.5,0c-0.5,0-0.8,0.3-0.9,1C229.8,278.4,229.8,279,229.8,280z"/>
	<path class="st0" d="M267.4,302.9c-3.8,0-6.7-1.1-8.8-3.2c-2.1-2.1-3.1-5.2-3.1-9c0-3.9,1-6.9,3.1-9c2-2.2,4.9-3.2,8.6-3.2
		c3.6,0,6.5,1.1,8.6,3.2c2.1,2.1,3.1,5.1,3.1,8.8c0,3.9-1,7-3,9.2C273.9,301.8,271,302.9,267.4,302.9z M267.2,284.1
		c-1.3,0-2.4,0.6-3.2,1.8c-0.8,1.2-1.2,2.8-1.2,4.8c0,2.1,0.4,3.7,1.2,4.9c0.8,1.2,1.9,1.7,3.3,1.7c2.8,0,4.3-2.2,4.3-6.6
		C271.6,286.3,270.1,284.1,267.2,284.1z"/>
	<path class="st0" d="M291,286.1l2,9.8l2.9-13.5c0.3-1.3,0.8-2.2,1.4-2.7s1.7-0.7,3.3-0.7c1.8,0,3,0.2,3.6,0.7
		c0.6,0.4,1,1.5,1.4,3.2l2.6,13l2.4-10.3c0.1-0.2,0.1-0.5,0.1-0.6c0-0.5-0.4-0.7-1.1-0.7c-1.5,0-2.2-0.9-2.2-2.6
		c0-1.8,0.9-2.7,2.6-2.7c0.5,0,1.3,0.1,2.3,0.2c1,0.1,1.8,0.2,2.3,0.2c0.5,0,1.2-0.1,2.2-0.2c1-0.1,1.7-0.2,2.2-0.2
		c0.8,0,1.4,0.3,1.9,0.8c0.5,0.5,0.7,1.2,0.7,2.1c0,0.8-0.2,1.4-0.6,1.9c-0.4,0.5-0.9,0.8-1.5,0.8c-0.2,0-0.4,0-0.5,0
		c-0.4-0.1-0.7-0.1-0.7-0.1c-0.4,0-0.7,0.6-1.1,1.7c0,0-0.1,0.5-0.4,1.3l-3.8,11.9c-0.6,2-1.4,2.9-2.4,2.9c-0.3,0-0.8,0-1.4-0.1
		c-0.6-0.1-1.1-0.1-1.4-0.1c-0.3,0-0.7,0-1.3,0.1c-0.6,0.1-1,0.1-1.3,0.1c-1.1,0-1.9-1.2-2.4-3.6l-2.2-12.1l-2.7,11.7
		c-0.4,1.7-0.7,2.8-1,3.3c-0.3,0.4-0.7,0.7-1.4,0.7c-0.3,0-0.8,0-1.4-0.1c-0.6-0.1-1.1-0.1-1.5-0.1c-0.3,0-0.8,0-1.5,0.1
		c-0.6,0.1-1.1,0.1-1.5,0.1c-0.9,0-1.6-0.8-2.1-2.3L284,286c-0.2-0.9-0.6-1.4-1.2-1.4c-0.1,0-0.3,0-0.6,0.1c-0.3,0-0.5,0.1-0.6,0.1
		c-1.3,0-1.9-0.9-1.9-2.7c0-2,0.9-3,2.7-3c0.5,0,1.2,0.1,2.2,0.2c1,0.1,1.7,0.2,2.2,0.2c0.5,0,1.3-0.1,2.4-0.2
		c1.1-0.1,1.9-0.2,2.4-0.2c1.7,0,2.5,0.9,2.5,2.8c0,1.6-0.6,2.4-1.8,2.5c-0.6,0.1-0.9,0.1-1.1,0.2c-0.1,0.1-0.2,0.3-0.2,0.6v0.4
		C290.9,285.6,290.9,285.8,291,286.1z"/>
	<path class="st0" d="M332,278.7c2.3,0,4.5,0.9,6.4,2.7v-3.3c0-1.1-0.4-1.7-1.1-1.7c-0.2,0-0.6,0-1.1,0.1c-0.4,0.1-0.8,0.2-1.2,0.2
		c-0.6,0-1.1-0.2-1.5-0.7c-0.4-0.5-0.6-1.1-0.6-1.8c0-2,1-2.9,3.1-2.9c0.7,0,1.2,0,1.5,0c1.2,0.1,2,0.2,2.5,0.2c0.4,0,1,0,1.7-0.1
		c0.8-0.1,1.3-0.1,1.7-0.1c0.8,0,1.3,0.2,1.6,0.5c0.3,0.4,0.4,1,0.4,1.9v20.9c0,1.6,0.3,2.3,0.9,2.3c0.2,0,0.4,0,0.7-0.1
		c0.2-0.1,0.4-0.1,0.7-0.1c1.3,0,2,0.8,2,2.3c0,0.9-0.2,1.7-0.7,2.3c-0.5,0.6-1.1,0.9-1.8,0.9h-0.3l-1.6-0.3
		c-0.4-0.1-0.9-0.1-1.6-0.1c-0.8,0-1.5,0-2,0.1c-0.8,0.1-1.2,0.1-1.2,0.1c-0.9,0-1.4-0.6-1.4-1.7v-1.7c-1.6,2.7-4,4.1-7.2,4.1
		c-2.8,0-5.1-1.2-6.9-3.5c-1.8-2.3-2.7-5.2-2.7-8.7c0-3.6,0.9-6.5,2.7-8.7C326.7,279.8,329.1,278.7,332,278.7z M333.6,284.5
		c-1.1,0-2.1,0.5-2.8,1.6c-0.7,1.1-1.1,2.5-1.2,4.4v0.6c0,1.9,0.4,3.3,1.1,4.4c0.7,1.1,1.7,1.6,2.9,1.6c1.3,0,2.4-0.6,3.3-1.7
		c0.8-1.2,1.3-2.7,1.3-4.6c0-1.9-0.4-3.4-1.2-4.5C336.1,285.1,335,284.5,333.6,284.5z"/>
	<path class="st0" d="M361.7,286l3.1,9.9l3.1-9.4c0.2-0.7,0.4-1.3,0.4-1.7c0-0.3-0.2-0.6-0.7-0.8l-0.8-0.3c-0.6-0.2-1-0.9-1-1.9
		c0-0.8,0.2-1.4,0.7-1.9c0.4-0.5,1-0.8,1.7-0.8c0.5,0,1.2,0.1,2.1,0.2c0.9,0.1,1.7,0.2,2.1,0.2c0.5,0,1.2-0.1,2.2-0.2
		c1-0.1,1.7-0.2,2.2-0.2c1.8,0,2.8,1,2.8,3c0,0.7-0.2,1.3-0.6,1.9c-0.4,0.5-0.9,0.8-1.5,0.8c-0.1,0-0.3,0-0.6-0.1
		c-0.3-0.1-0.5-0.1-0.6-0.1c-0.6,0-1,0.5-1.3,1.4l-0.6,1.6l-3.9,10.3c-1.2,3.2-2.1,5.2-2.5,6.2c-0.5,0.9-1.2,2-2,3.1
		c-2.4,3.1-5.4,4.6-9,4.6c-2.2,0-4-0.5-5.4-1.6c-1.4-1-2.1-2.4-2.1-4c0-1.1,0.4-2.1,1.1-2.8c0.7-0.7,1.6-1.1,2.7-1.1
		c0.9,0,1.7,0.3,2.3,0.8c0.6,0.6,0.9,1.3,0.9,2.2c0,0.3,0,0.7-0.1,1c0.4,0.2,0.8,0.3,1.1,0.3c0.8,0,1.6-0.5,2.4-1.5
		c0.7-1,1.1-1.8,1.1-2.5c0-0.6-0.5-2.2-1.6-4.6l-5.1-12.1c-0.4-0.9-0.7-1.3-1.1-1.3c0,0-0.3,0-0.7,0.1c0,0-0.1,0-0.2,0
		c-0.1,0-0.2,0-0.2,0c-1.6,0-2.3-0.9-2.3-2.6c0-0.9,0.3-1.6,0.8-2.2c0.5-0.6,1.2-0.9,2-0.9c0.5,0,1.2,0.1,2.2,0.2
		c1,0.1,1.7,0.2,2.2,0.2c0.6,0,1.6-0.1,2.9-0.2c1.4-0.1,2.1-0.2,2.2-0.2c1.7,0,2.5,0.9,2.5,2.7c0,1.3-0.6,2-1.9,2.2
		c-0.6,0.1-1,0.4-1,0.8C361.4,285,361.5,285.4,361.7,286z"/>
	<path class="st0" d="M391.7,290.4c-0.2,1.5-0.9,2.3-2.2,2.3h-1.8c-1.3,0-2-0.8-2.2-2.3l-1.4-14.8c-0.1-0.9-0.1-1.6-0.1-1.8
		c0-2.1,1.5-3.1,4.6-3.1c3.1,0,4.6,1,4.6,3.1c0,0.6,0,1.2-0.1,1.8L391.7,290.4z M388.6,302.9c-1.2,0-2.2-0.4-3-1.3
		c-0.9-0.9-1.3-1.9-1.3-3.1s0.4-2.2,1.3-3.1c0.9-0.9,1.9-1.3,3-1.3c1.2,0,2.2,0.4,3.1,1.3c0.9,0.9,1.3,1.9,1.3,3.1s-0.4,2.2-1.3,3.1
		C390.8,302.5,389.8,302.9,388.6,302.9z"/>
</g>
</svg>
