<?xml version="1.0" encoding="utf-8"?>
<!-- Generator: Adobe Illustrator 27.9.1, SVG Export Plug-In . SVG Version: 6.00 Build 0)  -->
<svg version="1.1" id="Layer_1" xmlns="http://www.w3.org/2000/svg" xmlns:xlink="http://www.w3.org/1999/xlink" x="0px" y="0px"
	 viewBox="0 0 792 369.18" style="enable-background:new 0 0 792 369.18;" xml:space="preserve">
<style type="text/css">
	.st0{fill-rule:evenodd;clip-rule:evenodd;fill:#ED1C24;}
	.st1{fill:#FFF200;}
	.st2{fill-rule:evenodd;clip-rule:evenodd;}
</style>
<g>
	<path d="M233.67,150.22c-6.58-4.75-18.27-6.21-27.59-6.94c-2.92-0.18-5.48-0.37-7.86-0.73l-20.47,1.83
		c-0.37,1.46-1.46,1.28-1.46,2.19l-6.21,8.77c-1.46,8.41-6.76,16.63-2.92,24.85c2.37,1.28,4.57,0,6.39,1.28l-12.43,173.41
		l-1.28,16.45c0.55,0.36,0.91,0.73,1.28,0.91c0.55,0.37,0.91,0.73,1.83,0.91l0.36-0.37c3.84-9.87,4.02-20.83,10.42-29.78
		c4.93-9.5,8.04-18.82,7.67-29.42l9.32-6.94c0-3.29,1.46-6.76,0-9.14c-0.91-14.98,1.65-27.04,4.38-41.3
		c2.92-3.29,6.58-7.31,10.96-11.51c4.57-4.39,9.87-8.95,15.53-13.34c11.33-9.69,23.21-21.38,23.21-40.2
		c0.18-5.12,0.37-13.52-0.37-18.09C243.35,163.92,240.06,155.88,233.67,150.22z M206.08,214.36c-0.55,0.55-1.28,1.28-1.83,1.83
		l-8.41,5.12l3.66-42.21l6.58-1.64l4.02-0.91c1.83,0.55,4.02,1.64,5.12,3.65C218.14,191.88,214.12,205.4,206.08,214.36z"/>
	<path d="M286.3,286.9c-2.19-40.57-7.31-80.77-10.6-120.79c0.37-1.64,1.83-1.64,1.83-2.56c-3.29-7.13-1.83-14.8-3.29-21.75
		l-21.38,4.93c0,4.93,0.18,22.11,1.46,32.89c2.92,44.4,9.69,88.26,7.31,131.93c11.15,3.11,11.15,14.44,11.15,23.21
		c5.85,6.21,9.14,14.8,13.52,21.75c2.01,2.74,4.02,5.3,6.58,7.31l-6.03-66.7C286.66,293.66,286.48,290.37,286.3,286.9z"/>
	<path d="M146.32,172.51l4.57,7.49c0.91-0.36,2.19,0,2.37-0.36l7.86-31.06l1.1-4.57c-0.18-1.46,0.36-2.56-0.55-2.92h-0.55
		l-17.36-0.91c-12.97,4.2-21.38,13.89-31.8,21.01l-41.48,43.49c-5.67,4.39-2.56,10.6-3.11,15.71c3.11,6.4,0,15.72,6.39,20.1
		c10.42,6.58,25.22,10.42,34.35,19.37c2.01,3.47,2.01,6.58-0.36,10.05c-11.15,24.67-38.37,35.82-54.27,55.92l-7.68,7.31
		c-10.23,11.69-23.39,21.93-30.52,33.26l45.32-20.47l9.87-6.03l2.92-6.94c2.92-1.64,5.66-0.37,8.41,0
		c25.4-13.7,46.23-29.97,61.95-50.98c3.65-9.5,11.15-20.1,5.85-29.79c-1.28-0.55-2.56-0.36-3.29-0.91l-0.36-1.83
		c0.36-0.73,0.91-1.46,0.91-1.64c0.18-2.56-2.38-4.57-3.29-5.66c1.83-20.47-20.47-21.75-29.42-32.89c-0.36-4.57,0-9.14,3.11-13.16
		C126.59,188.04,134.81,176.71,146.32,172.51z"/>
	<path d="M411.28,289.09l-11.15-59.94l17.73-13.89c-0.18-4.2,5.48-8.77,2.74-12.42c-2.56-0.91-4.93,0.91-7.31,0.91l-18.64,4.2
		l-10.96-61.03l19.55-5.85c4.39-5.85,7.31-11.69,8.41-19c0.55-1.64-1.1-3.47-1.83-3.84c-19.19-0.91-38.92,7.13-58.66,10.23
		c2.01,7.31,2.92,10.78,9.32,21.56c5.85,19.37,10.96,42.76,12.24,62.86l-10.23,2.01l-0.55-0.36c-2.19-14.98-3.66-31.25-11.15-44.59
		c-1.1-13.7-1.83-27.04-15.17-33.26c0.36-1.46-0.55-2.92-1.65-4.75c-1.46,0.18-3.11,0.55-4.57,0.73
		c-14.44,2.38-29.05,3.11-43.12,6.58c-2.19,0.55-4.39,1.1-6.58,1.83l1.28,10.78l5.3,3.84l2.01,1.46
		c13.7,51.16,7.13,106.17,26.5,155.5c1.28,16.45,8.95,33.26,8.95,49.89c0.55,1.64,1.65,2.56,3.11,3.11c0.91,0,1.65,0,2.56-0.18
		c0.91-0.18,1.64-0.55,2.74-1.1c2.38-11.88,10.42-21.38,17.18-30.52c-2.56-13.7,14.44-24.49,8.95-38.92
		c0.55-2.19,2.19-4.02,3.66-4.93c-0.55-0.91,0-2.19-0.55-3.11c9.5-19.55,4.02-39.1,1.83-58.47c6.4,0,8.95,5.48,13.52,8.22
		l12.79,63.96l3.47,13.89l12.06,3.84c3.84,0.91,7.31-2.01,9.68-3.84c4.02-6.03,9.14-10.6,14.07-15.17
		c5.67-5.12,11.15-10.42,14.25-18.09c-4.93,1.1-9.5,2.19-14.25,3.29C422.98,285.99,417.13,287.27,411.28,289.09z M343.49,245.97
		c0,0.55,0,1.64-0.55,2.74l-6.21,22.11c-3.11-8.04-5.48-16.44-7.31-25.03c-5.67-24.49-8.04-51.16-14.62-75.83
		c4.57,2.56,10.96-3.29,14.62,0.37c0.18,0.18,0.36,0.37,0.55,0.73C340.38,195.9,344.95,220.39,343.49,245.97z"/>
	<path d="M716.63,20.66c-0.91-3.65,0.18-8.22-0.36-11.69l-5.3-6.4l-17.54,9.14l31.79,74.92c-1.28-0.91-1.83-1.83-2.92-3.47
		l-38.74-49.52l-9.5-12.06l-24.67,9.68l-2.01,0.92c0,1.64,1.1,3.29,2.01,4.38c0.37,0.55,0.91,0.91,1.28,1.28
		c3.11,1.28,5.48,0,8.04,4.38c8.95,20.28,16.81,42.58,24.85,64.87c9.32,25.76,18.82,51.71,30.33,74.74
		c17.91,4.38,19.37,24.67,32.53,32.16l-4.93-15.35L699.09,83.89c17.72,18.82,36.18,45.87,50.8,61.95c2.92,2.74,6.03,4.2,9.5,6.58
		c5.85,9.68,14.8,15.53,23.02,24.49l5.3,5.3l0.91,0.18l0.91-0.55C769.62,127.56,734.72,72.01,716.63,20.66z"/>
	<path d="M487.12,207.96c-23.39-27.78-1.28-60.3-3.47-89.72c-2.92-2.38-3.47-6.58-4.2-9.5c-6.21-0.55-9.5-4.57-12.24-8.59
		l-12.97,3.47l-25.4,7.13l-12.79,3.65c-2.19,2.38-1.28,7.31-0.73,9.5c1.65,0,2.56,0,3.47,0c6.39,3.47,1.64,11.33,3.84,16.45
		l6.21,22.29l18.64,66.51l6.76,25.03l8.59,31.61c10.6,0.55,11.69,14.98,21.93,16.63l-19.55-81.5l29.05,50.8
		c4.2,3.29,8.22,6.4,11.7,10.05c3.11,3.29,5.85,7.13,7.68,11.88c2.19,0,4.2,0.91,6.21,2.01c2.19,1.46,3.84,2.74,5.48,4.57
		c6.21,6.94,12.06,14.25,19.55,19.37l4.57,3.11l-43.49-80.04L487.12,207.96z M454.77,161.37l-0.55-2.01l-7.13-28.14
		c2.01-1.1,4.57-2.19,7.13-2.38c1.64-0.18,3.47,0,4.93,0.55C465.19,139.25,457.7,150.58,454.77,161.37z"/>
	<path d="M649.38,68.54l-14.07-31.07L606.62,49.9l-0.37,0.73v1.1l16.63,74.74l-17.18,6.03l-0.73-0.37l-25.95-70.17l-18.64,6.03
		l1.28,68.89l-33.44-56.65l-22.29,7.31l-11.7,3.84c-0.91,1.28,0.37,2.92,0.37,4.02c1.83,3.11,5.3,5.67,6.94,8.95
		c1.65,5.12,3.11,9.69,4.39,13.71c5.12,16.08,8.41,25.58,12.24,39.1c7.13,21.74,14.25,56.1,28.32,80.77
		c16.99,5.85,14.62,30.52,27.77,39.1l-30.33-113.11l-4.02-15.35l25.22,42.76c2.92,1.28,6.4-0.18,8.22,2.92
		c4.38,0.91,8.04,6.76,12.24,5.12l-0.18-52.63l23.75,64.32c2.19,0.37,4.57,1.65,6.21,2.92l2.74,5.48
		c13.71,2.38,10.42,20.83,20.28,26.68l8.04,4.38l-11.15-32.71l-25.76-72.91c9.32-5.66,11.88,10.6,21.38,9.14
		c7.13,18.09,3.66,42.03,18.46,55.18c0.73,0.55,1.28,1.1,2.01,1.46l8.59,14.62l6.39,5.12l-16.99-72.91l-3.29-14.07l3.29-0.91
		l11.33-3.29c0.18,1.1,0.91,1.83,1.83,4.2l21.01,47.51l8.41,18.82c11.33-0.55,16.08,12.97,27.77,12.97l-36.18-79.12L649.38,68.54z
		 M649.38,118.61l-8.77,2.74L630.2,79.14c1.65-0.73,3.47-1.46,5.48-0.91l13.7,34.72l2.01,5.12L649.38,118.61z"/>
	<path d="M488.03,195.17l1.64,0.37l16.08-5.3l0.18-0.18c2.92-5.3,9.87-6.21,11.88-11.69v-13.89l-11.88,3.84l-24.12,7.67
		C478.16,183.84,488.03,188.04,488.03,195.17z"/>
</g>
<g>
	<path class="st0" d="M242.49,175.24c-0.14-1.55-0.39-3.1-0.79-4.66c-2.13-8.36-9.2-12.78-15.38-18.33c-2.59-2.33-5.24-4.7-8.4-6.18
		c-3.66-1.71-7.78-2.12-11.81-2.44c-9.07-0.72-17.65-0.29-26.71,0.19c-0.55,0.36-0.55,1.46-0.91,1.64
		c-5.48,5.48-7.86,12.24-9.68,18.82c0,3.29-2.56,7.86-1.28,10.6c3.11,1.28,6.39,0.73,8.77,2.19l-14.62,190.41l0.73-0.18
		c2.56-11.15,6.94-21.93,10.6-32.53c5.85-7.13,6.21-16.45,6.76-24.3l7.67-6.76l4.39-51.35c0.91-2.19,2.37-2.37,3.29-3.65l11.7-10.05
		l3.47-2.92l19.74-18.82c5.48-6.58,10.23-13.52,11.15-22.48C241.82,188.02,243.08,181.64,242.49,175.24z M217.04,198.64
		c-1.46,5.85-5.3,11.69-10.23,15.9c-0.18,0.18-0.37,0.36-0.73,0.73l-11.15,7.13l2.56-48.06l9.32-2.74l2.56-0.91
		c0.91,0,1.83,0.91,2.92,0.91c3.66,0.91,5.67,5.85,6.4,9.69C218.68,187.13,218.14,192.98,217.04,198.64z"/>
	<path class="st0" d="M783.87,170.68l-4.2-11.33l-40.93-86.43c-7.68-15.35-15.17-32.89-22.11-50.44v-0.91
		c-3.84-3.66-1.64-9.32-2.56-13.89c-0.37-2.19-2.56-4.02-4.2-5.12l-12.97,6.94l-0.55,0.91c0.55,1.46,0.73,1.46,1.28,2.37v0.91
		c0.37,1.1,0.91,1.1,1.1,2.19l3.11,7.31l6.58,15.71c-0.18,2.19,2.37,2.56,1.64,4.39l4.02,10.23c4.57,10.78,11.51,23.39,13.89,34.9
		l-10.23-11.15l-20.1-24.67L686.11,38.2l-4.75-6.76l-8.59-10.23l-20.83,8.22l-1.46,0.55l-0.55,0.73c0.73,1.1,1.46,1.64,1.46,2.38
		c0.18,0,0.37,0.18,0.55,0.18c1.46,0,2.56,0.18,3.65,0.18c11.15,8.95,12.43,26.68,18.64,39.47l20.28,53.72
		c5.12,17.91,13.52,37.28,21.2,50.07c12.06,4.39,18.64,17.18,27.05,29.79L694.33,75.85c0-0.55,1.1-0.91,1.83-1.28l28.32,34.54
		l23.21,28.32c2.19,6.21,8.59,7.86,13.34,11.51c5.85,9.32,16.81,16.99,24.12,25.22L783.87,170.68z"/>
	<path class="st0" d="M132.98,145.47c-8.41,5.66-17.91,12.79-25.22,20.28L92.42,181.1l-22.84,25.58c0.91,4.93-1.46,10.96,1.28,14.98
		l0.18,7.31c0.91,3.29,2.56,7.13,6.03,8.22c10.23,6.4,21.2,9.14,29.97,15.53c1.46,2.01,3.29,2.19,3.29,3.84
		c2.19,4.2,1.46,9.14-1.28,12.42c-18.09,30.52-51.16,46.05-72.73,74.19L21.7,358.9l0.55-0.18c14.07-6.03,29.24-12.79,43.12-20.28
		c2.74-1.1,4.38-3.84,4.2-6.58c1.46-1.64,1.46-4.57,3.84-5.48c1.64,0,2.74,0,5.66,0c5.67,2.38,9.32-3.11,13.34-4.93
		c10.6-6.58,18.82-12.97,28.14-20.83c7.31-6.58,14.99-13.89,20.47-22.29c4.02-8.59,8.77-17.91,6.58-26.13h-1.64
		c-1.65-1.1-2.56-1.65-3.11-2.92c0.91-8.22-6.58-15.71-6.58-24.12c-1.46-0.18-0.73-1.83-1.46-2.56
		c-6.76-4.93-17.36-4.75-21.56-13.16l-2.01-11.15l9.69-11.7l9.32-9.5l14.07-10.6c0.91,0,2.56,0.18,3.29,0.55
		c0.91,1.1,0.73,2.56,1.28,2.92c1.28,1.64,1.83,2.56,3.47,3.29l5.3-22.29l1.46-10.23l-16.99-1.1L132.98,145.47z"/>
	<path class="st0" d="M410,287.63l-12.06-61.95l18.46-13.52l2.74-9.87l-25.76,4.93l-11.33-52.08l-1.65-12.06
		c0.91-0.91,2.38,0,3.47-0.91l11.33-3.11c3.11-1.46,6.21-0.91,7.68-4.2c4.93-4.75,6.21-11.33,6.58-16.99
		c-0.91-0.55-1.46-2.19-2.37-2.19c-1.1-0.18-2.74,2.01-3.66,0.73l-49.34,10.42c-1.46,0.55,0.73,2.37,0.37,3.11
		c0.37,3.65,1.46,6.39,3.11,8.59c2.19,4.02,5.66,6.76,6.76,11.69c4.57,20.47,9.5,42.21,10.42,61.76l-14.07,2.19
		c-4.02-14.98-2.92-32.34-10.78-45.13c-2.74-12.43-1.83-27.41-15.17-35.08c-0.55-1.28-1.46-1.46-1.46-2.38l-3.47,0.73l-46.96,7.13
		c-0.18,2.56,0.73,4.57,0.91,7.31c3.47,3.84,7.67,6.21,8.59,11.88c11.69,48.06,6.03,98.49,22.84,144.72
		c0.55,11.69,5.85,23.02,7.49,34.54c2.37,7.86,0.18,16.63,4.38,22.84h0.73c0.73-0.18,1.46,0,2.01,0c0.73,0,1.28,0,1.65-0.37
		c0-14.44,15.71-23.94,15.71-36.91c6.4-11.51,10.42-23.94,10.96-35.82c1.1-0.91,1.28-1.28,1.65-1.83
		c7.31-19.73,4.02-40.93,1.64-61.03c0.55-0.91,0.91-0.91,1.46-1.46c7.13-0.73,10.96,5.66,16.08,8.95l12.97,65.05l2.92,13.16
		l12.79,3.84c7.49-0.91,6.76-10.96,14.07-13.16c1.83-2.19,4.2-4.2,6.21-6.03c4.57-4.02,8.95-7.86,10.78-13.52l-10.78,2.19
		L410,287.63z M337.82,271c-2.01-0.55-3.65-1.46-5.48-1.83l-2.56-14.44l-16.63-89.9c4.75,1.1,9.5,0,14.25-1.46l1.83,0.73
		c0.18,0.36,0.37,0.55,0.55,0.91c11.7,20.83,16.45,44.77,16.45,67.79C346.23,245.42,343.12,258.76,337.82,271z"/>
	<path class="st0" d="M666.92,107.09l-9.87-22.66l-5.12-11.15l-3.84-8.95l-5.48-10.96l-3.11-8.77l-2.74-5.48
		c0.73-1.46-1.28-1.46-1.28-1.83c-1.28,0.36-2.74,0.91-4.2,1.83c-0.91-0.36-1.83,0-2.56,0.55l-13.16,5.67l-0.18,0.73
		c-1.46,1.1-4.75,1.1-6.4,2.56l16.45,76.75c-1.28,0-2.56,0.91-2.56,1.28l-18.64,5.3l-14.8-39.29l-6.94-18.64l-4.57-12.06l-15.35,5.3
		l0.55,72.36l-7.67-11.51l-6.58-11.88l-4.75-7.49l-4.02-7.31c-2.38-2.19-2.56-4.75-4.2-6.4l-4.2-7.86l-5.3-7.49l-8.95,3.47
		l-11.33,3.84l-0.55,0.18c-2.92,0.73-6.76,1.28-8.77,2.74c0,4.2,4.38,6.94,6.39,9.5l2.92,8.04l1.28,3.11l8.04,29.24
		c10.96,30.88,16.26,65.05,32.53,93.74c15.17,4.38,14.62,25.76,24.67,35.63l-36.73-130.47c-0.18-0.73-0.18-1.65,0-2.19l1.46-0.55
		l14.25,24.85l15.53,26.13c2.74,0,6.21,0.91,7.31,3.11l8.77,4.2v-55.92l2.38,0.55l25.03,67.79c4.2,1.83,7.67,3.65,9.14,8.59
		c14.8,2.56,9.87,24.12,22.84,28.69l-11.33-34.17l-9.32-26.13l-14.44-43.12c1.1-0.73,1.1-0.91,1.83-1.28
		c2.74-0.55,5.48-0.91,8.04,0.55c5.48,4.38,9.32,10.23,15.9,10.23c3.66,18.82,6.03,35.45,11.15,47.33c2.56,3.11,4.93,5.48,7.49,8.59
		c3.29,4.02,6.76,8.95,11.51,17.36c-0.55-1.83-0.55-3.11-0.73-4.75c-3.29-14.44-7.31-29.06-10.78-43.67
		c-2.92-12.06-5.48-24.3-7.13-36.18l7.13-2.74l8.22-3.47c1.28,0.37,2.19,0.91,2.56,1.83c-0.73,1.46,0.73,1.46,0.91,3.29l29.24,67.25
		c10.6-0.55,13.52,11.33,23.39,11.88l-12.61-28.51L666.92,107.09z M651.94,117.87l-12.06,3.29l-0.73-0.18l-10.41-46.23l7.86-1.83
		c1.1,1.64,2.56,4.38,2.92,6.76c0.37,0.91,0.37,0.91,1.28,2.19v1.1l7.13,16.26l4.02,11.88l2.19,6.03L651.94,117.87z"/>
	<path class="st0" d="M490.22,190.78c6.58-1.1,11.33-3.65,15.9-6.95c2.37-1.64,4.75-3.47,7.31-5.66c4.02-3.29,1.28-8.59,1.46-12.61
		c-0.73-1.28-1.64,0.37-2.38,0.18l-6.39,2.19l-23.02,7.49c0,0.91,0,1.83,0,2.74l6.58,12.61H490.22z"/>
	<path class="st0" d="M483.83,203.94c-9.69-13.89-13.34-28.14-8.22-43.31l5.66-44.59l-3.84-8.04l-6.4-2.19
		c-2.19-1.83-3.11-4.02-4.02-6.03l-1.1-0.73l-11.51,3.47l-19.37,5.48l-7.13,2.38l-10.05,3.47c0.18,1.83-1.1,4.38,0.18,5.66
		c1.28,0.55,2.56,0.55,3.47,0.55c2.01,8.22,4.2,16.63,6.4,25.22c6.94,26.68,14.62,55.18,21.93,82.96l4.57,16.81l10.05,36.55
		c5.66,0.91,9.87,4.75,11.51,9.32c1.46,2.01,3.84,4.75,6.21,4.75l-21.01-84.06c0.55-0.73,0.91-1.28,1.46-1.64l1.28,0.91l32.89,57.93
		c3.29,2.38,6.58,4.93,9.32,7.86c3.47,3.65,6.58,7.68,8.95,12.43c2.01,0,3.11,1.64,4.75,1.64l6.4,5.48
		c7.31,6.76,11.69,14.25,19.73,18.82l-39.84-71.27L483.83,203.94z M457.15,160.27c-0.18,0.91-1.1,1.65-1.83,3.11l-0.36,0.55
		l-0.55-1.83l-9.32-36c2.92-1.1,6.03-2.19,9.32-2.56c2.56-0.18,5.3,0.18,8.22,1.46C466.83,136.7,459.34,148.94,457.15,160.27z"/>
	<path class="st0" d="M274.97,173.97l-0.59-7.37c0.01,0.02,0.02,0.04,0.04,0.06v-0.18c-0.06-0.13-0.05-0.26-0.08-0.39l-0.09-1.14
		c0.02-0.38,0.03-0.72-0.08-0.97l-1.76-22.16l-12.06,2.19c-1.46,0-3.29,1.83-4.75,1.1c0.73,1.1-0.37,8.41,0.73,9.14
		c0.55,3.29,0.37,13.34,0.73,23.03h-0.18c2.56,43.67,8.59,86.8,7.68,130.65c13.34,4.2,6.94,19.74,13.89,28.32l11.69,19.92
		l-8.95-116.76L274.97,173.97z"/>
</g>
<g>
	<path d="M132.8,172.51l4.57,7.49c0.91-0.36,2.19,0,2.38-0.36l7.86-31.07l1.1-4.57c-0.18-1.46,0.37-2.56-0.55-2.92h-0.55
		l-17.36-0.91c-12.97,4.2-21.38,13.89-31.79,21.01l-41.48,43.49c-5.66,4.39-2.56,10.6-3.11,15.72c3.11,6.39,0,15.71,6.4,20.1
		c10.42,6.58,25.22,10.42,34.35,19.37c2.01,3.47,2.01,6.58-0.37,10.05c-11.15,24.67-38.37,35.81-54.27,55.92l-7.67,7.31
		c-10.23,11.69-23.39,21.93-30.52,33.26l45.32-20.47l9.87-6.03l2.92-6.94c2.92-1.65,5.67-0.37,8.41,0
		c25.4-13.71,46.23-29.97,61.95-50.98c3.65-9.5,11.15-20.1,5.85-29.78c-1.28-0.55-2.56-0.36-3.29-0.91l-0.37-1.83
		c0.37-0.73,0.91-1.46,0.91-1.64c0.18-2.56-2.37-4.57-3.29-5.66c1.83-20.47-20.46-21.75-29.42-32.89c-0.36-4.57,0-9.14,3.11-13.16
		C113.07,188.23,121.29,176.71,132.8,172.51z"/>
	<path d="M272.77,286.9c-2.19-40.57-7.31-80.77-10.6-120.79c0.37-1.64,1.83-1.64,1.83-2.56c-3.29-7.13-1.83-14.8-3.29-21.75
		l-21.38,4.93c0,4.93,0.18,22.11,1.46,32.89c2.92,44.4,9.68,88.26,7.31,131.93c11.15,3.11,11.15,14.44,11.15,23.21
		c5.85,6.21,9.14,14.8,13.52,21.74c2.01,2.74,4.02,5.3,6.58,7.31l-6.03-66.7C273.14,293.66,272.96,290.37,272.77,286.9z"/>
	<path d="M220.15,150.22c-6.58-4.75-18.27-6.21-27.59-6.94c-2.92-0.18-5.48-0.37-7.86-0.73l-20.47,1.83
		c-0.37,1.46-1.46,1.28-1.46,2.19l-6.21,8.77c-1.46,8.4-6.76,16.63-2.92,24.85c2.38,1.28,4.57,0,6.4,1.28L147.6,354.88l-1.28,16.45
		c0.55,0.36,0.91,0.73,1.28,0.91c0.55,0.36,0.91,0.73,1.83,0.91l0.37-0.37c3.84-9.87,4.02-20.83,10.42-29.78
		c4.93-9.5,8.04-18.82,7.67-29.42l9.32-6.94c0-3.29,1.46-6.76,0-9.14c-0.91-14.98,1.64-27.04,4.38-41.3
		c2.92-3.29,6.58-7.31,10.96-11.51c4.57-4.38,9.87-8.95,15.53-13.34c11.33-9.68,23.21-21.38,23.21-40.2
		c0.18-4.93,0.37-13.52-0.36-18.09C229.83,163.92,226.54,155.88,220.15,150.22z M192.55,214.36c-0.55,0.55-1.28,1.28-1.83,1.83
		l-8.4,5.12l3.65-42.21l6.58-1.64l4.02-0.91c1.83,0.55,4.02,1.64,5.12,3.65C204.61,191.88,200.59,205.4,192.55,214.36z"/>
	<path d="M703.11,20.66c-0.91-3.65,0.18-8.22-0.37-11.69l-5.3-6.4l-17.54,9.14l31.79,74.92c-1.28-0.91-1.83-1.83-2.92-3.47
		l-38.74-49.52l-9.5-12.06l-24.67,9.69l-2.01,0.91c0,1.64,1.1,3.29,2.01,4.39c0.36,0.55,0.91,0.91,1.28,1.28
		c3.11,1.28,5.48,0,8.04,4.39c8.96,20.28,16.81,42.58,24.85,64.87c9.32,25.76,18.82,51.71,30.33,74.74
		c17.91,4.57,19.37,24.67,32.53,32.16l-4.93-15.35L685.56,83.89c17.73,18.82,36.18,45.87,50.8,61.95c2.92,2.74,6.03,4.2,9.5,6.58
		c5.85,9.68,14.8,15.53,23.03,24.49l5.3,5.3l0.91,0.18l0.91-0.55C756.1,127.56,721.2,72.01,703.11,20.66z"/>
	<path d="M474.51,195.17l1.64,0.37l16.08-5.12l0.18-0.18c2.92-5.3,9.87-6.4,11.88-11.88v-13.89l-11.88,3.84l-24.12,7.67
		C464.64,184.02,474.51,188.23,474.51,195.17z"/>
	<path d="M397.76,289.09l-10.96-59.94l17.54-13.89c-0.18-4.2,5.48-8.77,2.74-12.43c-2.56-0.91-4.93,0.91-7.31,0.91l-18.46,4.2
		l-11.15-61.03l19.74-5.85c4.2-5.85,7.13-11.69,8.22-19c0.55-1.65-1.1-3.47-1.83-3.84c-19.19-0.91-38.92,7.13-58.66,10.23
		c2.01,7.31,2.92,10.78,9.32,21.56c5.85,19.37,10.96,42.76,12.24,62.86l-10.23,2.01l-0.55-0.37c-2.19-14.98-3.65-31.25-11.15-44.59
		c-1.1-13.7-1.83-27.04-15.17-33.26c0.37-1.46-0.55-2.92-1.64-4.75c-1.46,0.18-3.11,0.55-4.57,0.73
		c-14.43,2.37-29.05,3.11-43.12,6.58c-2.19,0.55-4.38,1.1-6.58,1.83l1.28,10.78l5.3,3.84l2.01,1.46
		c13.71,51.16,7.13,106.17,26.5,155.5c1.28,16.45,8.95,33.26,8.95,49.89c0.55,1.65,1.64,2.56,3.11,3.11c0.91,0,1.64,0,2.56-0.18
		c0.91-0.18,1.65-0.55,2.74-1.1c2.37-11.88,10.42-21.38,17.18-30.52c-2.56-13.7,14.44-24.49,8.96-38.92
		c0.55-2.19,2.19-4.02,3.65-4.93c-0.55-0.91,0-2.19-0.55-3.11c9.5-19.55,4.02-39.1,1.83-58.47c6.39,0,8.95,5.48,13.52,8.22
		l12.79,63.96l3.47,13.89l12.24,3.84c3.65,0.91,7.13-2.01,9.5-3.84c4.02-6.03,9.14-10.6,14.07-15.17
		c5.66-5.12,11.15-10.41,14.25-18.09c-4.93,1.1-9.5,2.19-14.25,3.29C409.46,285.99,403.61,287.27,397.76,289.09z M329.97,245.97
		c0,0.55,0,1.64-0.55,2.74l-6.21,22.11c-3.11-8.04-5.48-16.45-7.31-25.04c-5.66-24.49-8.04-51.16-14.62-75.83
		c4.57,2.56,10.96-3.29,14.62,0.37c0.18,0.18,0.37,0.37,0.55,0.73C326.86,195.9,331.43,220.39,329.97,245.97z"/>
	<path d="M635.86,68.54l-14.07-31.06L593.1,49.9l-0.36,0.73v1.1l16.63,74.74l-17.18,6.03l-0.73-0.37l-25.95-70.17l-18.64,6.03
		l1.28,68.89l-33.44-56.65l-22.29,7.31l-11.69,3.84c-0.91,1.28,0.37,2.93,0.37,4.02c1.83,3.11,5.3,5.67,6.94,8.95
		c1.64,5.12,3.11,9.69,4.38,13.71c5.12,16.08,8.41,25.58,12.24,39.1c7.13,21.74,14.25,56.1,28.32,80.77
		c16.99,5.85,14.62,30.52,27.77,39.1l-30.33-113.11l-4.02-15.35l25.22,42.76c2.92,1.28,6.4-0.18,8.22,2.92
		c4.39,0.91,8.04,6.76,12.24,5.12l-0.18-52.63l23.76,64.32c2.19,0.36,4.57,1.65,6.21,2.93l2.74,5.48
		c13.7,2.37,10.41,20.83,20.28,26.68l8.04,4.38l-11.15-32.71l-25.76-72.91c9.32-5.66,11.88,10.6,21.38,9.14
		c7.13,18.09,3.65,42.03,18.46,55.18c0.73,0.55,1.28,1.1,2.01,1.46l8.59,14.62l6.4,5.12l-16.99-72.91l-3.29-14.07l3.29-0.91
		l11.33-3.29c0.18,1.1,0.91,1.83,1.83,4.2l21.01,47.51l8.4,18.82c11.33-0.55,16.08,12.97,27.78,12.97l-36.18-79.12L635.86,68.54z
		 M635.86,118.61l-8.77,2.74l-10.42-42.21c1.64-0.73,3.47-1.46,5.48-0.91l13.71,34.72l2.01,5.12L635.86,118.61z"/>
	<path d="M473.6,207.96c-23.39-27.77-1.28-60.3-3.47-89.72c-2.92-2.38-3.47-6.58-4.2-9.5c-6.21-0.55-9.5-4.57-12.24-8.59
		l-12.97,3.47l-25.4,7.13l-12.79,3.65c-2.19,2.38-1.28,7.31-0.73,9.5c1.65,0,2.56,0,3.47,0c6.4,3.47,1.65,11.33,3.84,16.45
		l6.21,22.29l18.64,66.51l6.76,25.03l8.59,31.61c10.6,0.55,11.69,14.98,21.93,16.63l-19.55-81.5l29.05,50.8
		c4.2,3.29,8.22,6.39,11.69,10.05c3.11,3.29,5.85,7.13,7.68,11.88c2.19,0,4.2,0.91,6.21,2.01c2.19,1.46,3.84,2.74,5.48,4.57
		c6.21,6.94,12.06,14.25,19.55,19.37l4.57,3.11l-43.49-80.04L473.6,207.96z M441.25,161.37l-0.55-2.01l-7.13-28.14
		c2.01-1.1,4.57-2.19,7.13-2.37c1.64-0.18,3.47,0,4.93,0.55C451.67,139.25,444.17,150.58,441.25,161.37z"/>
</g>
<g>
	<path class="st1" d="M119.46,145.47c-8.41,5.66-17.91,12.79-25.22,20.28L78.89,181.1l-22.84,25.58c0.91,4.93-1.46,10.96,1.28,14.98
		l0.18,7.31c0.91,3.29,2.56,7.13,6.03,8.22c10.23,6.4,21.2,9.14,29.97,15.53c1.46,2.01,3.29,2.19,3.29,3.84
		c2.19,4.2,1.46,9.14-1.28,12.43c-18.09,30.52-51.16,46.05-72.73,74.19L8.18,358.9l0.55-0.18c14.07-6.03,29.24-12.79,43.12-20.28
		c2.74-1.1,4.39-3.84,4.2-6.58c1.46-1.64,1.46-4.57,3.84-5.48c1.65,0,2.74,0,5.67,0c5.66,2.37,9.32-3.11,13.34-4.93
		c10.6-6.58,18.82-12.97,28.14-20.83c7.31-6.58,14.99-13.89,20.47-22.29c4.02-8.59,8.77-17.91,6.58-26.13h-1.65
		c-1.64-1.1-2.56-1.64-3.11-2.92c0.91-8.22-6.58-15.72-6.58-24.12c-1.46-0.18-0.73-1.83-1.46-2.56
		c-6.76-4.93-17.36-4.75-21.56-13.16l-2.01-11.15l9.68-11.69l9.32-9.5l14.07-10.6c0.91,0,2.56,0.18,3.29,0.55
		c0.91,1.1,0.73,2.56,1.28,2.92c1.28,1.64,1.83,2.56,3.47,3.29l5.3-22.29l1.46-10.23l-16.99-1.1L119.46,145.47z"/>
	<path class="st1" d="M476.7,190.78c3.47-0.73,6.4-1.64,8.95-2.74c5.3-2.38,9.32-5.85,14.25-9.87c4.02-3.29,1.28-8.59,1.46-12.61
		c-0.73-1.28-1.64,0.37-2.37,0.18l-13.34,4.39l-16.08,5.3c0,0.91,0,1.83,0,2.74l6.58,12.61H476.7z"/>
	<path class="st1" d="M260.9,166.66v-0.18c-0.55-1.28,0.37-2.56-0.73-2.92l-0.73,0.91C260.35,164.84,260.35,166.12,260.9,166.66z"/>
	<path class="st1" d="M228.96,175.17c-0.01-0.08-0.02-0.16-0.02-0.24c-0.78-7.3-4.83-12.56-8.62-18.63
		c-2.53-4.06-5.24-8.28-9.44-10.58c-3.41-1.87-7.42-2.23-11.3-2.48c-7.12-0.46-14.19-0.82-21.24-0.07
		c-2.9,0.31-10.04-0.94-12.46,0.66c-0.55,0.36-0.55,1.46-0.91,1.64c-5.48,5.48-7.86,12.24-9.69,18.82c0,3.29-2.56,7.86-1.28,10.6
		c3.11,1.28,6.4,0.73,8.77,2.19l-14.62,190.41l0.73-0.18c2.56-11.15,6.94-21.93,10.6-32.53c5.85-7.13,6.21-16.45,6.76-24.3
		l7.67-6.76l4.39-51.35c0.91-2.19,2.37-2.38,3.29-3.66l11.69-10.05l3.47-2.92l19.74-18.82c5.48-6.58,10.23-13.52,11.15-22.48
		C228.3,187.99,229.61,181.68,228.96,175.17z M203.52,198.64c-1.46,5.85-5.3,11.7-10.23,15.9c-0.18,0.18-0.37,0.37-0.73,0.73
		l-11.15,7.13l2.56-48.06l9.32-2.74l2.56-0.91c0.91,0,1.83,0.91,2.92,0.91c3.65,0.91,5.66,5.85,6.4,9.68
		C205.16,187.13,204.61,192.98,203.52,198.64z"/>
	<path class="st1" d="M272.96,308.28l-5.3-68.89l-6.42-69.36c-0.1-2.07-0.38-4.14-0.7-6.19c-0.5-3.26-0.81-6.4-1.04-9.52
		c-0.29-4.12-0.43-8.2-0.62-12.5c-1.61,0.32-17.56,3.23-17.59,2.87c0.72,10.84,1.44,21.68,2.16,32.52
		c-0.04,0.02-0.07,0.04-0.11,0.06c2.56,43.67,8.59,86.8,7.68,130.65c13.34,4.2,6.94,19.74,13.89,28.32l8.04,13.52l3.65,6.39
		L272.96,308.28z"/>
	<path class="st1" d="M669.48,142.91L653.4,107.1l-9.87-22.66l-5.12-11.15l-3.84-8.95l-5.48-10.96l-1.28-3.29l-1.83-5.48l-2.74-5.48
		c0.73-1.46-1.28-1.46-1.28-1.83c-1.28,0.37-2.74,0.91-4.2,1.83c-0.91-0.36-1.83,0-2.56,0.55l-13.16,5.66l-0.18,0.73
		c-1.46,1.1-4.75,1.1-6.4,2.56l16.45,76.75c-1.28,0-2.56,0.91-2.56,1.28l-18.64,5.3l-14.8-39.29l-6.94-18.64l-4.57-12.06l-15.35,5.3
		l0.55,72.36l-7.67-11.51l-6.58-11.88l-4.75-7.49l-4.02-7.31c-2.37-2.19-2.56-4.75-4.2-6.4l-4.2-7.86l-5.3-7.49l-8.95,3.47
		l-11.88,4.02c-2.01,0.55-4.39,0.91-6.4,1.64c-0.91,0.37-1.83,0.73-2.37,1.1c0,2.19,1.1,4.02,2.37,5.66
		c1.46,1.46,2.92,2.74,4.02,3.84l4.2,11.15l8.04,29.24c10.96,30.88,16.26,65.05,32.53,93.74c15.17,4.39,14.62,25.76,24.67,35.63
		l-36.73-130.47c-0.18-0.73-0.18-1.65,0-2.19l1.46-0.55l14.25,24.85l15.53,26.13c2.74,0,6.21,0.91,7.31,3.11l8.77,4.2v-55.92
		l2.38,0.55l25.03,67.79c4.2,1.83,7.68,3.66,9.14,8.59c14.25,2.37,10.05,22.66,21.56,28.14c0.36,0.18,0.73,0.36,1.28,0.55
		l-1.28-3.66l-10.05-30.52l-9.32-26.13l-14.44-43.12c1.1-0.73,1.1-0.91,1.83-1.28c2.74-0.55,5.48-0.91,8.04,0.55
		c5.48,4.38,9.32,10.23,15.9,10.23c2.74,14.8,4.75,28.14,8.04,38.74c0.91,3.11,1.83,5.85,3.11,8.59c2.56,3.11,4.93,5.48,7.49,8.59
		c3.29,4.02,6.76,8.96,11.51,17.36c-0.55-1.83-0.55-3.11-0.73-4.75c-3.29-14.44-7.31-29.05-10.78-43.67
		c-2.92-12.06-5.48-24.3-7.13-36.18l7.13-2.74l8.22-3.47c1.28,0.37,2.19,0.91,2.56,1.83c-0.73,1.46,0.73,1.46,0.91,3.29l19.37,44.77
		l9.87,22.48c10.6-0.55,13.52,11.33,23.39,11.88l-12.61-28.51L669.48,142.91z M638.42,117.87l-10.6,2.92l-1.46,0.36l-0.73-0.18
		l-10.41-46.23l7.86-1.83c1.1,1.64,2.56,4.38,2.92,6.76c0.36,0.91,0.36,0.91,1.28,2.19v1.1l0.55,1.46l6.58,14.8l4.02,11.88
		l2.19,6.03L638.42,117.87z"/>
	<path class="st1" d="M770.35,170.68l-4.2-11.33l-40.93-86.43c-7.67-15.35-15.17-32.89-22.11-50.43v-0.91
		c-3.84-3.66-1.64-9.32-2.56-13.89c-0.36-2.19-2.56-4.02-4.2-5.12l-12.97,6.95l-0.55,0.91c0.55,1.46,0.73,1.46,1.28,2.38v0.91
		c0.36,1.1,0.91,1.1,1.1,2.19l3.11,7.31l6.58,15.71c-0.18,2.19,2.38,2.56,1.64,4.38l4.02,10.23c4.57,10.78,11.51,23.39,13.89,34.9
		L704.2,77.31l-20.1-24.67L672.59,38.2l-3.11-4.2l-1.64-2.56l-8.59-10.23l-20.83,8.22l-1.46,0.55l-0.55,0.73
		c0.73,1.1,1.46,1.64,1.46,2.37c0.18,0,0.37,0.18,0.55,0.18c1.46,0,2.56,0.18,3.65,0.18c11.15,8.96,12.42,26.68,18.64,39.47
		l8.77,23.57l11.51,30.15c5.12,17.91,13.52,37.28,21.2,50.07c12.06,4.39,18.64,17.18,27.04,29.78L680.81,75.85
		c0-0.55,1.1-0.91,1.83-1.28l28.32,34.54l23.21,28.32c2.19,6.21,8.59,7.86,13.34,11.51c5.85,9.32,16.81,16.99,24.12,25.22
		L770.35,170.68z"/>
	<path class="st1" d="M396.48,287.63l-12.06-61.95l18.46-13.52l2.74-9.87l-25.76,4.93l-11.33-52.08l-1.64-12.06
		c0.91-0.91,2.37,0,3.47-0.91l11.33-3.11c3.11-1.46,6.21-0.91,7.67-4.2c4.93-4.75,6.21-11.33,6.58-17
		c-0.91-0.55-1.46-2.19-2.38-2.19c-1.1-0.18-2.74,2.01-3.65,0.73l-49.34,10.42c-1.46,0.55,0.73,2.37,0.36,3.11
		c0.37,3.65,1.46,6.39,3.11,8.59c2.19,4.02,5.67,6.76,6.76,11.69c4.57,20.47,9.5,42.21,10.41,61.76l-14.07,2.19
		c-4.02-14.99-2.92-32.34-10.78-45.13c-2.74-12.43-1.83-27.41-15.17-35.08c-0.55-1.28-1.46-1.46-1.46-2.38l-3.47,0.73l-43.31,6.58
		l-3.65,0.55c-0.18,2.56,0.73,4.57,0.91,7.31c0.91,1.1,1.83,2.01,2.74,2.74c2.74,2.56,5.3,4.93,5.85,9.14
		c11.7,48.06,6.03,98.49,22.84,144.72c0.55,11.69,5.85,23.02,7.49,34.54c2.38,7.86,0.18,16.63,4.39,22.84h0.73
		c0.73-0.18,1.46,0,2.01,0c0.73,0,1.28,0,1.64-0.37c0-14.44,15.72-23.94,15.72-36.91c6.39-11.51,10.42-23.94,10.96-35.81
		c1.1-0.91,1.28-1.28,1.64-1.83c7.31-19.73,4.02-40.93,1.64-61.03c0.55-0.91,0.91-0.91,1.46-1.46c7.13-0.73,10.96,5.66,16.08,8.95
		l12.97,65.05l2.92,13.16l12.79,3.84c7.49-0.91,6.76-10.96,14.07-13.16c1.83-2.19,4.2-4.2,6.21-6.03
		c4.57-4.02,8.95-7.86,10.78-13.52l-10.78,2.19L396.48,287.63z M324.3,271c-2.01-0.55-3.65-1.46-5.48-1.83l-2.56-14.44l-16.63-89.9
		c4.75,1.1,9.5,0,14.25-1.46l1.83,0.73c0.18,0.37,0.37,0.55,0.55,0.91c11.69,21.01,16.45,44.77,16.45,67.79
		C332.71,245.42,329.6,258.76,324.3,271z"/>
	<path class="st1" d="M470.3,203.94c-9.68-13.89-13.34-28.14-8.22-43.31l5.66-44.59l-3.84-8.04l-6.4-2.19
		c-2.19-1.83-3.11-4.02-4.02-6.03l-1.1-0.73l-11.51,3.47l-19.37,5.48l-7.13,2.38l-10.05,3.47c0.18,1.83-1.1,4.39,0.18,5.67
		c1.28,0.55,2.56,0.55,3.47,0.55c2.01,8.22,4.2,16.63,6.4,25.22c6.94,26.68,14.62,55.18,21.93,82.96l4.57,16.81l10.05,36.55
		c5.66,0.91,9.87,4.75,11.51,9.32c1.46,2.01,3.84,4.75,6.21,4.75l-21.01-84.06c0.55-0.73,0.91-1.28,1.46-1.64l1.28,0.91l32.89,57.93
		c0.73,0.55,1.64,1.1,2.37,1.83c6.76,5.12,12.06,10.96,15.9,18.46c2.01,0,3.11,1.64,4.75,1.64l6.39,5.48
		c7.31,6.76,11.7,14.25,19.74,18.82l-46.78-83.51L470.3,203.94z M443.63,160.27c-0.18,0.91-1.1,1.65-1.83,3.11l-0.36,0.55
		l-0.55-1.83l-9.32-36c2.92-1.1,6.03-2.19,9.32-2.56c2.56-0.18,5.3,0.18,8.22,1.46C453.31,136.7,445.82,148.94,443.63,160.27z"/>
</g>
<path class="st2" d="M738.19,2.57c1.64,0,3.29,0.36,4.75,1.28c1.46,0.73,2.74,2.01,3.66,3.47c0.73,1.65,1.28,3.29,1.28,4.93
	c0,1.65-0.55,3.29-1.28,4.75c-0.91,1.64-2.19,2.74-3.66,3.65c-1.46,0.91-3.11,1.28-4.75,1.28v-1.83c1.28,0,2.56-0.36,3.84-1.1
	c1.28-0.73,2.19-1.64,2.92-2.92c0.73-1.1,0.91-2.56,0.91-3.84c0-1.28-0.18-2.74-0.91-3.84c-0.73-1.28-1.83-2.19-2.92-2.92
	c-1.28-0.73-2.56-0.91-3.84-0.91V2.57L738.19,2.57z M738.19,13.9c0.37,0.55,0.73,1.1,1.1,1.83l0.91,1.64h2.56l-1.28-2.01
	c-0.37-0.73-0.73-1.1-0.73-1.28c-0.37-0.36-0.55-0.55-0.73-0.73c-0.18-0.18-0.36-0.36-0.73-0.36c0.91-0.18,1.64-0.55,2.01-1.1
	c0.55-0.37,0.73-1.1,0.73-1.83c0-0.55,0-1.1-0.36-1.46c-0.18-0.37-0.55-0.73-0.91-0.91c-0.37-0.37-0.91-0.37-1.65-0.55
	c0,0-0.36,0-0.91,0v1.65c0.37,0,0.55,0.18,0.73,0.18c0.37,0,0.55,0.18,0.73,0.55c0.18,0.18,0.18,0.37,0.18,0.73
	c0,0.18,0,0.55-0.18,0.73c-0.18,0.18-0.37,0.36-0.73,0.55c-0.18,0-0.36,0-0.73,0V13.9L738.19,13.9z M738.19,2.57L738.19,2.57v2.01
	l0,0c-1.28,0-2.56,0.18-3.84,0.91c-1.28,0.73-2.19,1.65-2.92,2.92c-0.73,1.1-1.1,2.56-1.1,3.84c0,1.28,0.36,2.74,1.1,3.84
	c0.73,1.28,1.64,2.19,2.92,2.92c1.1,0.73,2.38,1.1,3.84,1.1l0,0v1.83l0,0c-1.64,0-3.29-0.37-4.93-1.28
	c-1.46-0.91-2.56-2.01-3.47-3.65c-0.91-1.46-1.28-3.11-1.28-4.75c0-1.64,0.36-3.29,1.28-4.93c0.91-1.46,2.01-2.74,3.66-3.47
	C734.9,2.94,736.55,2.57,738.19,2.57L738.19,2.57z M738.19,7.14v1.65c-0.37,0-0.91,0-1.46,0h-0.91v2.74h0.91c0.55,0,1.1,0,1.46,0
	v2.38c-0.18,0-0.18-0.18-0.37-0.18c-0.36-0.37-0.91-0.55-1.46-0.55h-0.55v4.2h-2.01V7.14h2.01C736.91,7.14,737.64,7.14,738.19,7.14
	L738.19,7.14z"/>
</svg>
