<?xml version="1.0" encoding="utf-8"?>
<!-- Generator: Adobe Illustrator 27.9.1, SVG Export Plug-In . SVG Version: 6.00 Build 0)  -->
<svg version="1.1" id="Layer_1" xmlns="http://www.w3.org/2000/svg" xmlns:xlink="http://www.w3.org/1999/xlink" x="0px" y="0px"
	 viewBox="0 0 842 512" style="enable-background:new 0 0 842 512;" xml:space="preserve">
<style type="text/css">
	.st0{fill:#42C63E;}
</style>
<g>
	<g>
		<path class="st0" d="M791.02,503.79H51.04c-23.65,0-43-19.35-43-43V49.8c0-23.65,19.35-43,43-43h739.98c23.65,0,43,19.35,43,43
			v410.99C834.02,484.44,814.67,503.79,791.02,503.79z"/>
		<path d="M791.38,508.75H50.68c-26.25,0-47.6-21.35-47.6-47.6V49.44c0-26.25,21.35-47.6,47.6-47.6h740.7
			c26.25,0,47.6,21.35,47.6,47.6v411.7C838.98,487.4,817.62,508.75,791.38,508.75z M50.68,11.76C29.9,11.76,13,28.67,13,49.44v411.7
			c0,20.78,16.9,37.68,37.68,37.68h740.7c20.78,0,37.68-16.9,37.68-37.68V49.44c0-20.78-16.9-37.68-37.68-37.68
			C791.38,11.76,50.68,11.76,50.68,11.76z"/>
	</g>
	<g>
		<path d="M593.26,165.4H248.79c-4.33,0-7.87-3.54-7.87-7.87v-37.66c0-4.33,3.54-7.87,7.87-7.87h344.47c4.33,0,7.87,3.54,7.87,7.87
			v37.66C601.13,161.86,597.58,165.4,593.26,165.4z"/>
		<path d="M593.26,281.99H248.79c-4.33,0-7.87-3.54-7.87-7.87v-37.66c0-4.33,3.54-7.87,7.87-7.87h344.47c4.33,0,7.87,3.54,7.87,7.87
			v37.66C601.13,278.46,597.58,281.99,593.26,281.99z"/>
		<path d="M593.26,398.6H248.79c-4.33,0-7.87-3.54-7.87-7.87v-37.66c0-4.33,3.54-7.87,7.87-7.87h344.47c4.33,0,7.87,3.54,7.87,7.87
			v37.66C601.13,395.06,597.58,398.6,593.26,398.6z"/>
	</g>
</g>
</svg>
