<?xml version="1.0" encoding="utf-8"?>
<!-- Generator: Adobe Illustrator 27.9.1, SVG Export Plug-In . SVG Version: 6.00 Build 0)  -->
<svg version="1.1" id="Layer_1" xmlns="http://www.w3.org/2000/svg" xmlns:xlink="http://www.w3.org/1999/xlink" x="0px" y="0px"
	 viewBox="0 0 3772.09 171.53" style="enable-background:new 0 0 3772.09 171.53;" xml:space="preserve">
<style type="text/css">
	.st0{fill:#159E49;}
</style>
<g>
	<path class="st0" d="M77.36,22.78h16.66L34.77,149.64H18.12L77.36,22.78z"/>
	<path class="st0" d="M191.11,71.1l-31.13,16.81l31.21,16.96l-6.63,11.46l-29.47-17.79v32.94h-13.34V98.61
		c-4.77,2.86-9.7,5.83-14.77,8.89c-5.08,3.07-9.98,6.01-14.7,8.82l-6.56-11.46L137,87.9l-31.22-16.8l6.48-11.53l29.47,17.71V44.42
		h13.34v32.86c4.82-2.86,9.76-5.83,14.81-8.89s9.94-6,14.66-8.82L191.11,71.1z"/>
	<path class="st0" d="M295.05,60.93h79.67v17.71h-79.67V60.93z M295.05,95.22h79.67v17.86h-79.67V95.22z"/>
	<path class="st0" d="M387.99,60.93h79.67v17.71h-79.67V60.93z M387.99,95.22h79.67v17.86h-79.67V95.22z"/>
	<path class="st0" d="M480.93,60.93h79.67v17.71h-79.67V60.93z M480.93,95.22h79.67v17.86h-79.67V95.22z"/>
	<path class="st0" d="M575.64,60.93h79.67v17.71h-79.67V60.93z M575.64,95.22h79.67v17.86h-79.67V95.22z"/>
	<path class="st0" d="M668.58,60.93h79.67v17.71h-79.67V60.93z M668.58,95.22h79.67v17.86h-79.67V95.22z"/>
	<path class="st0" d="M761.52,60.93h79.67v17.71h-79.67V60.93z M761.52,95.22h79.67v17.86h-79.67V95.22z"/>
	<path class="st0" d="M856.23,60.93h79.67v17.71h-79.67V60.93z M856.23,95.22h79.67v17.86h-79.67V95.22z"/>
	<path class="st0" d="M949.17,60.93h79.67v17.71h-79.67V60.93z M949.17,95.22h79.67v17.86h-79.67V95.22z"/>
	<path class="st0" d="M1042.11,60.93h79.67v17.71h-79.67V60.93z M1042.11,95.22h79.67v17.86h-79.67V95.22z"/>
	<path class="st0" d="M1136.81,60.93h79.67v17.71h-79.67V60.93z M1136.81,95.22h79.67v17.86h-79.67V95.22z"/>
	<path class="st0" d="M1229.75,60.93h79.67v17.71h-79.67V60.93z M1229.75,95.22h79.67v17.86h-79.67V95.22z"/>
	<path class="st0" d="M1322.69,60.93h79.67v17.71h-79.67V60.93z M1322.69,95.22h79.67v17.86h-79.67V95.22z"/>
	<path class="st0" d="M1417.4,60.93h79.67v17.71h-79.67V60.93z M1417.4,95.22h79.67v17.86h-79.67V95.22z"/>
	<path class="st0" d="M1510.34,60.93h79.67v17.71h-79.67V60.93z M1510.34,95.22h79.67v17.86h-79.67V95.22z"/>
	<path class="st0" d="M1603.28,60.93h79.67v17.71h-79.67V60.93z M1603.28,95.22h79.67v17.86h-79.67V95.22z"/>
	<path class="st0" d="M1697.99,60.93h79.67v17.71h-79.67V60.93z M1697.99,95.22h79.67v17.86h-79.67V95.22z"/>
	<path class="st0" d="M1790.93,60.93h79.67v17.71h-79.67V60.93z M1790.93,95.22h79.67v17.86h-79.67V95.22z"/>
	<path class="st0" d="M1896.93,60.93h79.67v17.71h-79.67V60.93z M1896.93,95.22h79.67v17.86h-79.67V95.22z"/>
	<path class="st0" d="M1999.4,60.93h79.67v17.71h-79.67V60.93z M1999.4,95.22h79.67v17.86h-79.67V95.22z"/>
	<path class="st0" d="M2092.35,60.93h79.67v17.71h-79.67V60.93z M2092.35,95.22h79.67v17.86h-79.67V95.22z"/>
	<path class="st0" d="M2185.29,60.93h79.67v17.71h-79.67V60.93z M2185.29,95.22h79.67v17.86h-79.67V95.22z"/>
	<path class="st0" d="M2278.23,60.93h79.67v17.71h-79.67V60.93z M2278.23,95.22h79.67v17.86h-79.67V95.22z"/>
	<path class="st0" d="M2371.17,60.93h79.67v17.71h-79.67V60.93L2371.17,60.93z M2371.17,95.22h79.67v17.86h-79.67V95.22
		L2371.17,95.22z"/>
	<path class="st0" d="M2464.11,60.93h79.67v17.71h-79.67V60.93z M2464.11,95.22h79.67v17.86h-79.67V95.22z"/>
	<path class="st0" d="M2557.05,60.93h79.67v17.71h-79.67V60.93z M2557.05,95.22h79.67v17.86h-79.67V95.22z"/>
	<path class="st0" d="M2649.99,60.93h79.67v17.71h-79.67V60.93z M2649.99,95.22h79.67v17.86h-79.67V95.22z"/>
	<path class="st0" d="M2743.65,60.93h79.67v17.71h-79.67V60.93z M2743.65,95.22h79.67v17.86h-79.67V95.22z"/>
	<path class="st0" d="M2836.59,60.93h79.67v17.71h-79.67V60.93z M2836.59,95.22h79.67v17.86h-79.67V95.22z"/>
	<path class="st0" d="M2929.53,60.93h79.67v17.71h-79.67V60.93z M2929.53,95.22h79.67v17.86h-79.67V95.22z"/>
	<path class="st0" d="M3022.47,60.93h79.67v17.71h-79.67V60.93z M3022.47,95.22h79.67v17.86h-79.67V95.22z"/>
	<path class="st0" d="M3115.41,60.93h79.67v17.71h-79.67V60.93z M3115.41,95.22h79.67v17.86h-79.67V95.22z"/>
	<path class="st0" d="M3208.35,60.93h79.67v17.71h-79.67V60.93z M3208.35,95.22h79.67v17.86h-79.67V95.22z"/>
	<path class="st0" d="M3301.3,60.93h79.67v17.71h-79.67V60.93z M3301.3,95.22h79.67v17.86h-79.67V95.22z"/>
	<path class="st0" d="M3394.24,60.93h79.67v17.71h-79.67V60.93z M3394.24,95.22h79.67v17.86h-79.67V95.22z"/>
	<path class="st0" d="M3662.05,71.1l-31.13,16.81l31.21,16.96l-6.63,11.46l-29.47-17.79v32.94h-13.34V98.61
		c-4.77,2.86-9.7,5.83-14.77,8.89c-5.08,3.07-9.98,6.01-14.7,8.82l-6.56-11.46l31.28-16.96l-31.21-16.81l6.48-11.53l29.47,17.71
		V44.42h13.34v32.86c4.82-2.86,9.76-5.83,14.81-8.89s9.94-6,14.66-8.82L3662.05,71.1z"/>
	<path class="st0" d="M3734.19,22.78h16.66l-59.25,126.86h-16.66L3734.19,22.78z"/>
</g>
</svg>
