<?xml version="1.0" encoding="utf-8"?>
<!-- Generator: Adobe Illustrator 27.9.1, SVG Export Plug-In . SVG Version: 6.00 Build 0)  -->
<svg version="1.1" id="Layer_1" xmlns="http://www.w3.org/2000/svg" xmlns:xlink="http://www.w3.org/1999/xlink" x="0px" y="0px"
	 viewBox="0 0 4871.85 171.53" style="enable-background:new 0 0 4871.85 171.53;" xml:space="preserve">
<style type="text/css">
	.st0{fill:#149E49;}
</style>
<g>
	<path class="st0" d="M35.4,54.96h8.16l-29.03,62.16H6.37L35.4,54.96z"/>
	<path class="st0" d="M91.12,78.64l-15.25,8.24l15.29,8.31l-3.25,5.61l-14.44-8.72v16.14h-6.54v-16.1c-2.34,1.4-4.75,2.86-7.24,4.36
		c-2.49,1.5-4.89,2.94-7.2,4.32l-3.21-5.61l15.33-8.31l-15.29-8.24l3.18-5.65l14.44,8.68v-16.1h6.54v16.1
		c2.36-1.4,4.78-2.86,7.26-4.36c2.47-1.5,4.87-2.94,7.18-4.32L91.12,78.64z"/>
	<path class="st0" d="M142.05,73.65h39.04v8.68h-39.04V73.65z M142.05,90.45h39.04v8.75h-39.04V90.45z"/>
	<path class="st0" d="M187.59,73.65h39.04v8.68h-39.04V73.65z M187.59,90.45h39.04v8.75h-39.04V90.45z"/>
	<path class="st0" d="M233.13,73.65h39.04v8.68h-39.04V73.65z M233.13,90.45h39.04v8.75h-39.04V90.45z"/>
	<path class="st0" d="M278.66,73.65h39.04v8.68h-39.04V73.65z M278.66,90.45h39.04v8.75h-39.04V90.45z"/>
	<path class="st0" d="M324.2,73.65h39.04v8.68H324.2V73.65z M324.2,90.45h39.04v8.75H324.2V90.45z"/>
	<path class="st0" d="M369.73,73.65h39.04v8.68h-39.04V73.65z M369.73,90.45h39.04v8.75h-39.04V90.45z"/>
	<path class="st0" d="M415.27,73.65h39.04v8.68h-39.04V73.65z M415.27,90.45h39.04v8.75h-39.04V90.45z"/>
	<path class="st0" d="M460.8,73.65h39.04v8.68H460.8V73.65z M460.8,90.45h39.04v8.75H460.8V90.45z"/>
	<path class="st0" d="M506.34,73.65h39.04v8.68h-39.04V73.65z M506.34,90.45h39.04v8.75h-39.04V90.45z"/>
	<path class="st0" d="M551.87,73.65h39.04v8.68h-39.04V73.65z M551.87,90.45h39.04v8.75h-39.04V90.45z"/>
	<path class="st0" d="M597.41,73.65h39.04v8.68h-39.04V73.65z M597.41,90.45h39.04v8.75h-39.04V90.45z"/>
	<path class="st0" d="M642.94,73.65h39.04v8.68h-39.04V73.65z M642.94,90.45h39.04v8.75h-39.04V90.45z"/>
	<path class="st0" d="M688.48,73.65h39.04v8.68h-39.04V73.65z M688.48,90.45h39.04v8.75h-39.04V90.45z"/>
	<path class="st0" d="M734.02,73.65h39.04v8.68h-39.04V73.65z M734.02,90.45h39.04v8.75h-39.04V90.45z"/>
	<path class="st0" d="M779.55,73.65h39.04v8.68h-39.04V73.65z M779.55,90.45h39.04v8.75h-39.04V90.45z"/>
	<path class="st0" d="M825.09,73.65h39.04v8.68h-39.04V73.65z M825.09,90.45h39.04v8.75h-39.04V90.45z"/>
	<path class="st0" d="M870.62,73.65h39.04v8.68h-39.04V73.65z M870.62,90.45h39.04v8.75h-39.04V90.45z"/>
	<path class="st0" d="M916.16,73.65h39.04v8.68h-39.04V73.65z M916.16,90.45h39.04v8.75h-39.04V90.45z"/>
	<path class="st0" d="M961.69,73.65h39.04v8.68h-39.04V73.65z M961.69,90.45h39.04v8.75h-39.04V90.45z"/>
	<path class="st0" d="M1007.23,73.65h39.04v8.68h-39.04V73.65z M1007.23,90.45h39.04v8.75h-39.04V90.45z"/>
	<path class="st0" d="M1052.76,73.65h39.04v8.68h-39.04V73.65z M1052.76,90.45h39.04v8.75h-39.04V90.45z"/>
	<path class="st0" d="M1098.3,73.65h39.04v8.68h-39.04V73.65z M1098.3,90.45h39.04v8.75h-39.04V90.45z"/>
	<path class="st0" d="M1143.84,73.65h39.04v8.68h-39.04V73.65z M1143.84,90.45h39.04v8.75h-39.04V90.45z"/>
	<path class="st0" d="M1189.37,73.65h39.04v8.68h-39.04V73.65z M1189.37,90.45h39.04v8.75h-39.04V90.45z"/>
	<path class="st0" d="M1234.91,73.65h39.04v8.68h-39.04V73.65z M1234.91,90.45h39.04v8.75h-39.04V90.45z"/>
	<path class="st0" d="M1280.44,73.65h39.04v8.68h-39.04V73.65z M1280.44,90.45h39.04v8.75h-39.04V90.45z"/>
	<path class="st0" d="M1325.98,73.65h39.04v8.68h-39.04V73.65z M1325.98,90.45h39.04v8.75h-39.04V90.45z"/>
	<path class="st0" d="M1371.51,73.65h39.04v8.68h-39.04V73.65z M1371.51,90.45h39.04v8.75h-39.04V90.45z"/>
	<path class="st0" d="M1417.05,73.65h39.04v8.68h-39.04V73.65z M1417.05,90.45h39.04v8.75h-39.04V90.45z"/>
	<path class="st0" d="M1462.59,73.65h39.04v8.68h-39.04V73.65z M1462.59,90.45h39.04v8.75h-39.04V90.45z"/>
	<path class="st0" d="M1508.12,73.65h39.04v8.68h-39.04V73.65z M1508.12,90.45h39.04v8.75h-39.04V90.45z"/>
	<path class="st0" d="M1553.66,73.65h39.04v8.68h-39.04V73.65z M1553.66,90.45h39.04v8.75h-39.04V90.45z"/>
	<path class="st0" d="M1599.19,73.65h39.04v8.68h-39.04V73.65z M1599.19,90.45h39.04v8.75h-39.04V90.45z"/>
	<path class="st0" d="M1644.73,73.65h39.04v8.68h-39.04V73.65z M1644.73,90.45h39.04v8.75h-39.04V90.45z"/>
	<path class="st0" d="M1690.26,73.65h39.04v8.68h-39.04V73.65z M1690.26,90.45h39.04v8.75h-39.04V90.45z"/>
	<path class="st0" d="M1735.8,73.65h39.04v8.68h-39.04V73.65z M1735.8,90.45h39.04v8.75h-39.04V90.45z"/>
	<path class="st0" d="M1781.33,73.65h39.04v8.68h-39.04V73.65z M1781.33,90.45h39.04v8.75h-39.04V90.45z"/>
	<path class="st0" d="M1826.87,73.65h39.04v8.68h-39.04V73.65z M1826.87,90.45h39.04v8.75h-39.04V90.45z"/>
	<path class="st0" d="M1872.4,73.65h39.04v8.68h-39.04V73.65z M1872.4,90.45h39.04v8.75h-39.04V90.45z"/>
	<path class="st0" d="M1917.94,73.65h39.04v8.68h-39.04V73.65z M1917.94,90.45h39.04v8.75h-39.04V90.45z"/>
	<path class="st0" d="M1963.48,73.65h39.04v8.68h-39.04V73.65z M1963.48,90.45h39.04v8.75h-39.04V90.45z"/>
	<path class="st0" d="M2009.01,73.65h39.04v8.68h-39.04V73.65z M2009.01,90.45h39.04v8.75h-39.04V90.45z"/>
	<path class="st0" d="M2054.55,73.65h39.04v8.68h-39.04V73.65z M2054.55,90.45h39.04v8.75h-39.04V90.45z"/>
	<path class="st0" d="M2100.08,73.65h39.04v8.68h-39.04V73.65z M2100.08,90.45h39.04v8.75h-39.04V90.45z"/>
	<path class="st0" d="M2145.62,73.65h39.04v8.68h-39.04V73.65z M2145.62,90.45h39.04v8.75h-39.04V90.45z"/>
	<path class="st0" d="M2191.16,73.65h39.04v8.68h-39.04V73.65z M2191.16,90.45h39.04v8.75h-39.04V90.45z"/>
	<path class="st0" d="M2236.69,73.65h39.04v8.68h-39.04V73.65z M2236.69,90.45h39.04v8.75h-39.04V90.45z"/>
	<path class="st0" d="M2282.22,73.65h39.04v8.68h-39.04V73.65z M2282.22,90.45h39.04v8.75h-39.04V90.45z"/>
	<path class="st0" d="M2327.76,73.65h39.04v8.68h-39.04V73.65z M2327.76,90.45h39.04v8.75h-39.04V90.45z"/>
	<path class="st0" d="M2373.3,73.65h39.04v8.68h-39.04V73.65z M2373.3,90.45h39.04v8.75h-39.04V90.45z"/>
	<path class="st0" d="M2418.83,73.65h39.04v8.68h-39.04V73.65z M2418.83,90.45h39.04v8.75h-39.04V90.45z"/>
	<path class="st0" d="M2464.37,73.65h39.04v8.68h-39.04V73.65z M2464.37,90.45h39.04v8.75h-39.04V90.45z"/>
	<path class="st0" d="M2509.9,73.65h39.04v8.68h-39.04V73.65z M2509.9,90.45h39.04v8.75h-39.04V90.45z"/>
	<path class="st0" d="M2555.44,73.65h39.04v8.68h-39.04V73.65z M2555.44,90.45h39.04v8.75h-39.04V90.45z"/>
	<path class="st0" d="M2600.97,73.65h39.04v8.68h-39.04V73.65z M2600.97,90.45h39.04v8.75h-39.04V90.45z"/>
	<path class="st0" d="M2646.51,73.65h39.04v8.68h-39.04V73.65z M2646.51,90.45h39.04v8.75h-39.04V90.45z"/>
	<path class="st0" d="M2692.05,73.65h39.04v8.68h-39.04V73.65z M2692.05,90.45h39.04v8.75h-39.04V90.45z"/>
	<path class="st0" d="M2737.58,73.65h39.04v8.68h-39.04V73.65z M2737.58,90.45h39.04v8.75h-39.04V90.45z"/>
	<path class="st0" d="M2783.12,73.65h39.04v8.68h-39.04V73.65z M2783.12,90.45h39.04v8.75h-39.04V90.45z"/>
	<path class="st0" d="M2828.65,73.65h39.04v8.68h-39.04V73.65z M2828.65,90.45h39.04v8.75h-39.04V90.45z"/>
	<path class="st0" d="M2874.19,73.65h39.04v8.68h-39.04V73.65z M2874.19,90.45h39.04v8.75h-39.04V90.45z"/>
	<path class="st0" d="M2919.72,73.65h39.04v8.68h-39.04V73.65z M2919.72,90.45h39.04v8.75h-39.04V90.45z"/>
	<path class="st0" d="M2965.26,73.65h39.04v8.68h-39.04V73.65z M2965.26,90.45h39.04v8.75h-39.04V90.45z"/>
	<path class="st0" d="M3010.79,73.65h39.04v8.68h-39.04V73.65z M3010.79,90.45h39.04v8.75h-39.04V90.45z"/>
	<path class="st0" d="M3056.33,73.65h39.04v8.68h-39.04V73.65z M3056.33,90.45h39.04v8.75h-39.04V90.45z"/>
	<path class="st0" d="M3101.87,73.65h39.04v8.68h-39.04V73.65z M3101.87,90.45h39.04v8.75h-39.04V90.45z"/>
	<path class="st0" d="M3147.4,73.65h39.04v8.68h-39.04V73.65z M3147.4,90.45h39.04v8.75h-39.04V90.45z"/>
	<path class="st0" d="M3192.94,73.65h39.04v8.68h-39.04V73.65z M3192.94,90.45h39.04v8.75h-39.04V90.45z"/>
	<path class="st0" d="M3238.47,73.65h39.04v8.68h-39.04V73.65z M3238.47,90.45h39.04v8.75h-39.04V90.45z"/>
	<path class="st0" d="M3284.01,73.65h39.04v8.68h-39.04V73.65z M3284.01,90.45h39.04v8.75h-39.04V90.45z"/>
	<path class="st0" d="M3329.54,73.65h39.04v8.68h-39.04V73.65z M3329.54,90.45h39.04v8.75h-39.04V90.45z"/>
	<path class="st0" d="M3375.08,73.65h39.04v8.68h-39.04V73.65z M3375.08,90.45h39.04v8.75h-39.04V90.45z"/>
	<path class="st0" d="M3420.62,73.65h39.04v8.68h-39.04V73.65z M3420.62,90.45h39.04v8.75h-39.04V90.45z"/>
	<path class="st0" d="M3466.15,73.65h39.04v8.68h-39.04V73.65z M3466.15,90.45h39.04v8.75h-39.04V90.45z"/>
	<path class="st0" d="M3511.69,73.65h39.04v8.68h-39.04V73.65z M3511.69,90.45h39.04v8.75h-39.04V90.45z"/>
	<path class="st0" d="M3557.22,73.65h39.04v8.68h-39.04V73.65z M3557.22,90.45h39.04v8.75h-39.04V90.45z"/>
	<path class="st0" d="M3602.76,73.65h39.04v8.68h-39.04V73.65z M3602.76,90.45h39.04v8.75h-39.04V90.45z"/>
	<path class="st0" d="M3648.29,73.65h39.04v8.68h-39.04V73.65z M3648.29,90.45h39.04v8.75h-39.04V90.45z"/>
	<path class="st0" d="M3693.83,73.65h39.04v8.68h-39.04V73.65z M3693.83,90.45h39.04v8.75h-39.04V90.45z"/>
	<path class="st0" d="M3739.36,73.65h39.04v8.68h-39.04V73.65z M3739.36,90.45h39.04v8.75h-39.04V90.45z"/>
	<path class="st0" d="M3784.9,73.65h39.04v8.68h-39.04V73.65z M3784.9,90.45h39.04v8.75h-39.04V90.45z"/>
	<path class="st0" d="M3830.43,73.65h39.04v8.68h-39.04V73.65z M3830.43,90.45h39.04v8.75h-39.04V90.45z"/>
	<path class="st0" d="M3875.97,73.65h39.04v8.68h-39.04V73.65z M3875.97,90.45h39.04v8.75h-39.04V90.45z"/>
	<path class="st0" d="M3921.51,73.65h39.04v8.68h-39.04V73.65z M3921.51,90.45h39.04v8.75h-39.04V90.45z"/>
	<path class="st0" d="M3967.04,73.65h39.04v8.68h-39.04V73.65z M3967.04,90.45h39.04v8.75h-39.04V90.45z"/>
	<path class="st0" d="M4012.58,73.65h39.04v8.68h-39.04V73.65z M4012.58,90.45h39.04v8.75h-39.04V90.45z"/>
	<path class="st0" d="M4058.11,73.65h39.04v8.68h-39.04V73.65z M4058.11,90.45h39.04v8.75h-39.04V90.45z"/>
	<path class="st0" d="M4103.65,73.65h39.04v8.68h-39.04V73.65z M4103.65,90.45h39.04v8.75h-39.04V90.45z"/>
	<path class="st0" d="M4149.18,73.65h39.04v8.68h-39.04V73.65z M4149.18,90.45h39.04v8.75h-39.04V90.45z"/>
	<path class="st0" d="M4194.72,73.65h39.04v8.68h-39.04V73.65z M4194.72,90.45h39.04v8.75h-39.04V90.45z"/>
	<path class="st0" d="M4240.26,73.65h39.04v8.68h-39.04V73.65z M4240.26,90.45h39.04v8.75h-39.04V90.45z"/>
	<path class="st0" d="M4285.79,73.65h39.04v8.68h-39.04V73.65z M4285.79,90.45h39.04v8.75h-39.04V90.45z"/>
	<path class="st0" d="M4331.33,73.65h39.04v8.68h-39.04V73.65z M4331.33,90.45h39.04v8.75h-39.04V90.45z"/>
	<path class="st0" d="M4376.86,73.65h39.04v8.68h-39.04V73.65z M4376.86,90.45h39.04v8.75h-39.04V90.45z"/>
	<path class="st0" d="M4422.4,73.65h39.04v8.68h-39.04V73.65z M4422.4,90.45h39.04v8.75h-39.04V90.45z"/>
	<path class="st0" d="M4467.93,73.65h39.04v8.68h-39.04V73.65z M4467.93,90.45h39.04v8.75h-39.04V90.45z"/>
	<path class="st0" d="M4513.47,73.65h39.04v8.68h-39.04V73.65z M4513.47,90.45h39.04v8.75h-39.04V90.45z"/>
	<path class="st0" d="M4559,73.65h39.04v8.68H4559V73.65z M4559,90.45h39.04v8.75H4559V90.45z"/>
	<path class="st0" d="M4604.54,73.65h39.04v8.68h-39.04V73.65z M4604.54,90.45h39.04v8.75h-39.04V90.45z"/>
	<path class="st0" d="M4650.08,73.65h39.04v8.68h-39.04V73.65z M4650.08,90.45h39.04v8.75h-39.04V90.45z"/>
	<path class="st0" d="M4695.61,73.65h39.04v8.68h-39.04V73.65z M4695.61,90.45h39.04v8.75h-39.04V90.45z"/>
	<path class="st0" d="M4826.83,78.64l-15.25,8.24l15.29,8.31l-3.25,5.61l-14.44-8.72v16.14h-6.54v-16.1
		c-2.34,1.4-4.75,2.86-7.24,4.36c-2.49,1.5-4.89,2.94-7.2,4.32l-3.21-5.61l15.33-8.31l-15.29-8.24l3.18-5.65l14.44,8.68v-16.1h6.54
		v16.1c2.36-1.4,4.78-2.86,7.26-4.36c2.47-1.5,4.87-2.94,7.18-4.32L4826.83,78.64z"/>
	<path class="st0" d="M4862.17,54.96h8.16l-29.03,62.16h-8.16L4862.17,54.96z"/>
</g>
</svg>
