<?xml version="1.0" encoding="UTF-8"?>
<svg id="Layer_1" xmlns="http://www.w3.org/2000/svg" xmlns:xlink="http://www.w3.org/1999/xlink" version="1.1" viewBox="0 0 677.7 173.4">
  <!-- Generator: Adobe Illustrator 29.3.1, SVG Export Plug-In . SVG Version: 2.1.0 Build 151)  -->
  <defs>
    <style>
      .st0 {
        fill: #62ba46;
      }
    </style>
  </defs>
  <g>
    <g>
      <path class="st0" d="M33.5,62v2.5c0,1.6-.1,3.2-.3,4.9-.1.8-.1,1.6-.2,2.4v.3c5.7-5.7,11.3-11.4,16.9-17.2-3.2,0-6.4.1-9.6.1-2.2,2.3-4.5,4.7-6.8,7Z"/>
      <path class="st0" d="M39,42.3h10.1c3.1-3.1,6.3-6.4,9.4-9.5,3.3-3.4,6.8-6.9,10.1-10.3h-9.8c-6.6,6.7-13.2,13.3-19.8,19.8Z"/>
      <path class="st0" d="M61.6,42.5h.7c1-1,2-2,2.9-3,5.7-5.8,11.2-11.4,16.9-17.2h-1.3c-2.3.1-4.6.2-6.9.2h-1.5c-6.5,6.7-13,13.3-19.5,19.8,2.9.1,5.9.1,8.7.2Z"/>
      <path class="st0" d="M69.2,74.2c5.5-5.6,11-11.1,16.5-16.6,6.9-6.9,13.7-13.8,20.5-20.6v-8.9c-15,15.3-30.1,30.6-45.2,45.9,2.7.1,5.5.1,8.2.2Z"/>
      <path class="st0" d="M86.1,74.5c.6,0,1,.4,1.1.8.2.2.3.5.3.8-.1,2.6-.2,5.3-.3,7.9,3.3-3.3,6.6-6.7,9.9-10s6.3-6.3,9.3-9.4c0-3.5-.1-7.1-.1-10.7-6.8,6.9-13.7,13.8-20.5,20.6.1.1.2.1.2.1Z"/>
      <path class="st0" d="M82.2,74.4c3.3-3.4,6.8-6.8,10.1-10.2,4.7-4.7,9.3-9.4,14-14.1-.1-3.1-.1-6.3-.1-9.4-11.1,11.1-22.2,22.4-33.3,33.5,3.1.1,6.2.1,9.3.2Z"/>
      <path class="st0" d="M35.1,74h9c6.3-6.3,12.5-12.7,18.7-19-.7-.1-1.3-.1-2-.2-2.2-.2-4.6,0-6.8.1-6.5,6.4-12.8,12.8-18.9,19.1q-.1,0,0,0Z"/>
      <path class="st0" d="M.4,91.5c2.7-2.7,5.5-5.6,8.3-8.3-.1-3.4-.3-7-.4-10.4-2.5,2.4-5,5-7.5,7.4-.1,2.3-.1,4.7-.2,7,0,1.5-.1,2.9-.2,4.4Z"/>
      <path class="st0" d="M8.1,59.7c-2.3,2.3-4.7,4.7-7,7,0,3.2,0,6.4-.1,9.6,2.4-2.4,4.9-4.9,7.3-7.2-.1-3.1-.2-6.3-.2-9.4Z"/>
      <path class="st0" d="M33,35c0,1.3,0,2.5-.1,3.8,0,1.2-.5,3,.8,3.5.4.1.8.1,1.3.1,5.8-5.8,11.5-11.5,17.3-17.2.9-.9,1.8-1.8,2.7-2.7-3.1,0-6.4,0-9.5-.1-4.3,4.2-8.4,8.3-12.6,12.6Z"/>
      <path class="st0" d="M57.2,74c7.7-7.8,15.4-15.6,23-23.4,8.8-8.9,17.4-17.7,26-26.5v-.2c.1-3.2.2-6.6.4-9.8-10.2,10.4-20.6,21-30.9,31.5-.1.8-.1,1.6-.2,2.5-.1,1.3-.3,2.7-.3,4.1s.2,2.1-.6,2.6c-.3.2-.7.3-1.1.3-1.3.1-2.6.2-3.9.2s-2.1,0-3.2-.1c-6.3,6.3-12.5,12.6-18.5,18.8h9.4Z"/>
      <path class="st0" d="M183.5,107c6.5-6.6,13-13.1,19.4-19.5-2,.1-4.2.1-6.2.2-.7,0-1.2.1-1.9.1s-.9-.1-1.2-.4h-.1c-6.6,6.5-13.1,13.1-19.6,19.6,3.2,0,6.4,0,9.6,0Z"/>
      <path class="st0" d="M78,106.8c8.6-8.7,17.3-17.4,25.9-26,.8-.9,1.7-1.7,2.5-2.6.1-2.1.1-4.3.1-6.4v-3.3c-12.7,12.8-25.3,25.6-38.1,38.4,3.1,0,6.4,0,9.5,0Z"/>
      <path class="st0" d="M130.5,73.2c.9.8,2.7.6,3.9.6s2,.1,3,.1c3.7-3.7,7.5-7.5,11.1-11.2h0c0-1.3.1-2.6.1-3.8.1-2,.1-4.1.2-6.1-6.4,6.4-12.7,12.8-19,19.1,0,.5.2,1,.6,1.3Z"/>
      <path class="st0" d="M192.5,30.9c0-1.1,0-2.1.1-3.2.1-1.8.2-3.6.2-5.6-2.7,2.7-5.5,5.6-8.2,8.3-.1,2.9-.1,5.9-.2,8.8,2.7-2.7,5.5-5.5,8.1-8.3Z"/>
      <path class="st0" d="M145.3,74.1c1.7,0,3.3.1,5.1.1,2.7-2.8,5.5-5.6,8.2-8.4h-9.2c-2.7,2.7-5.5,5.5-8.2,8.2,1.4.1,2.8.1,4.2.1Z"/>
      <path class="st0" d="M91,106.8c6.6-6.5,13.1-13.1,19.6-19.6h-1.8c-.6,0-1.2.1-1.8,0-.2,0-.5-.1-.6-.3-.1-.1-.1-.3-.1-.5,0-1.4,0-2.8.1-4.4-8.2,8.3-16.4,16.5-24.6,24.7,3,.1,6.2.1,9.2.1Z"/>
      <path class="st0" d="M173,81.6v4.9c0,.9-.9,1.3-1.6,1.2h-4.4c-6.3,6.4-12.6,12.8-18.8,19.2h9.5c11.7-11.9,23.3-23.8,34.8-35.5,0-.7-.1-1.4-.1-2.1-.1-2.4-.1-5,0-7.4-.4.4-.8.8-1.2,1.2-6.1,6.1-12.2,12.4-18.2,18.5Z"/>
      <path class="st0" d="M170.1,107c7.7-7.8,15.4-15.5,23.1-23.2-.1-1.9-.3-3.8-.4-5.9,0-.9-.1-1.9-.1-2.8-10.4,10.6-20.8,21.3-31.2,31.9,2.8,0,5.8,0,8.6,0Z"/>
      <path class="st0" d="M183.8,60.8c0,1.5.5,3.5-.2,5-.5,1-1.6.6-2.6.6s-2.8-.1-4.3-.1h-1.4c-2.6,2.7-5.4,5.5-8,8.2h1.1c1,0,2.4-.1,3.4.4.5.3.9.7,1.1,1.4.1.5.1,1,.1,1.5,6.5-6.7,13-13.3,19.4-19.9.1-3.2.2-6.5.3-9.6-2.9,3-5.9,6.1-8.8,9.1-.1,1.1-.1,2.3-.2,3.4Z"/>
      <path class="st0" d="M184.1,53.3c2.9-3,5.8-6,8.7-9,0-3.1-.2-6.4-.2-9.5-2.7,2.8-5.5,5.7-8.2,8.5-.2,3.3-.2,6.7-.3,10Z"/>
      <path class="st0" d="M8.1,33.2c-2.5,2.5-5,5-7.5,7.5.1,3.1.1,6.3.2,9.4,2.4-2.4,4.8-4.8,7.2-7.2.1-3.2.1-6.5.1-9.7Z"/>
      <path class="st0" d="M8.5,18.2c-2.7,2.7-5.5,5.5-8.1,8.2.1,3.5.1,7.1.2,10.6,2.5-2.5,5.1-5.1,7.6-7.7.1-3.7.2-7.4.3-11.1Z"/>
      <path class="st0" d="M8.8,10.8c0-.9.8-1.2,1.4-1.2h.3c.9,0,1.8,0,2.7.1,2.8-2.8,5.7-5.8,8.6-8.6h-9.5C8.3,5.1,4.4,9.1.3,13.2v9.6c2.8-2.8,5.6-5.6,8.4-8.4,0-1.4.1-2.5.1-3.6Z"/>
      <path class="st0" d="M129.9,68.1c6.4-6.4,12.8-12.8,19.1-19.1.1-3.4.2-6.9.3-10.3-6.4,6.5-12.9,13.1-19.2,19.5,0,2.3-.1,4.7-.1,7-.1,1-.1,1.9-.1,2.9Z"/>
      <path class="st0" d="M27.2,9.7h.5c.9-.9,1.7-1.7,2.6-2.6,2-2,4.1-4.2,6.1-6.2h-10.7c-2.8,2.9-5.8,5.8-8.6,8.7,3.3,0,6.8.1,10.1.1Z"/>
      <path class="st0" d="M37.5,22.2c-1,0-2.6-.6-3.5.2-1.2,1-.7,4.3-.7,5.7s0,2-.1,3c2.9-2.9,5.9-5.8,8.7-8.7-1.5-.1-2.9-.2-4.4-.2Z"/>
      <path class="st0" d="M1.2.9C-.2,1.1.3,3.4.3,4.4v4.9C3.1,6.4,5.8,3.7,8.5.8c-2.4,0-4.9-.1-7.3.1Z"/>
      <path class="st0" d="M144.4,106.8c6.4-6.5,12.7-12.9,18.8-19.2h-8.9c-6.3,6.5-12.6,12.9-18.9,19.3,3-.1,6.1-.1,9-.1Z"/>
      <path class="st0" d="M163.5,74.4c2.7-2.7,5.4-5.6,8.1-8.3-2.9-.1-5.8-.1-8.7-.2h-.6c-2.7,2.8-5.5,5.6-8.2,8.4h.5c2.9,0,5.9,0,8.9.1Z"/>
      <path class="st0" d="M131.7,106.8c.2-.2.3-.4.5-.5,6.1-6.3,12.3-12.5,18.4-18.7-2.3,0-4.7,0-7-.1h-2.3c-6.4,6.5-12.7,13-19,19.3h9.4Z"/>
      <path class="st0" d="M108.4,106.8h10.1c2.3-2.4,4.8-4.8,7.1-7.2,3.9-4.1,8-8.1,11.9-12.2-2.5,0-5.2,0-7.7-.1h-1.9c-6.6,6.5-13.1,13-19.5,19.4Z"/>
      <path class="st0" d="M119.3,92.1l4.8-4.8c-2.7,0-5.4,0-8.1-.1h-1.4c-6.6,6.5-13.1,13.1-19.6,19.5h9.6c5-4.8,9.8-9.7,14.8-14.7Z"/>
      <path class="st0" d="M47.3,87.9c-6.2,6.3-12.5,12.6-18.7,18.9h8.1c6.3-6.3,12.5-12.6,18.7-18.8-2.6,0-5.4-.1-8.1-.1Z"/>
      <path class="st0" d="M10.7,87.8h-.3c-.6,0-1.2-.3-1.3-.9-2.7,2.7-5.5,5.6-8.2,8.3.1,0,.1.1.2.1,1.2.4,2.8.2,4.2.3h2.4c.7,0,1.4.1,2.1.1h.1c2.6-2.6,5.2-5.3,7.8-7.8-2.4-.1-4.8-.1-7-.1Z"/>
      <path class="st0" d="M53.9,106.8h10.7c6.1-6.1,12.2-12.3,18.2-18.3-3.5-.1-7.1-.2-10.5-.2-6.2,6.2-12.3,12.4-18.4,18.5Z"/>
      <path class="st0" d="M17.5,106.8h7.3c6.3-6.3,12.5-12.7,18.7-18.9-3.1,0-6.3,0-9.4-.1-6.3,6.4-12.6,12.7-18.8,19,.8,0,1.5,0,2.2,0Z"/>
      <path class="st0" d="M21.3,87.8c-3.1,3.2-6.4,6.4-9.5,9.6h0c0,.8-.1,1.5-.1,2.1s.1,1.3.1,2,0,1.4.1,2.1c0,.5.1,1,0,1.5,0,.4-.1.7.1,1,6.1-6.2,12.3-12.4,18.3-18.5-2.9.1-6,.1-9,.1Z"/>
      <path class="st0" d="M59.2,88.1c-6.2,6.3-12.5,12.6-18.6,18.7h9.5c6.2-6.2,12.4-12.5,18.5-18.6-3.1-.1-6.3-.1-9.4-.1Z"/>
      <path class="st0" d="M33.3,55.9c-.1.5.1,1.2.2,1.7v.6l3.1-3.1c-1.3-.2-3.1-.4-3.3.8Z"/>
      <path class="st0" d="M45.6,10h8.5c2.9-2.9,6-6,8.9-8.9h-9.6c-2.9,2.9-5.9,6-8.8,8.9h1Z"/>
      <path class="st0" d="M130.3,29.9v10.7c6.5-6.6,13-13.2,19.4-19.7,0-1.7.1-3.4.1-5.2s.4-2.5-.6-3.1c-.3-.2-.7-.3-1.1-.4-1.5,1.5-3.1,3.1-4.7,4.7-4.6,4.4-8.8,8.7-13.2,13.1Z"/>
      <path class="st0" d="M1,59.7v3.2c2.3-2.3,4.7-4.7,7-7v-9.2c-2.3,2.3-4.8,4.8-7.1,7.1,0,1.5.1,3,.1,4.5v1.4Z"/>
      <path class="st0" d="M114.8,9.2c1.9.1,3.8.1,5.9.1,2.6-2.7,5.3-5.4,7.9-8.1h-9.4c-2.5,2.6-5.2,5.3-7.7,7.9,1.1,0,2.2.1,3.3.1Z"/>
      <path class="st0" d="M59.5,10h8.1c2.9-2.9,5.9-5.9,8.8-8.8h-9.5c-2.9,2.9-5.9,5.9-8.9,8.9.5-.1,1-.1,1.5-.1Z"/>
      <path class="st0" d="M130.3,16.5v9.6c4.7-4.7,9.3-9.4,14-14.1-.8,0-1.7-.1-2.5-.1s-2,0-2.5-.9c-.4-.8-.3-1.9-.3-2.7v-.4c-.7.8-1.5,1.5-2.2,2.3-2.2,2-4.3,4.2-6.4,6.3Z"/>
      <path class="st0" d="M184.7,26.6c2.8-2.8,5.6-5.7,8.4-8.4.1-1.4.2-2.7.2-4.2.1-1,0-2.7.6-3.4.4-.5,1.1-.5,1.8-.5,1.8,0,3.5.1,5.4.1,2.7-2.7,5.4-5.5,8.1-8.2-2.8-.1-5.8-.1-8.6-.3h-.6c-5.1,5.1-10,10.1-15.1,15.2-.2,3.2-.2,6.5-.2,9.7Z"/>
      <path class="st0" d="M85.3,9.7c.5.1,1,0,1.5.2.1,0,.2.1.2.1.1.1.1.2.1.3,0,.5.1,1,.1,1.4v3.2c0,.6.1,1.3.1,1.9,5.1-5.2,10.2-10.4,15.4-15.7h-9.4c-2.7,2.8-5.6,5.7-8.3,8.5.1-.1.2-.1.3,0Z"/>
      <path class="st0" d="M87.4,21c0,.2-.1.4-.2.7,0,.1-.1.2-.2.3h-.9c-6.7,6.9-13.4,13.7-20,20.5.8,0,1.6,0,2.5.1,1.1,0,2.3.1,3.4.1s1.8,0,2.7.2c10.9-11.1,21.7-22.1,32.3-33h0c.1-.3.3-.5.5-.6h.1c2.5-2.6,5.2-5.3,7.7-7.9h-9.1c-6.3,6.5-12.7,13-18.9,19.4.1,0,.1.1.1.2Z"/>
      <path class="st0" d="M216.7,46.5c6.3-6.5,12.7-13,19-19.5v-5.3c0-1.5.1-3,0-4.5-6.4,6.6-12.7,13.1-18.9,19.5,0,3.2,0,6.5-.1,9.7Z"/>
      <path class="st0" d="M184.9,3.3v3.4c0,2,0,4.1-.1,6.2,3.8-3.8,7.6-7.7,11.4-11.5-1.2-.1-2.4-.1-3.5-.2-1.3-.1-2.6-.2-4.1-.3-.7-.1-1.6-.2-2.4-.1-.5.5-.9.9-1.4,1.4.1.4.1.8.1,1.1Z"/>
      <path class="st0" d="M209.2,10.4c1,0,2,.1,2.9.1,2.7-2.8,5.6-5.8,8.3-8.6-1.5,0-2.9.1-4.5.1h-3.2c-2.7,2.7-5.5,5.5-8.2,8.3,1.6,0,3.1,0,4.7.1Z"/>
      <path class="st0" d="M216.8,27.3v5.6c6.2-6.4,12.5-12.8,18.6-19.2,0-.2-.1-.4-.1-.6s0-.1-.1-.2q-.1-.1-.2-.1c-1.5-.4-3.1-.3-4.8-.4-.9-.1-1.8-.1-2.7-.2-3.5,3.7-7.2,7.5-10.7,11.2,0,1.3,0,2.6,0,3.9Z"/>
      <path class="st0" d="M216.8,14.4v5c2.9-3,5.9-6.2,8.8-9.2V2.7c0-.2,0-.5-.2-.6-.1-.1-.2-.1-.3-.1h-.8c-2.9,3-5.8,6.1-8.7,9.1,1,.6,1.2,2.1,1.2,3.3Z"/>
      <path class="st0" d="M130.2,44.5c0,3.2-.1,6.5-.1,9.8,6.4-6.5,12.9-13.1,19.2-19.5.1-3.3.1-6.6.2-9.9-.8.8-1.6,1.6-2.4,2.4-5.6,5.8-11.2,11.4-16.9,17.2Z"/>
      <path class="st0" d="M73.2,9.9c2.3,0,4.7-.1,6.9-.1h.9c2.8-2.8,5.6-5.8,8.4-8.6h-9.3c-2.9,2.9-5.8,5.9-8.7,8.7h1.8Z"/>
      <path class="st0" d="M31.8,9.9c2.3,0,4.7,0,6.9.1h2.1c2.9-2.9,5.9-5.9,8.8-8.9h-9.5c-2.9,2.9-5.9,5.9-8.8,8.8h.5Z"/>
      <path class="st0" d="M216.6,60.2c6.4-6.4,12.8-12.9,19.1-19.3v-10c-6.4,6.6-12.7,13.1-19,19.6,0,3.2-.1,6.5-.1,9.7Z"/>
      <path class="st0" d="M201.6,107h9.5c8.1-8.2,16.2-16.5,24.3-24.7.1-3.2.1-6.6.2-9.8-7.3,7.5-14.5,14.9-21.4,21.9-4.4,4.2-8.5,8.4-12.7,12.7Z"/>
      <path class="st0" d="M214.9,107h6.4c1.2,0,2.3,0,3.5.1,3.4-3.4,6.9-6.9,10.2-10.3.1-3.5.2-7.1.2-10.6-5,5.1-9.8,10-14.5,14.8-1.9,2-3.9,4.1-5.9,6.1Z"/>
      <path class="st0" d="M216.4,73.7c6.4-6.5,12.9-13,19.3-19.4v-9.6c-6.4,6.4-12.8,12.9-19.2,19.3,0,3.2,0,6.5-.1,9.7Z"/>
      <path class="st0" d="M228.5,107.1h4.5c.4,0,.9-.1,1.3-.3,1-.7.6-3.4.6-4.5v-1.7l-4.6,4.6c-.6.7-1.2,1.3-1.8,1.9Z"/>
      <path class="st0" d="M216.2,85.2c.3.7-.1,1.8-1.1,1.8-2.7.1-5.5.2-8.3.3-6.5,6.6-13.1,13.2-19.5,19.6h10.5c12.6-12.8,25.2-25.6,37.8-38.5,0-3.4.1-6.8.1-10.2-6.4,6.5-12.9,13-19.3,19.4,0,2.4-.1,5-.1,7.5Z"/>
      <path class="st0" d="M124.5,9.3h4.2c.3,0,.5.1.7.2.5.1.9.5.9,1.2v1.9c2.8-2.8,5.6-5.7,8.4-8.4,0-.4-.1-.8-.1-1.2-.1-1.8-3.4-1.9-6.1-1.8l-1.5,1.5c-2.1,2.2-4.3,4.4-6.5,6.6Z"/>
    </g>
    <g>
      <path class="st0" d="M342,79.2c.1-2,.2-4.1.3-6.2-11.4,11.2-23,22.5-34.4,33.7,2.6,0,5.4.1,8,.1h1.1c8.3-8.1,16.5-16.2,24.8-24.4.1-1.1.1-2.2.2-3.2Z"/>
      <path class="st0" d="M320,55.3c-2.4,2.4-4.8,4.9-7.2,7.2-.1,2.3-.2,4.6-.3,6.9,0,.5,0,1-.1,1.5v1.6c5.6-5.7,11.2-11.3,16.8-16.9h-2.2c-2.2-.1-4.6-.2-7-.3Z"/>
      <path class="st0" d="M322.4.7c-2.9,2.9-5.9,5.8-8.7,8.7,1.4,0,2.9,0,4.4.1,1.7,0,3.4,0,5.2.1,2.9-2.9,5.9-5.9,8.8-8.7-3.2-.1-6.5-.2-9.6-.2Z"/>
      <path class="st0" d="M409.4,20c-.2,0-.3.1-.5.1-.3.3-.5.5-.8.8-.2.7.1,1.8,0,2.4-.1,1.5-.1,3-.2,4.6,0,.9-.1,1.8-.1,2.7,3.6-3.5,7.3-7.2,10.8-10.7h-.3c-2.9-.1-6-.2-8.9.1Z"/>
      <path class="st0" d="M325.9,20.1c-2.1-.1-4.3-.3-6.3-.4-.8,0-1.7-.2-2.6-.2-2,2-4.2,4.2-6.2,6.2-.1,1.7-.1,3.4-.2,5.2-.1,1.6-.1,3.2-.2,4.9,4.2-4.2,8.2-8.2,12.4-12.4,1-1,2-2.1,3.1-3.2Z"/>
      <path class="st0" d="M345.3,26.1c0-1.1.1-2.2.1-3.3s0-.7-.1-1c-.1-.2-.2-.4-.3-.6-.4-.4-.9-.4-1.4-.4h-.9c-7.5,7.6-15.1,15.1-22.6,22.7,2.7,0,5.4,0,8.1.1,2.3-2.3,4.7-4.8,7-7.1,3.3-3.4,6.7-6.9,10.1-10.3Z"/>
      <path class="st0" d="M312.9.6h-5.6c-2.9,2.8-5.9,5.8-8.7,8.6,2.3,0,4.6.1,6.9.1h4.5c2.9-2.8,5.8-5.8,8.7-8.7-1.9.1-3.8.1-5.8,0Z"/>
      <path class="st0" d="M484.1,20c.1-.1.3-.3.4-.4s.3-.1.5-.1h.3c2.9-2.9,5.9-5.9,8.8-8.8,0-.3.1-.5.2-.8.1-.2.2-.3.4-.4.2-.1.4-.1.6-.1,2.9-2.9,5.9-5.9,8.7-8.8h-8.4c-10.7,10.8-21.5,21.8-32.2,32.6,0,2.7,0,5.5.1,8.1,6.7-6.7,13.4-13.4,19.9-20.1h0c0-.4.3-.8.6-1.1Z"/>
      <path class="st0" d="M364.6,87.7c-3.4.2-7-.2-10.4-.4-3.1,3-6.2,6.1-9.3,9.1.1.2.1.4.1.6.2,1.5-.1,3.1-.2,4.7-.1.8-.1,1.5-.1,2.3s.3,1.3.2,1.9c.5.1,1,.2,1.5.3,6.4-6.3,12.8-12.6,19-18.8-.1.2-.5.3-.8.3Z"/>
      <path class="st0" d="M343.2,86.8c-.4,0-.9-.1-1.2-.3l-.2-.2c-3.1,3.1-6.4,6.3-9.5,9.3.1-.1.2-.1.3-.1.2-.1.3-.1.5-.1,2.2-.1,4.4-.1,6.6,0,.8,0,1.6.1,2.4.2,2.8-2.8,5.7-5.6,8.5-8.4-2.4-.1-5-.3-7.4-.4Z"/>
      <path class="st0" d="M499.1,9.4c2.9,0,5.9.1,8.8.1h.6c2.9-3,6-6,8.9-9h-9.6c-2.8,3-5.8,6-8.7,8.9Z"/>
      <path class="st0" d="M397.2,82.7c.1-1.4,0-3-.1-4.5,0-.3,0-.6-.2-.9-.5-1.2-1.8-1.1-2.9-1-10.2,10.3-20.5,20.6-30.8,30.7,2,.1,4.1.1,6.1.1s2.4,0,3.6-.1c5.6-5.6,11.1-11.1,16.7-16.7,2.5-2.4,5.1-5.1,7.6-7.6Z"/>
      <path class="st0" d="M390.2,76.4h-1.8c-.7,0-1.4,0-2-.3-1.1-.6-1-2.9-.9-4.6-11.7,11.6-23.6,23.4-35.3,35,1.2,0,2.3.1,3.4.1,1.9,0,3.9.1,5.9.1,7.6-7.5,15.2-15,22.8-22.6,2.6-2.5,5.4-5.2,8-7.8Z"/>
      <path class="st0" d="M376.9,107c2.6-.1,5.3-.1,7.8.1.2,0,.5,0,.7-.1.4-.1.7-.5.8-1,.4-1.6.2-3.7.2-5.5s-.3-2-.2-2.9c-3.1,3.1-6.3,6.3-9.3,9.4Z"/>
      <path class="st0" d="M338.9,20.5c-3.1-.1-6.2-.1-9.3-.2-6.5,6.5-13,13-19.4,19.4,0,.8-.1,1.5-.1,2.3s.4,1.1,1,1.2c.2.1.4.2.7.2,1.4,0,2.9-.1,4.4-.1,4.5-4.5,8.8-8.8,13.3-13.3,3.1-3.2,6.4-6.4,9.5-9.6Z"/>
      <path class="st0" d="M288.5,47.7c-3.1,3-6.2,6.2-9.3,9.2v3.4c0,2.2,0,4.4.1,6.6,3.1-3.1,6.2-6.2,9.3-9.3-.1-3.3-.1-6.7-.1-9.9Z"/>
      <path class="st0" d="M342.8,63.1c0-1.2,0-2.4.1-3.6h0c-16,15.6-32,31.3-48,46.9,1.4.1,2.9.1,4.4.2,1.6.1,3.3.1,5,.1,12.9-12.5,25.6-25,38.4-37.6.1-2,.1-3.9.2-6Z"/>
      <path class="st0" d="M288.6,79.8v-5.1c-3,3-6.1,6-9,9,0,1.4.1,2.8.1,4.2s.1,2.7.1,4.2c2.9-2.9,5.9-5.9,8.8-8.9,0-1.1,0-2.2,0-3.3Z"/>
      <path class="st0" d="M288.5,69.2v-7.8c-3.1,3-6.2,6.2-9.3,9.2,0,2.7.1,5.4.1,8.1v1.3l9.1-9.1c.1-.6.1-1.1.1-1.7Z"/>
      <path class="st0" d="M291.1,86.5c-.6,0-1.3-.1-1.8-.3-3.1,3.1-6.2,6.3-9.3,9.3.1.2.2.4.4.5.7.6,2.4.4,3.4.4,1.5,0,3.5-.5,5.2-.3,3.1-3.1,6.3-6.4,9.4-9.5-2.4,0-4.9,0-7.3-.1Z"/>
      <path class="st0" d="M537,60v-3.7c0-.3.1-.7-.1-1-.1-.2-.3-.4-.5-.5-.1,0-.3-.1-.4-.1-6.1,6.1-12,12.3-18.1,18.3,2,0,4.2.1,6.2.1s2,.1,3,.1c3.2-3.3,6.6-6.6,9.8-9.9.1-1,.1-2.1.1-3.2Z"/>
      <path class="st0" d="M521.7,41.4c3.1.1,6.3.2,9.4.2,3.1-3.1,6.2-6.2,9.3-9.3h-1.7c-.4-.1-.8-.4-1-.7-.7-1-.4-2.1-.3-3.3v-2.4c-5.3,5.3-10.5,10.4-15.7,15.6Z"/>
      <path class="st0" d="M528.5,54.6c-2.1,0-4.4,0-6.5-.1-5.2,5.1-10.2,10.2-15.4,15.3,0,.6,0,1.3.1,1.9,0,.2,0,.4.1.5.1.3.5.6.8.6.8.2,1.9,0,2.7,0h3.7c6.1-6.1,12-12.3,18.1-18.3-1.2.1-2.5.1-3.7.1Z"/>
      <path class="st0" d="M514.7,54.4c-2,0-3.9,0-6-.1-2.7,2.7-5.5,5.4-8.1,8.1h1.2c.8,0,1.7-.1,2.5-.1s.7,0,1.1.2c1.1.5,1.1,2.5,1.1,3.5,3.9-3.8,7.8-7.8,11.7-11.6-1.3.1-2.5,0-3.6,0Z"/>
      <path class="st0" d="M287.2.4c-1.7,0-3.4-.3-5.2-.3h-.5c-.4.4-.8.8-1.2,1.2-.1.8.1,1.7.1,2.3s-.2,1.4-.2,2.2c-.1,1.5-.1,3-.2,4.6,3.4-3.3,6.8-6.7,10.2-10-1.1.1-2,0-3,0Z"/>
      <path class="st0" d="M290.4,9.3c.2-.1.5-.1.8-.2,1.2-.1,2.4-.1,3.7-.1,2.1-2.1,4.3-4.3,6.4-6.3.7-.7,1.5-1.4,2.2-2.2-2.6,0-5.2-.1-7.8-.1h-1.8c-4.8,4.7-9.4,9.3-14.2,14-.1,2-.1,4.1-.2,6,0,1.2-.1,2.5-.1,3.7,3.1-3.1,6.3-6.2,9.4-9.3.2-1.3,0-4.9,1.5-5.5Z"/>
      <path class="st0" d="M288.5,23.2c0-1.4.1-2.8.2-4.3-3,3-6.2,6.1-9.2,9.1-.1,3.8-.2,7.7-.2,11.6,3-3,6.1-6.1,9.2-9.1-.1-2.4-.1-4.9,0-7.4Z"/>
      <path class="st0" d="M288.4,39.5v-5.2c-3,3-6.2,6.1-9.2,9.1,0,3.1,0,6.4-.1,9.5,3.1-3,6.2-6.1,9.3-9.2v-4.3Z"/>
      <path class="st0" d="M555,.4h-5.8c-3.1,3.1-6.2,6.3-9.3,9.4h4.7c1.5,0,2.9-.4,4.5-.2.2,0,.3.1.5.2,2.9-2.9,5.9-5.9,8.7-8.7-.5-1.3-2-.7-3.2-.7Z"/>
      <path class="st0" d="M386.2,22.2c-.1-1.1-.4-1.8.9-2.3.8-.3,1.7-.1,2.5-.1s1.7.1,2.5.1c1.6-1.6,3.2-3.2,4.9-4.8.1-1.6.1-3.1.2-4.8,0-.3,0-.6.2-.9.2-.3.6-.3.9-.3,1.5-.1,3.1-.1,4.7-.1,2.7-2.7,5.5-5.5,8.2-8.2h-9.6c-1.1,1.1-2.2,2.2-3.3,3.3-10.5,10.4-21.1,21-31.6,31.4v3.9c0,1.3.4,3.3-.9,4.1-.6.3-1.3.3-2,.3-1.8,0-3.6-.1-5.4-.1-1.2,1.2-2.4,2.3-3.5,3.5v2c0,.7-.2,2.6.6,3,.2.1.3.1.5.1h3.3c9-8.8,17.9-17.7,26.8-26.5,0-1.1.3-2.4.1-3.7Z"/>
      <path class="st0" d="M426.7,20.1c-1.4,0-2.8-.1-4.3-.1-1,1-2,2-3,2.9-3.8,3.8-7.8,7.7-11.7,11.5,0,.8,0,1.7-.1,2.5-.1,2.9-.1,5.8-.1,8.7,8.5-8.5,17-17,25.4-25.5-1.9,0-4.1,0-6.2-.1Z"/>
      <path class="st0" d="M385.6,36c.1-1.9.1-3.8.2-5.8-7.6,7.5-15.2,15.1-22.8,22.6h1.9c.2,0,.5,0,.7.1.9.4.7,2.4.7,3.2v2.1c6.4-6.3,12.7-12.5,18.9-18.7.3-1.3.3-2.4.3-3.5Z"/>
      <path class="st0" d="M442.9,23.7v-1.8c0-.2,0-.5-.2-.7,0,0,0-.1-.1-.1-.1-.1-.2-.2-.4-.3-1.6-.7-3.5-.7-5.4-.7-3.4,3.5-7,7-10.4,10.5-6.3,6.3-12.6,12.6-18.7,18.7,0,1.9,0,3.9.1,5.9,0,1.2.1,2.3.1,3.5,11.6-11.5,23.4-23.3,35-35Z"/>
      <path class="st0" d="M369.5,11.6c-1.5,0-3.6.3-5-.6-.1-.1-.2-.1-.2-.2-2.7,2.8-5.6,5.6-8.3,8.4.1,1.3.8,1.1,1.9,1,2.2-.1,4.4-.1,6.6,0,2.8-2.8,5.7-5.7,8.5-8.5-1.2-.1-2.3-.1-3.5-.1Z"/>
      <path class="st0" d="M345.2,30c-4.5,4.5-8.9,9-13.4,13.5,1.5,0,3,.1,4.6.2,1.4.1,2.9.3,4.5.3.3-.3.6-.6.9-.9,1.1-1.1,2.1-2.2,3.2-3.2.1-3.3.1-6.6.2-9.8Z"/>
      <path class="st0" d="M442.5,33.1c0-1.8.1-3.5.2-5.4-3.2,3.2-6.4,6.5-9.6,9.7-8.4,8.4-16.8,16.8-25.2,25.2h0c.1,2.3.2,4.6.2,6.9v2.3c11.4-11.5,22.9-23.1,34.3-34.5.1-1.5.1-2.9.1-4.3Z"/>
      <path class="st0" d="M392.5,1.1c-1.1,0-3.7-.7-4.5.5-.3.4-.1.9,0,1.4.1.8,0,1.7,0,2.5,0,1.6-.2,3.2-.3,4.9h0c0,.7-.4,1.3-1.2,1.3-3.2-.1-6.5-.1-9.7-.2-3.4,3.4-6.9,6.9-10.3,10.4.1,1.1.2,2.2.2,3.3,0,2.2,0,4.5.1,6.7,10.4-10.3,20.8-20.6,31.2-30.9h-5.5Z"/>
      <path class="st0" d="M509,22.2c-.4,0-.9-.1-1.3.1-.7.3-.5.9-.5,1.5s-.1,1.2-.1,1.9c1.1-1.1,2.3-2.3,3.4-3.4-.5-.1-1-.1-1.5-.1Z"/>
      <path class="st0" d="M338.9,55.6h-5.8c-6.9,7-13.8,13.9-20.8,20.9,0,.8,0,1.6-.1,2.5,0,2.3.2,4.9-1,7-.2.4-.5.7-.8.9-.3.1-.6.2-.9.3-1.2.2-2.4-.1-3.6-.2-1.3,0-2.5-.1-3.8-.1-3.6,3.6-7.3,7.3-10.9,10.9.4,1.3.1,3.5.1,4.7s-.4,2.7.2,3.4c17.1-16.7,34.1-33.4,51-50.1-.7-.5-2.8-.2-3.5-.2Z"/>
      <path class="st0" d="M534.8,41.7h10.1c2.6-2.7,5.4-5.5,8-8.1.4-.4.7-.8,1.1-1.1-3.3,0-6.6-.1-9.9-.1-3,3-6.2,6.2-9.3,9.3Z"/>
      <path class="st0" d="M522.6,22.8c-2.3-.1-4.7-.3-7-.4-.5,0-.9,0-1.4-.1-2.5,2.5-5,5.1-7.5,7.5,0,.8-.1,1.6-.1,2.5-.1,1.8-.1,3.5-.1,5.4s-.2,1.4-.2,2.1c5.7-5.7,11.2-11.3,16.9-17-.2,0-.4,0-.6,0Z"/>
      <path class="st0" d="M483.4,33c.1-2.3.1-4.6.2-6.9v-1.1c-6.7,6.7-13.4,13.4-19.9,20.1,0,3.1,0,6.4.1,9.5,6.6-6.6,13.2-13.2,19.6-19.8v-1.8Z"/>
      <path class="st0" d="M442,60.4c0-1.8,0-3.6.1-5.5-7,7-13.9,14-20.9,21,1.2,0,2.3-.1,3.5-.1h4.6c4.3-4.3,8.5-8.5,12.8-12.8-.1-.8-.1-1.7-.1-2.6Z"/>
      <path class="st0" d="M484.5,43.3c-.8,0-1.7-.2-1.6-1.2s.1-2,.2-3.1c-6.5,6.5-13,13.1-19.4,19.5,0,3.5,0,7,.1,10.5,8.5-8.5,17.1-17,25.6-25.5h-.3c-1.5-.1-3-.2-4.6-.2Z"/>
      <path class="st0" d="M442.3,41.9v-.8c-.5.5-1,1-1.6,1.6-10.7,10.8-21.5,21.7-32.2,32.4,0,.1.1.2.1.4.2.3.5.6.9.7h.5c2.4-.1,4.8-.2,7.2-.3,8.3-8.3,16.6-16.7,24.9-25,.1-3,.2-6,.2-9Z"/>
      <path class="st0" d="M533.5,22.9c-1.2.1-2.4.1-3.6.1h-2.9c-6.1,6.1-12,12.2-18.1,18.2,2.2-.1,4.4-.1,6.6,0,.9,0,1.7.1,2.6.1,6.2-6.2,12.4-12.3,18.5-18.4-1.1-.2-2.1-.1-3,0Z"/>
      <path class="st0" d="M549.8,76.8c.2-.2.3-.3.5-.5h-.1c-.3.1-.4.3-.4.5Z"/>
      <path class="st0" d="M590.2,20.1c.8-.8.5-2.8.6-3.8,0-.9.1-1.8.1-2.8v-1.3c-2.6,2.7-5.4,5.5-8,8.2h3.8c.9.1,2.6.5,3.4-.2Z"/>
      <path class="st0" d="M580.7,43.4c-.1-.1-.3-.2-.3-.4-1.1-1.7-.5-4.1-.5-6v-.5c-6.4,6.6-12.9,13.1-19.2,19.6v3c0,2.1.1,4.3.1,6.3v.2c4.7-4.7,9.2-9.4,13.9-14.1,2.6-2.7,5.3-5.4,7.9-8.1h-1.2c-.2,0-.4,0-.6-.1Z"/>
      <path class="st0" d="M556.3,52.4c.6-.1,1.2-.2,1.8-.2s.8,0,1.2.1c.2,0,.5.1.6.3q.1.1.1.2c2.6-2.6,5.2-5.3,7.8-7.9,4.1-4.2,8.1-8.2,12.2-12.4,0-.7,0-1.4.1-2,.1-1.9.1-3.7.2-5.7,0-.4-.1-1-.1-1.6-9.6,9.8-19.2,19.6-28.9,29.4,1.6,0,3.3,0,5-.2Z"/>
      <path class="st0" d="M593.4,86.1c-.5,0-1,0-1.4-.3-.5-.4-.6-1.1-.7-1.7-.2-1.6-.2-3.2-.2-4.9-5.5,5.5-10.9,10.9-16.3,16.4,1.8,0,3.7-.1,5.6-.1s2.8-.1,4.2-.1c3.1-3.1,6.3-6.3,9.3-9.4-.1.1-.3.1-.4.1Z"/>
      <path class="st0" d="M634.8,64.3c0-.7.1-1.5.1-2.3-3.8,3.8-7.7,7.7-11.5,11.5h3.6c1.3,0,2.5,0,3.8-.1.6,0,1.5.2,2.1,0,.3-.3.5-.5.8-.8.5-1,.5-2.6.5-3.5.4-1.5.5-3.1.5-4.8Z"/>
      <path class="st0" d="M597.6,86.1c-3,3.1-6.2,6.2-9.3,9.3h1.3c.9,0,1.7-.3,2.5-.1.4.1.8.3,1,.6.1.2.1.4.1.6.1,1,.2,1.9.3,2.9,4.5-4.5,8.8-8.8,13.3-13.3-3,0-6.1,0-9.2-.1Z"/>
      <path class="st0" d="M531,73.3c1.1.1,2.3.1,3.4.2.7,0,1.9.5,2.4-.2.6-.8.2-2.8.2-3.7v-2.5c-2,2.1-4.2,4.2-6.1,6.3-.1,0,0,0,0,0Z"/>
      <path class="st0" d="M439.5,76.1c.3,0,.5,0,.8-.1,2.3-.5,1.6-4.8,1.6-6.5v-2.6c-3,3-6,6-9,9,2.3.1,4.5.2,6.6.2Z"/>
      <path class="st0" d="M589.9,76c-2.2-.2-4.6-.3-6.8-.3s-1.9-.1-2.4-.6c-10.4,10.5-20.9,21.1-31.4,31.6,3.1,0,6.4.1,9.5.1h1.1c10.2-10.2,20.4-20.5,30.6-30.7-.2-.1-.4-.1-.6-.1Z"/>
      <path class="st0" d="M535.4,9.9h.7c3-3.1,6.2-6.2,9.2-9.3h-9.6c-3,3-6.1,6.2-9.1,9.2,3,0,5.9,0,8.8.1Z"/>
      <path class="st0" d="M519.8,9.6h3.1c.5-.6,1.1-1.1,1.7-1.7,2.4-2.5,5-5,7.4-7.5h-10.8c-3,3-6,6-9,9,2.5.1,5.1.2,7.6.2Z"/>
      <path class="st0" d="M580.1,68.3c0-1.2-.7-4.1.4-5,.6-.5,1.4-.5,2.2-.5,2,.1,4.1.1,6.2.2,2.9-2.9,6-6,8.9-8.9-2.1-.1-4.2-.2-6.3-.5-.2,0-.4-.1-.6-.1-.5-.3-.6-.9-.5-1.5-18,18.2-36.1,36.3-54.2,54.6h4.3c1.7,0,3.4.1,5.2.1,11.5-11.6,23.1-23.3,34.6-34.8-.1-1.3-.1-2.4-.2-3.5Z"/>
      <path class="st0" d="M635,58.1c0-.8-.1-1.6-.3-2.4-.1-.2-.1-.4-.3-.5-.1-.1-.3-.1-.4-.1-1.8-.2-3.6-.3-5.5-.3-6.1,6.2-12.3,12.5-18.3,18.6h1.6c2.5.1,5.1.1,7.7.1h.2c5.1-5.1,10.2-10.2,15.3-15.4Z"/>
      <path class="st0" d="M453.6,76.9c-.2,0-.5.1-.6.3-.3.3.1,1.2.1,1.6v.9c.9-.9,1.9-1.9,2.8-2.8-.8-.1-1.5-.1-2.3,0Z"/>
      <path class="st0" d="M311.9,20.2c-.2.1-.5.3-.6.5-.2.3-.4.7-.4,1.2.7-.7,1.4-1.4,2.1-2.1-.4.1-.8.2-1.1.4Z"/>
      <path class="st0" d="M314.6,55c-2,.3-1.5,1.8-1.6,3.4h0c1.2-1.1,2.3-2.2,3.5-3.4-.6-.1-1.3-.1-1.9,0Z"/>
      <path class="st0" d="M666.7,105c.2-2.6.1-5.2.1-7.8s.2-.7.5-.9c.2-.3.5-.4.9-.4h5.8c1.2,0,2.1.4,2.8-.8.9-1.7.3-3.9.3-5.9v-3.1c-6.7,6.8-13.4,13.7-20,20.5h6.2c.6,0,1.5.2,2.3.1.3-.3.7-.7,1-1,.1-.2.1-.4.1-.6Z"/>
      <path class="st0" d="M583,1.1c-.2.5-.2,1-.2,1.5v.3c.9-.9,1.8-1.8,2.6-2.7-1,0-2,.1-2.4.9Z"/>
      <path class="st0" d="M677.1,80.3v-7.8c-11,11.3-22.2,22.7-33.3,34h9.5c8-8.2,15.9-16.2,23.8-24.3,0-.7,0-1.3,0-1.9Z"/>
      <path class="st0" d="M677.2,59.3c-.1.1-.3.3-.4.4-15.2,15.6-30.4,31.2-45.7,46.8h9c12.6-12.8,24.8-25.3,37.1-37.9v-9.3Z"/>
      <path class="st0" d="M324.3,106.7c1.4,0,2.8,0,4.3-.1.9,0,1.9.4,2.4-.5.7-1.1.4-3,.5-4.3.1-1.8.1-3.5.2-5.4,0-.3.1-.5.2-.7-3.6,3.6-7.4,7.2-11,10.8,1.1.1,2.3.1,3.4.1Z"/>
      <path class="st0" d="M568,107c1,.1,1.5.3,1.9-.9.4-1.2.2-2.6.2-3.8v-1.7c-2.1,2.1-4.2,4.2-6.3,6.3,1.3,0,2.7,0,4.2.2Z"/>
      <path class="st0" d="M471.9,106.1c.1-.4.1-.8.1-1.2v-.7c-.9.8-1.7,1.7-2.6,2.5.9.1,2.1.3,2.5-.6Z"/>
      <path class="st0" d="M633.1,87c-3.1-.1-6.3-.2-9.4-.3-6.6,6.6-13.1,13.1-19.6,19.6,1.8,0,3.6,0,5.5.1h4.6c1.9-1.9,3.8-3.9,5.8-5.9,4.5-4.6,8.9-9.1,13.3-13.6Z"/>
      <path class="st0" d="M631.3,41.6c2.1.1,4.2.1,6.3.2,3-3,6-6.1,9-9.2-3.1,0-6.2-.1-9.3-.2-2.9,3-6,6.1-9,9.1,1,0,2,.1,3,.1Z"/>
      <path class="st0" d="M634.9,31.1c-.1-.4-.1-.8-.1-1.2,0-1.9,0-3.8-.2-5.8,0-.2,0-.5-.1-.7-.3-.6-.9-.7-1.7-.7-6.2,6.2-12.3,12.4-18.4,18.5,3.4.1,6.9.2,10.3.3,3.4-3.5,6.8-7,10.2-10.4Z"/>
      <path class="st0" d="M608.3,54.3c-2.2-.1-4.6-.1-6.8-.1-2.9,2.9-5.9,6-8.9,8.9,2.7.1,5.5.1,8.1.2.7,0,1.4,0,2,.3h0c3-3,6.1-6.2,9.1-9.2-1.2-.1-2.4-.1-3.5-.1Z"/>
      <path class="st0" d="M620,86.6c-3.1-.1-6.3-.1-9.3-.2-5.6,5.6-11.2,11.2-16.9,16.8,0,1.1,0,2.2.8,2.7.3.2.8.2,1.2.2,1.5,0,3,0,4.6.1,4.5-4.5,8.9-8.9,13.4-13.4,2.1-2,4.3-4.2,6.3-6.3Z"/>
      <path class="st0" d="M615.5,54.5c-3.8,3.8-7.7,7.8-11.5,11.6.1,1.1-.1,2.3-.1,3.1,0,1.3-.5,2.5.6,3.5.5.5,1.2.6,1.8.6,6.1-6.2,12.3-12.4,18.4-18.6-3,0-6.1-.1-9.2-.3Z"/>
      <path class="st0" d="M396.1,20c.3-.1.5-.4.6-.7-.3.3-.5.5-.6.7q-.1.1,0,0Z"/>
      <path class="st0" d="M626.5,22.8h-7.2c-4.9,5-9.7,9.8-14.7,14.8,0,.9-.1,1.9,0,2.7,0,.2.1.4.2.5.1.1.2.1.3.1,1.7.4,3.5.4,5.4.3,6.1-6.2,12.2-12.3,18.3-18.4-.7,0-1.5,0-2.3,0Z"/>
      <path class="st0" d="M607,22.3c-.9.9-1.7,1.7-2.6,2.6h0c0,.9.1,1.8.1,2.7s.1,2.5.1,3.7v2.2c3.6-3.6,7.3-7.4,11-11-2.8-.2-5.7-.4-8.6-.3Z"/>
      <path class="st0" d="M657.1,76c-1.3.2-2.8,0-4.2,0s-1.9-.1-2.9-.1-1.4-.2-2.1-.2c-.4.4-.7.8-1.1,1.1-.1.6,0,1.3,0,1.7v3.3c0,1.3.2,3.8-.8,4.9-.6.6-1.5.6-2.4.6-2.2-.1-4.5-.2-6.7-.2-6.3,6.5-12.7,12.9-18.9,19.3h9.5c9.8-10.1,19.7-20.3,29.7-30.5h0Z"/>
      <path class="st0" d="M445.1,1.2c-1.3,0-2.5,0-3.8-.1-2.8,2.8-5.7,5.7-8.6,8.5h.6c3,.1,6.1.1,9.2.2h.8c2.8-2.8,5.7-5.7,8.5-8.5-2.2,0-4.5-.1-6.7-.1Z"/>
      <path class="st0" d="M415.2,1c-2.7,2.7-5.5,5.5-8.2,8.2,1.2,0,2.3.1,3.5.1s3,.1,4.6.1h.8c2.8-2.8,5.7-5.6,8.4-8.4-3,0-6.1,0-9.1,0Z"/>
      <path class="st0" d="M428,1c-2.8,2.8-5.7,5.7-8.5,8.4,3.1.1,6.3.1,9.4.2,2.8-2.8,5.7-5.7,8.5-8.5-3,0-6.2-.1-9.4-.1Z"/>
      <path class="st0" d="M493.7,52.5c0-.3.1-.7.1-1,.1-1,.2-2,.2-3v-2.3c0-.6.1-1.4-.2-2-.1-.2-.2-.3-.4-.4-.1,0-.2-.1-.4-.1-9.2,9.2-18.5,18.5-27.7,27.7s-1,.9-1.4,1.4v2.3c0,.4,0,.7-.2,1-.4.6-1.3.7-2,.7h-1.8c-2.3,2.3-4.6,4.6-6.9,6.9-.1.7-.3,1.4-.6,2.1-.1.3-.2.5-.4.8-.6.7-1.7.8-2.7.8-6.5,6.4-12.9,12.8-19.3,19.1h9.6c18-17.9,36.1-35.9,54.3-54.1Z"/>
      <path class="st0" d="M439.8,87.1c-1.5,0-3,0-4.5-.1-6.5,6.5-13,13-19.3,19.5h9.9c6.5-6.5,13.1-12.9,19.5-19.3-1.9,0-3.7,0-5.7-.1Z"/>
      <path class="st0" d="M459.6,1.5c-1.4,0-2.7-.1-4.2-.1-2.7,2.8-5.6,5.6-8.3,8.4,1.4,0,2.8,0,4.2.2.4.1.9.2,1.2.6.1.2.1.4.1.6.1.9.1,1.8.1,2.6,2.8-2.8,5.7-5.8,8.5-8.6.1-1.7.1-3.6-1.6-3.7Z"/>
      <path class="st0" d="M418.4,86.8c-2.6-.1-5.3-.1-7.9-.2-3.7,3.7-7.6,7.6-11.3,11.3-.1,1.6,0,3.3.1,5,.1.7-.2,2.1.1,2.9.8-.8,1.7-1.7,2.5-2.5,5.7-5.6,11.1-11,16.5-16.5Z"/>
      <path class="st0" d="M403.6,86.3c-1.4-.1-2.8-.1-4.2-.2-.4,0-.8,0-1.1-.2-.1-.1-.2-.1-.4-.2-3.2,3.2-6.6,6.6-9.8,9.8,1.1-.3,2.5-.1,3.5-.1,1.9,0,4.1-.1,6,.2,3-3.1,6.2-6.2,9.2-9.3-1,.1-2.1.1-3.2,0Z"/>
      <path class="st0" d="M422.1,86.8c-6.5,6.6-13.1,13.2-19.5,19.6h9.5c6.5-6.5,13-13.1,19.4-19.5-3.1,0-6.3,0-9.4-.1Z"/>
      <path class="st0" d="M468.3,10.6c-1.7,0-3.5,0-5.3-.1-.2,0-.5,0-.7-.1-.6-.2-.9-.7-1-1.3-2.9,2.9-5.8,5.9-8.7,8.8,0,.7.2,1.4.7,1.7.4.2.9.3,1.4.3,1.6.1,3.3,0,5-.1,3-3,6.1-6.2,9.1-9.2-.2,0-.4,0-.5,0Z"/>
      <path class="st0" d="M489.8.6c-.9,0-3.3-.5-3.9.4-.2.2-.2.5-.2.8-.1,1.7-.1,3.4-.1,5.3,2.1-2.1,4.3-4.3,6.4-6.5-.7,0-1.4,0-2.1,0Z"/>
      <path class="st0" d="M478.9,10.5c-1.8,0-3.5.1-5.4.1h-1c-3.2,3.2-6.5,6.6-9.7,9.8,1.1,1.1.6,4.2.6,5.5v3.5c6.2-6.3,12.5-12.6,18.6-18.8-1,0-2-.2-3.1-.1Z"/>
      <path class="st0" d="M348.8.9c-2.9,2.9-5.9,5.9-8.7,8.8,3.1,0,6.4,0,9.5.1,2.9-2.9,5.9-5.9,8.7-8.8-3.2,0-6.4,0-9.5-.1Z"/>
      <path class="st0" d="M363.5,4.7c.1-.9.7-2.3.2-3.2-.4-.7-.9-.4-1.5-.4h-.1c-2.9,2.9-5.9,6-8.9,8.9.4,0,.8.1,1.3.1s.7.1.9.2c1.3.8.9,3.2.7,4.8,2.4-2.4,4.9-4.9,7.3-7.4,0-.8,0-1.9.1-2.9Z"/>
      <path class="st0" d="M483.4,73.2c.1-1,.1-2.1.1-3.1v-3.6c-3.8,3.8-7.8,7.8-11.6,11.6-9.6,9.5-19.1,19-28.8,28.6h9c10.6-10.5,21.4-21.1,32-31.7-.9-.3-.8-1-.7-1.7Z"/>
      <path class="st0" d="M590.7,47.7c0-1.1,0-2.2-.2-3.2-.1-.3-.2-.7-.5-.8-1-.4-2.5-.2-3.7-.1-8.5,8.7-17,17.3-25.5,25.9v5.8c0,.1,0,.2-.1.4-.1.1-.2.2-.3.3-1,.5-2.1.5-3.3.5s-2,0-3-.1c-1.4,1.4-2.8,2.9-4.3,4.4,0,1-.1,1.9-.1,2.9s.2,2.2-.6,2.6c-.4.2-.8.2-1.2.2h-3.7c-6.6,6.7-13.2,13.4-19.7,19.9,2.6,0,5.4,0,8,.1,16-16.2,31.9-32.2,47.8-48.2,3.5-3.5,7.1-7.1,10.6-10.6Z"/>
      <path class="st0" d="M345.1.9c-3.1,0-6.2,0-9.3-.1-2.9,2.9-5.9,5.9-8.8,8.8,3.1,0,6.3.1,9.3.1,2.9-2.9,5.9-5.9,8.8-8.8Z"/>
      <path class="st0" d="M495.5,86.1c-.4,0-.8,0-1.2-.2-.7-.4-.3-1-.3-1.6.1-.7,0-1.4,0-2.1-2.5,2.5-5.2,5.1-7.7,7.6-2.1,2.1-4.3,4.2-6.4,6.3h11c3.3-3.3,6.7-6.8,10-10.1-1.7.2-3.5.2-5.5.2Z"/>
      <path class="st0" d="M472.2,97.8c.1-.5.3-1,.6-1.3.5-.6,2.1-.6,3.6-.5,5.9-5.9,11.7-11.6,17.6-17.5,0-.7-.1-1.4-.1-2.2s-.1-.6-.3-.8c-.2-.2-.4-.2-.7-.3-.8-.1-1.6-.1-2.4-.1h-2.8c-2.6,2.6-5.4,5.4-8,8-7.9,7.8-15.8,15.7-23.8,23.5h9.6c2.1-2.1,4.3-4.2,6.3-6.3.2-.7.2-1.5.4-2.4Z"/>
      <path class="st0" d="M489.8,19.3h2.3c.5,0,1,.3,1.5-.1.5-.6.3-2,.4-2.7,0-.6,0-1.3.1-1.9-1.6,1.6-3.1,3.1-4.8,4.8.1,0,.2,0,.4,0Z"/>
      <path class="st0" d="M518.4,85.9c-6.2,6.2-12.3,12.4-18.4,18.5-.6.6-1.1,1.1-1.7,1.7,3,.1,6,.1,9,.1,6.7-6.8,13.4-13.5,20-20.3-2.9-.1-6-.1-8.9-.1Z"/>
      <path class="st0" d="M536.2,86.2c-1.7,0-3.4-.1-5.2-.1-6.7,6.8-13.4,13.5-19.9,20.1h9.4c6.6-6.7,13.2-13.4,19.7-20h-4.1Z"/>
      <path class="st0" d="M509,85.9c-1.3,0-2.6,0-4.1.1-3.4,3.4-6.8,6.9-10.2,10.3.1,0,.2.1.2.1.3.2.6.6.6.9.3,1.2.2,2.5.3,3.7,0,.9.2,1.8.1,2.7,0,.3-.1.6-.1.9,6.3-6.3,12.5-12.6,18.7-18.8-1.8,0-3.7,0-5.6,0Z"/>
      <path class="st0" d="M385.3,52.9c0-3.2.1-6.4.1-9.6-6.3,6.2-12.6,12.4-18.8,18.6,0,2.8.1,5.7.1,8.4v1c.5-.5,1-1,1.6-1.5,5.7-5.7,11.3-11.2,17-16.9Z"/>
      <path class="st0" d="M647.2,49.7c0,.5.1,1.1.2,1.6,0,.2,0,.3.2.5.1.1.3.2.5.2,2.1.2,4.3,0,6.5,0,7.6-7.6,15.1-15.2,22.7-22.8v-3.8c0-1.1.4-3.3-1-3.7-.2-.1-.5-.1-.8-.1-5.8,5.9-11.6,11.7-17.5,17.6-3.6,3.4-7.2,7-10.7,10.5Z"/>
      <path class="st0" d="M658.4,25.1c0,2,0,4.1-.1,6.1,0,.4-.2.9-.5,1.2s-.7.4-1.1.5c-1.4.3-2.6-.3-4.1-.3h-2.2c-.7.7-1.4,1.4-2,2.1-2.3,2.3-4.7,4.8-7,7.1,1.9-.1,5-.3,5.7,1.3.3.6.2,1.2.2,1.9v.9c8.1-8.1,16.1-16.2,24.2-24.3-1.1,0-2.3.1-3.4.1s-1.2-.6-1.2-1.2c-.1-1.4-.1-2.8-.2-4.3-2.7,2.7-5.4,5.6-8.1,8.3-.1.1-.1.3-.1.5Z"/>
      <path class="st0" d="M642,9.5c2.9-3,6-6,8.9-9h-9.5c-2.9,3-6,6.1-9,9.1,3.2,0,6.5-.1,9.6-.1Z"/>
      <path class="st0" d="M619.6,9.4c3,.1,6,.1,9,.1,3-3,6-6.1,9-9h-9.2l-3,3c-1.9,1.9-3.8,3.9-5.8,5.9Z"/>
      <path class="st0" d="M655.2,19.2c.5,0,1,0,1.4.1.5.1.9.3,1.2.7.2.3.3.6.3.9,2.7-2.7,5.4-5.5,8.1-8.2-.1-.8-.4-1.5-1.1-1.7-.9-.3-2.3-.1-3.2-.1s-2.2.2-3.5.1c-2.7,2.8-5.5,5.6-8.1,8.3,1.6,0,3.2,0,5-.1Z"/>
      <path class="st0" d="M646.8,10.3c.1.3.2.6.2.9v3.9c0,1.2-.3,2.5,0,3.6h0c3-3,6.1-6.1,9.1-9.2v-.8c.1-2.3.1-4.6.2-6.9,0-.3,0-.5-.1-.8-.2-.6-.7-.7-1.2-.7-3,3-6.1,6.1-9.1,9.1.3.2.7.4.9.8Z"/>
      <path class="st0" d="M608.4,9.2c2.5.1,5,.1,7.5.2,2.9-2.9,5.8-6,8.7-8.9h-9.4c-2.8,2.9-5.7,5.8-8.5,8.7h1.7Z"/>
      <path class="st0" d="M496.7,62.5c2.7-2.7,5.5-5.5,8.2-8.2h-9.1c-2.7,2.7-5.6,5.5-8.3,8.3,3.1-.1,6.2,0,9.2-.1Z"/>
      <path class="st0" d="M385.3,56.7c-6.2,6.2-12.5,12.3-18.6,18.3,0,3.8-.1,7.7-.6,11.3,0,.3-.1.6-.2.8,3.2-3.2,6.5-6.4,9.7-9.6s6.6-6.6,9.8-9.8c0-1.6-.1-3.2-.1-4.9v-6.2Z"/>
      <path class="st0" d="M658.3,65.1c-.1,3.4-.3,6.8-.6,10.2h0c6.5-6.6,13-13.3,19.4-19.9v-9.7c-2.4,2.4-4.8,4.9-7.1,7.4-3.8,3.9-7.8,8-11.7,12Z"/>
      <path class="st0" d="M658.1,52.4c.1.1.1.2.1.3.1.2.1.4.1.6.1.6,0,1.2,0,1.8,0,1,.1,1.9.1,2.9v3.2c6.3-6.5,12.6-13,18.8-19.4v-8.7c-4.2,4.3-8.4,8.5-12.7,12.8-2.1,2-4.4,4.3-6.5,6.5Z"/>
      <path class="st0" d="M549.9,18.1c0,.4,0,.9.4,1.1.2.2.5.2.8.3.6.1,1.3.1,1.9.1,2.6-2.6,5.4-5.4,8-8-.3,0-.6-.1-.8-.1-.5-.1-.9-.1-1.3-.4-.4-.4-.5-1.1-.5-1.7.1-1.5,0-3.1,0-4.7-2.8,2.8-5.7,5.7-8.5,8.5-.1,1.7,0,3.3,0,4.9Z"/>
      <path class="st0" d="M582.7,8.3c0,.8,0,1.6-.4,2.2-.7,1.2-2.7.9-4.1,1-5.8,6-11.6,11.8-17.4,17.8v.6c0,.7.1,1.5-.6,1.9-.3.2-.7.3-1.1.4-.5.1-.9.1-1.4.1-3.1,3.1-6.2,6.4-9.3,9.5.5.1.9.2,1.1.7.1.3.1.6.2.9v6.8c3.2-3.3,6.6-6.7,9.8-10,13-13.2,25.9-26.4,38.9-39.8h-9.4c-2.1,2.2-4.3,4.4-6.4,6.6.1.3.1.7.1,1.2Z"/>
      <path class="st0" d="M559.8,19.9c.3,0,.7.1.9.4.1.1.1.3.1.5.2,1.6.1,3.1,0,4.8,4.5-4.6,8.9-9.1,13.4-13.7-.8,0-1.6.1-2.4.1-2.3.1-4.8.1-7.2,0-2.6,2.6-5.2,5.2-7.8,7.8,1-.1,2,0,3,.1Z"/>
      <path class="st0" d="M603,9.1c2.8-2.8,5.7-5.8,8.4-8.6h-9.1c-2.7,2.8-5.6,5.7-8.3,8.5,3-.1,6,0,9,.1Z"/>
      <path class="st0" d="M365.7,87.3h.1c-.1,0-.2.1-.2.1,0,0,.1,0,.1-.1Z"/>
      <path class="st0" d="M657.5,75.8c.1-.1.1-.2.1-.4-.2.2-.3.3-.5.5.2.1.3,0,.4-.1Z"/>
      <path class="st0" d="M331.9,95.9c.1-.1.2-.2.3-.3-.1.1-.2.2-.3.3Z"/>
    </g>
  </g>
  <g>
    <path class="st0" d="M156,140.5v3.2h9.7v-4.9c-.1-.6-.4-1-.9-1h-.9c-1.3,0-2-.9-2-2.8s.3-1.8.8-2.4c.6-.6,1.3-.9,2.2-.9s1.5.1,2.8.2c1.2.2,2.1.2,2.8.2s1.8-.1,3-.2c2.1-.2,3.1-.3,3.1-.3,1,0,1.8.3,2.4.9s.9,1.4.9,2.5-.2,1.6-.7,2.2c-.5.6-1.1.9-1.8.9s-.6-.1-1.1-.2c-.5-.1-.8-.2-1.1-.2-.6,0-1,.4-1.2,1.1-.1.3-.1.9-.1,1.9v12.9c0,2.1.4,3.1,1.2,3.1s.6-.1,1.1-.2c.5-.1.9-.2,1.1-.2.7,0,1.3.3,1.8.9.5.6.7,1.3.7,2.2s-.3,1.8-.9,2.5c-.6.6-1.4.9-2.4.9h-.4c-.6,0-1.5-.1-2.8-.2-1.2-.2-2.2-.2-2.8-.2-1.2,0-2.2.1-3,.2-1.3.2-2.1.3-2.7.3-.9,0-1.6-.3-2.2-.9s-.8-1.4-.8-2.5c0-1.9.7-2.8,2-2.8h.9c.5,0,.8-.3.9-1v-6.2h-9.7v6.2c.1.6.4,1,.9,1h.9c1.3,0,2,.9,2,2.8s-.3,1.8-.8,2.5c-.6.6-1.3.9-2.2.9s-1.4-.1-2.5-.2c-1.1-.2-2-.2-2.5-.2-1.3,0-2.5.1-3.4.2-1.5.2-2.5.3-3.1.3-1,0-1.8-.3-2.4-.9s-.9-1.4-.9-2.4.2-1.6.7-2.2c.5-.6,1.1-.9,1.8-.9s.6.1,1.1.2c.5.1.8.2,1.1.2.8,0,1.2-1,1.2-3.1v-12.9c0-2-.4-3.1-1.2-3.1s-.6.1-1.1.2c-.5.1-.8.2-1.1.2-.7,0-1.3-.3-1.8-.9-.5-.6-.7-1.3-.7-2.2s.3-1.8.9-2.4,1.4-.9,2.4-.9,1.3.1,2.9.3c1.1.1,2.2.2,3.3.2s1.8-.1,2.7-.2c1.2-.2,2.1-.3,2.6-.3.9,0,1.7.3,2.2.9.6.6.8,1.4.8,2.5,0,1.8-.7,2.8-2,2.8h-.9c-.5,0-.8.3-.9,1,.1-.2.1.3.1,1.3Z"/>
    <path class="st0" d="M204.7,149.3c0,1.3-.2,2.1-.5,2.6-.3.4-1,.6-1.9.6h-11.3c-.6,0-.9.1-1,.2-.1.1-.2.4-.2.8,0,1.3.4,2.4,1.2,3.2.8.9,1.9,1.3,3.1,1.3s2.6-.7,3.9-2.1c.9-1,1.9-1.5,3-1.5s1.7.3,2.2.8c.6.5.8,1.2.8,2,0,1.8-1,3.3-2.9,4.6s-4.4,1.9-7.2,1.9-6.6-1.1-8.8-3.3-3.3-5.2-3.3-8.9,1.1-6.8,3.2-9.1c2.2-2.3,5.1-3.4,8.6-3.4s5.9.9,7.9,2.8c2.1,1.8,3.1,4.4,3.1,7.5ZM189.9,147c0,.2,0,.3.1.5.1.1.4.2,1,.2h5.2c.5,0,.7-.1.8-.2.1-.1.2-.3.2-.6,0-.8-.4-1.5-1.1-2.1-.7-.6-1.5-.9-2.5-.9s-2.2.5-3,1.4c-.4.7-.6,1.2-.6,1.7Z"/>
    <path class="st0" d="M217.6,146.5l3.1,10,3.1-9.5c.2-.7.4-1.3.4-1.7s-.2-.6-.7-.8l-.8-.3c-.6-.2-1-.9-1-1.9s.2-1.4.7-1.9c.4-.5,1-.8,1.7-.8s1.2.1,2.1.2c.9.1,1.7.2,2.1.2s1.2-.1,2.2-.2c1-.1,1.7-.2,2.2-.2,1.8,0,2.8,1,2.8,3s-.2,1.3-.6,1.9c-.4.5-.9.8-1.5.8s-.3,0-.6-.1-.5-.1-.6-.1c-.6,0-1,.5-1.3,1.4l-.6,1.6-3.9,10.4c-1.2,3.2-2.1,5.3-2.5,6.3-.5.9-1.2,2-2,3.1-2.4,3.1-5.5,4.7-9.1,4.7s-4.1-.5-5.5-1.6c-1.4-1-2.1-2.4-2.1-4.1s.4-2.1,1.1-2.8c.7-.7,1.6-1.1,2.7-1.1s1.7.3,2.3.8c.6.6.9,1.3.9,2.2s0,.7-.1,1c.4.2.8.3,1.1.3.8,0,1.6-.5,2.4-1.5.7-1,1.1-1.8,1.1-2.5s-.5-2.2-1.6-4.7l-5.2-12.3c-.4-.9-.7-1.3-1.1-1.3,0,0-.3,0-.7.1h-.4c-1.6,0-2.3-.9-2.3-2.6s.3-1.6.8-2.2c.5-.6,1.2-.9,2-.9s1.2.1,2.2.2c1,.1,1.7.2,2.2.2s1.6-.1,2.9-.2c1.4-.1,2.1-.2,2.2-.2,1.7,0,2.5.9,2.5,2.7s-.6,2-1.9,2.2c-.6.1-1,.4-1,.8-.3.3-.2.7,0,1.3Z"/>
    <path class="st0" d="M248,151c-.2,1.5-.9,2.3-2.2,2.3h-1.8c-1.3,0-2-.8-2.2-2.3l-1.4-15c-.1-.9-.1-1.6-.1-1.8,0-2.1,1.5-3.1,4.7-3.1s4.7,1,4.7,3.1,0,1.2-.1,1.8l-1.4,15ZM244.9,163.7c-1.2,0-2.2-.4-3-1.3-.9-.9-1.3-1.9-1.3-3.1s.4-2.2,1.3-3.1,1.9-1.3,3-1.3,2.2.4,3.1,1.3,1.3,1.9,1.3,3.1-.4,2.2-1.3,3.1-1.9,1.3-3.1,1.3Z"/>
    <path class="st0" d="M281.7,140.5v3.2h9.7v-4.9c-.1-.6-.4-1-.9-1h-1c-1.3,0-2-.9-2-2.8s.3-1.8.8-2.4c.6-.6,1.3-.9,2.2-.9s1.5.1,2.8.2c1.2.2,2.1.2,2.8.2s1.8-.1,3-.2c2.1-.2,3.1-.3,3.1-.3,1,0,1.8.3,2.4.9.6.6.9,1.4.9,2.5s-.2,1.6-.7,2.2c-.5.6-1.1.9-1.8.9s-.6-.1-1.1-.2c-.5-.1-.8-.2-1.1-.2-.6,0-1,.4-1.2,1.1-.1.3-.1.9-.1,1.9v12.9c0,2.1.4,3.1,1.2,3.1s.6-.1,1.1-.2c.5-.1.9-.2,1.1-.2.7,0,1.3.3,1.8.9.5.6.7,1.3.7,2.2s-.3,1.8-.9,2.5c-.6.6-1.4.9-2.4.9h-.4c-.6,0-1.5-.1-2.8-.2-1.2-.2-2.2-.2-2.8-.2-1.2,0-2.2.1-3,.2-1.3.2-2.1.3-2.7.3-.9,0-1.6-.3-2.2-.9-.6-.6-.8-1.4-.8-2.5,0-1.9.7-2.8,2-2.8h.9c.5,0,.8-.3.9-1v-6.2h-9.7v6.2c.1.6.4,1,.9,1h.9c1.3,0,2,.9,2,2.8s-.3,1.8-.8,2.5c-.6.6-1.3.9-2.2.9s-1.4-.1-2.5-.2c-1.1-.2-2-.2-2.5-.2-1.3,0-2.5.1-3.4.2-1.5.2-2.5.3-3.1.3-1,0-1.8-.3-2.4-.9-.6-.6-.9-1.4-.9-2.4s.2-1.6.7-2.2c.5-.6,1.1-.9,1.8-.9s.6.1,1.1.2c.5.1.8.2,1.1.2.8,0,1.2-1,1.2-3.1v-12.9c0-2-.4-3.1-1.2-3.1s-.6.1-1.1.2c-.5.1-.8.2-1.1.2-.7,0-1.3-.3-1.8-.9-.5-.6-.7-1.3-.7-2.2s.3-1.8.9-2.4c.6-.6,1.4-.9,2.4-.9s1.3.1,2.9.3c1.1.1,2.2.2,3.3.2s1.8-.1,2.7-.2c1.2-.2,2.1-.3,2.6-.3.9,0,1.7.3,2.2.9.6.6.8,1.4.8,2.5,0,1.8-.7,2.8-2,2.8h-.9c-.5,0-.8.3-.9,1,.2-.2.2.3.2,1.3Z"/>
    <path class="st0" d="M317.7,139.6c.9,0,1.3.6,1.3,1.8v14c0,1.6.3,2.3.9,2.3s.3,0,.7-.1c.3-.1.6-.1.8-.1,1.3,0,1.9.8,1.9,2.4s-.9,3.2-2.7,3.2-1.2-.1-2.6-.2c-.9-.1-1.8-.1-2.9-.1s-1.4.1-2.4.2c-1.1.1-1.9.2-2.4.2-.8,0-1.5-.3-2-.8-.5-.6-.8-1.3-.8-2.2,0-1.7.7-2.6,2.2-2.6l1.2.3h.3c.6,0,.8-.9.8-2.6v-7.5c0-1.7-.3-2.6-.8-2.6s-.4.1-.8.2c-.3.1-.6.1-.7.1-1.5,0-2.2-.9-2.2-2.6s.3-1.7.8-2.2c.5-.6,1.2-.8,2.1-.8s.8,0,1.5.1c1.1.2,1.9.2,2.6.2s1.2-.1,2-.2c.6-.3,1.1-.3,1.2-.3ZM315,137.7c-1.1,0-2.1-.4-2.9-1.2s-1.2-1.8-1.2-2.9.4-2.1,1.2-3c.8-.8,1.8-1.2,3-1.2s2.1.4,3,1.2c.8.8,1.2,1.8,1.2,3s-.4,2.1-1.2,3c-.9.7-1.9,1.1-3.1,1.1Z"/>
    <path class="st0" d="M336.6,151c-.2,1.5-.9,2.3-2.2,2.3h-1.8c-1.3,0-2-.8-2.2-2.3l-1.4-15c-.1-.9-.1-1.6-.1-1.8,0-2.1,1.5-3.1,4.7-3.1s4.7,1,4.7,3.1,0,1.2-.1,1.8l-1.4,15ZM333.4,163.7c-1.2,0-2.2-.4-3-1.3-.9-.9-1.3-1.9-1.3-3.1s.4-2.2,1.3-3.1c.9-.9,1.9-1.3,3-1.3s2.2.4,3.1,1.3c.9.9,1.3,1.9,1.3,3.1s-.4,2.2-1.3,3.1c-.8.9-1.9,1.3-3.1,1.3Z"/>
    <path class="st0" d="M370.2,140.5v3.2h9.7v-4.9c-.1-.6-.4-1-.9-1h-1c-1.3,0-2-.9-2-2.8s.3-1.8.8-2.4c.6-.6,1.3-.9,2.2-.9s1.5.1,2.8.2c1.2.2,2.1.2,2.8.2s1.8-.1,3-.2c2.1-.2,3.1-.3,3.1-.3,1,0,1.8.3,2.4.9.6.6.9,1.4.9,2.5s-.2,1.6-.7,2.2c-.5.6-1.1.9-1.8.9s-.6-.1-1.1-.2c-.5-.1-.8-.2-1.1-.2-.6,0-1,.4-1.2,1.1-.1.3-.1.9-.1,1.9v12.9c0,2.1.4,3.1,1.2,3.1s.6-.1,1.1-.2c.5-.1.9-.2,1.1-.2.7,0,1.3.3,1.8.9.5.6.7,1.3.7,2.2s-.3,1.8-.9,2.5c-.6.6-1.4.9-2.4.9h-.4c-.6,0-1.5-.1-2.8-.2-1.2-.2-2.2-.2-2.8-.2-1.2,0-2.2.1-3,.2-1.3.2-2.1.3-2.7.3-.9,0-1.6-.3-2.2-.9-.6-.6-.8-1.4-.8-2.5,0-1.9.7-2.8,2-2.8h.9c.5,0,.8-.3.9-1v-6.2h-9.7v6.2c.1.6.4,1,.9,1h.9c1.3,0,2,.9,2,2.8s-.3,1.8-.8,2.5c-.6.6-1.3.9-2.2.9s-1.4-.1-2.5-.2c-1.1-.2-2-.2-2.5-.2-1.3,0-2.5.1-3.4.2-1.5.2-2.5.3-3.1.3-1,0-1.8-.3-2.4-.9-.6-.6-.9-1.4-.9-2.4s.2-1.6.7-2.2c.5-.6,1.1-.9,1.8-.9s.6.1,1.1.2c.5.1.8.2,1.1.2.8,0,1.2-1,1.2-3.1v-12.9c0-2-.4-3.1-1.2-3.1s-.6.1-1.1.2c-.5.1-.8.2-1.1.2-.7,0-1.3-.3-1.8-.9-.5-.6-.7-1.3-.7-2.2s.3-1.8.9-2.4c.6-.6,1.4-.9,2.4-.9s1.3.1,2.9.3c1.1.1,2.2.2,3.3.2s1.8-.1,2.7-.2c1.2-.2,2.1-.3,2.6-.3.9,0,1.7.3,2.2.9.6.6.8,1.4.8,2.5,0,1.8-.7,2.8-2,2.8h-.9c-.5,0-.8.3-.9,1,.2-.2.2.3.2,1.3Z"/>
    <path class="st0" d="M408.2,163.7c-3.8,0-6.8-1.1-8.9-3.2-2.1-2.1-3.1-5.3-3.1-9.1s1-7,3.1-9.1c2-2.2,5-3.2,8.7-3.2s6.6,1.1,8.7,3.2c2.1,2.1,3.1,5.2,3.1,8.9s-1,7.1-3,9.3c-2,2.1-4.9,3.2-8.6,3.2ZM408.1,144.6c-1.3,0-2.4.6-3.2,1.8-.8,1.2-1.2,2.8-1.2,4.9s.4,3.7,1.2,5c.8,1.2,1.9,1.7,3.3,1.7,2.8,0,4.4-2.2,4.4-6.7-.1-4.5-1.5-6.7-4.5-6.7Z"/>
    <path class="st0" d="M432.2,146.6l2,9.9,2.9-13.7c.3-1.3.8-2.2,1.4-2.7.6-.4,1.7-.7,3.3-.7s3,.2,3.6.7c.6.4,1,1.5,1.4,3.2l2.6,13.2,2.4-10.4c.1-.2.1-.5.1-.6,0-.5-.4-.7-1.1-.7-1.5,0-2.2-.9-2.2-2.6s.9-2.7,2.6-2.7,1.3.1,2.3.2c1,.1,1.8.2,2.3.2s1.2-.1,2.2-.2c1-.1,1.7-.2,2.2-.2.8,0,1.4.3,1.9.8s.7,1.2.7,2.1-.2,1.4-.6,1.9-.9.8-1.5.8h-.5c-.4-.1-.7-.1-.7-.1-.4,0-.7.6-1.1,1.7,0,0-.1.5-.4,1.3l-3.8,12.1c-.6,2-1.4,2.9-2.4,2.9s-.8,0-1.4-.1-1.1-.1-1.4-.1-.7,0-1.3.1c-.6.1-1,.1-1.3.1-1.1,0-1.9-1.2-2.4-3.6l-2.2-12.3-2.7,11.8c-.4,1.7-.7,2.8-1,3.3-.3.4-.7.7-1.4.7s-.8,0-1.4-.1-1.1-.1-1.5-.1-.8,0-1.5.1c-.6.1-1.1.1-1.5.1-.9,0-1.6-.8-2.1-2.3l-3.7-14.1c-.2-.9-.6-1.4-1.2-1.4s-.3,0-.6.1c-.3,0-.5.1-.6.1-1.3,0-1.9-.9-1.9-2.7s.9-3,2.7-3,1.2.1,2.2.2c1,.1,1.7.2,2.2.2s1.3-.1,2.4-.2c1.1-.1,1.9-.2,2.4-.2,1.7,0,2.5.9,2.5,2.8s-.6,2.4-1.8,2.5c-.6.1-.9.1-1.1.2-.1.1-.2.3-.2.6v.4c.1-.1.1.1.2.4Z"/>
    <path class="st0" d="M473.6,139.2c2.3,0,4.6.9,6.5,2.7v-3.3c0-1.1-.4-1.7-1.1-1.7s-.6,0-1.1.1c-.4.1-.8.2-1.2.2-.6,0-1.1-.2-1.5-.7s-.6-1.1-.6-1.8c0-2,1-2.9,3.1-2.9h1.5c1.2.1,2,.2,2.5.2s1,0,1.7-.1c.8-.1,1.3-.1,1.7-.1.8,0,1.3.2,1.6.5.3.4.4,1,.4,1.9v21.2c0,1.6.3,2.3.9,2.3s.4,0,.7-.1c.2-.1.4-.1.7-.1,1.3,0,2,.8,2,2.3s-.2,1.7-.7,2.3-1.1.9-1.8.9h-.3l-1.6-.3c-.4-.1-.9-.1-1.6-.1s-1.5,0-2,.1c-.8.1-1.2.1-1.2.1-.9,0-1.4-.6-1.4-1.7v-1.7c-1.6,2.7-4.1,4.2-7.3,4.2s-5.2-1.2-7-3.5-2.7-5.3-2.7-8.8.9-6.6,2.7-8.8c1.8-2,4.2-3.1,7.1-3.1ZM475.4,145c-1.1,0-2.1.5-2.8,1.6-.7,1.1-1.1,2.5-1.2,4.5v.6c0,1.9.4,3.3,1.1,4.5.7,1.1,1.7,1.6,2.9,1.6s2.4-.6,3.3-1.7c.8-1.2,1.3-2.7,1.3-4.7s-.4-3.4-1.2-4.6c-1-1.2-2.1-1.8-3.4-1.8Z"/>
    <path class="st0" d="M503.7,146.5l3.1,10,3.1-9.5c.2-.7.4-1.3.4-1.7s-.2-.6-.7-.8l-.8-.3c-.6-.2-1-.9-1-1.9s.2-1.4.7-1.9c.4-.5,1-.8,1.7-.8s1.2.1,2.1.2c.9.1,1.7.2,2.1.2s1.2-.1,2.2-.2c1-.1,1.7-.2,2.2-.2,1.8,0,2.8,1,2.8,3s-.2,1.3-.6,1.9c-.4.5-.9.8-1.5.8s-.3,0-.6-.1-.5-.1-.6-.1c-.6,0-1,.5-1.3,1.4l-.6,1.6-3.9,10.4c-1.2,3.2-2.1,5.3-2.5,6.3-.5.9-1.2,2-2,3.1-2.4,3.1-5.5,4.7-9.1,4.7s-4.1-.5-5.5-1.6c-1.4-1-2.1-2.4-2.1-4.1s.4-2.1,1.1-2.8,1.6-1.1,2.7-1.1,1.7.3,2.3.8c.6.6.9,1.3.9,2.2s0,.7-.1,1c.4.2.8.3,1.1.3.8,0,1.6-.5,2.4-1.5.7-1,1.1-1.8,1.1-2.5s-.5-2.2-1.6-4.7l-5.4-12.3c-.4-.9-.7-1.3-1.1-1.3,0,0-.3,0-.7.1h-.4c-1.6,0-2.3-.9-2.3-2.6s.3-1.6.8-2.2c.5-.6,1.2-.9,2-.9s1.2.1,2.2.2c1,.1,1.7.2,2.2.2s1.6-.1,2.9-.2c1.4-.1,2.1-.2,2.2-.2,1.7,0,2.5.9,2.5,2.7s-.6,2-1.9,2.2c-.6.1-1,.4-1,.8-.1.3,0,.7.2,1.3Z"/>
    <path class="st0" d="M534.1,151c-.2,1.5-.9,2.3-2.2,2.3h-1.8c-1.3,0-2-.8-2.2-2.3l-1.4-15c-.1-.9-.1-1.6-.1-1.8,0-2.1,1.5-3.1,4.7-3.1s4.7,1,4.7,3.1,0,1.2-.1,1.8l-1.4,15ZM531,163.7c-1.2,0-2.2-.4-3-1.3-.9-.9-1.3-1.9-1.3-3.1s.4-2.2,1.3-3.1c.9-.9,1.9-1.3,3-1.3s2.2.4,3.1,1.3c.9.9,1.3,1.9,1.3,3.1s-.4,2.2-1.3,3.1-1.9,1.3-3.1,1.3Z"/>
  </g>
</svg>