<?xml version="1.0" encoding="utf-8"?>
<!-- Generator: Adobe Illustrator 27.9.1, SVG Export Plug-In . SVG Version: 6.00 Build 0)  -->
<svg version="1.1" id="Layer_1" xmlns="http://www.w3.org/2000/svg" xmlns:xlink="http://www.w3.org/1999/xlink" x="0px" y="0px"
	 viewBox="0 0 677.7 183.6" style="enable-background:new 0 0 677.7 183.6;" xml:space="preserve">
<style type="text/css">
	.st0{fill:#62BA46;}
</style>
<g>
	<g>
		<path class="st0" d="M37.2,64.6c0,0.8,0,1.7,0,2.5c0,1.6-0.1,3.2-0.3,4.8c-0.1,0.8-0.1,1.6-0.2,2.4c0,0.1,0,0.2,0,0.3
			c5.6-5.6,11.2-11.3,16.7-17c-3.2,0-6.3,0.1-9.5,0.1C41.7,60,39.5,62.3,37.2,64.6z"/>
		<path class="st0" d="M42.6,45.1c0.8,0,1.5,0,2.3,0c2.1,0,4.2,0,6.3,0c0.5,0,0.9,0,1.4,0c3.1-3.1,6.2-6.3,9.3-9.4
			c3.3-3.4,6.7-6.8,10-10.2c-3.2,0-6.5,0-9.7,0C55.7,32.1,49.2,38.6,42.6,45.1z"/>
		<path class="st0" d="M64.9,45.3c0.2,0,0.5,0,0.7,0c1-1,2-2,2.9-3c5.6-5.7,11.1-11.3,16.7-17c-0.4,0-0.9,0-1.3,0
			c-2.3,0.1-4.5,0.2-6.8,0.2c-0.5,0-1,0-1.5,0c-6.4,6.6-12.8,13.1-19.3,19.6C59.2,45.2,62.1,45.2,64.9,45.3z"/>
		<path class="st0" d="M72.4,76.7c5.4-5.5,10.9-11,16.3-16.4c6.8-6.8,13.5-13.6,20.2-20.3c0-2.9,0-5.8,0-8.8
			C94.1,46.3,79.2,61.4,64.3,76.5C67,76.6,69.7,76.6,72.4,76.7z"/>
		<path class="st0" d="M89.1,77c0.6,0,1,0.4,1.1,0.8c0.2,0.2,0.3,0.5,0.3,0.8c-0.1,2.6-0.2,5.2-0.3,7.8c3.3-3.3,6.5-6.6,9.8-9.9
			c3.1-3.1,6.2-6.2,9.2-9.3c0-3.5-0.1-7-0.1-10.6c-6.7,6.8-13.5,13.6-20.2,20.3C89,77,89.1,77,89.1,77z"/>
		<path class="st0" d="M85.3,76.9c3.3-3.4,6.7-6.7,10-10.1c4.6-4.6,9.2-9.3,13.8-13.9c-0.1-3.1-0.1-6.2-0.1-9.3
			c-11,11-21.9,22.1-32.9,33.1C79.2,76.8,82.2,76.8,85.3,76.9z"/>
		<path class="st0" d="M38.7,76.5c1,0,1.9,0,2.9,0c1.9,0,3.7,0,5.6,0c0.1,0,0.3,0,0.4,0c6.2-6.2,12.3-12.5,18.5-18.8
			c-0.7-0.1-1.3-0.1-2-0.2c-2.2-0.2-4.5,0-6.7,0.1C51,63.9,44.8,70.2,38.7,76.5C38.6,76.5,38.6,76.5,38.7,76.5z"/>
		<path class="st0" d="M4.5,93.7c2.7-2.7,5.4-5.5,8.2-8.2c-0.1-3.4-0.3-6.9-0.4-10.3c-2.5,2.4-4.9,4.9-7.4,7.3
			c-0.1,2.3-0.1,4.6-0.2,6.9C4.7,90.9,4.6,92.3,4.5,93.7z"/>
		<path class="st0" d="M12.1,62.3c-2.3,2.3-4.6,4.6-6.9,6.9c0,3.2,0,6.3-0.1,9.5c2.4-2.4,4.8-4.8,7.2-7.1
			C12.2,68.5,12.1,65.4,12.1,62.3z"/>
		<path class="st0" d="M36.7,37.9c0,1.3,0,2.5-0.1,3.8c0,1.2-0.5,3,0.8,3.5c0.4,0.1,0.8,0.1,1.3,0.1c5.7-5.7,11.4-11.4,17.1-17
			c0.9-0.9,1.8-1.8,2.7-2.7c-3.1,0-6.3,0-9.4-0.1C44.9,29.6,40.8,33.7,36.7,37.9z"/>
		<path class="st0" d="M60.6,76.5c7.6-7.7,15.2-15.4,22.7-23.1c8.7-8.8,17.2-17.5,25.7-26.2c0-0.1,0-0.1,0-0.2
			c0.1-3.2,0.2-6.5,0.4-9.7C99.3,27.6,89.1,38,78.9,48.4c-0.1,0.8-0.1,1.6-0.2,2.5c-0.1,1.3-0.3,2.7-0.3,4c0,0.9,0.2,2.1-0.6,2.6
			c-0.3,0.2-0.7,0.3-1.1,0.3c-1.3,0.1-2.6,0.2-3.9,0.2c-1.1,0-2.1,0-3.2-0.1c-6.2,6.2-12.3,12.4-18.3,18.6
			C54.4,76.5,57.5,76.5,60.6,76.5z"/>
		<path class="st0" d="M185.3,109c6.4-6.5,12.8-12.9,19.2-19.3c-2,0.1-4.1,0.1-6.1,0.2c-0.7,0-1.2,0.1-1.9,0.1
			c-0.4,0-0.9-0.1-1.2-0.4l-0.1-0.1c-6.5,6.5-12.9,13-19.4,19.5C179,109,182.1,109,185.3,109z"/>
		<path class="st0" d="M81.1,108.9c8.5-8.6,17.1-17.2,25.6-25.7c0.8-0.9,1.7-1.7,2.5-2.6c0.1-2.1,0.1-4.2,0.1-6.3c0-0.8,0-1.6,0-2.4
			c0-0.3,0-0.6,0-0.9c-12.5,12.6-25,25.3-37.6,37.9C74.8,108.9,78,108.9,81.1,108.9z"/>
		<path class="st0" d="M133,75.7c0.9,0.8,2.7,0.6,3.9,0.6c1,0,2,0.1,3,0.1c3.7-3.7,7.4-7.4,11-11.1v-0.1c0-1.2,0.1-2.5,0.1-3.7
			c0.1-2,0.1-4,0.2-6c-6.3,6.3-12.5,12.6-18.8,18.9C132.4,74.9,132.6,75.4,133,75.7z"/>
		<path class="st0" d="M194.2,33.9c0-1.1,0-2.1,0.1-3.2c0.1-1.8,0.2-3.6,0.2-5.5c-2.7,2.7-5.4,5.5-8.1,8.2c-0.1,2.9-0.1,5.8-0.2,8.7
			C188.9,39.4,191.6,36.7,194.2,33.9z"/>
		<path class="st0" d="M147.6,76.6c1.7,0,3.3,0.1,5,0.1c2.7-2.8,5.4-5.5,8.1-8.3c-0.9,0-1.7,0-2.6,0c-2.1,0-4.2,0-6.2,0
			c-0.1,0-0.2,0-0.3,0c-2.7,2.7-5.4,5.4-8.1,8.1C144.9,76.6,146.3,76.6,147.6,76.6z"/>
		<path class="st0" d="M94,108.9c6.5-6.4,12.9-12.9,19.4-19.4c-0.6,0-1.2,0-1.8,0c-0.6,0-1.2,0.1-1.8,0c-0.2,0-0.5-0.1-0.6-0.3
			c-0.1-0.1-0.1-0.3-0.1-0.5c0-1.4,0-2.8,0.1-4.3c-8.1,8.2-16.2,16.3-24.3,24.4C87.9,108.9,91,108.9,94,108.9z"/>
		<path class="st0" d="M174.9,84c0,0.7,0,1.5,0,2.2c0,0.9,0,1.7,0,2.6s-0.9,1.3-1.6,1.2c-1.4,0-2.8,0-4.3,0
			c-6.2,6.3-12.4,12.6-18.6,19c3.1,0,6.2,0,9.4,0c11.6-11.8,23-23.5,34.4-35.1c0-0.7-0.1-1.4-0.1-2.1c-0.1-2.4-0.1-4.9,0-7.3
			c-0.4,0.4-0.8,0.8-1.2,1.2C186.9,71.7,180.9,77.9,174.9,84z"/>
		<path class="st0" d="M172.1,109c7.6-7.7,15.2-15.3,22.8-22.9c-0.1-1.9-0.3-3.8-0.4-5.8c0-0.9-0.1-1.9-0.1-2.8
			c-10.3,10.5-20.5,21-30.8,31.5C166.4,109,169.3,109,172.1,109z"/>
		<path class="st0" d="M185.6,63.4c0,1.5,0.5,3.5-0.2,4.9c-0.5,1-1.6,0.6-2.6,0.6c-1.4,0-2.8-0.1-4.2-0.1c-0.5,0-1,0-1.4,0
			c-2.6,2.7-5.3,5.4-7.9,8.1c0.4,0,0.8,0,1.1,0c1,0,2.4-0.1,3.4,0.4c0.5,0.3,0.9,0.7,1.1,1.4c0.1,0.5,0.1,1,0.1,1.5
			c6.4-6.6,12.8-13.1,19.2-19.7c0.1-3.2,0.2-6.4,0.3-9.5c-2.9,3-5.8,6-8.7,9C185.7,61.1,185.7,62.3,185.6,63.4z"/>
		<path class="st0" d="M185.9,56c2.9-3,5.7-5.9,8.6-8.9c0-3.1-0.2-6.3-0.2-9.4c-2.7,2.8-5.4,5.6-8.1,8.4C186,49.4,186,52.7,185.9,56
			z"/>
		<path class="st0" d="M12.1,36.2c-2.5,2.5-4.9,4.9-7.4,7.4c0.1,3.1,0.1,6.2,0.2,9.3c2.4-2.4,4.7-4.7,7.1-7.1
			C12.1,42.6,12.1,39.4,12.1,36.2z"/>
		<path class="st0" d="M12.5,21.3c-2.7,2.7-5.4,5.4-8,8.1c0.1,3.5,0.1,7,0.2,10.5c2.5-2.5,5-5,7.5-7.6C12.3,28.6,12.4,25,12.5,21.3z
			"/>
		<path class="st0" d="M12.8,14c0-0.9,0.8-1.2,1.4-1.2c0.1,0,0.2,0,0.3,0c0.9,0,1.8,0,2.7,0.1c2.8-2.8,5.6-5.7,8.5-8.5
			c-3.1,0-6.3,0-9.4,0c-4,4-7.9,8-11.9,12c0,2.5,0,4.9,0,7.4c0,0.7,0,1.4,0,2.1c2.8-2.8,5.5-5.5,8.3-8.3
			C12.7,16.2,12.8,15.1,12.8,14z"/>
		<path class="st0" d="M132.4,70.6c6.3-6.3,12.6-12.6,18.9-18.9c0.1-3.4,0.2-6.8,0.3-10.2c-6.3,6.4-12.7,12.9-19,19.3
			c0,2.3-0.1,4.6-0.1,6.9C132.4,68.7,132.4,69.6,132.4,70.6z"/>
		<path class="st0" d="M30.9,13c0.2,0,0.3,0,0.5,0c0.9-0.9,1.7-1.7,2.6-2.6c2-2,4-4.1,6-6.1c-2.8,0-5.7,0-8.5,0c-0.7,0-1.4,0-2.1,0
			c-2.8,2.9-5.7,5.7-8.5,8.6C24.2,12.9,27.6,13,30.9,13z"/>
		<path class="st0" d="M41.1,25.3c-1,0-2.6-0.6-3.5,0.2c-1.2,1-0.7,4.2-0.7,5.6c0,1,0,2-0.1,3c2.9-2.9,5.8-5.7,8.6-8.6
			C43.9,25.4,42.5,25.3,41.1,25.3z"/>
		<path class="st0" d="M5.3,4.3C3.9,4.5,4.4,6.7,4.4,7.7c0,1.6,0,3.2,0,4.8C7.1,9.7,9.8,7,12.5,4.2C10.1,4.2,7.7,4.1,5.3,4.3z"/>
		<path class="st0" d="M146.7,108.9c6.3-6.4,12.5-12.7,18.6-19c-2,0-3.9,0-5.9,0c-1,0-2,0-2.9,0c-6.2,6.4-12.4,12.7-18.7,19.1
			C140.8,108.9,143.8,108.9,146.7,108.9z"/>
		<path class="st0" d="M165.6,76.9c2.7-2.7,5.3-5.5,8-8.2c-2.9-0.1-5.7-0.1-8.6-0.2c-0.2,0-0.4,0-0.6,0c-2.7,2.8-5.4,5.5-8.1,8.3
			c0.2,0,0.3,0,0.5,0C159.7,76.8,162.6,76.8,165.6,76.9z"/>
		<path class="st0" d="M134.2,108.9c0.2-0.2,0.3-0.4,0.5-0.5c6-6.2,12.1-12.3,18.2-18.5c-2.3,0-4.6,0-6.9-0.1c-0.8,0-1.6,0-2.3,0
			c-6.3,6.4-12.5,12.8-18.8,19.1C127.9,108.9,131,108.9,134.2,108.9z"/>
		<path class="st0" d="M111.1,108.9c3.3,0,6.7,0,10,0c2.3-2.4,4.7-4.7,7-7.1c3.9-4,7.9-8,11.8-12c-2.5,0-5.1,0-7.6-0.1
			c-0.6,0-1.3,0-1.9,0C123.9,96.1,117.5,102.5,111.1,108.9z"/>
		<path class="st0" d="M121.9,94.3c1.6-1.6,3.1-3.1,4.7-4.7c-2.7,0-5.3,0-8-0.1c-0.5,0-1,0-1.4,0c-6.5,6.4-12.9,12.9-19.4,19.3
			c3.2,0,6.3,0,9.5,0C112.2,104.1,117,99.2,121.9,94.3z"/>
		<path class="st0" d="M50.8,90.2c-6.1,6.2-12.3,12.4-18.5,18.7c2.7,0,5.3,0,8,0c6.2-6.2,12.3-12.4,18.5-18.6
			C56.2,90.3,53.5,90.2,50.8,90.2z"/>
		<path class="st0" d="M14.6,90.1c-0.1,0-0.2,0-0.3,0c-0.6,0-1.2-0.3-1.3-0.9c-2.7,2.7-5.4,5.5-8.1,8.2c0.1,0,0.1,0.1,0.2,0.1
			c1.2,0.4,2.8,0.2,4.1,0.3c0.8,0,1.6,0,2.4,0c0.7,0,1.4,0.1,2.1,0.1h0.1c2.6-2.6,5.1-5.2,7.7-7.7C19.1,90.1,16.8,90.1,14.6,90.1z"
			/>
		<path class="st0" d="M57.3,108.9c2.1,0,4.2,0,6.2,0c1.5,0,2.9,0,4.4,0c6-6,12-12.1,18-18.1c-3.5-0.1-7-0.2-10.4-0.2
			C69.4,96.7,63.4,102.8,57.3,108.9z"/>
		<path class="st0" d="M21.4,108.9c1.9,0,3.8,0,5.7,0c0.5,0,1,0,1.5,0c6.2-6.2,12.3-12.5,18.5-18.7c-3.1,0-6.2,0-9.3-0.1
			c-6.2,6.3-12.4,12.5-18.6,18.8C20,108.9,20.7,108.9,21.4,108.9z"/>
		<path class="st0" d="M25.1,90.1c-3.1,3.2-6.3,6.3-9.4,9.5v0.1c0,0.7-0.1,1.4-0.1,2c0,0.7,0.1,1.3,0.1,2s0,1.4,0.1,2.1
			c0,0.5,0.1,1,0,1.5c0,0.4-0.1,0.7,0.1,1C21.9,102.2,28,96.1,34,90C31.1,90.1,28.1,90.1,25.1,90.1z"/>
		<path class="st0" d="M62.5,90.4c-6.1,6.2-12.3,12.4-18.4,18.5c0.4,0,0.8,0,1.2,0c2.7,0,5.5,0,8.2,0c6.1-6.1,12.2-12.3,18.3-18.4
			C68.7,90.4,65.6,90.4,62.5,90.4z"/>
		<path class="st0" d="M37,58.6c-0.1,0.5,0.1,1.2,0.2,1.7c0,0.2,0,0.4,0,0.6c1-1,2.1-2.1,3.1-3.1C39,57.6,37.2,57.4,37,58.6z"/>
		<path class="st0" d="M49.1,13.2c2.3,0,4.6,0,6.8,0c0.5,0,1.1,0,1.6,0c2.9-2.9,5.9-5.9,8.8-8.8c-2.1,0-8.2,0-8.2,0
			c-0.4,0-0.9,0-1.3,0c-2.9,2.9-5.8,5.9-8.7,8.8C48.5,13.2,48.8,13.2,49.1,13.2z"/>
		<path class="st0" d="M132.8,32.9c0,2.5,0,5,0,7.5c0,1,0,2.1,0,3.1c6.4-6.5,12.8-13,19.2-19.5c0-1.7,0.1-3.4,0.1-5.1
			c0-1,0.4-2.5-0.6-3.1c-0.3-0.2-0.7-0.3-1.1-0.4c-1.5,1.5-3.1,3.1-4.6,4.6C141.3,24.3,137.1,28.6,132.8,32.9z"/>
		<path class="st0" d="M5.1,62.3c0,1.1,0,2.1,0,3.2c2.3-2.3,4.6-4.6,6.9-6.9c0-3,0-6,0-9.1c-2.3,2.3-4.7,4.7-7,7
			c0,1.5,0.1,3,0.1,4.4C5.1,61.4,5.1,61.8,5.1,62.3z"/>
		<path class="st0" d="M117.5,12.5c1.9,0.1,3.8,0.1,5.8,0.1c2.6-2.7,5.2-5.3,7.8-8c-3.1,0-6.2,0-9.3,0c-2.5,2.6-5.1,5.2-7.6,7.8
			C115.3,12.4,116.4,12.5,117.5,12.5z"/>
		<path class="st0" d="M62.8,13.2c2.3,0,4.6,0,6.8,0c0.4,0,0.8,0,1.2,0c2.9-2.9,5.8-5.8,8.7-8.7c-4.5,0-6.2,0-9.4,0
			c-2.9,2.9-5.8,5.8-8.8,8.8C61.8,13.2,62.3,13.2,62.8,13.2z"/>
		<path class="st0" d="M132.8,19.7c0,2.7,0,5.5,0,8.2c0,0.4,0,0.9,0,1.3c4.6-4.6,9.2-9.3,13.8-13.9c-0.8,0-1.7-0.1-2.5-0.1
			c-0.9,0-2,0-2.5-0.9c-0.4-0.8-0.3-1.9-0.3-2.7c0-0.1,0-0.2,0-0.4c-0.7,0.8-1.5,1.5-2.2,2.3C136.9,15.5,134.9,17.6,132.8,19.7z"/>
		<path class="st0" d="M186.5,29.6c2.8-2.8,5.5-5.6,8.3-8.3c0.1-1.4,0.2-2.7,0.2-4.1c0.1-1,0-2.7,0.6-3.4c0.4-0.5,1.1-0.5,1.8-0.5
			c1.8,0,3.5,0.1,5.3,0.1c2.7-2.7,5.3-5.4,8-8.1c-2.8-0.1-5.7-0.1-8.5-0.3c-0.2,0-0.4,0-0.6,0c-5,5-9.9,10-14.9,15
			C186.5,23.2,186.5,26.4,186.5,29.6z"/>
		<path class="st0" d="M88.3,13c0.5,0.1,1,0,1.5,0.2c0.1,0,0.2,0.1,0.2,0.1c0.1,0.1,0.1,0.2,0.1,0.3c0,0.5,0.1,1,0.1,1.4
			c0,1.1,0,2.1,0,3.2c0,0.6,0.1,1.3,0.1,1.9c5-5.1,10.1-10.3,15.2-15.5c-2,0-5.5,0-9.3,0c-2.7,2.8-5.5,5.6-8.2,8.4
			C88.1,12.9,88.2,12.9,88.3,13z"/>
		<path class="st0" d="M90.4,24.1c0,0.2-0.1,0.4-0.2,0.7c0,0.1-0.1,0.2-0.2,0.3c-0.1,0-0.2,0-0.2,0c-0.2,0-0.4,0-0.7,0
			c-6.6,6.8-13.2,13.5-19.8,20.2c0.8,0,1.6,0,2.5,0.1c1.1,0,2.3,0.1,3.4,0.1c0.9,0,1.8,0,2.7,0.2c10.8-11,21.4-21.8,31.9-32.6V13
			c0.1-0.2,0.3-0.4,0.5-0.5h0.1c2.5-2.6,5.1-5.2,7.6-7.8c-2.1,0-4.1,0-6.2,0c0,0-2.5,0-2.8,0c-6.2,6.4-12.5,12.8-18.7,19.2
			C90.4,23.9,90.4,24,90.4,24.1z"/>
		<path class="st0" d="M218.1,49.3c6.2-6.4,12.5-12.8,18.8-19.3c0-1.7,0-3.4,0-5.2c0-1.5,0.1-3,0-4.4c-6.3,6.5-12.5,12.9-18.7,19.3
			C218.2,42.9,218.2,46.1,218.1,49.3z"/>
		<path class="st0" d="M186.7,6.6c0,1.1,0,2.3,0,3.4c0,2,0,4-0.1,6.1c3.8-3.8,7.5-7.6,11.3-11.4c-1.2-0.1-2.4-0.1-3.5-0.2
			c-1.3-0.1-2.6-0.2-4-0.3c-0.7-0.1-1.6-0.2-2.4-0.1c-0.5,0.5-0.9,0.9-1.4,1.4C186.7,5.9,186.7,6.3,186.7,6.6z"/>
		<path class="st0" d="M210.7,13.6c1,0,2,0.1,2.9,0.1c2.7-2.8,5.5-5.7,8.2-8.5c-1.5,0-2.9,0.1-4.4,0.1c-1.1,0-2.1,0-3.2,0
			c-2.7,2.7-5.4,5.4-8.1,8.2C207.7,13.5,209.2,13.5,210.7,13.6z"/>
		<path class="st0" d="M218.2,30.3c0,1.8,0,3.7,0,5.5c6.1-6.3,12.3-12.6,18.4-19c0-0.2-0.1-0.4-0.1-0.6c0-0.1,0-0.1-0.1-0.2
			c-0.1-0.1-0.1-0.1-0.2-0.1c-1.5-0.4-3.1-0.3-4.7-0.4c-0.9-0.1-1.8-0.1-2.7-0.2c-3.5,3.7-7.1,7.4-10.6,11.1
			C218.2,27.7,218.2,29,218.2,30.3z"/>
		<path class="st0" d="M218.2,17.6c0,1.4,0,2.8,0,4.3c0,0.2,0,0.4,0,0.6c2.9-3,5.8-6.1,8.7-9.1c0-2.5,0-5,0-7.4c0-0.2,0-0.5-0.2-0.6
			c-0.1-0.1-0.2-0.1-0.3-0.1c-0.3,0-0.6,0-0.8,0c-2.9,3-5.7,6-8.6,9C218,14.9,218.2,16.4,218.2,17.6z"/>
		<path class="st0" d="M132.7,47.3c0,3.2-0.1,6.4-0.1,9.7c6.3-6.4,12.7-12.9,19-19.3c0.1-3.3,0.1-6.5,0.2-9.8
			c-0.8,0.8-1.6,1.6-2.4,2.4C143.9,36,138.3,41.6,132.7,47.3z"/>
		<path class="st0" d="M76.4,13.1c2.3,0,4.6-0.1,6.8-0.1c0.3,0,0.6,0,0.9,0c2.8-2.8,5.5-5.7,8.3-8.5c-4.2,0-4.6,0-9.2,0
			c-2.9,2.9-5.7,5.8-8.6,8.6C75.3,13.1,75.8,13.1,76.4,13.1z"/>
		<path class="st0" d="M35.5,13.1c2.3,0,4.6,0,6.8,0.1c0.7,0,1.4,0,2.1,0c2.9-2.9,5.8-5.8,8.7-8.8c-1.1,0-2.2,0-3.3,0
			c-2,0-4,0-6.1,0c-2.9,2.9-5.8,5.8-8.7,8.7C35.2,13.1,35.3,13.1,35.5,13.1z"/>
		<path class="st0" d="M218,62.8c6.3-6.3,12.6-12.7,18.9-19.1c0-3.3,0-6.6,0-9.9c-6.3,6.5-12.5,12.9-18.8,19.4
			C218.1,56.4,218,59.6,218,62.8z"/>
		<path class="st0" d="M203.2,109c3.1,0,6.3,0,9.4,0c8-8.1,16-16.3,24-24.4c0.1-3.2,0.1-6.5,0.2-9.7c-7.2,7.4-14.3,14.7-21.1,21.6
			C211.4,100.6,207.3,104.8,203.2,109z"/>
		<path class="st0" d="M216.3,109c2.1,0,4.2,0,6.3,0c1.2,0,2.3,0,3.5,0.1c3.4-3.4,6.8-6.8,10.1-10.2c0.1-3.5,0.2-7,0.2-10.5
			c-4.9,5-9.7,9.9-14.3,14.6C220.2,105,218.2,107,216.3,109z"/>
		<path class="st0" d="M217.8,76.2c6.3-6.4,12.7-12.8,19.1-19.2c0-1.9,0-3.7,0-5.6c0-1.3,0-2.6,0-3.9c-6.3,6.3-12.6,12.7-19,19.1
			C217.9,69.8,217.9,73,217.8,76.2z"/>
		<path class="st0" d="M229.8,109.1c1.5,0,3,0,4.4,0c0.4,0,0.9-0.1,1.3-0.3c1-0.7,0.6-3.4,0.6-4.4c0-0.6,0-1.1,0-1.7
			c-1.5,1.5-3,3-4.5,4.5C231,107.9,230.4,108.5,229.8,109.1z"/>
		<path class="st0" d="M217.6,87.5c0.3,0.7-0.1,1.8-1.1,1.8c-2.7,0.1-5.4,0.2-8.2,0.3c-6.4,6.5-12.9,13-19.3,19.4c3.5,0,7,0,10.4,0
			c12.4-12.6,24.9-25.3,37.3-38c0-3.4,0.1-6.7,0.1-10.1c-6.3,6.4-12.7,12.8-19.1,19.2C217.7,82.5,217.6,85,217.6,87.5z"/>
		<path class="st0" d="M127,12.6c1.4,0,2.7,0,4.1,0c0.3,0,0.5,0.1,0.7,0.2c0.5,0.1,0.9,0.5,0.9,1.2c0,0.6,0,1.3,0,1.9
			c2.8-2.8,5.5-5.6,8.3-8.3c0-0.4-0.1-0.8-0.1-1.2c-0.1-1.8-3.4-1.9-6-1.8c-0.5,0.5-1,1-1.5,1.5C131.3,8.3,129.2,10.4,127,12.6z"/>
	</g>
	<g>
		<path class="st0" d="M341.9,81.6c0.1-2,0.2-4,0.3-6.1c-11.3,11.1-22.7,22.2-34,33.3c2.6,0,5.3,0.1,7.9,0.1c0.4,0,0.7,0,1.1,0
			c8.2-8,16.3-16,24.5-24.1C341.8,83.7,341.8,82.6,341.9,81.6z"/>
		<path class="st0" d="M320.1,58c-2.4,2.4-4.7,4.8-7.1,7.1c-0.1,2.3-0.2,4.5-0.3,6.8c0,0.5,0,1-0.1,1.5c0,0.5,0,1.1,0,1.6
			c5.5-5.6,11.1-11.2,16.6-16.7c-0.7,0-1.5,0-2.2,0C324.8,58.2,322.5,58.1,320.1,58z"/>
		<path class="st0" d="M322.5,4.1c-2.9,2.9-5.8,5.7-8.6,8.6c1.4,0,2.9,0,4.3,0.1c1.7,0,3.4,0,5.1,0.1c2.9-2.9,5.8-5.8,8.7-8.6
			C328.8,4.2,325.6,4.1,322.5,4.1z"/>
		<path class="st0" d="M408.4,23.1c-0.2,0-0.3,0.1-0.5,0.1c-0.3,0.3-0.5,0.5-0.8,0.8c-0.2,0.7,0.1,1.8,0,2.4c-0.1,1.5-0.1,3-0.2,4.5
			c0,0.9-0.1,1.8-0.1,2.7c3.6-3.5,7.2-7.1,10.7-10.6c-0.1,0-0.2,0-0.3,0C414.3,22.9,411.3,22.8,408.4,23.1z"/>
		<path class="st0" d="M326,23.2c-2.1-0.1-4.2-0.3-6.2-0.4c-0.8,0-1.7-0.2-2.6-0.2c-2,2-4.1,4.1-6.1,6.1c-0.1,1.7-0.1,3.4-0.2,5.1
			c-0.1,1.6-0.1,3.2-0.2,4.8c4.1-4.1,8.1-8.1,12.2-12.2C323.9,25.4,324.9,24.3,326,23.2z"/>
		<path class="st0" d="M345.1,29.1c0-1.1,0.1-2.2,0.1-3.3c0-0.3,0-0.7-0.1-1c-0.1-0.2-0.2-0.4-0.3-0.6c-0.4-0.4-0.9-0.4-1.4-0.4
			c-0.3,0-0.6,0-0.9,0c-7.4,7.5-14.9,14.9-22.3,22.4c2.7,0,5.3,0,8,0.1c2.3-2.3,4.6-4.7,6.9-7C338.4,35.9,341.7,32.5,345.1,29.1z"/>
		<path class="st0" d="M313.1,4c-1.8,0-3.6,0-5.5,0c-2.9,2.8-5.8,5.7-8.6,8.5c2.3,0,4.5,0.1,6.8,0.1c1.5,0,2.9,0,4.4,0
			c2.9-2.8,5.7-5.7,8.6-8.6C316.9,4.1,315,4.1,313.1,4z"/>
		<path class="st0" d="M482.2,23.1c0.1-0.1,0.3-0.3,0.4-0.4s0.3-0.1,0.5-0.1c0.1,0,0.2,0,0.3,0c2.9-2.9,5.8-5.8,8.7-8.7
			c0-0.3,0.1-0.5,0.2-0.8c0.1-0.2,0.2-0.3,0.4-0.4c0.2-0.1,0.4-0.1,0.6-0.1c2.9-2.9,5.8-5.8,8.6-8.7c-2.8,0-5.5,0-8.3,0
			c-10.6,10.7-21.2,21.5-31.8,32.2c0,2.7,0,5.4,0.1,8c6.6-6.6,13.2-13.2,19.7-19.9v-0.1C481.6,23.8,481.9,23.4,482.2,23.1z"/>
		<path class="st0" d="M364.2,90c-3.4,0.2-6.9-0.2-10.3-0.4c-3.1,3-6.1,6-9.2,9c0.1,0.2,0.1,0.4,0.1,0.6c0.2,1.5-0.1,3.1-0.2,4.6
			c-0.1,0.8-0.1,1.5-0.1,2.3c0,0.6,0.3,1.3,0.2,1.9c0.5,0.1,1,0.2,1.5,0.3c6.3-6.2,12.6-12.4,18.8-18.6
			C364.9,89.9,364.5,90,364.2,90z"/>
		<path class="st0" d="M343,89.1c-0.4,0-0.9-0.1-1.2-0.3c-0.1-0.1-0.1-0.1-0.2-0.2c-3.1,3.1-6.3,6.2-9.4,9.2
			c0.1-0.1,0.2-0.1,0.3-0.1c0.2-0.1,0.3-0.1,0.5-0.1c2.2-0.1,4.3-0.1,6.5,0c0.8,0,1.6,0.1,2.4,0.2c2.8-2.8,5.6-5.5,8.4-8.3
			C347.9,89.4,345.4,89.2,343,89.1z"/>
		<path class="st0" d="M497,12.7c2.9,0,5.8,0.1,8.7,0.1c0.2,0,0.4,0,0.6,0c2.9-3,5.9-5.9,8.8-8.9c-3.2,0-6.3,0-9.5,0
			C502.8,6.9,499.9,9.8,497,12.7z"/>
		<path class="st0" d="M396.4,85c0.1-1.4,0-3-0.1-4.4c0-0.3,0-0.6-0.2-0.9c-0.5-1.2-1.8-1.1-2.9-1C383.1,88.9,373,99,362.8,109
			c2,0.1,4,0.1,6,0.1c1.2,0,2.4,0,3.6-0.1c5.5-5.5,11-11,16.5-16.5C391.4,90.1,393.9,87.5,396.4,85z"/>
		<path class="st0" d="M389.5,78.8c-0.6,0-1.2,0-1.8,0c-0.7,0-1.4,0-2-0.3c-1.1-0.6-1-2.9-0.9-4.5c-11.6,11.5-23.3,23.1-34.9,34.6
			c1.2,0,2.3,0.1,3.4,0.1c1.9,0,3.9,0.1,5.8,0.1c7.5-7.4,15-14.8,22.5-22.3C384.2,84,386.9,81.4,389.5,78.8z"/>
		<path class="st0" d="M376.3,109c2.6-0.1,5.2-0.1,7.7,0.1c0.2,0,0.5,0,0.7-0.1c0.4-0.1,0.7-0.5,0.8-1c0.4-1.6,0.2-3.7,0.2-5.4
			c0-0.9-0.3-2-0.2-2.9C382.4,102.8,379.3,105.9,376.3,109z"/>
		<path class="st0" d="M338.8,23.6c-3.1-0.1-6.1-0.1-9.2-0.2c-6.4,6.4-12.8,12.8-19.2,19.2c0,0.8-0.1,1.5-0.1,2.3
			c0,0.7,0.4,1.1,1,1.2c0.2,0.1,0.4,0.2,0.7,0.2c1.4,0,2.9-0.1,4.3-0.1c4.4-4.4,8.7-8.7,13.1-13.1C332.5,29.9,335.7,26.8,338.8,23.6
			z"/>
		<path class="st0" d="M289,50.5c-3.1,3-6.1,6.1-9.2,9.1c0,0.5,0,0.9,0,1.4c0,0.7,0,1.3,0,2c0,2.2,0,4.3,0.1,6.5
			c3.1-3.1,6.1-6.1,9.2-9.2C289,57,289,53.7,289,50.5z"/>
		<path class="st0" d="M342.6,65.7c0-1.2,0-2.4,0.1-3.6V62c-15.8,15.5-31.6,31-47.4,46.4c1.4,0.1,2.9,0.1,4.3,0.2
			c1.6,0.1,3.3,0.1,4.9,0.1c12.7-12.3,25.3-24.7,37.9-37.1C342.5,69.6,342.5,67.7,342.6,65.7z"/>
		<path class="st0" d="M289.1,82.2c0-1.7,0-3.3,0-5c-3,3-6,5.9-8.9,8.9c0,1.4,0.1,2.8,0.1,4.1c0,1.4,0.1,2.7,0.1,4.1
			c2.9-2.9,5.8-5.8,8.7-8.8C289.1,84.4,289.1,83.3,289.1,82.2z"/>
		<path class="st0" d="M289,71.7c0-2.6,0-5.1,0-7.7c-3.1,3-6.1,6.1-9.2,9.1c0,2.7,0.1,5.3,0.1,8c0,0.4,0,0.9,0,1.3c3-3,6-6,9-9
			C289,72.8,289,72.3,289,71.7z"/>
		<path class="st0" d="M291.6,88.8c-0.6,0-1.3-0.1-1.8-0.3c-3.1,3.1-6.1,6.2-9.2,9.2c0.1,0.2,0.2,0.4,0.4,0.5
			c0.7,0.6,2.4,0.4,3.4,0.4c1.5,0,3.5-0.5,5.1-0.3c3.1-3.1,6.2-6.3,9.3-9.4C296.4,88.9,294,88.9,291.6,88.8z"/>
		<path class="st0" d="M534.4,62.6c0-0.8,0-1.6,0-2.5c0-0.4,0-0.8,0-1.2c0-0.3,0.1-0.7-0.1-1c-0.1-0.2-0.3-0.4-0.5-0.5
			c-0.1,0-0.3-0.1-0.4-0.1c-6,6-11.9,12.1-17.9,18.1c2,0,4.1,0.1,6.1,0.1c1,0,2,0.1,3,0.1c3.2-3.3,6.5-6.5,9.7-9.8
			C534.4,64.8,534.4,63.7,534.4,62.6z"/>
		<path class="st0" d="M519.3,44.3c3.1,0.1,6.2,0.2,9.3,0.2c3.1-3.1,6.1-6.1,9.2-9.2c-0.4,0-0.8,0-1.2,0c-0.2,0-0.4,0-0.5,0
			c-0.4-0.1-0.8-0.4-1-0.7c-0.7-1-0.4-2.1-0.3-3.3c0-0.8,0-1.6,0-2.4C529.6,34.1,524.4,39.2,519.3,44.3z"/>
		<path class="st0" d="M526,57.3c-2.1,0-4.3,0-6.4-0.1c-5.1,5-10.1,10.1-15.2,15.1c0,0.6,0,1.3,0.1,1.9c0,0.2,0,0.4,0.1,0.5
			c0.1,0.3,0.5,0.6,0.8,0.6c0.8,0.2,1.9,0,2.7,0c1.2,0,2.5,0,3.7,0c6-6,11.9-12.1,17.9-18.1C528.5,57.3,527.2,57.3,526,57.3z"/>
		<path class="st0" d="M512.4,57.1c-2,0-3.9,0-5.9-0.1c-2.7,2.7-5.4,5.3-8,8c0.4,0,0.8,0,1.2,0c0.8,0,1.7-0.1,2.5-0.1
			c0.4,0,0.7,0,1.1,0.2c1.1,0.5,1.1,2.5,1.1,3.5c3.9-3.8,7.7-7.7,11.6-11.5C514.7,57.2,513.5,57.1,512.4,57.1z"/>
		<path class="st0" d="M287.7,3.8c-1.7,0-3.4-0.3-5.1-0.3c-0.1,0-0.3,0-0.5,0c-0.4,0.4-0.8,0.8-1.2,1.2C280.8,5.5,281,6.4,281,7
			c0,0.7-0.2,1.4-0.2,2.2c-0.1,1.5-0.1,3-0.2,4.5c3.4-3.3,6.7-6.6,10.1-9.9C289.6,3.9,288.7,3.8,287.7,3.8z"/>
		<path class="st0" d="M290.9,12.6c0.2-0.1,0.5-0.1,0.8-0.2c1.2-0.1,2.4-0.1,3.7-0.1c2.1-2.1,4.2-4.2,6.3-6.2
			c0.7-0.7,1.5-1.4,2.2-2.2c-2.6,0-5.1-0.1-7.7-0.1c-0.6,0-1.2,0-1.8,0c-4.7,4.6-9.3,9.2-14,13.8c-0.1,2-0.1,4-0.2,5.9
			c0,1.2-0.1,2.5-0.1,3.7c3.1-3.1,6.2-6.1,9.3-9.2C289.6,16.7,289.4,13.2,290.9,12.6z"/>
		<path class="st0" d="M289,26.3c0-1.4,0.1-2.8,0.2-4.2c-3,3-6.1,6-9.1,9c-0.1,3.8-0.2,7.6-0.2,11.5c3-3,6-6,9.1-9
			C288.9,31.2,288.9,28.8,289,26.3z"/>
		<path class="st0" d="M288.9,42.4c0-1.7,0-3.4,0-5.1c-3,3-6.1,6-9.1,9c0,3.1,0,6.3-0.1,9.4c3.1-3,6.1-6,9.2-9.1
			C288.9,45.3,288.9,43.9,288.9,42.4z"/>
		<path class="st0" d="M552.2,3.8c-1.9,0-3.8,0-5.7,0c-3.1,3.1-6.1,6.2-9.2,9.3c0.7,0,1.4,0,2.1,0c0.8,0,1.6,0,2.5,0
			c1.5,0,2.9-0.4,4.4-0.2c0.2,0,0.3,0.1,0.5,0.2c2.9-2.9,5.8-5.8,8.6-8.6C554.9,3.2,553.4,3.8,552.2,3.8z"/>
		<path class="st0" d="M385.5,25.3c-0.1-1.1-0.4-1.8,0.9-2.3c0.8-0.3,1.7-0.1,2.5-0.1s1.7,0.1,2.5,0.1c1.6-1.6,3.2-3.2,4.8-4.7
			c0.1-1.6,0.1-3.1,0.2-4.7c0-0.3,0-0.6,0.2-0.9c0.2-0.3,0.6-0.3,0.9-0.3c1.5-0.1,3.1-0.1,4.6-0.1c2.7-2.7,5.4-5.4,8.1-8.1
			c-0.9,0-1.8,0-2.7,0c-2.3,0-4.5,0-6.8,0c-1.1,1.1-2.2,2.2-3.3,3.3c-10.4,10.3-20.8,20.7-31.2,31c0,1.3,0,2.6,0,3.9
			c0,1.3,0.4,3.3-0.9,4c-0.6,0.3-1.3,0.3-2,0.3c-1.8,0-3.6-0.1-5.3-0.1c-1.2,1.2-2.4,2.3-3.5,3.5c0,0.7,0,1.3,0,2s-0.2,2.6,0.6,3
			c0.2,0.1,0.3,0.1,0.5,0.1c1.1,0,2.2,0,3.3,0c8.9-8.7,17.7-17.5,26.5-26.2C385.4,27.9,385.7,26.6,385.5,25.3z"/>
		<path class="st0" d="M425.5,23.2c-1.4,0-2.8-0.1-4.2-0.1c-1,1-2,2-3,2.9c-3.8,3.8-7.7,7.6-11.6,11.4c0,0.8,0,1.7-0.1,2.5
			c-0.1,2.9-0.1,5.7-0.1,8.6c8.4-8.4,16.8-16.8,25.1-25.2C429.7,23.3,427.6,23.3,425.5,23.2z"/>
		<path class="st0" d="M384.9,38.9c0.1-1.9,0.1-3.8,0.2-5.7c-7.5,7.4-15,14.9-22.5,22.3c0.4,0,0.8,0,1.1,0c0.3,0,0.6,0,0.8,0
			c0.2,0,0.5,0,0.7,0.1c0.9,0.4,0.7,2.4,0.7,3.2c0,0.7,0,1.4,0,2.1c6.3-6.2,12.5-12.3,18.7-18.5C384.9,41.1,384.9,40,384.9,38.9z"/>
		<path class="st0" d="M441.5,26.8c0-0.6,0-1.2,0-1.8c0-0.2,0-0.5-0.2-0.7c0,0,0-0.1-0.1-0.1c-0.1-0.1-0.2-0.2-0.4-0.3
			c-1.6-0.7-3.5-0.7-5.3-0.7c-3.4,3.5-6.9,6.9-10.3,10.4c-6.2,6.2-12.4,12.4-18.5,18.5c0,1.9,0,3.9,0.1,5.8c0,1.2,0.1,2.3,0.1,3.5
			C418.4,50,430,38.4,441.5,26.8z"/>
		<path class="st0" d="M369,14.8c-1.5,0-3.6,0.3-4.9-0.6c-0.1-0.1-0.2-0.1-0.2-0.2c-2.7,2.8-5.5,5.5-8.2,8.3c0.1,1.3,0.8,1.1,1.9,1
			c2.2-0.1,4.3-0.1,6.5,0c2.8-2.8,5.6-5.6,8.4-8.4C371.3,14.8,370.2,14.8,369,14.8z"/>
		<path class="st0" d="M345,33c-4.4,4.4-8.8,8.9-13.2,13.3c1.5,0,3,0.1,4.5,0.2c1.4,0.1,2.9,0.3,4.4,0.3c0.3-0.3,0.6-0.6,0.9-0.9
			c1.1-1.1,2.1-2.2,3.2-3.2C344.9,39.4,344.9,36.2,345,33z"/>
		<path class="st0" d="M441.1,36.1c0-1.8,0.1-3.5,0.2-5.3c-3.2,3.2-6.3,6.4-9.5,9.6c-8.3,8.3-16.6,16.6-24.9,24.9v0.1
			c0.1,2.2,0.2,4.4,0.2,6.7c0,0.7,0,1.5,0,2.3C418.4,63,429.7,51.6,441,40.3C441.1,38.8,441.1,37.4,441.1,36.1z"/>
		<path class="st0" d="M391.7,4.5c-1.1,0-3.7-0.7-4.4,0.5c-0.3,0.4-0.1,0.9,0,1.4c0.1,0.8,0,1.7,0,2.5c0,1.6-0.2,3.2-0.3,4.8v0.1
			c0,0.6-0.4,1.2-1.2,1.2c-3.2-0.1-6.4-0.1-9.6-0.2c-3.4,3.4-6.8,6.8-10.2,10.3c0.1,1.1,0.2,2.2,0.2,3.3c0,2.2,0,4.4,0.1,6.6
			c10.3-10.2,20.5-20.3,30.8-30.5C395.2,4.5,393.5,4.5,391.7,4.5z"/>
		<path class="st0" d="M506.8,25.3c-0.4,0-0.9-0.1-1.3,0.1c-0.7,0.3-0.5,0.9-0.5,1.5s-0.1,1.2-0.1,1.9c1.1-1.1,2.3-2.3,3.4-3.4
			C507.8,25.3,507.3,25.3,506.8,25.3z"/>
		<path class="st0" d="M338.8,58.3c-1.6,0-3.2,0-4.8,0c-0.3,0-0.6,0-0.9,0c-6.8,6.9-13.6,13.7-20.5,20.6c0,0.8,0,1.6-0.1,2.5
			c0,2.3,0.2,4.8-1,6.9c-0.2,0.4-0.5,0.7-0.8,0.9c-0.3,0.1-0.6,0.2-0.9,0.3c-1.2,0.2-2.4-0.1-3.6-0.2c-1.3,0-2.5-0.1-3.8-0.1
			c-3.6,3.6-7.2,7.2-10.8,10.8c0.4,1.3,0.1,3.5,0.1,4.6c0,0.9-0.4,2.7,0.2,3.4c16.9-16.5,33.7-33,50.4-49.5
			C341.6,58,339.5,58.3,338.8,58.3z"/>
		<path class="st0" d="M532.3,44.6c2.3,0,4.5,0,6.8,0c1.1,0,2.2,0,3.2,0c2.6-2.7,5.3-5.4,7.9-8c0.4-0.4,0.7-0.8,1.1-1.1
			c-3.3,0-6.5-0.1-9.8-0.1C538.5,38.4,535.4,41.5,532.3,44.6z"/>
		<path class="st0" d="M520.2,25.9c-2.3-0.1-4.6-0.3-6.9-0.4c-0.5,0-0.9,0-1.4-0.1c-2.5,2.5-4.9,5-7.4,7.4c0,0.8-0.1,1.6-0.1,2.5
			c-0.1,1.8-0.1,3.5-0.1,5.3c0,0.7-0.2,1.4-0.2,2.1c5.6-5.6,11.1-11.2,16.7-16.8C520.6,25.9,520.4,25.9,520.2,25.9z"/>
		<path class="st0" d="M481.5,36c0.1-2.3,0.1-4.5,0.2-6.8c0-0.4,0-0.7,0-1.1c-6.6,6.6-13.2,13.2-19.7,19.9c0,3.1,0,6.3,0.1,9.4
			c6.5-6.5,13-13,19.4-19.6C481.5,37.2,481.5,36.6,481.5,36z"/>
		<path class="st0" d="M440.6,63c0-1.8,0-3.6,0.1-5.4c-6.9,6.9-13.7,13.8-20.6,20.7c1.2,0,2.3-0.1,3.5-0.1c1.5,0,3,0,4.5,0
			c4.2-4.2,8.4-8.4,12.6-12.6C440.6,64.8,440.6,63.9,440.6,63z"/>
		<path class="st0" d="M482.6,46.1c-0.8,0-1.7-0.2-1.6-1.2s0.1-2,0.2-3.1c-6.4,6.4-12.8,12.9-19.2,19.3c0,3.5,0,6.9,0.1,10.4
			c8.4-8.4,16.9-16.8,25.3-25.2c-0.1,0-0.2,0-0.3,0C485.6,46.2,484.1,46.1,482.6,46.1z"/>
		<path class="st0" d="M440.9,44.8c0-0.3,0-0.5,0-0.8c-0.5,0.5-1,1-1.6,1.6c-10.6,10.7-21.2,21.4-31.8,32c0,0.1,0.1,0.2,0.1,0.4
			c0.2,0.3,0.5,0.6,0.9,0.7c0.2,0,0.3,0,0.5,0c2.4-0.1,4.7-0.2,7.1-0.3c8.2-8.2,16.4-16.5,24.6-24.7
			C440.8,50.7,440.9,47.8,440.9,44.8z"/>
		<path class="st0" d="M531,26c-1.2,0.1-2.4,0.1-3.6,0.1c-1,0-1.9,0-2.9,0c-6,6-11.9,12-17.9,18c2.2-0.1,4.3-0.1,6.5,0
			c0.9,0,1.7,0.1,2.6,0.1c6.1-6.1,12.2-12.1,18.3-18.2C532.9,25.8,531.9,25.9,531,26z"/>
		<path class="st0" d="M547.1,79.2c0.2-0.2,0.3-0.3,0.5-0.5h-0.1C547.2,78.8,547.1,79,547.1,79.2z"/>
		<path class="st0" d="M587,23.2c0.8-0.8,0.5-2.8,0.6-3.8c0-0.9,0.1-1.8,0.1-2.8c0-0.4,0-0.8,0-1.3c-2.6,2.7-5.3,5.4-7.9,8.1
			c1.3,0,2.5,0,3.8,0C584.5,23.5,586.2,23.9,587,23.2z"/>
		<path class="st0" d="M577.6,46.2c-0.1-0.1-0.3-0.2-0.3-0.4c-1.1-1.7-0.5-4-0.5-5.9c0-0.2,0-0.3,0-0.5c-6.3,6.5-12.7,12.9-19,19.4
			c0,1,0,2,0,3c0,2.1,0.1,4.2,0.1,6.2c0,0.1,0,0.1,0,0.2c4.6-4.6,9.1-9.3,13.7-13.9c2.6-2.7,5.2-5.3,7.8-8c-0.4,0-0.8,0-1.2,0
			C578,46.3,577.8,46.3,577.6,46.2z"/>
		<path class="st0" d="M553.5,55.1c0.6-0.1,1.2-0.2,1.8-0.2c0.4,0,0.8,0,1.2,0.1c0.2,0,0.5,0.1,0.6,0.3c0.1,0.1,0.1,0.1,0.1,0.2
			c2.6-2.6,5.1-5.2,7.7-7.8c4-4.1,8-8.1,12-12.2c0-0.7,0-1.4,0.1-2c0.1-1.9,0.1-3.7,0.2-5.6c0-0.4-0.1-1-0.1-1.6
			c-9.5,9.7-19,19.4-28.5,29C550.2,55.3,551.9,55.3,553.5,55.1z"/>
		<path class="st0" d="M590.1,88.4c-0.5,0-1,0-1.4-0.3c-0.5-0.4-0.6-1.1-0.7-1.7c-0.2-1.6-0.2-3.2-0.2-4.8
			c-5.4,5.4-10.8,10.8-16.1,16.2c1.8,0,3.7-0.1,5.5-0.1c1.4,0,2.8-0.1,4.1-0.1c3.1-3.1,6.2-6.2,9.2-9.3
			C590.4,88.4,590.2,88.4,590.1,88.4z"/>
		<path class="st0" d="M631,66.9c0-0.7,0.1-1.5,0.1-2.3c-3.8,3.8-7.6,7.6-11.4,11.4c1.2,0,2.4,0,3.6,0c1.3,0,2.5,0,3.8-0.1
			c0.6,0,1.5,0.2,2.1,0c0.3-0.3,0.5-0.5,0.8-0.8c0.5-1,0.5-2.6,0.5-3.5C630.9,70.1,631,68.5,631,66.9z"/>
		<path class="st0" d="M594.3,88.4c-3,3.1-6.1,6.1-9.2,9.2c0.4,0,0.8,0,1.3,0c0.9,0,1.7-0.3,2.5-0.1c0.4,0.1,0.8,0.3,1,0.6
			c0.1,0.2,0.1,0.4,0.1,0.6c0.1,1,0.2,1.9,0.3,2.9c4.4-4.4,8.7-8.7,13.1-13.1C600.4,88.5,597.4,88.5,594.3,88.4z"/>
		<path class="st0" d="M528.5,75.8c1.1,0.1,2.3,0.1,3.4,0.2c0.7,0,1.9,0.5,2.4-0.2c0.6-0.8,0.2-2.8,0.2-3.7c0-0.8,0-1.7,0-2.5
			C532.5,71.7,530.4,73.7,528.5,75.8C528.4,75.8,528.5,75.8,528.5,75.8z"/>
		<path class="st0" d="M438.1,78.5c0.3,0,0.5,0,0.8-0.1c2.3-0.5,1.6-4.7,1.6-6.4c0-0.9,0-1.7,0-2.6c-3,3-5.9,5.9-8.9,8.9
			C433.9,78.4,436,78.5,438.1,78.5z"/>
		<path class="st0" d="M586.7,78.4c-2.2-0.2-4.5-0.3-6.7-0.3c-0.9,0-1.9-0.1-2.4-0.6c-10.3,10.4-20.6,20.8-31,31.2
			c3.1,0,6.3,0.1,9.4,0.1c0.4,0,0.7,0,1.1,0c10.1-10.1,20.1-20.2,30.2-30.3C587.1,78.4,586.9,78.4,586.7,78.4z"/>
		<path class="st0" d="M532.9,13.1c0.2,0,0.5,0,0.7,0c3-3.1,6.1-6.1,9.1-9.2c-1,0-1.9,0-2.9,0c-2.2,0-4.4,0-6.6,0c-3,3-6,6.1-9,9.1
			C527.2,13,530,13,532.9,13.1z"/>
		<path class="st0" d="M517.5,12.9c1,0,2,0,3.1,0c0.5-0.6,1.1-1.1,1.7-1.7c2.4-2.5,4.9-4.9,7.3-7.4c-3.6,0-7.1,0-10.7,0
			c-3,3-5.9,5.9-8.9,8.9C512.5,12.8,515,12.9,517.5,12.9z"/>
		<path class="st0" d="M577,70.8c0-1.2-0.7-4,0.4-4.9c0.6-0.5,1.4-0.5,2.2-0.5c2,0.1,4,0.1,6.1,0.2c2.9-2.9,5.9-5.9,8.8-8.8
			c-2.1-0.1-4.1-0.2-6.2-0.5c-0.2,0-0.4-0.1-0.6-0.1c-0.5-0.3-0.6-0.9-0.5-1.5c-17.8,18-35.7,35.9-53.5,53.9c1.4,0,2.8,0,4.2,0
			c1.7,0,3.4,0.1,5.1,0.1c11.4-11.5,22.8-23,34.2-34.4C577.1,73,577.1,71.9,577,70.8z"/>
		<path class="st0" d="M631.2,60.8c0-0.8-0.1-1.6-0.3-2.4c-0.1-0.2-0.1-0.4-0.3-0.5c-0.1-0.1-0.3-0.1-0.4-0.1
			c-1.8-0.2-3.6-0.3-5.4-0.3c-6,6.1-12.1,12.3-18.1,18.4c0.5,0,1.1,0,1.6,0c2.5,0.1,5,0.1,7.6,0.1c0.1,0,0.1,0,0.2,0
			C621.1,71,626.2,65.9,631.2,60.8z"/>
		<path class="st0" d="M452.1,79.3c-0.2,0-0.5,0.1-0.6,0.3c-0.3,0.3,0.1,1.2,0.1,1.6c0,0.3,0,0.6,0,0.9c0.9-0.9,1.9-1.9,2.8-2.8
			C453.6,79.2,452.9,79.2,452.1,79.3z"/>
		<path class="st0" d="M312.1,23.3c-0.2,0.1-0.5,0.3-0.6,0.5c-0.2,0.3-0.4,0.7-0.4,1.2c0.7-0.7,1.4-1.4,2.1-2.1
			C312.8,23,312.4,23.1,312.1,23.3z"/>
		<path class="st0" d="M314.8,57.7c-2,0.3-1.5,1.8-1.6,3.4v0.1c1.2-1.2,2.3-2.3,3.5-3.5C316.1,57.6,315.4,57.6,314.8,57.7z"/>
		<path class="st0" d="M662.5,107.1c0.2-2.6,0.1-5.1,0.1-7.7c0-0.4,0.2-0.7,0.5-0.9c0.2-0.3,0.5-0.4,0.9-0.4c1.9,0,3.8,0,5.7,0
			c1.2,0,2.1,0.4,2.8-0.8c0.9-1.7,0.3-3.9,0.3-5.8c0-1,0-2,0-3.1c-6.6,6.7-13.2,13.5-19.8,20.2c0.5,0,1,0,1.6,0c1.5,0,3,0,4.5,0
			c0.6,0,1.5,0.2,2.3,0.1c0.3-0.3,0.7-0.7,1-1C662.5,107.5,662.5,107.3,662.5,107.1z"/>
		<path class="st0" d="M579.9,4.5c-0.2,0.5-0.2,1-0.2,1.5c0,0.1,0,0.2,0,0.3c0.9-0.9,1.8-1.8,2.6-2.7C581.3,3.6,580.3,3.7,579.9,4.5
			z"/>
		<path class="st0" d="M672.8,82.7c0-2.6,0-5.1,0-7.7c-10.9,11.2-21.9,22.4-32.9,33.6c1.9,0,3.7,0,5.6,0c1.3,0,2.5,0,3.8,0
			c7.9-8.1,15.7-16,23.5-24C672.8,83.9,672.8,83.3,672.8,82.7z"/>
		<path class="st0" d="M672.9,61.9c-0.1,0.1-0.3,0.3-0.4,0.4c-15,15.4-30,30.8-45.1,46.2c3,0,5.9,0,8.9,0
			c12.4-12.6,24.5-25,36.6-37.4C672.9,68.1,672.9,65,672.9,61.9z"/>
		<path class="st0" d="M324.4,108.8c1.4,0,2.8,0,4.2-0.1c0.9,0,1.9,0.4,2.4-0.5c0.7-1.1,0.4-3,0.5-4.2c0.1-1.8,0.1-3.5,0.2-5.3
			c0-0.3,0.1-0.5,0.2-0.7c-3.6,3.6-7.3,7.1-10.9,10.7C322.1,108.8,323.3,108.8,324.4,108.8z"/>
		<path class="st0" d="M565.1,109c1,0.1,1.5,0.3,1.9-0.9c0.4-1.2,0.2-2.6,0.2-3.8c0-0.6,0-1.1,0-1.7c-2.1,2.1-4.1,4.1-6.2,6.2
			C562.3,108.8,563.7,108.8,565.1,109z"/>
		<path class="st0" d="M470.1,108.2c0.1-0.4,0.1-0.8,0.1-1.2c0-0.2,0-0.5,0-0.7c-0.9,0.8-1.7,1.7-2.6,2.5
			C468.5,108.9,469.7,109.1,470.1,108.2z"/>
		<path class="st0" d="M629.4,89.3c-3.1-0.1-6.2-0.2-9.3-0.3c-6.5,6.5-12.9,12.9-19.4,19.4c1.8,0,3.6,0,5.4,0.1c1.5,0,3,0,4.5,0
			c1.9-1.9,3.8-3.9,5.7-5.8C620.7,98.2,625.1,93.7,629.4,89.3z"/>
		<path class="st0" d="M627.6,44.5c2.1,0.1,4.1,0.1,6.2,0.2c3-3,5.9-6,8.9-9.1c-3.1,0-6.1-0.1-9.2-0.2c-2.9,3-5.9,6-8.9,9
			C625.6,44.4,626.6,44.5,627.6,44.5z"/>
		<path class="st0" d="M631.1,34.1c-0.1-0.4-0.1-0.8-0.1-1.2c0-1.9,0-3.8-0.2-5.7c0-0.2,0-0.5-0.1-0.7c-0.3-0.6-0.9-0.7-1.7-0.7
			c-6.1,6.1-12.1,12.2-18.2,18.3c3.4,0.1,6.8,0.2,10.2,0.3C624.4,40.9,627.7,37.5,631.1,34.1z"/>
		<path class="st0" d="M604.9,57c-2.2-0.1-4.5-0.1-6.7-0.1c-2.9,2.9-5.8,5.9-8.8,8.8c2.7,0.1,5.4,0.1,8,0.2c0.7,0,1.4,0,2,0.3l0,0
			c3-3,6-6.1,9-9.1C607.2,57,606,57,604.9,57z"/>
		<path class="st0" d="M616.4,88.9c-3.1-0.1-6.2-0.1-9.2-0.2c-5.5,5.5-11.1,11.1-16.7,16.6c0,1.1,0,2.2,0.8,2.7
			c0.3,0.2,0.8,0.2,1.2,0.2c1.5,0,3,0,4.5,0.1c4.4-4.4,8.8-8.8,13.2-13.2C612.3,93.1,614.4,91,616.4,88.9z"/>
		<path class="st0" d="M612,57.2c-3.8,3.8-7.6,7.7-11.4,11.5c0.1,1.1-0.1,2.3-0.1,3.1c0,1.3-0.5,2.5,0.6,3.5
			c0.5,0.5,1.2,0.6,1.8,0.6c6-6.1,12.1-12.2,18.2-18.4C618.1,57.5,615.1,57.4,612,57.2z"/>
		<path class="st0" d="M395.3,23.1c0.3-0.1,0.5-0.4,0.6-0.7C395.6,22.7,395.4,22.9,395.3,23.1C395.2,23.2,395.2,23.2,395.3,23.1z"/>
		<path class="st0" d="M622.8,25.9c-2.1,0-4.2,0-6.3,0c-0.3,0-0.5,0-0.8,0c-4.8,4.9-9.6,9.7-14.5,14.6c0,0.9-0.1,1.9,0,2.7
			c0,0.2,0.1,0.4,0.2,0.5c0.1,0.1,0.2,0.1,0.3,0.1c1.7,0.4,3.5,0.4,5.3,0.3c6-6.1,12-12.1,18.1-18.2
			C624.4,25.9,623.6,25.9,622.8,25.9z"/>
		<path class="st0" d="M603.6,25.4c-0.9,0.9-1.7,1.7-2.6,2.6l0,0c0,0.9,0.1,1.8,0.1,2.7c0,1.2,0.1,2.5,0.1,3.7c0,0.7,0,1.4,0,2.2
			c3.6-3.6,7.2-7.3,10.9-10.9C609.3,25.5,606.5,25.3,603.6,25.4z"/>
		<path class="st0" d="M653.1,78.4c-1.3,0.2-2.8,0-4.1,0c-1,0-1.9-0.1-2.9-0.1c-0.5,0-1.4-0.2-2.1-0.2c-0.4,0.4-0.7,0.8-1.1,1.1
			c-0.1,0.6,0,1.3,0,1.7c0,1.1,0,2.2,0,3.3c0,1.3,0.2,3.8-0.8,4.8c-0.6,0.6-1.5,0.6-2.4,0.6c-2.2-0.1-4.4-0.2-6.6-0.2
			c-6.2,6.4-12.5,12.7-18.7,19.1c3.1,0,6.2,0,9.4,0C633.5,98.5,643.3,88.5,653.1,78.4L653.1,78.4z"/>
		<path class="st0" d="M443.7,4.6c-1.3,0-2.5,0-3.8-0.1c-2.8,2.8-5.6,5.6-8.5,8.4c0.2,0,0.4,0,0.6,0c3,0.1,6,0.1,9.1,0.2
			c0.3,0,0.5,0,0.8,0c2.8-2.8,5.6-5.6,8.4-8.4C448.1,4.7,445.9,4.6,443.7,4.6z"/>
		<path class="st0" d="M414.1,4.4c-2.7,2.7-5.4,5.4-8.1,8.1c1.2,0,2.3,0.1,3.5,0.1c1.5,0,3,0.1,4.5,0.1c0.3,0,0.5,0,0.8,0
			c2.8-2.8,5.6-5.5,8.3-8.3C420.1,4.4,417.1,4.4,414.1,4.4z"/>
		<path class="st0" d="M426.8,4.4c-2.8,2.8-5.6,5.6-8.4,8.3c3.1,0.1,6.2,0.1,9.3,0.2c2.8-2.8,5.6-5.6,8.4-8.4
			C433.1,4.5,430,4.4,426.8,4.4z"/>
		<path class="st0" d="M491.7,55.2c0-0.3,0.1-0.7,0.1-1c0.1-1,0.2-2,0.2-3c0-0.8,0-1.5,0-2.3c0-0.6,0.1-1.4-0.2-2
			c-0.1-0.2-0.2-0.3-0.4-0.4c-0.1,0-0.2-0.1-0.4-0.1c-9.1,9.1-18.3,18.3-27.4,27.4c-0.5,0.5-1,0.9-1.4,1.4c0,0.4,0,0.9,0,1.3
			c0,0.3,0,0.6,0,1s0,0.7-0.2,1c-0.4,0.6-1.3,0.7-2,0.7c-0.6,0-1.2,0-1.8,0c-2.3,2.3-4.5,4.5-6.8,6.8c-0.1,0.7-0.3,1.4-0.6,2.1
			c-0.1,0.3-0.2,0.5-0.4,0.8c-0.6,0.7-1.7,0.8-2.7,0.8c-6.4,6.3-12.7,12.6-19.1,18.9c2.2,0,4.5,0,6.7,0c0.9,0,1.9,0,2.8,0
			C455.9,90.9,473.8,73.1,491.7,55.2z"/>
		<path class="st0" d="M438.4,89.4c-1.5,0-3,0-4.4-0.1c-6.4,6.4-12.8,12.8-19.1,19.3c3.3,0,6.6,0,9.8,0c6.4-6.4,12.9-12.7,19.3-19.1
			C442.1,89.5,440.3,89.5,438.4,89.4z"/>
		<path class="st0" d="M458,4.9c-1.4,0-2.7-0.1-4.1-0.1c-2.7,2.8-5.5,5.5-8.2,8.3c1.4,0,2.8,0,4.1,0.2c0.4,0.1,0.9,0.2,1.2,0.6
			c0.1,0.2,0.1,0.4,0.1,0.6c0.1,0.9,0.1,1.8,0.1,2.6c2.8-2.8,5.6-5.7,8.4-8.5C459.7,6.9,459.7,5,458,4.9z"/>
		<path class="st0" d="M417.3,89.1c-2.6-0.1-5.2-0.1-7.8-0.2c-3.7,3.7-7.5,7.5-11.2,11.2c-0.1,1.6,0,3.3,0.1,4.9
			c0.1,0.7-0.2,2.1,0.1,2.9c0.8-0.8,1.7-1.7,2.5-2.5C406.6,99.9,412,94.5,417.3,89.1z"/>
		<path class="st0" d="M402.7,88.6c-1.4-0.1-2.8-0.1-4.1-0.2c-0.4,0-0.8,0-1.1-0.2c-0.1-0.1-0.2-0.1-0.4-0.2
			c-3.2,3.2-6.5,6.5-9.7,9.7c1.1-0.3,2.5-0.1,3.5-0.1c1.9,0,4-0.1,5.9,0.2c3-3.1,6.1-6.1,9.1-9.2C404.9,88.7,403.8,88.7,402.7,88.6z
			"/>
		<path class="st0" d="M421,89.1c-6.4,6.5-12.9,13-19.3,19.4c3.1,0,6.3,0,9.4,0c6.4-6.4,12.8-12.9,19.2-19.3
			C427.2,89.2,424.1,89.2,421,89.1z"/>
		<path class="st0" d="M466.6,13.8c-1.7,0-3.5,0-5.2-0.1c-0.2,0-0.5,0-0.7-0.1c-0.6-0.2-0.9-0.7-1-1.3c-2.9,2.9-5.7,5.8-8.6,8.7
			c0,0.7,0.2,1.4,0.7,1.7c0.4,0.2,0.9,0.3,1.4,0.3c1.6,0.1,3.3,0,4.9-0.1c3-3,6-6.1,9-9.1C466.9,13.8,466.7,13.8,466.6,13.8z"/>
		<path class="st0" d="M487.8,4c-0.9,0-3.3-0.5-3.9,0.4c-0.2,0.2-0.2,0.5-0.2,0.8c-0.1,1.7-0.1,3.4-0.1,5.2c2.1-2.1,4.2-4.2,6.3-6.4
			C489.2,4,488.5,4,487.8,4z"/>
		<path class="st0" d="M477.1,13.7c-1.8,0-3.5,0.1-5.3,0.1c-0.3,0-0.6,0-1,0c-3.2,3.2-6.4,6.5-9.6,9.7c1.1,1.1,0.6,4.1,0.6,5.4
			c0,1.2,0,2.3,0,3.5c6.1-6.2,12.3-12.4,18.4-18.6C479.2,13.8,478.2,13.6,477.1,13.7z"/>
		<path class="st0" d="M348.6,4.3c-2.9,2.9-5.8,5.8-8.6,8.7c3.1,0,6.3,0,9.4,0.1c2.9-2.9,5.8-5.8,8.6-8.7
			C354.8,4.4,351.7,4.4,348.6,4.3z"/>
		<path class="st0" d="M363.1,8c0.1-0.9,0.7-2.3,0.2-3.2c-0.4-0.7-0.9-0.4-1.5-0.4h-0.1c-2.9,2.9-5.8,5.9-8.8,8.8
			c0.4,0,0.8,0.1,1.3,0.1c0.3,0,0.7,0.1,0.9,0.2c1.3,0.8,0.9,3.2,0.7,4.7c2.4-2.4,4.8-4.8,7.2-7.3C363,10.1,363,9,363.1,8z"/>
		<path class="st0" d="M481.5,75.7c0.1-1,0.1-2.1,0.1-3.1c0-1.2,0-2.4,0-3.6c-3.8,3.8-7.7,7.7-11.5,11.5
			c-9.5,9.4-18.9,18.8-28.4,28.2c3,0,5.9,0,8.9,0c10.5-10.4,21.1-20.8,31.6-31.3C481.3,77.1,481.4,76.4,481.5,75.7z"/>
		<path class="st0" d="M587.5,50.5c0-1.1,0-2.2-0.2-3.2c-0.1-0.3-0.2-0.7-0.5-0.8c-1-0.4-2.5-0.2-3.7-0.1
			c-8.4,8.6-16.8,17.1-25.2,25.6c0,1.9,0,3.8,0,5.7c0,0.1,0,0.2-0.1,0.4c-0.1,0.1-0.2,0.2-0.3,0.3c-1,0.5-2.1,0.5-3.3,0.5
			c-1,0-2,0-3-0.1c-1.4,1.4-2.8,2.9-4.2,4.3c0,1-0.1,1.9-0.1,2.9c0,0.8,0.2,2.2-0.6,2.6c-0.4,0.2-0.8,0.2-1.2,0.2
			c-1.2,0-2.5,0-3.7,0c-6.5,6.6-13,13.2-19.5,19.7c2.6,0,5.3,0,7.9,0.1c15.8-16,31.5-31.8,47.2-47.6C580.5,57.5,584,54,587.5,50.5z"
			/>
		<path class="st0" d="M344.9,4.3c-3.1,0-6.1,0-9.2-0.1c-2.9,2.9-5.8,5.8-8.7,8.7c3.1,0,6.2,0.1,9.2,0.1
			C339.1,10.1,342,7.2,344.9,4.3z"/>
		<path class="st0" d="M493.5,88.4c-0.4,0-0.8,0-1.2-0.2c-0.7-0.4-0.3-1-0.3-1.6c0.1-0.7,0-1.4,0-2.1c-2.5,2.5-5.1,5-7.6,7.5
			c-2.1,2.1-4.2,4.1-6.3,6.2c3.6,0,7.3,0,10.9,0c3.3-3.3,6.6-6.7,9.9-10C497.2,88.4,495.4,88.4,493.5,88.4z"/>
		<path class="st0" d="M470.4,100c0.1-0.5,0.3-1,0.6-1.3c0.5-0.6,2.1-0.6,3.6-0.5c5.8-5.8,11.6-11.5,17.4-17.3
			c0-0.7-0.1-1.4-0.1-2.2c0-0.3-0.1-0.6-0.3-0.8c-0.2-0.2-0.4-0.2-0.7-0.3c-0.8-0.1-1.6-0.1-2.4-0.1c-0.9,0-1.9,0-2.8,0
			c-2.6,2.6-5.3,5.3-7.9,7.9c-7.8,7.7-15.6,15.5-23.5,23.2c2.7,0,5.4,0,8.1,0c0.5,0,0.9,0,1.4,0c2.1-2.1,4.2-4.1,6.2-6.2
			C470.2,101.7,470.2,100.9,470.4,100z"/>
		<path class="st0" d="M487.8,22.4c0.8,0,1.5,0,2.3,0c0.5,0,1,0.3,1.5-0.1c0.5-0.6,0.3-2,0.4-2.7c0-0.6,0-1.3,0.1-1.9
			c-1.6,1.6-3.1,3.1-4.7,4.7C487.5,22.4,487.6,22.4,487.8,22.4z"/>
		<path class="st0" d="M516.1,88.2c-6.1,6.1-12.1,12.2-18.2,18.3c-0.6,0.6-1.1,1.1-1.7,1.7c3,0.1,5.9,0.1,8.9,0.1
			c6.6-6.7,13.2-13.3,19.8-20C522,88.2,519,88.2,516.1,88.2z"/>
		<path class="st0" d="M533.7,88.5c-1.7,0-3.4-0.1-5.1-0.1c-6.6,6.7-13.2,13.3-19.7,19.9c0.2,0,0.5,0,0.7,0c2.9,0,5.8,0,8.6,0
			c6.5-6.6,13-13.2,19.5-19.8C536.4,88.5,535,88.5,533.7,88.5z"/>
		<path class="st0" d="M506.8,88.2c-1.3,0-2.6,0-4,0.1c-3.4,3.4-6.7,6.8-10.1,10.2c0.1,0,0.2,0.1,0.2,0.1c0.3,0.2,0.6,0.6,0.6,0.9
			c0.3,1.2,0.2,2.5,0.3,3.7c0,0.9,0.2,1.8,0.1,2.7c0,0.3-0.1,0.6-0.1,0.9c6.2-6.2,12.3-12.4,18.5-18.6
			C510.5,88.2,508.6,88.2,506.8,88.2z"/>
		<path class="st0" d="M384.6,55.6c0-3.2,0.1-6.3,0.1-9.5c-6.2,6.1-12.4,12.2-18.6,18.4c0,2.8,0.1,5.6,0.1,8.3c0,0.3,0,0.7,0,1
			c0.5-0.5,1-1,1.6-1.5C373.4,66.7,379,61.2,384.6,55.6z"/>
		<path class="st0" d="M643.3,52.5c0,0.5,0.1,1.1,0.2,1.6c0,0.2,0,0.3,0.2,0.5c0.1,0.1,0.3,0.2,0.5,0.2c2.1,0.2,4.2,0,6.4,0
			c7.5-7.5,14.9-15,22.4-22.5c0-1.3,0-2.5,0-3.8c0-1.1,0.4-3.3-1-3.7c-0.2-0.1-0.5-0.1-0.8-0.1c-5.7,5.8-11.5,11.6-17.3,17.4
			C650.3,45.5,646.8,49,643.3,52.5z"/>
		<path class="st0" d="M654.3,28.2c0,2,0,4-0.1,6c0,0.4-0.2,0.9-0.5,1.2s-0.7,0.4-1.1,0.5c-1.4,0.3-2.6-0.3-4-0.3
			c-0.7,0-1.4,0-2.2,0c-0.7,0.7-1.4,1.4-2,2.1c-2.3,2.3-4.6,4.7-6.9,7c1.9-0.1,4.9-0.3,5.6,1.3c0.3,0.6,0.2,1.2,0.2,1.9
			c0,0.3,0,0.6,0,0.9c8-8,15.9-16,23.9-24c-1.1,0-2.3,0.1-3.4,0.1c-0.7,0-1.2-0.6-1.2-1.2c-0.1-1.4-0.1-2.8-0.2-4.2
			c-2.7,2.7-5.3,5.5-8,8.2C654.3,27.8,654.3,28,654.3,28.2z"/>
		<path class="st0" d="M638.1,12.8c2.9-3,5.9-5.9,8.8-8.9c-0.6,0-1.1,0-1.7,0c-2.6,0-5.1,0-7.7,0c-2.9,3-5.9,6-8.9,9
			C631.8,12.9,635,12.8,638.1,12.8z"/>
		<path class="st0" d="M616,12.7c3,0.1,5.9,0.1,8.9,0.1c3-3,5.9-6,8.9-8.9c-3,0-6.1,0-9.1,0c-1,1-2,2-3,3
			C619.8,8.8,617.9,10.8,616,12.7z"/>
		<path class="st0" d="M651.2,22.3c0.5,0,1,0,1.4,0.1c0.5,0.1,0.9,0.3,1.2,0.7c0.2,0.3,0.3,0.6,0.3,0.9c2.7-2.7,5.3-5.4,8-8.1
			c-0.1-0.8-0.4-1.5-1.1-1.7c-0.9-0.3-2.3-0.1-3.2-0.1c-0.7,0-2.2,0.2-3.5,0.1c-2.7,2.8-5.4,5.5-8,8.2
			C647.9,22.4,649.5,22.4,651.2,22.3z"/>
		<path class="st0" d="M642.9,13.5c0.1,0.3,0.2,0.6,0.2,0.9c0,1.3,0,2.6,0,3.9c0,1.2-0.3,2.5,0,3.6c0,0,0,0,0,0.1c3-3.1,6-6.1,9-9.2
			c0-0.3,0-0.5,0-0.8c0.1-2.3,0.1-4.5,0.2-6.8c0-0.3,0-0.5-0.1-0.8c-0.2-0.6-0.7-0.7-1.2-0.7c-3,3-6,6-9,9
			C642.3,12.9,642.7,13.1,642.9,13.5z"/>
		<path class="st0" d="M605,12.5c2.5,0.1,4.9,0.1,7.4,0.2c2.9-2.9,5.7-5.9,8.6-8.8c-3.1,0-6.2,0-9.3,0c-2.8,2.9-5.6,5.7-8.4,8.6
			C603.8,12.5,604.4,12.5,605,12.5z"/>
		<path class="st0" d="M494.6,65.1c2.7-2.7,5.4-5.4,8.1-8.1c-1.3,0-2.7,0-4,0c-1.7,0-3.3,0-5,0c-2.7,2.7-5.5,5.4-8.2,8.2
			C488.6,65.1,491.6,65.2,494.6,65.1z"/>
		<path class="st0" d="M384.6,59.4c-6.1,6.1-12.3,12.1-18.4,18.1c0,3.8-0.1,7.6-0.6,11.2c0,0.3-0.1,0.6-0.2,0.8
			c3.2-3.2,6.4-6.3,9.6-9.5s6.5-6.5,9.7-9.7c0-1.6-0.1-3.2-0.1-4.8C384.6,63.5,384.6,61.4,384.6,59.4z"/>
		<path class="st0" d="M654.2,67.7c-0.1,3.4-0.3,6.7-0.6,10.1v0.1c6.4-6.6,12.8-13.2,19.2-19.8c0-3.2,0-6.4,0-9.6
			c-2.4,2.4-4.7,4.8-7,7.3C662,59.7,658.1,63.7,654.2,67.7z"/>
		<path class="st0" d="M654,55.1c0.1,0.1,0.1,0.2,0.1,0.3c0.1,0.2,0.1,0.4,0.1,0.6c0.1,0.6,0,1.2,0,1.8c0,1,0.1,1.9,0.1,2.9
			c0,1.1,0,2.1,0,3.2c6.2-6.4,12.4-12.8,18.6-19.2c0-2.9,0-5.7,0-8.6c-4.1,4.2-8.3,8.4-12.5,12.6C658.3,50.7,656.1,52.9,654,55.1z"
			/>
		<path class="st0" d="M547.2,21.2c0,0.4,0,0.9,0.4,1.1c0.2,0.2,0.5,0.2,0.8,0.3c0.6,0.1,1.3,0.1,1.9,0.1c2.6-2.6,5.3-5.3,7.9-7.9
			c-0.3,0-0.6-0.1-0.8-0.1c-0.5-0.1-0.9-0.1-1.3-0.4c-0.4-0.4-0.5-1.1-0.5-1.7c0.1-1.5,0-3.1,0-4.6c-2.8,2.8-5.6,5.6-8.4,8.4
			C547.1,18.1,547.2,19.7,547.2,21.2z"/>
		<path class="st0" d="M579.6,11.6c0,0.8,0,1.6-0.4,2.2c-0.7,1.2-2.7,0.9-4,1c-5.7,5.9-11.5,11.7-17.2,17.6c0,0.2,0,0.4,0,0.6
			c0,0.7,0.1,1.5-0.6,1.9c-0.3,0.2-0.7,0.3-1.1,0.4c-0.5,0.1-0.9,0.1-1.4,0.1c-3.1,3.1-6.1,6.3-9.2,9.4c0.5,0.1,0.9,0.2,1.1,0.7
			c0.1,0.3,0.1,0.6,0.2,0.9c0,2.2,0,4.4,0,6.7c3.2-3.3,6.5-6.6,9.7-9.9c12.8-13,25.6-26.1,38.4-39.3c-2,0-4,0-5.9,0
			c-1.1,0-2.3,0-3.4,0c-2.1,2.2-4.2,4.3-6.3,6.5C579.6,10.7,579.6,11.1,579.6,11.6z"/>
		<path class="st0" d="M557,23c0.3,0,0.7,0.1,0.9,0.4c0.1,0.1,0.1,0.3,0.1,0.5c0.2,1.6,0.1,3.1,0,4.7c4.4-4.5,8.8-9,13.2-13.5
			c-0.8,0-1.6,0.1-2.4,0.1c-2.3,0.1-4.7,0.1-7.1,0c-2.6,2.6-5.1,5.1-7.7,7.7C555,22.8,556,22.9,557,23z"/>
		<path class="st0" d="M599.6,12.4c2.8-2.8,5.6-5.7,8.3-8.5c-2.6,0-5.1,0-7.7,0c-0.4,0-0.9,0-1.3,0c-2.7,2.8-5.5,5.6-8.2,8.4
			C593.7,12.2,596.6,12.3,599.6,12.4z"/>
		<path class="st0" d="M365.3,89.6l0.1-0.1c-0.1,0.1-0.2,0.2-0.2,0.2S365.3,89.7,365.3,89.6z"/>
		<path class="st0" d="M653.5,78.2c0.1-0.1,0.1-0.2,0.1-0.4c-0.2,0.2-0.3,0.3-0.5,0.5C653.3,78.4,653.4,78.3,653.5,78.2z"/>
		<path class="st0" d="M331.9,98.1c0.1-0.1,0.2-0.2,0.3-0.3C332.1,97.9,332,98,331.9,98.1z"/>
	</g>
</g>
<g>
	<path class="st0" d="M158.2,142.1v3.2h9.6v-3.2c0-0.9,0-1.5,0-1.6c-0.1-0.6-0.4-1-0.9-1c-0.2,0-0.4,0-0.6,0H166c-1.3,0-2-0.9-2-2.8
		c0-1,0.3-1.8,0.8-2.4c0.6-0.6,1.3-0.9,2.2-0.9c0.6,0,1.5,0.1,2.8,0.2c1.2,0.2,2.1,0.2,2.8,0.2c0.8,0,1.8-0.1,3-0.2
		c2.1-0.2,3.1-0.3,3.1-0.3c1,0,1.8,0.3,2.4,0.9s0.9,1.4,0.9,2.5c0,0.9-0.2,1.6-0.7,2.2c-0.5,0.6-1.1,0.9-1.8,0.9
		c-0.3,0-0.6-0.1-1.1-0.2c-0.5-0.1-0.8-0.2-1.1-0.2c-0.6,0-1,0.4-1.2,1.1c-0.1,0.3-0.1,0.9-0.1,1.9v12.7c0,2.1,0.4,3.1,1.2,3.1
		c0.2,0,0.6-0.1,1.1-0.2c0.5-0.1,0.9-0.2,1.1-0.2c0.7,0,1.3,0.3,1.8,0.9c0.5,0.6,0.7,1.3,0.7,2.2c0,1-0.3,1.8-0.9,2.5
		c-0.6,0.6-1.4,0.9-2.4,0.9c0,0-0.1,0-0.2,0c-0.1,0-0.1,0-0.2,0c-0.6,0-1.5-0.1-2.8-0.2c-1.2-0.2-2.2-0.2-2.8-0.2
		c-1.2,0-2.2,0.1-3,0.2c-1.3,0.2-2.1,0.3-2.7,0.3c-0.9,0-1.6-0.3-2.2-0.9c-0.6-0.6-0.8-1.4-0.8-2.5c0-1.9,0.7-2.8,2-2.8
		c0.2,0,0.3,0,0.4,0c0.1,0,0.2,0,0.3,0c0.1,0,0.2,0,0.2,0c0.5,0,0.8-0.3,0.9-1c0-0.3,0-0.9,0-1.6v-4.5h-9.6v4.5c0,1,0,1.6,0,1.6
		c0.1,0.6,0.4,1,0.9,1c0,0,0.1,0,0.2,0c0.1,0,0.2,0,0.3,0c0.1,0,0.2,0,0.4,0c1.3,0,2,0.9,2,2.8c0,1-0.3,1.8-0.8,2.5
		c-0.6,0.6-1.3,0.9-2.2,0.9c-0.6,0-1.4-0.1-2.5-0.2c-1.1-0.2-2-0.2-2.5-0.2c-1.3,0-2.5,0.1-3.4,0.2c-1.5,0.2-2.5,0.3-3.1,0.3
		c-1,0-1.8-0.3-2.4-0.9c-0.6-0.6-0.9-1.4-0.9-2.4c0-0.9,0.2-1.6,0.7-2.2c0.5-0.6,1.1-0.9,1.8-0.9c0.2,0,0.6,0.1,1.1,0.2
		c0.5,0.1,0.8,0.2,1.1,0.2c0.8,0,1.2-1,1.2-3.1v-12.7c0-2-0.4-3.1-1.2-3.1c-0.2,0-0.6,0.1-1.1,0.2c-0.5,0.1-0.8,0.2-1.1,0.2
		c-0.7,0-1.3-0.3-1.8-0.9c-0.5-0.6-0.7-1.3-0.7-2.2c0-1,0.3-1.8,0.9-2.4c0.6-0.6,1.4-0.9,2.4-0.9c0.3,0,1.3,0.1,2.9,0.3
		c1.1,0.1,2.2,0.2,3.3,0.2c0.9,0,1.8-0.1,2.7-0.2c1.2-0.2,2.1-0.3,2.6-0.3c0.9,0,1.7,0.3,2.2,0.9c0.6,0.6,0.8,1.4,0.8,2.5
		c0,1.8-0.7,2.8-2,2.8h-0.4c-0.1,0-0.3,0-0.5,0c-0.5,0-0.8,0.3-0.9,1C158.2,140.6,158.2,141.1,158.2,142.1z"/>
	<path class="st0" d="M206.3,150.8c0,1.3-0.2,2.1-0.5,2.6c-0.3,0.4-1,0.6-1.9,0.6h-11.2c-0.6,0-0.9,0.1-1,0.2
		c-0.1,0.1-0.2,0.4-0.2,0.8c0,1.3,0.4,2.4,1.2,3.2c0.8,0.9,1.9,1.3,3.1,1.3c1.3,0,2.6-0.7,3.9-2.1c0.9-1,1.9-1.5,3-1.5
		c0.9,0,1.7,0.3,2.2,0.8c0.6,0.5,0.8,1.2,0.8,2c0,1.8-1,3.3-2.9,4.5c-1.9,1.2-4.3,1.9-7.1,1.9c-3.6,0-6.5-1.1-8.7-3.3
		c-2.2-2.2-3.3-5.1-3.3-8.8c0-3.7,1.1-6.7,3.2-9c2.2-2.3,5-3.4,8.5-3.4c3.2,0,5.8,0.9,7.8,2.8C205.3,145.2,206.3,147.7,206.3,150.8z
		 M191.7,148.5c0,0.2,0,0.3,0.1,0.5c0.1,0.1,0.4,0.2,1,0.2h5.1c0.5,0,0.7-0.1,0.8-0.2c0.1-0.1,0.2-0.3,0.2-0.6
		c0-0.8-0.4-1.5-1.1-2.1c-0.7-0.6-1.5-0.9-2.5-0.9c-1.2,0-2.2,0.5-3,1.4C191.9,147.5,191.7,148,191.7,148.5z"/>
	<path class="st0" d="M219.1,148.1l3.1,9.9l3.1-9.4c0.2-0.7,0.4-1.3,0.4-1.7c0-0.3-0.2-0.6-0.7-0.8l-0.8-0.3c-0.6-0.2-1-0.9-1-1.9
		c0-0.8,0.2-1.4,0.7-1.9c0.4-0.5,1-0.8,1.7-0.8c0.5,0,1.2,0.1,2.1,0.2c0.9,0.1,1.7,0.2,2.1,0.2c0.5,0,1.2-0.1,2.2-0.2
		c1-0.1,1.7-0.2,2.2-0.2c1.8,0,2.8,1,2.8,3c0,0.7-0.2,1.3-0.6,1.9c-0.4,0.5-0.9,0.8-1.5,0.8c-0.1,0-0.3,0-0.6-0.1
		c-0.3-0.1-0.5-0.1-0.6-0.1c-0.6,0-1,0.5-1.3,1.4l-0.6,1.6l-3.9,10.3c-1.2,3.2-2.1,5.2-2.5,6.2c-0.5,0.9-1.2,2-2,3.1
		c-2.4,3.1-5.4,4.6-9,4.6c-2.2,0-4-0.5-5.4-1.6c-1.4-1-2.1-2.4-2.1-4c0-1.1,0.4-2.1,1.1-2.8c0.7-0.7,1.6-1.1,2.7-1.1
		c0.9,0,1.7,0.3,2.3,0.8c0.6,0.6,0.9,1.3,0.9,2.2c0,0.3,0,0.7-0.1,1c0.4,0.2,0.8,0.3,1.1,0.3c0.8,0,1.6-0.5,2.4-1.5
		c0.7-1,1.1-1.8,1.1-2.5c0-0.6-0.5-2.2-1.6-4.6l-5.1-12.1c-0.4-0.9-0.7-1.3-1.1-1.3c0,0-0.3,0-0.7,0.1c0,0-0.1,0-0.2,0
		c-0.1,0-0.2,0-0.2,0c-1.6,0-2.3-0.9-2.3-2.6c0-0.9,0.3-1.6,0.8-2.2c0.5-0.6,1.2-0.9,2-0.9c0.5,0,1.2,0.1,2.2,0.2
		c1,0.1,1.7,0.2,2.2,0.2c0.6,0,1.6-0.1,2.9-0.2c1.4-0.1,2.1-0.2,2.2-0.2c1.7,0,2.5,0.9,2.5,2.7c0,1.3-0.6,2-1.9,2.2
		c-0.6,0.1-1,0.4-1,0.8C218.8,147.1,218.9,147.5,219.1,148.1z"/>
	<path class="st0" d="M249.1,152.5c-0.2,1.5-0.9,2.3-2.2,2.3h-1.8c-1.3,0-2-0.8-2.2-2.3l-1.4-14.8c-0.1-0.9-0.1-1.6-0.1-1.8
		c0-2.1,1.5-3.1,4.6-3.1c3.1,0,4.6,1,4.6,3.1c0,0.6,0,1.2-0.1,1.8L249.1,152.5z M246,165c-1.2,0-2.2-0.4-3-1.3
		c-0.9-0.9-1.3-1.9-1.3-3.1c0-1.2,0.4-2.2,1.3-3.1c0.9-0.9,1.9-1.3,3-1.3c1.2,0,2.2,0.4,3.1,1.3c0.9,0.9,1.3,1.9,1.3,3.1
		c0,1.2-0.4,2.2-1.3,3.1C248.2,164.6,247.2,165,246,165z"/>
	<path class="st0" d="M282.4,142.1v3.2h9.6v-3.2c0-0.9,0-1.5,0-1.6c-0.1-0.6-0.4-1-0.9-1c-0.2,0-0.4,0-0.6,0h-0.4
		c-1.3,0-2-0.9-2-2.8c0-1,0.3-1.8,0.8-2.4c0.6-0.6,1.3-0.9,2.2-0.9c0.6,0,1.5,0.1,2.8,0.2c1.2,0.2,2.1,0.2,2.8,0.2
		c0.8,0,1.8-0.1,3-0.2c2.1-0.2,3.1-0.3,3.1-0.3c1,0,1.8,0.3,2.4,0.9c0.6,0.6,0.9,1.4,0.9,2.5c0,0.9-0.2,1.6-0.7,2.2
		c-0.5,0.6-1.1,0.9-1.8,0.9c-0.3,0-0.6-0.1-1.1-0.2c-0.5-0.1-0.8-0.2-1.1-0.2c-0.6,0-1,0.4-1.2,1.1c-0.1,0.3-0.1,0.9-0.1,1.9v12.7
		c0,2.1,0.4,3.1,1.2,3.1c0.2,0,0.6-0.1,1.1-0.2c0.5-0.1,0.9-0.2,1.1-0.2c0.7,0,1.3,0.3,1.8,0.9c0.5,0.6,0.7,1.3,0.7,2.2
		c0,1-0.3,1.8-0.9,2.5c-0.6,0.6-1.4,0.9-2.4,0.9c0,0-0.1,0-0.2,0c-0.1,0-0.1,0-0.2,0c-0.6,0-1.5-0.1-2.8-0.2
		c-1.2-0.2-2.2-0.2-2.8-0.2c-1.2,0-2.2,0.1-3,0.2c-1.3,0.2-2.1,0.3-2.7,0.3c-0.9,0-1.6-0.3-2.2-0.9c-0.6-0.6-0.8-1.4-0.8-2.5
		c0-1.9,0.7-2.8,2-2.8c0.2,0,0.3,0,0.4,0c0.1,0,0.2,0,0.3,0c0.1,0,0.2,0,0.2,0c0.5,0,0.8-0.3,0.9-1c0-0.3,0-0.9,0-1.6v-4.5h-9.6v4.5
		c0,1,0,1.6,0,1.6c0.1,0.6,0.4,1,0.9,1c0,0,0.1,0,0.2,0c0.1,0,0.2,0,0.3,0c0.1,0,0.2,0,0.4,0c1.3,0,2,0.9,2,2.8c0,1-0.3,1.8-0.8,2.5
		c-0.6,0.6-1.3,0.9-2.2,0.9c-0.6,0-1.4-0.1-2.5-0.2c-1.1-0.2-2-0.2-2.5-0.2c-1.3,0-2.5,0.1-3.4,0.2c-1.5,0.2-2.5,0.3-3.1,0.3
		c-1,0-1.8-0.3-2.4-0.9c-0.6-0.6-0.9-1.4-0.9-2.4c0-0.9,0.2-1.6,0.7-2.2c0.5-0.6,1.1-0.9,1.8-0.9c0.2,0,0.6,0.1,1.1,0.2
		c0.5,0.1,0.8,0.2,1.1,0.2c0.8,0,1.2-1,1.2-3.1v-12.7c0-2-0.4-3.1-1.2-3.1c-0.2,0-0.6,0.1-1.1,0.2c-0.5,0.1-0.8,0.2-1.1,0.2
		c-0.7,0-1.3-0.3-1.8-0.9c-0.5-0.6-0.7-1.3-0.7-2.2c0-1,0.3-1.8,0.9-2.4c0.6-0.6,1.4-0.9,2.4-0.9c0.3,0,1.3,0.1,2.9,0.3
		c1.1,0.1,2.2,0.2,3.3,0.2c0.9,0,1.8-0.1,2.7-0.2c1.2-0.2,2.1-0.3,2.6-0.3c0.9,0,1.7,0.3,2.2,0.9c0.6,0.6,0.8,1.4,0.8,2.5
		c0,1.8-0.7,2.8-2,2.8h-0.4c-0.1,0-0.3,0-0.5,0c-0.5,0-0.8,0.3-0.9,1C282.4,140.6,282.4,141.1,282.4,142.1z"/>
	<path class="st0" d="M317.9,141.2c0.9,0,1.3,0.6,1.3,1.8v13.8c0,1.6,0.3,2.3,0.9,2.3c0.1,0,0.3,0,0.7-0.1c0.3-0.1,0.6-0.1,0.8-0.1
		c1.3,0,1.9,0.8,1.9,2.4c0,2.1-0.9,3.2-2.7,3.2c-0.3,0-1.2-0.1-2.6-0.2c-0.9-0.1-1.8-0.1-2.9-0.1c-0.6,0-1.4,0.1-2.4,0.2
		c-1.1,0.1-1.9,0.2-2.4,0.2c-0.8,0-1.5-0.3-2-0.8c-0.5-0.6-0.8-1.3-0.8-2.2c0-1.7,0.7-2.6,2.2-2.6l1.2,0.3c0.1,0,0.2,0,0.3,0
		c0.6,0,0.8-0.9,0.8-2.6v-7.4c0-1.7-0.3-2.6-0.8-2.6c-0.1,0-0.4,0.1-0.8,0.2c-0.3,0.1-0.6,0.1-0.7,0.1c-1.5,0-2.2-0.9-2.2-2.6
		c0-0.9,0.3-1.7,0.8-2.2c0.5-0.6,1.2-0.8,2.1-0.8c0.3,0,0.8,0,1.5,0.1c1.1,0.2,1.9,0.2,2.6,0.2c0.5,0,1.2-0.1,2-0.2
		C317.3,141.2,317.8,141.2,317.9,141.2z M315.2,139.4c-1.1,0-2.1-0.4-2.9-1.2c-0.8-0.8-1.2-1.8-1.2-2.9c0-1.2,0.4-2.1,1.2-3
		c0.8-0.8,1.8-1.2,3-1.2c1.2,0,2.1,0.4,3,1.2c0.8,0.8,1.2,1.8,1.2,3c0,1.2-0.4,2.1-1.2,3C317.4,139,316.4,139.4,315.2,139.4z"/>
	<path class="st0" d="M336.6,152.5c-0.2,1.5-0.9,2.3-2.2,2.3h-1.8c-1.3,0-2-0.8-2.2-2.3l-1.4-14.8c-0.1-0.9-0.1-1.6-0.1-1.8
		c0-2.1,1.5-3.1,4.6-3.1s4.6,1,4.6,3.1c0,0.6,0,1.2-0.1,1.8L336.6,152.5z M333.4,165c-1.2,0-2.2-0.4-3-1.3c-0.9-0.9-1.3-1.9-1.3-3.1
		c0-1.2,0.4-2.2,1.3-3.1c0.9-0.9,1.9-1.3,3-1.3c1.2,0,2.2,0.4,3.1,1.3c0.9,0.9,1.3,1.9,1.3,3.1c0,1.2-0.4,2.2-1.3,3.1
		C335.7,164.6,334.6,165,333.4,165z"/>
	<path class="st0" d="M369.8,142.1v3.2h9.6v-3.2c0-0.9,0-1.5,0-1.6c-0.1-0.6-0.4-1-0.9-1c-0.2,0-0.4,0-0.6,0h-0.4
		c-1.3,0-2-0.9-2-2.8c0-1,0.3-1.8,0.8-2.4c0.6-0.6,1.3-0.9,2.2-0.9c0.6,0,1.5,0.1,2.8,0.2c1.2,0.2,2.1,0.2,2.8,0.2
		c0.8,0,1.8-0.1,3-0.2c2.1-0.2,3.1-0.3,3.1-0.3c1,0,1.8,0.3,2.4,0.9c0.6,0.6,0.9,1.4,0.9,2.5c0,0.9-0.2,1.6-0.7,2.2
		c-0.5,0.6-1.1,0.9-1.8,0.9c-0.3,0-0.6-0.1-1.1-0.2c-0.5-0.1-0.8-0.2-1.1-0.2c-0.6,0-1,0.4-1.2,1.1c-0.1,0.3-0.1,0.9-0.1,1.9v12.7
		c0,2.1,0.4,3.1,1.2,3.1c0.2,0,0.6-0.1,1.1-0.2c0.5-0.1,0.9-0.2,1.1-0.2c0.7,0,1.3,0.3,1.8,0.9c0.5,0.6,0.7,1.3,0.7,2.2
		c0,1-0.3,1.8-0.9,2.5c-0.6,0.6-1.4,0.9-2.4,0.9c0,0-0.1,0-0.2,0c-0.1,0-0.1,0-0.2,0c-0.6,0-1.5-0.1-2.8-0.2
		c-1.2-0.2-2.2-0.2-2.8-0.2c-1.2,0-2.2,0.1-3,0.2c-1.3,0.2-2.1,0.3-2.7,0.3c-0.9,0-1.6-0.3-2.2-0.9c-0.6-0.6-0.8-1.4-0.8-2.5
		c0-1.9,0.7-2.8,2-2.8c0.2,0,0.3,0,0.4,0c0.1,0,0.2,0,0.3,0c0.1,0,0.2,0,0.2,0c0.5,0,0.8-0.3,0.9-1c0-0.3,0-0.9,0-1.6v-4.5h-9.6v4.5
		c0,1,0,1.6,0,1.6c0.1,0.6,0.4,1,0.9,1c0,0,0.1,0,0.2,0c0.1,0,0.2,0,0.3,0c0.1,0,0.2,0,0.4,0c1.3,0,2,0.9,2,2.8c0,1-0.3,1.8-0.8,2.5
		c-0.6,0.6-1.3,0.9-2.2,0.9c-0.6,0-1.4-0.1-2.5-0.2c-1.1-0.2-2-0.2-2.5-0.2c-1.3,0-2.5,0.1-3.4,0.2c-1.5,0.2-2.5,0.3-3.1,0.3
		c-1,0-1.8-0.3-2.4-0.9c-0.6-0.6-0.9-1.4-0.9-2.4c0-0.9,0.2-1.6,0.7-2.2c0.5-0.6,1.1-0.9,1.8-0.9c0.2,0,0.6,0.1,1.1,0.2
		c0.5,0.1,0.8,0.2,1.1,0.2c0.8,0,1.2-1,1.2-3.1v-12.7c0-2-0.4-3.1-1.2-3.1c-0.2,0-0.6,0.1-1.1,0.2c-0.5,0.1-0.8,0.2-1.1,0.2
		c-0.7,0-1.3-0.3-1.8-0.9c-0.5-0.6-0.7-1.3-0.7-2.2c0-1,0.3-1.8,0.9-2.4c0.6-0.6,1.4-0.9,2.4-0.9c0.3,0,1.3,0.1,2.9,0.3
		c1.1,0.1,2.2,0.2,3.3,0.2c0.9,0,1.8-0.1,2.7-0.2c1.2-0.2,2.1-0.3,2.6-0.3c0.9,0,1.7,0.3,2.2,0.9c0.6,0.6,0.8,1.4,0.8,2.5
		c0,1.8-0.7,2.8-2,2.8h-0.4c-0.1,0-0.3,0-0.5,0c-0.5,0-0.8,0.3-0.9,1C369.8,140.6,369.8,141.1,369.8,142.1z"/>
	<path class="st0" d="M407.3,165c-3.8,0-6.7-1.1-8.8-3.2c-2.1-2.1-3.1-5.2-3.1-9c0-3.9,1-6.9,3.1-9c2-2.2,4.9-3.2,8.6-3.2
		c3.6,0,6.5,1.1,8.6,3.2c2.1,2.1,3.1,5.1,3.1,8.8c0,3.9-1,7-3,9.2C413.8,163.9,411,165,407.3,165z M407.2,146.2
		c-1.3,0-2.4,0.6-3.2,1.8c-0.8,1.2-1.2,2.8-1.2,4.8c0,2.1,0.4,3.7,1.2,4.9c0.8,1.2,1.9,1.7,3.3,1.7c2.8,0,4.3-2.2,4.3-6.6
		C411.5,148.4,410.1,146.2,407.2,146.2z"/>
	<path class="st0" d="M431,148.2l2,9.8l2.9-13.5c0.3-1.3,0.8-2.2,1.4-2.7c0.6-0.4,1.7-0.7,3.3-0.7c1.8,0,3,0.2,3.6,0.7
		c0.6,0.4,1,1.5,1.4,3.2l2.6,13l2.4-10.3c0.1-0.2,0.1-0.5,0.1-0.6c0-0.5-0.4-0.7-1.1-0.7c-1.5,0-2.2-0.9-2.2-2.6
		c0-1.8,0.9-2.7,2.6-2.7c0.5,0,1.3,0.1,2.3,0.2c1,0.1,1.8,0.2,2.3,0.2c0.5,0,1.2-0.1,2.2-0.2c1-0.1,1.7-0.2,2.2-0.2
		c0.8,0,1.4,0.3,1.9,0.8c0.5,0.5,0.7,1.2,0.7,2.1c0,0.8-0.2,1.4-0.6,1.9c-0.4,0.5-0.9,0.8-1.5,0.8c-0.2,0-0.4,0-0.5,0
		c-0.4-0.1-0.7-0.1-0.7-0.1c-0.4,0-0.7,0.6-1.1,1.7c0,0-0.1,0.5-0.4,1.3l-3.8,11.9c-0.6,2-1.4,2.9-2.4,2.9c-0.3,0-0.8,0-1.4-0.1
		c-0.6-0.1-1.1-0.1-1.4-0.1c-0.3,0-0.7,0-1.3,0.1c-0.6,0.1-1,0.1-1.3,0.1c-1.1,0-1.9-1.2-2.4-3.6l-2.2-12.1l-2.7,11.7
		c-0.4,1.7-0.7,2.8-1,3.3c-0.3,0.4-0.7,0.7-1.4,0.7c-0.3,0-0.8,0-1.4-0.1c-0.6-0.1-1.1-0.1-1.5-0.1c-0.3,0-0.8,0-1.5,0.1
		c-0.6,0.1-1.1,0.1-1.5,0.1c-0.9,0-1.6-0.8-2.1-2.3l-3.7-13.9c-0.2-0.9-0.6-1.4-1.2-1.4c-0.1,0-0.3,0-0.6,0.1
		c-0.3,0-0.5,0.1-0.6,0.1c-1.3,0-1.9-0.9-1.9-2.7c0-2,0.9-3,2.7-3c0.5,0,1.2,0.1,2.2,0.2c1,0.1,1.7,0.2,2.2,0.2
		c0.5,0,1.3-0.1,2.4-0.2c1.1-0.1,1.9-0.2,2.4-0.2c1.7,0,2.5,0.9,2.5,2.8c0,1.6-0.6,2.4-1.8,2.5c-0.6,0.1-0.9,0.1-1.1,0.2
		c-0.1,0.1-0.2,0.3-0.2,0.6v0.4C430.9,147.7,430.9,147.9,431,148.2z"/>
	<path class="st0" d="M471.9,140.8c2.3,0,4.5,0.9,6.4,2.7v-3.3c0-1.1-0.4-1.7-1.1-1.7c-0.2,0-0.6,0-1.1,0.1
		c-0.4,0.1-0.8,0.2-1.2,0.2c-0.6,0-1.1-0.2-1.5-0.7c-0.4-0.5-0.6-1.1-0.6-1.8c0-2,1-2.9,3.1-2.9c0.7,0,1.2,0,1.5,0
		c1.2,0.1,2,0.2,2.5,0.2c0.4,0,1,0,1.7-0.1c0.8-0.1,1.3-0.1,1.7-0.1c0.8,0,1.3,0.2,1.6,0.5c0.3,0.4,0.4,1,0.4,1.9v20.9
		c0,1.6,0.3,2.3,0.9,2.3c0.2,0,0.4,0,0.7-0.1c0.2-0.1,0.4-0.1,0.7-0.1c1.3,0,2,0.8,2,2.3c0,0.9-0.2,1.7-0.7,2.3
		c-0.5,0.6-1.1,0.9-1.8,0.9h-0.3l-1.6-0.3c-0.4-0.1-0.9-0.1-1.6-0.1c-0.8,0-1.5,0-2,0.1c-0.8,0.1-1.2,0.1-1.2,0.1
		c-0.9,0-1.4-0.6-1.4-1.7v-1.7c-1.6,2.7-4,4.1-7.2,4.1c-2.8,0-5.1-1.2-6.9-3.5c-1.8-2.3-2.7-5.2-2.7-8.7c0-3.6,0.9-6.5,2.7-8.7
		C466.7,141.9,469,140.8,471.9,140.8z M473.6,146.6c-1.1,0-2.1,0.5-2.8,1.6c-0.7,1.1-1.1,2.5-1.2,4.4v0.6c0,1.9,0.4,3.3,1.1,4.4
		c0.7,1.1,1.7,1.6,2.9,1.6c1.3,0,2.4-0.6,3.3-1.7c0.8-1.2,1.3-2.7,1.3-4.6c0-1.9-0.4-3.4-1.2-4.5C476,147.2,474.9,146.6,473.6,146.6
		z"/>
	<path class="st0" d="M501.6,148.1l3.1,9.9l3.1-9.4c0.2-0.7,0.4-1.3,0.4-1.7c0-0.3-0.2-0.6-0.7-0.8l-0.8-0.3c-0.6-0.2-1-0.9-1-1.9
		c0-0.8,0.2-1.4,0.7-1.9c0.4-0.5,1-0.8,1.7-0.8c0.5,0,1.2,0.1,2.1,0.2c0.9,0.1,1.7,0.2,2.1,0.2c0.5,0,1.2-0.1,2.2-0.2
		c1-0.1,1.7-0.2,2.2-0.2c1.8,0,2.8,1,2.8,3c0,0.7-0.2,1.3-0.6,1.9c-0.4,0.5-0.9,0.8-1.5,0.8c-0.1,0-0.3,0-0.6-0.1
		c-0.3-0.1-0.5-0.1-0.6-0.1c-0.6,0-1,0.5-1.3,1.4l-0.6,1.6l-3.9,10.3c-1.2,3.2-2.1,5.2-2.5,6.2c-0.5,0.9-1.2,2-2,3.1
		c-2.4,3.1-5.4,4.6-9,4.6c-2.2,0-4-0.5-5.4-1.6c-1.4-1-2.1-2.4-2.1-4c0-1.1,0.4-2.1,1.1-2.8c0.7-0.7,1.6-1.1,2.7-1.1
		c0.9,0,1.7,0.3,2.3,0.8c0.6,0.6,0.9,1.3,0.9,2.2c0,0.3,0,0.7-0.1,1c0.4,0.2,0.8,0.3,1.1,0.3c0.8,0,1.6-0.5,2.4-1.5
		c0.7-1,1.1-1.8,1.1-2.5c0-0.6-0.5-2.2-1.6-4.6L494,148c-0.4-0.9-0.7-1.3-1.1-1.3c0,0-0.3,0-0.7,0.1c0,0-0.1,0-0.2,0
		c-0.1,0-0.2,0-0.2,0c-1.6,0-2.3-0.9-2.3-2.6c0-0.9,0.3-1.6,0.8-2.2c0.5-0.6,1.2-0.9,2-0.9c0.5,0,1.2,0.1,2.2,0.2
		c1,0.1,1.7,0.2,2.2,0.2c0.6,0,1.6-0.1,2.9-0.2c1.4-0.1,2.1-0.2,2.2-0.2c1.7,0,2.5,0.9,2.5,2.7c0,1.3-0.6,2-1.9,2.2
		c-0.6,0.1-1,0.4-1,0.8C501.3,147.1,501.4,147.5,501.6,148.1z"/>
	<path class="st0" d="M531.6,152.5c-0.2,1.5-0.9,2.3-2.2,2.3h-1.8c-1.3,0-2-0.8-2.2-2.3l-1.4-14.8c-0.1-0.9-0.1-1.6-0.1-1.8
		c0-2.1,1.5-3.1,4.6-3.1c3.1,0,4.6,1,4.6,3.1c0,0.6,0,1.2-0.1,1.8L531.6,152.5z M528.5,165c-1.2,0-2.2-0.4-3-1.3
		c-0.9-0.9-1.3-1.9-1.3-3.1c0-1.2,0.4-2.2,1.3-3.1c0.9-0.9,1.9-1.3,3-1.3c1.2,0,2.2,0.4,3.1,1.3c0.9,0.9,1.3,1.9,1.3,3.1
		c0,1.2-0.4,2.2-1.3,3.1C530.7,164.6,529.7,165,528.5,165z"/>
</g>
</svg>
