<?xml version="1.0" encoding="utf-8"?>
<!-- Generator: Adobe Illustrator 27.9.1, SVG Export Plug-In . SVG Version: 6.00 Build 0)  -->
<svg version="1.1" id="Layer_1" xmlns="http://www.w3.org/2000/svg" xmlns:xlink="http://www.w3.org/1999/xlink" x="0px" y="0px"
	 viewBox="0 0 612 105" style="enable-background:new 0 0 612 105;" xml:space="preserve">
<style type="text/css">
	.st0{fill-rule:evenodd;clip-rule:evenodd;fill:#FFFFFF;}
	.st1{fill:#FFFFFF;}
</style>
<path class="st0" d="M601.16,93.67c-2.71,0-4.87-2.17-4.87-4.87c0-2.66,2.16-4.84,4.87-4.84c2.66,0,4.84,2.2,4.84,4.84
	C606,91.5,603.8,93.67,601.16,93.67z M601.16,84.87c-2.21,0-3.95,1.76-3.95,3.93c0,2.2,1.73,3.95,3.95,3.95
	c2.17,0,3.93-1.76,3.93-3.95C605.09,86.63,603.33,84.87,601.16,84.87z M602.11,88.92l1.09,1.9h-1.03l-1-1.9h-0.89v1.9h-0.87v-4.48
	h2.17c0.38,0,0.87,0.01,1.21,0.2c0.4,0.27,0.53,0.69,0.53,1.17C603.33,88.53,602.91,88.86,602.11,88.92z M601.39,86.98h-1.09v1.28
	h1.32c0.49,0,0.85-0.1,0.85-0.68C602.46,86.98,601.81,86.98,601.39,86.98z M592.77,73.33c0,10.04-6.69,16.86-16.23,16.86
	c-4.44,0-8.16-1.85-12.38-2.84c-1.81-0.46-1.74-1.08-2.11-2.9l-2.25-10.5c-0.22-1.08-0.95-3.29,0.86-3.29
	c1.17,0,1.32,0.69,1.61,1.68c2.32,7.36,6.84,14.32,14.92,14.32c5.68,0,10.04-3.67,10.04-9.81c0-6.51-4.6-7.5-16.32-12.96
	c-6.25-2.9-10.53-5.89-10.53-13.95c0-8.82,5.82-15.24,14.32-15.24c5.98,0,9.04,2.98,11.21,2.98c0.95,0,2.76-1.22,3.71-1.22
	c1.09,0,0.87,1.15,1.03,2.9l0.78,10.26c0.14,1.71-0.08,2.62-1.67,2.62c-1.68,0-2.76-14.25-15.29-14.25c-4.79,0-8.07,2.9-8.07,8.03
	c0,5.14,4.01,6.15,13.75,10.67C587.96,60.33,592.77,63.62,592.77,73.33z M529.36,89.68c-8.5,0-12.51-0.31-15.2-0.31
	c-2.25,0-4.44,0.31-6.69,0.31c-1.25,0-2.9,0.29-2.9-1.08c0-2.9,5.82,0,5.82-6.9V44.76c0-7.81-7.79-5.29-7.79-8.13
	c0-0.77,0.81-1.22,1.32-1.22c1.37,0,2.84,0.31,10.04,0.31c3.79,0,7.5-0.31,11.29-0.31c9.75,0,30.94,1.22,30.94,25.21
	C556.16,82.78,537.15,89.68,529.36,89.68z M525.24,38.34c-5.47,0-5.91,1.9-5.91,7.19v35.64c0,5.05,5.39,5.59,8.23,5.59
	c11.36,0,19.43-7.81,19.43-23.67C546.98,55.79,543.42,38.34,525.24,38.34z M475.5,90.2c-14.64,0-24.46-10.34-24.46-25.9
	c0-16.77,9.68-29.42,27.07-29.56c14.19-0.17,25.04,9.73,25.04,25.95C503.18,71.43,498.72,90.2,475.5,90.2z M475.95,38.03
	c-12.29,0.22-15.94,10.8-15.94,21.92c0,11.17,4.57,27.19,17.59,26.97c12.53-0.23,16.62-10.5,16.62-23.22
	C494.22,46.76,485.34,37.86,475.95,38.03z M418.88,90.2c-14.64,0-24.46-10.34-24.46-25.9c0-16.77,9.68-29.42,27.07-29.56
	c14.19-0.17,25.03,9.73,25.03,25.95C446.53,71.43,442.1,90.2,418.88,90.2z M419.31,38.03c-12.29,0.22-15.93,10.8-15.93,21.92
	c0,11.17,4.6,27.19,17.62,26.97c12.51-0.23,16.59-10.5,16.59-23.22C437.58,46.76,428.72,37.86,419.31,38.03z M391.95,33.36
	c-4.65,0,3.07-12.15-15.99-12.15c-11.97,0-12.35,0.09-12.35,7.27v14.56c0,4.47,0,5.2,4.25,5.2h6.22c8.49,0,8.8-9.57,10.78-9.57
	c0.68,0,1.77-0.2,1.86,2.6l0.7,18.52c0.09,1.35,0.69,5.09-1.68,5.09c-3.16,0-0.4-11.02-10.67-11.02h-7.31
	c-4.56,0-4.15,1.25-4.15,7.28v15.38c0,11.54,11.16,8.95,11.16,11.75c0,2.08-2.08,1.67-4.53,1.67c-3.76,0-7.41-0.42-11.76-0.42
	c-3.06,0-7.21,0.42-12.64,0.42c-1.28,0-1.89-0.51-1.89-1.15c0-4.78,7.51,0.83,7.51-11.84V28.28c0-9.36-11.16-6.04-11.16-10.18
	c0-0.94,0.78-1.77,2.16-1.77c4.06,0,11.17,0.42,26.29,0.42c7.01,0,13.82-0.42,22.5-0.42c1.3,0,1.98,1.04,1.98,1.98l0.4,10.3
	C393.74,29.94,394.23,33.36,391.95,33.36z M321.67,47.81c-0.44,15.05-0.2,37.73-0.2,37.73c0,3.56,0,4.47-0.77,4.52
	c-0.87,0.08-1.39,0-3-2.03c0,0-17.5-21.86-30.06-37.02c-0.98-1.15-1.8-2.07-2.54-2.54c-0.27-0.18-0.63-0.59-0.63,1.21v28.71
	c0,3.96,1.99,7.51,5.76,8.96c1.63,0.63,3.35-0.14,3.2,1.35c-0.05,0.66-1.84,0.57-3.29,0.59c-2.25,0.04-4.6-0.29-7.54-0.18
	c-2.27,0.08-3.49,0.26-5.79,0.48c-0.85,0.09-1.64,0.29-1.94-0.38c-0.51-1.19,1.9-1.82,2.9-2.41c2.12-1.26,2.84-5.03,3.09-8.89
	l0.05-30.72c0-3.06-0.22-4.69-1.98-6.84c-0.95-1.17-1.77-1.55-3.02-2.41c-1.58-1.05-4.28-1.22-4.28-2.36c0-1.52,2.07-1.15,3.67-1.15
	c0,0,3.09,0.18,5.09,0.17c1.48-0.01,2.53-0.14,3.8-0.17c0,0,1.76-0.2,2.76,0.2c1.3,0.49,1.71,1.39,2.58,2.47
	c10.48,12.92,24.95,30.85,24.95,30.85c0.9,1.13,1.94,2.23,2.32,2.23c0.51,0,0.86-0.04,0.86-1.17l0.29-18.07
	c0-5.3-1.07-12.19-4.53-13.24c-1.67-0.51-4.56-0.76-4.56-2.03c0-1.28,1.76-1.05,2.9-1.05c2.25,0,4.7,0.55,7.74,0.59
	c2.17,0.01,3.35-0.2,5.6-0.2c0.66,0,3.09-0.51,3.09,0.77c0,1.3-2.32,1.39-3.29,2.03C322.35,39.49,321.8,43.7,321.67,47.81z
	 M269.34,84.79c-1.19,3.09-4.23,5.37-7.24,5.37c-4.3,0-10.18-1.15-14.49-1.15c-4.3,0-7.92,0.64-12.21,0.64c-1.99,0-2.97,0-2.97-1.3
	c0-1.28,1.26-0.81,2.44-1.52c2.11-1.3,2.53-4.26,2.53-8.84V47.71c0-3.93,0.01-10.5-2.67-10.9c-1.99-0.33-4.65-0.6-4.65-1.89
	c0-1.3,1.89-0.87,3.03-0.87c4.51,0,8.84,0.22,13.78,0.29c4.96,0,13.17-0.44,18.13-0.44c1.48,0,2.76,0,2.76,1.61
	c0,1.76-0.26,3.53-0.26,5.3c0,1.76,0.09,3.06,0.09,4.83c0,0.87-0.04,1.45-1,1.45c-1.03,0-1.09-1.59-1.15-2.32
	c-0.46-5.05-2.63-7.38-10.16-7.38l-5.07-0.14c-1.81,0-3.09,1.64-3.09,4.78v14.06c0,1.28,1.34,2.33,4.53,2.17
	c3.71-0.17,6.51,0.27,7.54-3.18c0.69-2.25,1.72-3.8,2.36-3.8c0.98,0,0.98,1.13,0.98,2.25c0,2.42-0.26,4.83-0.26,7.23
	c0,2.41,0.69,5.25,0.69,7.67c0,1.13-0.44,1.81-1.67,1.81c-0.95,0-1.04-3.39-1.81-4.99c-1.61-3.29-4.97-3.62-8.69-3.62
	c-3.1,0-3.67,1.05-3.67,3.06v13.74c0,5.95,2.29,7.46,5.69,7.7c6.24,0.44,12.02-2.85,14.22-5.51c2.17-2.66,2.16-3.48,3.18-3.48
	c0.77,0,0.59,1.22,0.59,2.03C270.81,80.73,270.04,83.04,269.34,84.79z M204.04,90.47c-6.63,0-14.32-1.15-16.45-1.09
	c-2.38,0.05-3.98,0.59-5.86,0.59c-1.09,0-1.99,0-1.99-0.87c0-1.21,1.22-1.61,2.3-2.11c2.45-1.04,2.58-5.55,2.58-8.69V47.49
	c0-7.96-0.96-8.84-3.15-9.57c-2.38-0.87-4.7-1.22-4.7-2.36c0-1.52,2.07-1.15,3.67-1.15c0,0,5.42,0.05,8.89,0
	c4.05-0.08,7.19-0.49,10.34-0.42c20.21,0.42,31.62,8.89,31.81,27.88C231.7,80.24,216.86,90.47,204.04,90.47z M199.42,37.3
	c-4.06,0-4.61,2.63-4.61,6.82v33.53c-0.23,7.81,2.08,10.31,8.86,10.31c9.4,0,16.63-7.15,17.22-22.05
	C221.57,47.97,211.13,37.3,199.42,37.3z M173.36,83.87c-1.71,4.1-5.65,7.15-9.68,7.15c-5.74,0-13.6-1.54-19.34-1.54
	s-10.56,0.86-16.3,0.86c-2.66,0-3.95,0-3.95-1.72s1.71-1.08,3.24-2.04c2.84-1.72,3.37-5.66,3.37-11.76v-40.4
	c0-5.25,0.04-14.01-3.57-14.56c-2.66-0.42-6.19-0.78-6.19-2.5s2.53-1.15,4.06-1.15c6,0,11.79,0.27,18.36,0.38
	c6.6,0,17.58-0.59,24.18-0.59c1.95,0,3.67,0,3.67,2.14c0,2.36-0.35,4.71-0.35,7.08c0,2.36,0.14,4.08,0.14,6.43
	c0,1.19-0.08,1.94-1.35,1.94c-1.37,0-1.46-2.12-1.55-3.1c-0.59-6.75-3.49-10.07-13.54-10.07h-6.77c-2.4,0-4.1,2.2-4.1,6.37v18.75
	c0,1.72,1.8,3.11,6.04,2.93c4.97-0.22,8.69,0.35,10.07-4.26c0.94-3,2.3-5.07,3.16-5.07c1.28,0,1.28,1.5,1.28,3
	c0,3.22-0.22,6.04-0.22,9.26c0,3.2,0.73,7.32,0.73,10.53c0,1.5-0.51,2.49-2.14,2.49c-1.28,0-1.41-4.53-2.44-6.68
	c-2.14-4.39-6.63-4.81-11.6-4.81c-4.12,0-4.88,1.39-4.88,4.06v18.34c0,7.92,3.06,9.95,7.59,10.26c8.31,0.59,15.87-3.48,18.79-7.01
	c2.9-3.53,3.03-4.97,4.41-4.97c1.03,0,0.77,1.63,0.77,2.71C175.29,78.48,174.3,81.59,173.36,83.87z"/>
<g>
	<path class="st1" d="M82.86,18.88c-8.8-8.74-20.42-13.49-32.88-13.49C24.38,5.48,3.62,26.36,3.71,51.96
		c0.09,25.55,20.9,46.28,46.42,46.28c0.05,0,0.1,0,0.16,0c12.4-0.04,24.04-4.91,32.79-13.71c8.74-8.8,13.53-20.47,13.49-32.88
		S91.65,27.61,82.86,18.88z M79.26,80.74c-3.53,3.56-7.59,6.37-12.01,8.4c0.01-5.51,0.03-32.22-0.04-31.54
		c-0.05,0.55-0.12-3.45,4.9-3.54c3.69-0.07,4.97,2.98,5.07,3.85c0.09,0.86,0.74,3.71-1.67,4.53c0,0-0.22-2.9-2.92-2.7
		c-3.14,0.23-2.38,3.49-2.37,3.67c0.03,0.34,1.47,4.12,4.91,4.13c3.46,0.01,4.27-0.78,5.95-3.16c1.68-2.37,1.32-6.77,1-8.22
		c-0.35-1.55-2.36-5.56-6.37-6.69c-4.01-1.12-7.31-0.39-9.81,1.58s-3.89,4.14-3.83,6.5l0.12,33.53c-1.25,0.38-2.53,0.7-3.82,0.96
		l-0.01-56.36c-0.04-0.68,0.92-3.46,4.26-3.32c2.32,0.1,3.7,2.51,3.76,3.61c0.04,0.65,0.21,2.11-1.35,2.46c0,0-3.52,0.29-2.76,2.88
		c0.76,2.59,3.65,2.25,4.27,2.17c0.57-0.08,4.45-0.61,5.03-5.57c0.53-4.66-1.73-7.19-3.23-8.41c-1.51-1.22-3.8-2.62-7.75-2.06
		c-3.96,0.56-7.87,3.58-7.72,7.47l0.4,57.79l0.18,0.04c-1.04,0.08-2.1,0.14-3.15,0.14c-0.99,0-1.97-0.04-2.94-0.1l0.01-57.74
		c0.12-3.89-3.82-6.89-7.77-7.42s-6.24,0.87-7.74,2.11c-1.5,1.24-3.75,3.78-3.18,8.44c0.61,4.96,4.49,5.47,5.07,5.55
		c0.63,0.08,3.52,0.4,4.26-2.2c0.74-2.59-2.77-2.85-2.77-2.85c-1.58-0.34-1.41-1.8-1.37-2.45c0.07-1.09,1.42-3.52,3.74-3.63
		c3.33-0.17,4.31,2.62,4.27,3.29l0.35,56.23c-1.3-0.26-2.58-0.57-3.83-0.95l-0.12-33.4c0.07-2.36-1.35-4.52-3.87-6.47
		s-5.81-2.67-9.81-1.51c-4,1.15-5.99,5.18-6.33,6.73c-0.31,1.45-0.64,5.85,1.05,8.2c1.69,2.36,2.51,3.15,5.96,3.13
		c3.44-0.04,4.86-3.82,4.88-4.15c0.01-0.18,0.74-3.44-2.4-3.66c-2.7-0.18-2.9,2.72-2.9,2.72c-2.41-0.81-1.78-3.66-1.69-4.52
		s1.34-3.93,5.04-3.88c5,0.07,4.96,4.05,4.92,3.52c-0.07-0.66,0.12,25.61,0.17,31.41C19.12,82.85,9.18,68.58,9.13,51.99
		C9.05,29.36,27.41,10.88,50.04,10.8c0.05,0,0.09,0,0.14,0c10.91,0,21.19,4.23,28.94,11.93c7.77,7.74,12.08,18.02,12.12,28.99
		C91.23,62.64,86.99,72.97,79.26,80.74z"/>
</g>
</svg>
